<?xml version="1.0" encoding="utf-8"?>
<!-- Generator: Adobe Illustrator 16.0.0, SVG Export Plug-In . SVG Version: 6.00 Build 0)  -->
<!DOCTYPE svg PUBLIC "-//W3C//DTD SVG 1.1//EN" "http://www.w3.org/Graphics/SVG/1.1/DTD/svg11.dtd">
<svg version="1.1" id="レイヤー_1" xmlns="http://www.w3.org/2000/svg" xmlns:xlink="http://www.w3.org/1999/xlink" x="0px"
	 y="0px" width="157.656px" height="90.719px" viewBox="0 0 157.656 90.719" enable-background="new 0 0 157.656 90.719"
	 xml:space="preserve">
<g>
	<defs>
		<rect id="SVGID_1_" y="0" width="157.656" height="90.719"/>
	</defs>
	<clipPath id="SVGID_2_">
		<use xlink:href="#SVGID_1_"  overflow="visible"/>
	</clipPath>
	<path clip-path="url(#SVGID_2_)" fill="#343C48" d="M57.026,63.808c0,1.352-1.095,2.447-2.447,2.447
		c-1.351,0-2.446-1.096-2.446-2.447c0-1.351,1.095-2.446,2.446-2.446C55.932,61.361,57.026,62.457,57.026,63.808"/>
	
		<path clip-path="url(#SVGID_2_)" fill="none" stroke="#343C48" stroke-width="3" stroke-linecap="round" stroke-linejoin="round" stroke-miterlimit="10" d="
		M107.66,64.921c0,3.118-2.552,5.669-5.669,5.669H7.17c-3.119,0-5.67-2.551-5.67-5.669V7.169C1.5,4.051,4.051,1.5,7.17,1.5h94.821
		c3.117,0,5.669,2.551,5.669,5.669V64.921z"/>
	
		<rect x="10.175" y="10.175" clip-path="url(#SVGID_2_)" fill="none" stroke="#343C48" stroke-width="3" stroke-linecap="round" stroke-linejoin="round" stroke-miterlimit="10" width="88.81" height="46.246"/>
	
		<path clip-path="url(#SVGID_2_)" fill="none" stroke="#343C48" stroke-width="3" stroke-linecap="round" stroke-linejoin="round" stroke-miterlimit="10" d="
		M47.549,72.055c0,0,0.829,15.017-14.1,15.017"/>
	
		<path clip-path="url(#SVGID_2_)" fill="none" stroke="#343C48" stroke-width="3" stroke-linecap="round" stroke-linejoin="round" stroke-miterlimit="10" d="
		M62.708,72.055c0,0-0.829,15.017,14.1,15.017"/>
	
		<polyline clip-path="url(#SVGID_2_)" fill="none" stroke="#343C48" stroke-width="3" stroke-linecap="round" stroke-linejoin="round" stroke-miterlimit="10" points="
		32.352,87.071 54.58,87.071 76.808,87.071 	"/>
	
		<path clip-path="url(#SVGID_2_)" fill="none" stroke="#343C48" stroke-width="3" stroke-linecap="round" stroke-linejoin="round" stroke-miterlimit="10" d="
		M156.156,83.55c0,3.117-2.551,5.669-5.669,5.669h-21.651c-3.118,0-5.67-2.552-5.67-5.669V39.433c0-3.118,2.552-5.669,5.67-5.669
		h21.651c3.118,0,5.669,2.551,5.669,5.669V83.55z"/>
	<path clip-path="url(#SVGID_2_)" fill="#343C48" d="M141.643,83.944c0,1.094-0.888,1.98-1.981,1.98s-1.979-0.887-1.979-1.98
		c0-1.095,0.886-1.981,1.979-1.981S141.643,82.85,141.643,83.944"/>
	<path clip-path="url(#SVGID_2_)" fill="#343C48" d="M140.641,37.861c0,0.541-0.438,0.979-0.979,0.979
		c-0.54,0-0.978-0.438-0.978-0.979s0.438-0.979,0.978-0.979C140.202,36.882,140.641,37.32,140.641,37.861"/>
	
		<line clip-path="url(#SVGID_2_)" fill="none" stroke="#343C48" stroke-width="3" stroke-linecap="round" stroke-linejoin="round" stroke-miterlimit="10" x1="123.167" y1="78.74" x2="156.156" y2="78.74"/>
	
		<line clip-path="url(#SVGID_2_)" fill="none" stroke="#343C48" stroke-width="3" stroke-linecap="round" stroke-linejoin="round" stroke-miterlimit="10" x1="123.167" y1="41.783" x2="156.156" y2="41.783"/>
</g>
</svg>
