<?xml version="1.0" encoding="utf-8"?>
<!-- Generator: Adobe Illustrator 16.0.0, SVG Export Plug-In . SVG Version: 6.00 Build 0)  -->
<!DOCTYPE svg PUBLIC "-//W3C//DTD SVG 1.1//EN" "http://www.w3.org/Graphics/SVG/1.1/DTD/svg11.dtd">
<svg version="1.1" id="レイヤー_1" xmlns="http://www.w3.org/2000/svg" xmlns:xlink="http://www.w3.org/1999/xlink" x="0px"
	 y="0px" width="119.853px" height="86.863px" viewBox="0 0 119.853 86.863" enable-background="new 0 0 119.853 86.863"
	 xml:space="preserve">
<g>
	<defs>
		<rect id="SVGID_1_" width="119.853" height="86.863"/>
	</defs>
	<clipPath id="SVGID_2_">
		<use xlink:href="#SVGID_1_"  overflow="visible"/>
	</clipPath>
	
		<path clip-path="url(#SVGID_2_)" fill="none" stroke="#343C48" stroke-width="3.5" stroke-linecap="round" stroke-linejoin="round" stroke-miterlimit="10" d="
		M53.262,74.698c0,0,9.375-8.003,17.386-25.91C81.241,25.115,73.483,1.75,53.262,1.75c-20.221,0-27.979,23.365-17.386,47.038
		C43.888,66.695,53.262,74.698,53.262,74.698z"/>
	
		<circle clip-path="url(#SVGID_2_)" fill="none" stroke="#343C48" stroke-width="3.5" stroke-linecap="round" stroke-linejoin="round" stroke-miterlimit="10" cx="53.263" cy="24.022" r="7.093"/>
	
		<path clip-path="url(#SVGID_2_)" fill="none" stroke="#343C48" stroke-width="3.5" stroke-linecap="round" stroke-linejoin="round" stroke-miterlimit="10" d="
		M59.498,70.253c9.684,0.963,17.564,3.849,17.564,7.259c0,4.198-10.655,7.601-23.8,7.601c-13.144,0-23.8-3.402-23.8-7.601
		c0-3.41,7.878-6.294,17.558-7.258"/>
	
		<path clip-path="url(#SVGID_2_)" fill="none" stroke="#343C48" stroke-width="3.5" stroke-linecap="round" stroke-linejoin="round" stroke-miterlimit="10" d="
		M1.75,54.978c0,0,22-27.333,55.566-3.415"/>
	
		<polyline clip-path="url(#SVGID_2_)" fill="none" stroke="#343C48" stroke-width="3.5" stroke-linecap="round" stroke-linejoin="round" stroke-miterlimit="10" points="
		55.172,41.563 57.316,51.562 47.301,53.702 	"/>
	
		<path clip-path="url(#SVGID_2_)" fill="none" stroke="#343C48" stroke-width="3.5" stroke-linecap="round" stroke-linejoin="round" d="
		M65.832,45.86c0,0,0.391,0.372,1.133,0.979"/>
	
		<path clip-path="url(#SVGID_2_)" fill="none" stroke="#343C48" stroke-width="3.5" stroke-linecap="round" stroke-linejoin="round" stroke-dasharray="3.155,6.309" d="
		M72.131,50.447c8.298,4.987,23.968,10.987,42.016,0.852"/>
	
		<path clip-path="url(#SVGID_2_)" fill="none" stroke="#343C48" stroke-width="3.5" stroke-linecap="round" stroke-linejoin="round" d="
		M116.853,49.667c0.416-0.269,0.832-0.544,1.25-0.83"/>
	
		<polyline clip-path="url(#SVGID_2_)" fill="none" stroke="#343C48" stroke-width="3.5" stroke-linecap="round" stroke-linejoin="round" stroke-miterlimit="10" points="
		115.438,58.709 118.103,48.836 108.213,46.176 	"/>
</g>
</svg>
