<?xml version="1.0" encoding="utf-8"?>
<!-- Generator: Adobe Illustrator 15.0.0, SVG Export Plug-In . SVG Version: 6.00 Build 0)  -->
<!DOCTYPE svg PUBLIC "-//W3C//DTD SVG 1.1//EN" "http://www.w3.org/Graphics/SVG/1.1/DTD/svg11.dtd">
<svg version="1.1" id="レイヤー_1" xmlns="http://www.w3.org/2000/svg" xmlns:xlink="http://www.w3.org/1999/xlink" x="0px"
	 y="0px" width="220.787px" height="167.92px" viewBox="0 0 220.787 167.92" enable-background="new 0 0 220.787 167.92"
	 xml:space="preserve">
<rect x="0.89" y="146.189" fill="#C0A288" width="219.009" height="21.73"/>
<rect x="0.89" y="122.687" fill="#C1C1C1" width="219.009" height="23.503"/>
<g>
	<defs>
		<rect id="SVGID_1_" width="220.787" height="167.92"/>
	</defs>
	<clipPath id="SVGID_2_">
		<use xlink:href="#SVGID_1_"  overflow="visible"/>
	</clipPath>
	<path clip-path="url(#SVGID_2_)" d="M0.889,121.907c-0.49,0-0.889,0.397-0.889,0.89s0.399,0.891,0.889,0.891h219.009
		c0.489,0,0.889-0.398,0.889-0.891s-0.399-0.89-0.889-0.89H0.889z"/>
	<path clip-path="url(#SVGID_2_)" d="M0.889,145.298c-0.49,0-0.889,0.399-0.889,0.892c0,0.49,0.399,0.889,0.889,0.889h219.009
		c0.489,0,0.889-0.398,0.889-0.889c0-0.492-0.399-0.892-0.889-0.892H0.889z"/>
</g>
<g>
	<defs>
		<rect id="SVGID_3_" x="38.879" y="33.72" width="20.404" height="99.113"/>
	</defs>
	<clipPath id="SVGID_4_">
		<use xlink:href="#SVGID_3_"  overflow="visible"/>
	</clipPath>
	<path clip-path="url(#SVGID_4_)" fill="#898989" d="M38.878,33.721v97.59c0,0,0.817,1.522,2.561,1.522
		c1.741,0,2.939-1.522,2.939-1.522V44.434h9.406v86.877c0,0,0.627,1.522,2.593,1.522c1.967,0,2.907-1.522,2.907-1.522v-97.59H38.878
		z"/>
</g>
<g>
	<defs>
		<rect id="SVGID_5_" width="220.787" height="167.92"/>
	</defs>
	<clipPath id="SVGID_6_">
		<use xlink:href="#SVGID_5_"  overflow="visible"/>
	</clipPath>
	<path clip-path="url(#SVGID_6_)" d="M38.878,32.832c-0.492,0-0.891,0.398-0.891,0.889v97.59c0,0.146,0.037,0.289,0.107,0.42
		c0.044,0.081,1.094,1.992,3.343,1.992c2.151,0,3.58-1.787,3.641-1.863c0.122-0.156,0.19-0.349,0.19-0.549V45.323h7.627v85.988
		c0,0.115,0.022,0.231,0.067,0.34c0.033,0.082,0.881,2.072,3.415,2.072c2.437,0,3.616-1.866,3.663-1.946
		c0.088-0.14,0.133-0.301,0.133-0.466v-97.59c0-0.491-0.398-0.889-0.891-0.889H38.878z M58.394,34.612v96.4
		c-0.264,0.312-0.922,0.933-2.016,0.933c-1.089,0-1.551-0.604-1.702-0.862V44.434c0-0.493-0.401-0.89-0.891-0.89h-9.405
		c-0.493,0-0.892,0.397-0.892,0.89v86.528c-0.34,0.34-1.104,0.982-2.05,0.982c-0.909,0-1.456-0.605-1.669-0.899V34.612H58.394z"/>
</g>
<rect x="25.839" y="107.929" fill="#898989" width="8.167" height="35.959"/>
<g>
	<defs>
		<rect id="SVGID_7_" width="220.787" height="167.92"/>
	</defs>
	<clipPath id="SVGID_8_">
		<use xlink:href="#SVGID_7_"  overflow="visible"/>
	</clipPath>
	<path clip-path="url(#SVGID_8_)" d="M25.837,107.038c-0.49,0-0.889,0.4-0.889,0.892v35.958c0,0.49,0.399,0.89,0.889,0.89h8.17
		c0.49,0,0.889-0.399,0.889-0.89V107.93c0-0.491-0.399-0.892-0.889-0.892H25.837z M33.116,142.997h-6.387v-34.178h6.387V142.997z"/>
</g>
<polygon fill="#CBCCCC" points="30.713,99.455 25.838,107.929 34.005,107.929 38.877,99.457 38.877,99.455 "/>
<g>
	<defs>
		<rect id="SVGID_9_" width="220.787" height="167.92"/>
	</defs>
	<clipPath id="SVGID_10_">
		<use xlink:href="#SVGID_9_"  overflow="visible"/>
	</clipPath>
	<path clip-path="url(#SVGID_10_)" d="M30.713,98.564c-0.318,0-0.612,0.17-0.771,0.445l-4.875,8.478
		c-0.159,0.274-0.157,0.613,0,0.889c0.159,0.273,0.453,0.443,0.771,0.443h8.168c0.318,0,0.612-0.17,0.771-0.445l4.873-8.477
		c0.159-0.274,0.159-0.614,0-0.89c-0.159-0.273-0.453-0.443-0.772-0.443H30.713z M37.34,100.344
		c-1.022,1.774-3.465,6.028-3.848,6.694h-6.115c1.022-1.776,3.467-6.025,3.85-6.694H37.34z"/>
</g>
<polygon fill="#595757" points="34.006,107.928 34.006,143.885 38.877,128.706 38.877,99.456 "/>
<g>
	<defs>
		<rect id="SVGID_11_" width="220.787" height="167.92"/>
	</defs>
	<clipPath id="SVGID_12_">
		<use xlink:href="#SVGID_11_"  overflow="visible"/>
	</clipPath>
	<path clip-path="url(#SVGID_12_)" d="M38.107,99.009l-4.873,8.478c-0.078,0.135-0.118,0.288-0.118,0.443v35.958
		c0,0.438,0.319,0.811,0.752,0.88c0.434,0.067,0.852-0.191,0.985-0.607l4.873-15.185c0.028-0.087,0.043-0.18,0.043-0.272V99.454
		c0-0.403-0.27-0.756-0.662-0.861C38.719,98.491,38.309,98.661,38.107,99.009 M37.989,102.788v25.777
		c-0.054,0.166-1.674,5.213-3.092,9.635v-30.034C35.043,107.913,36.599,105.205,37.989,102.788"/>
	<path clip-path="url(#SVGID_12_)" d="M41.722,33.721v10.713c0,0.49,0.399,0.889,0.889,0.889h1.767c0.493,0,0.892-0.399,0.892-0.889
		c0-0.493-0.399-0.891-0.892-0.891h-0.876v-9.822c0-0.49-0.398-0.889-0.891-0.889C42.121,32.832,41.722,33.231,41.722,33.721"/>
	<path clip-path="url(#SVGID_12_)" d="M54.661,33.721v9.822h-0.876c-0.492,0-0.891,0.398-0.891,0.891
		c0,0.49,0.399,0.889,0.891,0.889h1.765c0.493,0,0.891-0.399,0.891-0.889V33.721c0-0.49-0.398-0.889-0.891-0.889
		C55.06,32.832,54.661,33.231,54.661,33.721"/>
</g>
<g>
	<defs>
		<rect id="SVGID_13_" x="174.903" y="33.72" width="20.403" height="99.124"/>
	</defs>
	<clipPath id="SVGID_14_">
		<use xlink:href="#SVGID_13_"  overflow="visible"/>
	</clipPath>
	<path clip-path="url(#SVGID_14_)" fill="#898989" d="M174.902,33.721v97.59h5.5V44.434h9.403v86.877c0,0,0.905,1.531,2.84,1.531
		c1.931,0,2.661-1.531,2.661-1.531v-97.59H174.902z"/>
</g>
<g>
	<defs>
		<rect id="SVGID_15_" width="220.787" height="167.92"/>
	</defs>
	<clipPath id="SVGID_16_">
		<use xlink:href="#SVGID_15_"  overflow="visible"/>
	</clipPath>
	<path clip-path="url(#SVGID_16_)" d="M174.901,32.832c-0.492,0-0.891,0.398-0.891,0.889v97.59c0,0.492,0.398,0.89,0.891,0.89h5.501
		c0.49,0,0.889-0.397,0.889-0.89V45.323h7.625v85.988c0,0.159,0.044,0.313,0.122,0.451c0.049,0.08,1.19,1.974,3.606,1.974
		c2.467,0,3.426-1.961,3.467-2.044c0.058-0.12,0.085-0.251,0.085-0.381v-97.59c0-0.491-0.397-0.889-0.891-0.889H174.901z
		 M194.416,34.612v96.45c-0.187,0.275-0.715,0.892-1.771,0.892c-1.07,0-1.702-0.623-1.948-0.931V44.434
		c0-0.493-0.398-0.89-0.891-0.89h-9.403c-0.493,0-0.892,0.397-0.892,0.89v85.987h-3.72V34.612H194.416z"/>
</g>
<rect x="172.907" y="107.929" fill="#898989" width="8.166" height="35.959"/>
<g>
	<defs>
		<rect id="SVGID_17_" width="220.787" height="167.92"/>
	</defs>
	<clipPath id="SVGID_18_">
		<use xlink:href="#SVGID_17_"  overflow="visible"/>
	</clipPath>
	<path clip-path="url(#SVGID_18_)" d="M172.907,107.038c-0.492,0-0.892,0.4-0.892,0.892v35.958c0,0.49,0.399,0.89,0.892,0.89h8.165
		c0.493,0,0.892-0.399,0.892-0.89V107.93c0-0.491-0.398-0.892-0.892-0.892H172.907z M180.183,142.997h-6.387v-34.178h6.387V142.997z
		"/>
</g>
<polygon fill="#CBCCCC" points="166.735,99.455 172.906,107.929 181.073,107.929 174.901,99.455 "/>
<g>
	<defs>
		<rect id="SVGID_19_" width="220.787" height="167.92"/>
	</defs>
	<clipPath id="SVGID_20_">
		<use xlink:href="#SVGID_19_"  overflow="visible"/>
	</clipPath>
	<path clip-path="url(#SVGID_20_)" d="M166.736,98.564c-0.336,0-0.641,0.188-0.793,0.485c-0.153,0.301-0.124,0.658,0.072,0.929
		l6.171,8.475c0.168,0.231,0.434,0.366,0.719,0.366h8.168c0.335,0,0.641-0.188,0.793-0.486c0.152-0.299,0.124-0.656-0.074-0.929
		l-6.172-8.475c-0.167-0.23-0.433-0.365-0.719-0.365H166.736z M174.448,100.344c0.403,0.554,3.522,4.833,4.875,6.694h-5.965
		c-0.4-0.553-3.519-4.833-4.872-6.694H174.448z"/>
</g>
<polygon fill="#595757" points="166.735,128.705 172.906,143.889 172.906,107.93 166.735,99.455 "/>
<g>
	<defs>
		<rect id="SVGID_21_" width="220.787" height="167.92"/>
	</defs>
	<clipPath id="SVGID_22_">
		<use xlink:href="#SVGID_21_"  overflow="visible"/>
	</clipPath>
	<path clip-path="url(#SVGID_22_)" d="M166.461,98.606c-0.366,0.12-0.614,0.462-0.614,0.848v29.249c0,0.115,0.021,0.231,0.064,0.336
		l6.169,15.185c0.162,0.394,0.578,0.619,0.996,0.538c0.418-0.083,0.72-0.449,0.72-0.874V107.93c0-0.188-0.06-0.371-0.171-0.525
		l-6.169-8.475C167.228,98.617,166.828,98.487,166.461,98.606 M167.627,102.189c1.692,2.325,4.153,5.705,4.389,6.03v31.113
		c-1.761-4.337-4.297-10.575-4.389-10.804V102.189z"/>
	<path clip-path="url(#SVGID_22_)" d="M177.745,33.721v10.713c0,0.49,0.397,0.889,0.89,0.889h1.767c0.493,0,0.892-0.399,0.892-0.889
		c0-0.493-0.398-0.891-0.892-0.891h-0.876v-9.822c0-0.49-0.398-0.889-0.891-0.889S177.745,33.231,177.745,33.721"/>
	<path clip-path="url(#SVGID_22_)" d="M190.684,33.721v9.822h-0.878c-0.49,0-0.89,0.398-0.89,0.891c0,0.49,0.399,0.889,0.89,0.889
		h1.769c0.491,0,0.89-0.399,0.89-0.889V33.721c0-0.49-0.398-0.889-0.89-0.889C191.082,32.832,190.684,33.231,190.684,33.721"/>
</g>
<g>
	<defs>
		<rect id="SVGID_23_" x="191.768" y="104.952" width="7.17" height="33.294"/>
	</defs>
	<clipPath id="SVGID_24_">
		<use xlink:href="#SVGID_23_"  overflow="visible"/>
	</clipPath>
	<path clip-path="url(#SVGID_24_)" fill="#FFFFFF" d="M198.679,136.977c0.104-2.115,0.259-5.801,0.259-10.05
		c-0.008-6.903-1.072-15.886-4.556-21.022c-0.21-0.704-0.953-1.107-1.661-0.896c-0.706,0.209-1.107,0.954-0.896,1.662
		c3.391,5.211,4.447,13.477,4.441,20.256c0,4.188-0.148,7.829-0.257,9.917c-0.035,0.739,0.532,1.364,1.27,1.401h0.063
		C198.051,138.245,198.644,137.692,198.679,136.977"/>
</g>
<g>
	<defs>
		<rect id="SVGID_25_" width="220.787" height="167.92"/>
	</defs>
	<clipPath id="SVGID_26_">
		<use xlink:href="#SVGID_25_"  overflow="visible"/>
	</clipPath>
	<path clip-path="url(#SVGID_26_)" d="M192.467,104.156c-0.568,0.168-1.037,0.549-1.32,1.071c-0.284,0.523-0.345,1.128-0.175,1.698
		l0.037,0.122l0.069,0.109c3.891,5.977,4.303,15.815,4.297,19.767l-0.254,9.874c-0.059,1.228,0.89,2.273,2.113,2.336h0.002
		c1.301,0,2.275-0.929,2.33-2.113c0-0.003,0.261-10.095,0.261-10.095c-0.006-4.391-0.475-15.277-4.709-21.521l0.116,0.246
		c-0.168-0.569-0.549-1.04-1.072-1.321C193.64,104.047,193.037,103.984,192.467,104.156 M192.66,106.287
		c0-0.096,0.031-0.17,0.053-0.214c0.032-0.059,0.108-0.165,0.26-0.211c0.157-0.048,0.283,0.002,0.342,0.033
		c0.061,0.034,0.17,0.11,0.216,0.263l0.037,0.133l0.078,0.114c2.746,4.049,4.391,11.719,4.402,20.521l-0.26,10.009
		c-0.011,0.238-0.204,0.422-0.444,0.422c-0.257-0.014-0.447-0.213-0.447-0.447c0-0.009,0.26-10.021,0.26-10.037
		c0-5.074-0.597-14.376-4.484-20.506C192.668,106.339,192.66,106.311,192.66,106.287 M199.566,137.021l0.002-0.01
		C199.568,137.011,199.568,137.018,199.566,137.021 M199.566,137.021v0.002V137.021z"/>
</g>
<g>
	<defs>
		<rect id="SVGID_27_" x="99.668" y="33.72" width="20.403" height="99.389"/>
	</defs>
	<clipPath id="SVGID_28_">
		<use xlink:href="#SVGID_27_"  overflow="visible"/>
	</clipPath>
	<path clip-path="url(#SVGID_28_)" fill="#898989" d="M99.667,33.721v97.59c0,0,0.863,1.795,2.778,1.795
		c1.918,0,2.72-1.795,2.72-1.795V44.434h9.407v86.877c0,0,0.578,1.795,2.814,1.795s2.687-1.795,2.687-1.795v-97.59H99.667z"/>
</g>
<g>
	<defs>
		<rect id="SVGID_29_" width="220.787" height="167.92"/>
	</defs>
	<clipPath id="SVGID_30_">
		<use xlink:href="#SVGID_29_"  overflow="visible"/>
	</clipPath>
	<path clip-path="url(#SVGID_30_)" d="M99.667,32.832c-0.492,0-0.891,0.398-0.891,0.889v97.59c0,0.132,0.031,0.266,0.087,0.385
		c0.046,0.095,1.136,2.302,3.583,2.302c2.467,0,3.491-2.229,3.532-2.325c0.05-0.113,0.077-0.237,0.077-0.361V45.323h7.627v85.988
		c0,0.091,0.015,0.184,0.041,0.272c0.033,0.098,0.811,2.414,3.661,2.414c2.318,0,3.336-1.616,3.55-2.472
		c0.02-0.068,0.028-0.143,0.028-0.215v-97.59c0-0.491-0.398-0.889-0.892-0.889H99.667z M119.182,34.612v96.542
		c-0.092,0.266-0.469,1.063-1.798,1.063c-1.35,0-1.81-0.83-1.922-1.094V44.434c0-0.493-0.399-0.89-0.892-0.89h-9.405
		c-0.493,0-0.89,0.397-0.89,0.89v86.648c-0.174,0.307-0.738,1.135-1.83,1.135c-1.094,0-1.695-0.828-1.889-1.146V34.612H119.182z"/>
</g>
<rect x="91.413" y="107.929" fill="#898989" width="8.167" height="35.959"/>
<g>
	<defs>
		<rect id="SVGID_31_" width="220.787" height="167.92"/>
	</defs>
	<clipPath id="SVGID_32_">
		<use xlink:href="#SVGID_31_"  overflow="visible"/>
	</clipPath>
	<path clip-path="url(#SVGID_32_)" d="M91.413,107.038c-0.491,0-0.889,0.4-0.889,0.892v35.958c0,0.49,0.398,0.89,0.889,0.89h8.167
		c0.493,0,0.892-0.399,0.892-0.89V107.93c0-0.491-0.399-0.892-0.892-0.892H91.413z M98.691,142.997h-6.387v-34.178h6.387V142.997z"
		/>
</g>
<polygon fill="#CBCCCC" points="91.5,99.455 91.413,107.929 99.58,107.929 99.667,99.455 "/>
<g>
	<defs>
		<rect id="SVGID_33_" width="220.787" height="167.92"/>
	</defs>
	<clipPath id="SVGID_34_">
		<use xlink:href="#SVGID_33_"  overflow="visible"/>
	</clipPath>
	<path clip-path="url(#SVGID_34_)" d="M91.5,98.564c-0.489,0-0.887,0.394-0.892,0.88l-0.085,8.477
		c-0.002,0.237,0.09,0.466,0.257,0.634c0.168,0.171,0.395,0.265,0.632,0.265h8.168c0.488,0,0.885-0.393,0.891-0.881l0.085-8.475
		c0.002-0.237-0.089-0.467-0.257-0.637c-0.166-0.168-0.394-0.263-0.632-0.263H91.5z M98.767,100.344
		c-0.013,1.271-0.054,5.448-0.067,6.694h-6.388c0.013-1.268,0.055-5.445,0.068-6.694H98.767z"/>
	<path clip-path="url(#SVGID_34_)" d="M102.502,33.721v10.713c0,0.494,0.401,0.895,0.896,0.895h1.767
		c0.497,0,0.898-0.401,0.898-0.895c0-0.495-0.401-0.898-0.898-0.898h-0.872v-9.815c0-0.495-0.401-0.896-0.895-0.896
		C102.903,32.825,102.502,33.226,102.502,33.721"/>
	<path clip-path="url(#SVGID_34_)" d="M115.448,33.721v9.822h-0.878c-0.489,0-0.889,0.398-0.889,0.891
		c0,0.49,0.399,0.889,0.889,0.889h1.768c0.493,0,0.891-0.399,0.891-0.889V33.721c0-0.49-0.397-0.889-0.891-0.889
		C115.848,32.832,115.448,33.231,115.448,33.721"/>
</g>
<g>
	<defs>
		<rect id="SVGID_35_" x="102.324" y="89.805" width="8.008" height="4.592"/>
	</defs>
	<clipPath id="SVGID_36_">
		<use xlink:href="#SVGID_35_"  overflow="visible"/>
	</clipPath>
	<path clip-path="url(#SVGID_36_)" fill="#FFFFFF" d="M105.448,89.807c-2.622,0-3.125,4.55-3.125,4.55l6.559,0.039l1.449-4.582
		L105.448,89.807z"/>
</g>
<g>
	<defs>
		<rect id="SVGID_37_" width="220.787" height="167.92"/>
	</defs>
	<clipPath id="SVGID_38_">
		<use xlink:href="#SVGID_37_"  overflow="visible"/>
	</clipPath>
	<path clip-path="url(#SVGID_38_)" d="M105.448,88.916c-2.7,0-3.79,3.358-4.012,5.343c-0.028,0.251,0.055,0.501,0.222,0.689
		c0.166,0.189,0.406,0.298,0.658,0.298l6.56,0.041c0.39,0.003,0.736-0.25,0.854-0.623l1.451-4.582
		c0.085-0.271,0.037-0.566-0.13-0.796c-0.166-0.229-0.434-0.364-0.717-0.364L105.448,88.916z M105.448,90.696L105.448,90.696
		c0,0,2.297,0.002,3.67,0.004c-0.336,1.057-0.678,2.142-0.887,2.803c-0.872-0.005-3.522-0.021-4.838-0.03
		C103.689,92.276,104.33,90.696,105.448,90.696"/>
	<path clip-path="url(#SVGID_38_)" fill="#595757" d="M109.54,89.771c-3.774,0-7.614,11.293-7.614,25.22
		c0,13.925,2.948,25.163,6.718,25.202c0.907,0.009,2.153,0.135,2.873-0.503c3.61-3.193,4.847-14.26,4.847-25.876
		C116.363,99.892,113.303,89.771,109.54,89.771 M108.982,133.66c-1.445,0-2.347-8.237-2.347-19.242
		c0-10.51,1.517-17.733,2.962-17.733c1.444,0,2.002,6.729,2.002,17.733S110.427,133.66,108.982,133.66"/>
	<path clip-path="url(#SVGID_38_)" d="M101.036,114.99c0,12.929,2.613,26.041,7.598,26.094l0.351,0.006
		c0.942,0.024,2.234,0.056,3.125-0.733c4.252-3.762,5.144-16.51,5.144-26.54c0-12.011-2.412-24.935-7.712-24.935
		C104.932,88.882,101.036,100.839,101.036,114.99 M109.028,139.31l-0.375-0.007c-2.761-0.027-5.836-10.019-5.836-24.313
		c0-14.624,4.047-24.328,6.723-24.328c2.486,0,5.932,8.046,5.932,23.154c0,13.465-1.656,22.651-4.546,25.206
		C110.563,139.349,109.71,139.327,109.028,139.31"/>
	<path clip-path="url(#SVGID_38_)" d="M105.746,114.419c0,20.131,2.436,20.131,3.236,20.131c3.166,0,3.508-14.08,3.508-20.131
		c0-17.222-1.31-18.623-2.892-18.623C105.855,95.796,105.746,112.512,105.746,114.419 M107.526,114.419
		c0-9.617,1.235-15.171,2.038-16.557c0.42,0.965,1.146,4.368,1.146,16.557c0,10.345-1.005,16.263-1.717,17.963
		C108.341,130.71,107.526,125.103,107.526,114.419"/>
	<path clip-path="url(#SVGID_38_)" fill="#FFFFFF" d="M107.437,89.772c-3.045,0-5.509,11.292-5.509,25.219
		c0,13.925,2.464,25.218,5.509,25.218c3.044,0,5.511-9.188,5.511-25.218C112.947,101.064,110.48,89.772,107.437,89.772
		 M107.452,136.709c-1.99-0.662-3.24-11.286-3.24-22.291s1.78-19.933,3.225-19.933c1.442,0,2.615,9.442,2.615,20.444
		C110.052,125.938,108.823,137.165,107.452,136.709"/>
	<path clip-path="url(#SVGID_38_)" d="M101.037,114.991c0,10.495,1.704,26.105,6.4,26.105c4.72,0,6.402-13.483,6.402-26.105
		c0-10.495-1.704-26.109-6.402-26.109C102.741,88.882,101.037,104.496,101.037,114.991 M102.817,114.991
		c0-15.973,3.007-24.328,4.62-24.328c1.612,0,4.622,8.355,4.622,24.328c0,18.381-3.114,24.328-4.622,24.328
		C105.824,139.319,102.817,130.964,102.817,114.991"/>
	<path clip-path="url(#SVGID_38_)" d="M103.323,114.418c0,2.237,0.109,21.892,3.848,23.136c0.357,0.118,0.743,0.055,1.059-0.174
		c2.214-1.595,2.713-17.133,2.713-22.448c0-5.005-0.252-21.336-3.506-21.336C104.079,93.596,103.323,109.018,103.323,114.418
		 M105.101,114.418L105.101,114.418c0-9.841,1.377-16.782,2.297-18.639c0.797,1.929,1.765,8.949,1.765,19.152
		c0,10.081-0.976,18.207-1.759,20.458C106.361,133.464,105.101,125.885,105.101,114.418"/>
</g>
<polygon fill="#FFFFFF" points="110.843,55.009 107.874,89.984 107.874,89.996 111.711,89.996 114.677,55.03 114.677,55.009 "/>
<g>
	<defs>
		<rect id="SVGID_39_" width="220.787" height="167.92"/>
	</defs>
	<clipPath id="SVGID_40_">
		<use xlink:href="#SVGID_39_"  overflow="visible"/>
	</clipPath>
	<path clip-path="url(#SVGID_40_)" d="M110.844,54.119c-0.465,0-0.851,0.353-0.889,0.815l-2.968,34.986
		c-0.022,0.249,0.063,0.495,0.231,0.678c0.168,0.184,0.408,0.288,0.656,0.288h3.837c0.463,0,0.848-0.355,0.888-0.815l2.968-34.986
		c0.019-0.249-0.064-0.493-0.234-0.678c-0.167-0.183-0.404-0.287-0.652-0.287H110.844z M113.709,55.899
		c-0.149,1.783-2.687,31.694-2.814,33.206h-2.051c0.15-1.781,2.689-31.694,2.818-33.206H113.709z"/>
</g>
<g>
	<defs>
		<rect id="SVGID_41_" x="105.743" y="89.572" width="11.885" height="21.542"/>
	</defs>
	<clipPath id="SVGID_42_">
		<use xlink:href="#SVGID_41_"  overflow="visible"/>
	</clipPath>
	<path clip-path="url(#SVGID_42_)" fill="#FFFFFF" d="M110.612,89.713l-4.871,0.094c0,0,2.463,1.05,3.668,3.938
		c2.924,7.029,2.924,17.368,2.924,17.368l5.25-0.214c0,0,0.561-8.576-2.31-16.093C112.764,88.24,110.612,89.713,110.612,89.713"/>
</g>
<g>
	<defs>
		<rect id="SVGID_43_" width="220.787" height="167.92"/>
	</defs>
	<clipPath id="SVGID_44_">
		<use xlink:href="#SVGID_43_"  overflow="visible"/>
	</clipPath>
	<path clip-path="url(#SVGID_44_)" d="M110.413,88.827c-0.333,0.004-4.687,0.089-4.687,0.089c-0.421,0.009-0.774,0.308-0.854,0.717
		c-0.013,0.059-0.018,0.118-0.018,0.172c0,0.349,0.207,0.676,0.536,0.82c0.02,0.008,2.158,0.967,3.195,3.462
		c2.822,6.777,2.857,16.924,2.857,17.025c0,0.242,0.101,0.476,0.274,0.644c0.177,0.166,0.412,0.257,0.653,0.246l5.25-0.213
		c0.455-0.019,0.821-0.377,0.853-0.83c0.023-0.36,0.54-8.861-2.367-16.474c-1.261-3.301-2.674-5.215-4.195-5.688
		C111.23,88.583,110.724,88.701,110.413,88.827 M110.63,90.603c0.119-0.002,0.322-0.076,0.431-0.122
		c0.016-0.009,0.149-0.061,0.408,0.046c0.434,0.182,1.595,0.989,2.975,4.597c2.016,5.279,2.292,11.177,2.292,14.014
		c0,0.383-0.009,0.645-0.015,0.909c-0.934,0.037-2.508,0.1-3.516,0.141c-0.067-2.663-0.477-10.78-2.975-16.784
		c-0.51-1.224-1.216-2.073-1.907-2.754C109.475,90.625,110.63,90.603,110.63,90.603"/>
</g>
<rect x="95.88" y="53.935" fill="#FFFFFF" width="33.767" height="4.181"/>
<g>
	<defs>
		<rect id="SVGID_45_" width="220.787" height="167.92"/>
	</defs>
	<clipPath id="SVGID_46_">
		<use xlink:href="#SVGID_45_"  overflow="visible"/>
	</clipPath>
	<path clip-path="url(#SVGID_46_)" d="M95.88,53.047c-0.492,0-0.891,0.399-0.891,0.889v4.18c0,0.492,0.399,0.891,0.891,0.891h33.767
		c0.49,0,0.889-0.399,0.889-0.891v-4.18c0-0.49-0.398-0.889-0.889-0.889H95.88z M128.755,57.227H96.769v-2.399h31.986V57.227z"/>
</g>
<g>
	<defs>
		<rect id="SVGID_47_" x="109.993" y="86.101" width="11.483" height="23.098"/>
	</defs>
	<clipPath id="SVGID_48_">
		<use xlink:href="#SVGID_47_"  overflow="visible"/>
	</clipPath>
	<path clip-path="url(#SVGID_48_)" fill="#FFFFFF" d="M120.536,109.198l-10.181-20.253c0,0-0.993-1.67,0.307-2.515
		c1.554-1.012,2.221,0.632,2.221,0.632l8.594,15.559L120.536,109.198z"/>
</g>
<g>
	<defs>
		<rect id="SVGID_49_" width="220.787" height="167.92"/>
	</defs>
	<clipPath id="SVGID_50_">
		<use xlink:href="#SVGID_49_"  overflow="visible"/>
	</clipPath>
	<path clip-path="url(#SVGID_50_)" d="M110.178,85.685c-1.593,1.039-1.083,2.883-0.588,3.715l10.15,20.199
		c0.175,0.346,0.556,0.54,0.939,0.477c0.384-0.061,0.683-0.366,0.738-0.752l0.942-6.576c0.026-0.191-0.009-0.39-0.104-0.556
		l-8.595-15.559c0.003-0.017-0.429-1.013-1.438-1.327C111.774,85.161,111.054,85.113,110.178,85.685 M111.149,88.546
		c-0.052-0.095-0.267-0.482-0.267-0.844c0-0.203,0.068-0.395,0.267-0.524c0.131-0.088,0.377-0.224,0.538-0.176
		c0.17,0.051,0.327,0.3,0.373,0.405c0,0,8.213,14.878,8.492,15.383c-0.041,0.298-0.254,1.772-0.497,3.473
		C118.105,102.382,111.149,88.546,111.149,88.546"/>
	<path clip-path="url(#SVGID_50_)" d="M111.73,79.68c-0.325,0.129-0.547,0.436-0.562,0.784l-0.269,5.612
		c-0.011,0.172,0.032,0.344,0.122,0.493l9.486,16.14c0.19,0.329,0.573,0.497,0.948,0.421c0.372-0.076,0.654-0.383,0.7-0.761
		l1.437-11.364c0.033-0.277-0.063-0.553-0.263-0.747l-10.652-10.386C112.428,79.625,112.056,79.551,111.73,79.68 M112.851,82.526
		c2.057,2.005,8.405,8.194,8.919,8.695c-0.076,0.621-0.68,5.4-1.05,8.335c-1.929-3.279-7.806-13.277-8.03-13.659
		C112.705,85.592,112.776,84.062,112.851,82.526"/>
</g>
<g>
	<defs>
		<rect id="SVGID_51_" x="110.049" y="78.078" width="13.253" height="13.678"/>
	</defs>
	<clipPath id="SVGID_52_">
		<use xlink:href="#SVGID_51_"  overflow="visible"/>
	</clipPath>
	<path clip-path="url(#SVGID_52_)" fill="#FFFFFF" d="M122.575,91.755L110.74,81.203c0,0-1.329-1.353-0.3-2.477
		c1.489-1.622,2.864,0.307,2.864,0.307l9.998,8.03L122.575,91.755z"/>
</g>
<g>
	<defs>
		<rect id="SVGID_53_" width="220.787" height="167.92"/>
	</defs>
	<clipPath id="SVGID_54_">
		<use xlink:href="#SVGID_53_"  overflow="visible"/>
	</clipPath>
	<path clip-path="url(#SVGID_54_)" d="M109.785,78.126c-1.266,1.379-0.343,3.024,0.322,3.7l11.877,10.593
		c0.244,0.218,0.586,0.283,0.894,0.174c0.307-0.108,0.529-0.379,0.58-0.702l0.725-4.69c0.009-0.046,0.011-0.092,0.011-0.138
		c0-0.266-0.12-0.523-0.333-0.693c0,0-9.796-7.869-9.931-7.975c-0.235-0.301-0.979-1.136-2.089-1.203
		C111.32,77.158,110.545,77.295,109.785,78.126 M111.334,80.538c-0.022-0.026-0.389-0.425-0.389-0.824
		c0-0.133,0.042-0.266,0.15-0.385c0.229-0.251,0.443-0.373,0.63-0.362c0.336,0.019,0.722,0.403,0.857,0.586
		c0.045,0.063,0.104,0.124,0.162,0.174c0,0,8.861,7.115,9.6,7.708c-0.078,0.497-0.22,1.408-0.398,2.567
		C119.982,88.25,111.334,80.538,111.334,80.538"/>
</g>
<polygon fill="#595757" points="119.682,85.789 117.581,105.923 121.416,105.923 123.516,85.798 123.516,85.789 "/>
<g>
	<defs>
		<rect id="SVGID_55_" width="220.787" height="167.92"/>
	</defs>
	<clipPath id="SVGID_56_">
		<use xlink:href="#SVGID_55_"  overflow="visible"/>
	</clipPath>
	<path clip-path="url(#SVGID_56_)" d="M119.683,84.899c-0.454,0-0.839,0.344-0.887,0.797l-2.101,20.133
		c-0.024,0.253,0.057,0.502,0.225,0.689c0.168,0.187,0.407,0.294,0.66,0.294h3.838c0.453,0,0.836-0.345,0.884-0.797l2.102-20.135
		c0.025-0.25-0.058-0.501-0.225-0.688c-0.17-0.188-0.409-0.294-0.663-0.294H119.683z M122.529,86.68
		c-0.18,1.703-1.768,16.955-1.913,18.353h-2.047c0.177-1.704,1.77-16.956,1.916-18.353H122.529z"/>
</g>
<g>
	<defs>
		<rect id="SVGID_57_" x="113.01" y="76.053" width="22.336" height="12.552"/>
	</defs>
	<clipPath id="SVGID_58_">
		<use xlink:href="#SVGID_57_"  overflow="visible"/>
	</clipPath>
	<path clip-path="url(#SVGID_58_)" fill="#FFFFFF" d="M135.346,85.95c0.008-2.258-0.176-5.184-1.146-5.487
		c-6.427-1.998-14.819-4.411-18.029-4.411c-2.338,0-3.159,1.016-3.159,2.805v4.968c0,0,1.203,1.12,2.934,3.003
		c1.733,1.886,4.676,1.774,4.676,1.774h12.581C133.202,88.603,135.342,87.417,135.346,85.95"/>
</g>
<g>
	<defs>
		<rect id="SVGID_59_" width="220.787" height="167.92"/>
	</defs>
	<clipPath id="SVGID_60_">
		<use xlink:href="#SVGID_59_"  overflow="visible"/>
	</clipPath>
	<path clip-path="url(#SVGID_60_)" d="M112.121,78.857v4.968c0,0.234,0.122,0.486,0.283,0.652l2.885,2.955
		c1.992,2.162,5.229,2.066,5.365,2.06l12.548,0.002c0.149,0,0.298-0.039,0.431-0.113c0.266-0.146,2.598-1.495,2.603-3.426
		c0.018-5.094-0.888-6.064-1.771-6.341c-9.499-2.953-15.653-4.45-18.292-4.45C112.822,75.163,112.121,77.17,112.121,78.857
		 M113.901,78.857c0-1.242,0.363-1.916,2.271-1.916c1.691,0,6.146,0.759,17.758,4.372c-0.002,0-0.002,0-0.002,0.002
		c0,0.05,0.529,0.824,0.529,4.509v0.124c-0.004,0.588-0.854,1.349-1.52,1.765h-12.315c-0.058,0-2.594,0.063-4.021-1.486
		c0,0-1.972-2.018-2.699-2.763V78.857z"/>
</g>
<g>
	<defs>
		<rect id="SVGID_61_" x="116.014" y="102.836" width="8.009" height="4.592"/>
	</defs>
	<clipPath id="SVGID_62_">
		<use xlink:href="#SVGID_61_"  overflow="visible"/>
	</clipPath>
	<path clip-path="url(#SVGID_62_)" fill="#FFFFFF" d="M119.139,102.837c-2.619,1.083-3.127,4.552-3.127,4.552l6.563,0.04
		l1.447-4.585L119.139,102.837z"/>
</g>
<g>
	<defs>
		<rect id="SVGID_63_" width="220.787" height="167.92"/>
	</defs>
	<clipPath id="SVGID_64_">
		<use xlink:href="#SVGID_63_"  overflow="visible"/>
	</clipPath>
	<path clip-path="url(#SVGID_64_)" d="M118.798,102.015c-3.054,1.261-3.644,5.084-3.665,5.248c-0.037,0.252,0.036,0.513,0.204,0.708
		c0.169,0.194,0.412,0.308,0.672,0.31l6.562,0.039c0.387,0.003,0.734-0.25,0.853-0.623l1.448-4.583
		c0.085-0.272,0.037-0.564-0.131-0.795c-0.166-0.228-0.434-0.364-0.717-0.364l-4.883-0.006
		C119.022,101.945,118.906,101.969,118.798,102.015 M119.389,103.728c0.331,0,2.142,0.002,3.419,0.004
		c-0.333,1.058-0.675,2.143-0.885,2.804c-0.853-0.007-3.352-0.021-4.737-0.029C117.494,105.58,118.122,104.31,119.389,103.728"/>
	<path clip-path="url(#SVGID_64_)" fill="#595757" d="M122.97,103.925c-5.91,0-10.194,12.853-10.194,28.713
		c0,15.857,3.69,28.133,9.6,28.133c1.616,0,3.797-0.318,5.238-1.981c3.818-4.407,6.059-14.637,6.059-26.151
		C133.672,116.777,128.88,103.925,122.97,103.925 M122.989,153.91c-3.221,0-5.221-9.832-5.221-21.243
		c0-11.645,2.159-22.255,5.382-22.255c3.226,0,4.85,8.581,4.85,21.971C128,145.771,126.217,153.91,122.989,153.91"/>
	<path clip-path="url(#SVGID_64_)" d="M111.886,132.637c0,14.448,3.242,29.022,10.488,29.022c2.608,0,4.596-0.77,5.912-2.286
		c3.872-4.471,6.276-14.716,6.276-26.736c0-16.599-5.092-29.602-11.594-29.602C115.693,103.035,111.886,117.925,111.886,132.637
		 M113.666,132.637c0-15.341,4.175-27.823,9.303-27.823c4.74,0,9.813,11.182,9.813,27.823c0,11.61-2.238,21.408-5.843,25.57
		c-0.961,1.112-2.497,1.674-4.565,1.674C117.329,159.881,113.666,148.423,113.666,132.637"/>
	<path clip-path="url(#SVGID_64_)" d="M116.878,132.668c0,10.21,1.601,22.133,6.112,22.133c2.062,0,3.604-2.164,4.581-6.436
		c0.876-3.818,1.317-9.196,1.317-15.981c0-6.879-0.416-12.326-1.234-16.192c-0.95-4.487-2.424-6.668-4.503-6.668
		C118.19,109.523,116.878,124.662,116.878,132.668 M118.658,132.668c0-13.235,2.617-21.366,4.493-21.366
		c1.032,0,2.063,1.968,2.761,5.259c0.783,3.692,1.197,9.163,1.197,15.823c0,6.559-0.44,11.947-1.273,15.585
		c-0.734,3.21-1.771,5.051-2.846,5.051C121.173,153.02,118.658,145.948,118.658,132.668"/>
	<path clip-path="url(#SVGID_64_)" fill="#FFFFFF" d="M122.204,103.925c-4.79,0-8.175,12.11-8.175,27.672
		c0,15.565,3.385,28.687,8.175,28.687c4.792,0,9.104-12.145,8.673-29.262C130.484,115.461,126.996,103.925,122.204,103.925
		 M122.143,155.896c-3.408,0-5.383-10.905-5.383-24.045c0-13.141,2.5-23.792,5.383-23.792c2.885,0,4.637,9.464,5.229,22.591
		C127.992,144.409,125.027,155.896,122.143,155.896"/>
	<path clip-path="url(#SVGID_64_)" d="M113.142,131.598c0,14.695,3.111,29.575,9.061,29.575c1.192,0,2.338-0.558,3.408-1.653
		c4.071-4.178,6.487-15.372,6.156-28.521c-0.352-13.919-3.443-27.963-9.564-27.963C115.977,103.035,113.142,117.84,113.142,131.598
		 M114.921,131.598c0-16.542,3.779-26.784,7.281-26.784c3.454,0,7.354,9.193,7.784,26.229c0.364,14.436-2.576,24.078-5.651,27.231
		c-0.723,0.741-1.439,1.116-2.133,1.116C118.686,159.391,114.921,148.225,114.921,131.598"/>
	<path clip-path="url(#SVGID_64_)" d="M115.871,131.851c0,4.164,0.303,24.935,6.271,24.935c0.641,0,1.256-0.302,1.824-0.896
		c2.909-3.044,4.797-14.146,4.293-25.278c-0.699-15.555-2.759-23.44-6.117-23.44C117.542,107.17,115.871,121.929,115.871,131.851
		 M117.65,131.851c0-14.817,2.969-22.903,4.491-22.903c1.162,0,3.563,4.547,4.339,21.744c0.517,11.419-1.549,21.611-3.803,23.969
		c-0.207,0.216-0.407,0.347-0.536,0.347C120.331,155.007,117.65,147.647,117.65,131.851"/>
</g>
<g>
	<defs>
		<rect id="SVGID_65_" x="117.878" y="102.835" width="17.543" height="24.521"/>
	</defs>
	<clipPath id="SVGID_66_">
		<use xlink:href="#SVGID_65_"  overflow="visible"/>
	</clipPath>
	<path clip-path="url(#SVGID_66_)" fill="#FFFFFF" d="M122.762,102.844l-4.883-0.007c0,0,3.205,0.007,6.09,4.031
		c3.949,5.512,5.232,20.489,5.232,20.489l6.22-0.212c0,0,0.025-12.223-4.949-19.837
		C127.271,102.407,122.762,102.844,122.762,102.844"/>
</g>
<g>
	<defs>
		<rect id="SVGID_67_" width="220.787" height="167.92"/>
	</defs>
	<clipPath id="SVGID_68_">
		<use xlink:href="#SVGID_67_"  overflow="visible"/>
	</clipPath>
	<path clip-path="url(#SVGID_68_)" d="M122.678,101.956c0.029,0,0.085-0.002,0.085-0.002l-4.881-0.007
		c-0.49-0.002-0.882,0.392-0.889,0.879c-0.008,0.488,0.388,0.89,0.873,0.9c0.115,0.004,2.828,0.102,5.379,3.661
		c3.761,5.247,5.058,19.899,5.07,20.046c0.041,0.473,0.442,0.83,0.917,0.813l6.219-0.209c0.479-0.018,0.859-0.412,0.859-0.89
		c0.003-0.509-0.032-12.578-5.095-20.325C127.762,101.529,122.883,101.939,122.678,101.956 M122.844,103.73
		c0.163-0.013,4.038-0.292,6.882,4.063c4.053,6.204,4.683,15.692,4.781,18.491c-1.099,0.039-3.45,0.119-4.498,0.154
		c-0.338-3.29-1.774-15.147-5.317-20.087c-0.826-1.155-1.68-1.99-2.495-2.62h0.564C122.787,103.732,122.817,103.732,122.844,103.73"
		/>
</g>
<polygon fill="#898989" points="164.673,147.82 160.019,149.778 160.019,149.79 160.34,153.937 164.869,155.611 169.017,155.611 
	169.017,155.604 168.146,147.82 "/>
<g>
	<defs>
		<rect id="SVGID_69_" width="220.787" height="167.92"/>
	</defs>
	<clipPath id="SVGID_70_">
		<use xlink:href="#SVGID_69_"  overflow="visible"/>
	</clipPath>
	<path clip-path="url(#SVGID_70_)" d="M164.674,146.93c0.044,0,0.078,0.032,0.122,0.037c-0.434,0.019-1.443,0.442-5.123,1.991
		c-0.331,0.142-0.545,0.465-0.545,0.822c0,0.021,0.002,0.046,0.002,0.066l0.323,4.158c0.025,0.347,0.252,0.647,0.579,0.767
		l4.531,1.675c0.098,0.036,0.202,0.057,0.307,0.057h4.146c0.256,0,0.495-0.109,0.665-0.299c0.168-0.188,0.248-0.44,0.223-0.691
		l-0.872-7.79c-0.052-0.451-0.432-0.793-0.888-0.793H164.674z M167.35,148.71c0.122,1.098,0.523,4.681,0.672,6.012h-2.99
		c-0.246-0.091-3.046-1.126-3.847-1.423c-0.054-0.695-0.17-2.181-0.229-2.948c0.865-0.363,3.644-1.534,3.896-1.641H167.35z"/>
</g>
<polygon fill="#898989" points="149.837,147.82 148.539,155.602 148.539,155.611 154.185,155.611 153.311,147.82 "/>
<g>
	<defs>
		<rect id="SVGID_71_" width="220.787" height="167.92"/>
	</defs>
	<clipPath id="SVGID_72_">
		<use xlink:href="#SVGID_71_"  overflow="visible"/>
	</clipPath>
	<path clip-path="url(#SVGID_72_)" d="M149.838,146.93c-0.436,0-0.806,0.316-0.878,0.745l-1.299,7.79
		c-0.044,0.258,0.027,0.523,0.198,0.724c0.17,0.198,0.419,0.314,0.68,0.314h5.646c0.253,0,0.495-0.109,0.663-0.299
		c0.17-0.188,0.25-0.44,0.223-0.691l-0.874-7.79c-0.053-0.453-0.432-0.793-0.888-0.793H149.838z M152.514,148.71
		c0.122,1.098,0.525,4.681,0.673,6.012h-3.598c0.234-1.388,0.831-4.973,1.003-6.012H152.514z"/>
</g>
<g>
	<defs>
		<rect id="SVGID_73_" x="144.985" y="81.994" width="28.382" height="66.522"/>
	</defs>
	<clipPath id="SVGID_74_">
		<use xlink:href="#SVGID_73_"  overflow="visible"/>
	</clipPath>
	<path clip-path="url(#SVGID_74_)" fill="#ADAAB8" d="M159.146,103.953l0.03,16.229l4.803,28.334h3.472l-0.199-28.828
		c0,0,6.117-15.659,6.117-23.489c0-7.34-0.733-14.207-0.733-14.207l-27.649,5.03l1.957,31.291l2.896,29.507h3.472l2.032-28.356
		l4.324-17.392l6.117-5.139"/>
</g>
<g>
	<defs>
		<rect id="SVGID_75_" width="220.787" height="167.92"/>
	</defs>
	<clipPath id="SVGID_76_">
		<use xlink:href="#SVGID_75_"  overflow="visible"/>
	</clipPath>
	<path clip-path="url(#SVGID_76_)" d="M172.475,81.118l-27.648,5.029c-0.445,0.081-0.759,0.481-0.73,0.933l1.957,31.289
		l2.898,29.538c0.044,0.456,0.429,0.802,0.887,0.802h3.471c0.468,0,0.857-0.358,0.89-0.825l2.034-28.355
		c0,0,1.021-4.095,2.037-8.172c0.009,4.38,0.017,8.828,0.017,8.828l4.813,28.481c0.074,0.428,0.445,0.741,0.879,0.741h3.472
		c0.237,0,0.466-0.096,0.632-0.264c0.166-0.166,0.257-0.393,0.257-0.628c0,0-0.195-28.329-0.198-28.665
		c0.614-1.584,6.117-16.023,6.117-23.652c0-7.301-0.731-14.23-0.738-14.3c-0.026-0.246-0.155-0.469-0.354-0.619
		C172.968,81.131,172.717,81.072,172.475,81.118 M171.841,83.042c0.192,2.092,0.637,7.485,0.637,13.156
		c0,7.572-5.995,23.012-6.057,23.166c-0.041,0.104-0.061,0.214-0.061,0.323c0,0.002,0.181,26.255,0.193,27.938h-1.823
		c-0.237-1.407-4.677-27.59-4.677-27.59s-0.018-15.151-0.018-15.767c0.085-0.347,0.41-1.647,0.423-1.702
		c0.412-0.346,5.897-4.953,5.897-4.953c0.209-0.174,0.315-0.427,0.315-0.68c0-0.205-0.067-0.407-0.207-0.573
		c-0.315-0.377-0.878-0.425-1.255-0.109l-6.117,5.137c-0.144,0.123-0.246,0.286-0.292,0.467c0,0-0.384,1.554-0.479,1.935
		c-0.014,0.06-0.065,0.099-0.065,0.163v0.107c-0.837,3.357-3.775,15.188-3.775,15.188s-1.886,26.122-1.999,27.681h-1.837
		c-0.148-1.521-2.817-28.704-2.817-28.704s-1.812-28.966-1.905-30.467C147.341,87.501,170.117,83.356,171.841,83.042"/>
</g>
<g>
	<defs>
		<rect id="SVGID_77_" x="126.151" y="5.541" width="34.33" height="41.008"/>
	</defs>
	<clipPath id="SVGID_78_">
		<use xlink:href="#SVGID_77_"  overflow="visible"/>
	</clipPath>
	<path clip-path="url(#SVGID_78_)" fill="#FCDEC3" d="M159.248,27.713c3.399-8.167-0.473-17.544-8.638-20.942
		c-8.168-3.393-17.542,0.475-20.94,8.643c-1.135,2.728-2.142,12.059-2.591,12.247c-1.065,0.44-1.364,1.577-0.087,2.65
		c0.49,0.412,2.044,1.028,3.46,1.059c2.051,2.591,4.049,3.571,5.891,5.539c1.046,1.118,3.04,0.702,5.45,1.641
		c3.925,0.804,5.72,7.311,5.72,7.311l10.377,0.689l-2.207-10.922C156.265,32.786,157.731,31.361,159.248,27.713"/>
</g>
<g>
	<defs>
		<rect id="SVGID_79_" width="220.787" height="167.92"/>
	</defs>
	<clipPath id="SVGID_80_">
		<use xlink:href="#SVGID_79_"  overflow="visible"/>
	</clipPath>
	<path clip-path="url(#SVGID_80_)" d="M128.848,15.07c-0.677,1.626-1.255,5.141-1.769,8.242c-0.263,1.582-0.553,3.334-0.712,3.787
		c-0.566,0.356-0.987,0.839-1.083,1.452c-0.013,0.089-0.021,0.192-0.021,0.309c0,0.532,0.2,1.327,1.156,2.129
		c0.635,0.536,2.171,1.101,3.605,1.225c1.161,1.399,2.292,2.364,3.386,3.256l2.282,2.046c0.801,0.856,1.922,1.033,3.104,1.22
		c0.805,0.127,1.718,0.271,2.673,0.643c2.917,0.61,4.724,5.056,5.186,6.718c0.1,0.364,0.421,0.626,0.798,0.652l10.377,0.689
		c0.279,0.017,0.547-0.094,0.73-0.303c0.144-0.164,0.22-0.373,0.22-0.586c0-0.059-0.007-0.118-0.018-0.177
		c0,0-2.078-10.283-2.163-10.702c0.323-1.458,0.896-2.545,1.636-3.894c0,0,1.835-3.72,1.835-3.722
		c0.869-2.092,1.305-4.291,1.305-6.492c0-2.181-0.427-4.365-1.283-6.444c-1.724-4.177-4.971-7.431-9.142-9.167
		C142.342,2.373,132.432,6.465,128.848,15.07 M141.973,37.675c-0.992-0.397-2.049-0.564-2.896-0.697
		c-0.987-0.155-1.7-0.268-2.083-0.678l-2.459-2.21c-1.102-0.902-2.246-1.835-3.386-3.273c-0.163-0.209-0.412-0.331-0.678-0.338
		c-1.283-0.028-2.617-0.608-2.905-0.85c-0.39-0.329-0.525-0.61-0.525-0.767c0-0.013,0.002-0.026,0.005-0.037
		c0.018-0.126,0.159-0.252,0.374-0.342c0.638-0.266,0.721-0.662,1.417-4.881c0.447-2.707,1.06-6.411,1.656-7.847
		c3.203-7.699,12.073-11.362,19.774-8.161c3.732,1.553,6.638,4.467,8.178,8.204c0.767,1.859,1.151,3.812,1.151,5.764
		c0,1.968-0.391,3.936-1.17,5.806c0,0.004-0.004,0.006-0.004,0.006l0.004-0.002l-1.753,3.55c-0.802,1.464-1.492,2.728-1.863,4.528
		c-0.011,0.059-0.018,0.118-0.018,0.179c0,0.059,0.007,0.117,0.018,0.176c0,0,1.606,7.948,1.977,9.778
		c-1.713-0.115-7.666-0.51-8.609-0.573C147.607,43.308,145.684,38.44,141.973,37.675 M160.07,28.054l-0.002,0.007
		C160.068,28.062,160.074,28.043,160.07,28.054"/>
</g>
<g>
	<defs>
		<rect id="SVGID_81_" x="141.342" y="41.178" width="37.519" height="57.111"/>
	</defs>
	<clipPath id="SVGID_82_">
		<use xlink:href="#SVGID_81_"  overflow="visible"/>
	</clipPath>
	<path clip-path="url(#SVGID_82_)" fill="#FFDE2F" d="M178.861,92.206c0,0-13.742-44.547-13.813-44.756
		c-1.854-5.57-6.055-6.274-6.055-6.274l-9.561,1.229l-5.582,3.241l-2.51,12.898l0.217,39.731c0,0,8.261,0.294,20.805-1.938
		C174.832,94.117,178.861,92.206,178.861,92.206"/>
</g>
<g>
	<defs>
		<rect id="SVGID_83_" width="220.787" height="167.92"/>
	</defs>
	<clipPath id="SVGID_84_">
		<use xlink:href="#SVGID_83_"  overflow="visible"/>
	</clipPath>
	<path clip-path="url(#SVGID_84_)" d="M158.88,40.293l-9.561,1.229c-0.115,0.015-0.229,0.055-0.331,0.113l-5.585,3.241
		c-0.222,0.129-0.377,0.346-0.427,0.599l-2.508,12.899c-0.015,0.059-0.019,0.117-0.017,0.174l0.217,39.731
		c0.002,0.478,0.381,0.869,0.858,0.887c0.082,0.002,8.498,0.271,20.991-1.952c12.446-2.217,16.556-4.123,16.726-4.204
		c0.398-0.188,0.6-0.643,0.469-1.065c-1.405-4.561-13.748-44.562-13.82-44.776c-1.998-6.01-6.56-6.838-6.753-6.868
		C159.055,40.284,158.967,40.282,158.88,40.293 M158.949,42.081c0.545,0.124,3.719,1.033,5.254,5.653
		c0,0,11.799,38.218,13.565,43.951c-1.588,0.6-6.127,2.095-15.562,3.774c-10.057,1.791-17.379,1.941-19.763,1.938
		c-0.009-1.669-0.211-38.597-0.211-38.767c0.03-0.166,2.269-11.676,2.414-12.417c0.595-0.347,4.803-2.787,5.078-2.947
		C150.063,43.223,158.653,42.12,158.949,42.081"/>
	<path clip-path="url(#SVGID_84_)" d="M134.156,23.303c0.456,1.135,0.286,2.269-0.377,2.534c-0.66,0.264-1.566-0.44-2.02-1.575
		c-0.453-1.133-0.283-2.266,0.377-2.535C132.797,21.464,133.703,22.17,134.156,23.303"/>
	<path clip-path="url(#SVGID_84_)" fill="#FFFFFF" d="M133.428,22.837c0.139,0.344,0.087,0.691-0.113,0.771
		c-0.203,0.081-0.48-0.135-0.615-0.479c-0.142-0.344-0.089-0.691,0.111-0.774C133.014,22.275,133.292,22.491,133.428,22.837"/>
	<path clip-path="url(#SVGID_84_)" fill="#EF856D" d="M141.494,29.475c-0.371,1.815-2.143,2.983-3.955,2.611
		c-1.815-0.371-2.984-2.145-2.613-3.956c0.373-1.815,2.146-2.987,3.959-2.612C140.701,25.89,141.869,27.662,141.494,29.475"/>
	<path clip-path="url(#SVGID_84_)" d="M137.085,29.463c-0.49,0.009-0.884,0.414-0.876,0.902c0,0.033-0.004,3.086-1.652,3.764
		c-0.455,0.189-0.671,0.708-0.484,1.163c0.188,0.456,0.709,0.671,1.162,0.484c2.798-1.151,2.757-5.265,2.754-5.439
		C137.98,29.846,137.574,29.456,137.085,29.463"/>
</g>
<g>
	<defs>
		<rect id="SVGID_85_" x="116.186" y="39.482" width="21.953" height="35.361"/>
	</defs>
	<clipPath id="SVGID_86_">
		<use xlink:href="#SVGID_85_"  overflow="visible"/>
	</clipPath>
	<path clip-path="url(#SVGID_86_)" fill="#FCDEC3" d="M134.249,74.843l-11.617-15.015l-6.124-8.856c0,0-0.728-1.839,0-2.565
		c0.7-0.701,2.017-0.285,2.017-0.285s-0.437-1.6,0.556-2.116c0.991-0.516,1.843,0.113,1.843,0.113s-0.029-1.12,0.681-1.484
		c1.104-0.566,1.992,0.462,1.992,0.462s-3.261-4.541-1.853-5.524c1.559-1.087,6.964,7.965,6.964,7.965s0.64-3.541,1.474-3.356
		c0.876,0.194,1.175,5.313,1.175,6.494c0,0.68-0.094,2.907-0.299,3.883l7.083,10.805L134.249,74.843z"/>
</g>
<g>
	<defs>
		<rect id="SVGID_87_" width="220.787" height="167.92"/>
	</defs>
	<clipPath id="SVGID_88_">
		<use xlink:href="#SVGID_87_"  overflow="visible"/>
	</clipPath>
	<path clip-path="url(#SVGID_88_)" d="M121.235,38.841l-0.701,1.144c-0.021,0.12-0.031,0.244-0.031,0.375
		c0,1.016,0.58,2.295,1.18,3.363c-0.163,0.041-0.316,0.034-0.484,0.119c-0.516,0.264-0.789,0.706-0.95,1.131
		c-0.479-0.067-1.011-0.052-1.58,0.244c-0.785,0.41-1.032,1.177-1.083,1.903c-0.558,0.015-1.199,0.152-1.706,0.656
		c-0.444,0.444-0.584,1.048-0.584,1.634c0,0.846,0.292,1.654,0.387,1.889c0.025,0.064,0.056,0.123,0.096,0.179l6.123,8.856
		l11.643,15.054c0.196,0.251,0.511,0.379,0.824,0.336c0.316-0.042,0.584-0.251,0.706-0.545l3.891-9.477
		c0.046-0.107,0.064-0.223,0.064-0.338c0-0.172-0.048-0.342-0.144-0.488c0,0-6.551-9.992-6.899-10.526
		c0.179-1.15,0.26-3.022,0.26-3.676c0-1.63-0.133-6.975-1.87-7.361l-0.945,0.185c-0.458,0.305-0.809,1.013-1.072,1.789
		c-1.63-2.541-4.284-6.298-5.967-6.659L121.235,38.841z M120.032,46.12L120.032,46.12v0.024V46.12z M117.634,48.122V48.12
		c0.015,0.074,0.013,0.172,0.032,0.235C117.645,48.277,117.634,48.201,117.634,48.122 M124.151,45.784
		c0.218-0.176,0.333-0.434,0.333-0.695c0-0.177-0.054-0.355-0.165-0.512c-1.068-1.489-1.916-3.215-2.014-3.992
		c1.03,0.607,3.447,3.746,5.638,7.409c0.189,0.32,0.558,0.486,0.924,0.42c0.364-0.067,0.651-0.353,0.715-0.717
		c0.111-0.605,0.272-1.24,0.436-1.75c0.258,1.308,0.447,3.439,0.447,4.727c0,0.687-0.097,2.835-0.279,3.702
		c-0.013,0.062-0.02,0.123-0.02,0.184c0,0.172,0.051,0.342,0.148,0.485c0,0,6.346,9.687,6.823,10.415
		c-0.273,0.664-2.328,5.672-3.127,7.62c-1.592-2.059-10.675-13.796-10.675-13.796s-5.849-8.46-6.012-8.697
		c-0.159-0.434-0.251-0.907-0.251-1.22c0-0.162,0.022-0.282,0.066-0.332c0.217-0.218,0.839-0.148,1.122-0.063
		c0.307,0.092,0.643,0.013,0.876-0.211c0.232-0.222,0.327-0.556,0.246-0.868c-0.083-0.32-0.118-0.978,0.108-1.098
		c0.464-0.242,0.87,0.02,0.913,0.05c0.275,0.186,0.639,0.205,0.931,0.048c0.292-0.155,0.479-0.46,0.478-0.791
		c-0.002-0.272,0.098-0.625,0.196-0.675c0.443-0.227,0.841,0.176,0.92,0.259C123.247,46.035,123.785,46.08,124.151,45.784"/>
</g>
<g>
	<defs>
		<rect id="SVGID_89_" x="129.668" y="43.381" width="19.307" height="34.553"/>
	</defs>
	<clipPath id="SVGID_90_">
		<use xlink:href="#SVGID_89_"  overflow="visible"/>
	</clipPath>
	<path clip-path="url(#SVGID_90_)" fill="#FFDE2F" d="M148.975,65.331l-12.855,12.602l-5.426-6.082c0,0-1.883-3.175-0.547-6.174
		c2.055-4.621,5.489-4.131,5.489-4.131l0.87,1.057l7.346-16.959l3.901-2.264"/>
</g>
<g>
	<defs>
		<rect id="SVGID_91_" width="220.787" height="167.92"/>
	</defs>
	<clipPath id="SVGID_92_">
		<use xlink:href="#SVGID_91_"  overflow="visible"/>
	</clipPath>
	<path clip-path="url(#SVGID_92_)" d="M147.304,42.611l-3.9,2.264c-0.163,0.096-0.294,0.242-0.37,0.416
		c0,0-5.814,13.424-6.78,15.649c-0.137-0.135-0.298-0.246-0.492-0.277c-0.166-0.024-4.125-0.525-6.429,4.651
		c-1.503,3.379,0.508,6.842,0.597,6.99c0.029,0.05,0.062,0.096,0.102,0.138l5.424,6.082c0.163,0.181,0.392,0.289,0.634,0.298
		c0.244,0.007,0.479-0.085,0.653-0.255l12.857-12.602c0.351-0.344,0.355-0.906,0.012-1.257c-0.346-0.351-0.907-0.358-1.259-0.015
		c0,0-10.991,10.776-12.189,11.948c-0.959-1.074-4.611-5.167-4.733-5.304c-0.094-0.17-0.868-1.604-0.868-3.334
		c0-0.637,0.109-1.31,0.399-1.964c1.434-3.225,3.507-3.582,4.254-3.604c0.255,0.309,0.604,0.732,0.604,0.732
		c0.195,0.24,0.503,0.36,0.81,0.316c0.308-0.044,0.571-0.244,0.695-0.527c0,0,7.002-16.168,7.226-16.688
		c0.445-0.257,3.651-2.116,3.651-2.116c0.282-0.166,0.441-0.464,0.441-0.772c0-0.152-0.037-0.305-0.12-0.446
		C148.273,42.51,147.73,42.366,147.304,42.611"/>
</g>
<g>
	<defs>
		<rect id="SVGID_93_" x="128.775" y="1.329" width="36.845" height="31.203"/>
	</defs>
	<clipPath id="SVGID_94_">
		<use xlink:href="#SVGID_93_"  overflow="visible"/>
	</clipPath>
	<path clip-path="url(#SVGID_94_)" fill="#94641A" d="M164.023,23.532c5.247-9-4.127-17.682-4.127-17.682s-5.326-5.284-12.94-4.426
		c-6.688,0.757-11.907,3.332-14.696,6.527c-1.943,2.227-3.886,6.034-3.414,10.277c0.335-1.639,2.067-3.842,2.067-3.842l2.143,3.301
		l1.234-4.181l3.173,3.563c0.925,1.92,2.942,5.472,2.942,5.472s0.595-6.03,4.182-5.191c3.59,0.836,5.156,6.886,1.083,8.997
		l4.082,5.677l7.067,0.51C156.819,32.534,161.015,28.693,164.023,23.532"/>
</g>
<g>
	<defs>
		<rect id="SVGID_95_" width="220.787" height="167.92"/>
	</defs>
	<clipPath id="SVGID_96_">
		<use xlink:href="#SVGID_95_"  overflow="visible"/>
	</clipPath>
	<path clip-path="url(#SVGID_96_)" d="M146.857,0.539c-6.564,0.741-12.129,3.23-15.268,6.826c-1.009,1.157-4.252,5.36-3.631,10.961
		c0.05,0.436,0.408,0.771,0.847,0.791c0.438,0.02,0.825-0.281,0.912-0.713c0.15-0.736,0.683-1.671,1.168-2.423
		c0.637,0.978,1.422,2.19,1.422,2.19c0.188,0.292,0.53,0.447,0.876,0.397c0.342-0.05,0.628-0.294,0.726-0.628
		c0,0,0.418-1.419,0.782-2.647c0.909,1.022,1.957,2.196,2.042,2.292c0.133,0.248,2.897,5.393,2.897,5.393
		c0.186,0.347,0.569,0.519,0.952,0.443c0.384-0.076,0.669-0.403,0.709-0.793c0.089-0.876,0.577-3.339,1.766-4.187
		c0.385-0.274,0.806-0.346,1.326-0.224c1.416,0.329,2.557,1.782,2.776,3.537c0.1,0.795,0.113,2.758-1.9,3.802
		c-0.229,0.12-0.395,0.332-0.455,0.584c-0.06,0.251-0.009,0.517,0.142,0.726l4.082,5.679c0.154,0.213,0.396,0.349,0.66,0.366
		l7.066,0.51c0.244,0.017,0.484-0.065,0.665-0.231c0.174-0.161,4.33-3.99,7.374-9.211c5.539-9.506-4.196-18.693-4.293-18.785
		C160.294,4.987,154.802-0.358,146.857,0.539 M132.931,8.537c2.809-3.219,8.091-5.546,14.128-6.23
		c7.074-0.798,12.161,4.125,12.212,4.173c0.298,0.277,5.469,5.175,5.469,11.233c0,1.722-0.418,3.54-1.486,5.37
		c-2.483,4.263-5.825,7.627-6.764,8.534c-0.658-0.048-5.566-0.401-6.259-0.449c-0.37-0.519-2.575-3.585-3.314-4.614
		c1.306-1.011,2.062-2.486,2.062-4.212c0-0.266-0.018-0.536-0.053-0.811c-0.309-2.477-2.011-4.554-4.136-5.049
		c-1.013-0.237-1.974-0.059-2.771,0.515c-0.993,0.71-1.592,1.919-1.957,3.022c-0.851-1.578-1.793-3.338-1.793-3.338
		c-0.035-0.059-0.093-0.153-0.138-0.205l-3.173-3.563c-0.216-0.242-0.545-0.347-0.858-0.277c-0.316,0.07-0.569,0.307-0.66,0.617
		c0,0-0.35,1.179-0.689,2.327c-0.545-0.839-1.089-1.68-1.089-1.68c-0.157-0.24-0.421-0.392-0.709-0.405
		c-0.285-0.011-0.562,0.113-0.738,0.34c-0.021,0.028-0.115,0.156-0.173,0.233C130.755,11.265,132.312,9.243,132.931,8.537"/>
</g>
<g>
	<defs>
		<rect id="SVGID_97_" x="158.252" y="1.859" width="26.525" height="11.068"/>
	</defs>
	<clipPath id="SVGID_98_">
		<use xlink:href="#SVGID_97_"  overflow="visible"/>
	</clipPath>
	<path clip-path="url(#SVGID_98_)" fill="#94641A" d="M159.108,7.721l-0.856-1.063c1.765-5.531,7.003-6.525,13.796-1.704
		c5.903,4.186,12.731,1.939,12.731,1.939s-3.483,5.365-9.151,5.982c-3.89,0.423-7.3-1.776-10.115-4.228
		C163.704,7.072,161.193,6.647,159.108,7.721"/>
</g>
<g>
	<defs>
		<rect id="SVGID_99_" width="220.787" height="167.92"/>
	</defs>
	<clipPath id="SVGID_100_">
		<use xlink:href="#SVGID_99_"  overflow="visible"/>
	</clipPath>
	<path clip-path="url(#SVGID_100_)" d="M161.939,1.324c-2.139,0.713-3.705,2.465-4.535,5.062c-0.092,0.286-0.033,0.598,0.155,0.831
		l0.855,1.063c0.264,0.329,0.724,0.425,1.101,0.231c1.711-0.88,3.836-0.564,5.413,0.806c2.46,2.145,6.257,4.938,10.795,4.442
		c6.02-0.654,9.65-6.148,9.801-6.381c0.205-0.316,0.188-0.726-0.039-1.027c-0.231-0.298-0.626-0.42-0.983-0.305
		c-0.065,0.022-6.49,2.045-11.938-1.819C168.521,1.359,164.846,0.353,161.939,1.324 M162.501,3.013
		c2.314-0.771,5.522,0.174,9.033,2.667c3.985,2.825,8.281,2.903,10.943,2.576c-1.457,1.495-3.857,3.397-6.945,3.733
		c-3.846,0.418-7.227-2.092-9.434-4.014c-1.929-1.676-4.478-2.129-6.694-1.308c-0.05-0.061-0.052-0.063-0.101-0.121
		C159.98,4.741,161.026,3.508,162.501,3.013"/>
</g>
<g>
	<defs>
		<rect id="SVGID_101_" x="37.286" y="105.002" width="4.71" height="33.294"/>
	</defs>
	<clipPath id="SVGID_102_">
		<use xlink:href="#SVGID_101_"  overflow="visible"/>
	</clipPath>
	<path clip-path="url(#SVGID_102_)" fill="#FFFFFF" d="M37.544,137.028c-0.107-2.118-0.259-5.799-0.259-10.05
		c0.006-6.906,0.381-15.252,2.098-21.022c0.209-0.706,0.953-1.107,1.661-0.896c0.706,0.209,1.107,0.952,0.893,1.66
		c-1.567,5.213-1.985,13.476-1.981,20.258c0,4.187,0.151,7.829,0.257,9.915c0.035,0.736-0.531,1.366-1.268,1.403h-0.067
		C38.172,138.297,37.579,137.743,37.544,137.028"/>
</g>
<g>
	<defs>
		<rect id="SVGID_103_" width="220.787" height="167.92"/>
	</defs>
	<clipPath id="SVGID_104_">
		<use xlink:href="#SVGID_103_"  overflow="visible"/>
	</clipPath>
	<path clip-path="url(#SVGID_104_)" d="M39.602,104.382c-0.523,0.281-0.904,0.75-1.072,1.319
		c-1.425,4.796-2.125,11.756-2.133,21.276c0,0,0.259,10.092,0.259,10.095c0.059,1.188,1.035,2.115,2.223,2.115
		c1.336-0.064,2.284-1.11,2.222-2.336c0-0.005-0.255-9.874-0.255-9.874c-0.004-5.043,0.247-14.345,1.947-20
		c0.172-0.57,0.108-1.173-0.173-1.697c-0.283-0.523-0.751-0.904-1.322-1.074C40.729,104.036,40.126,104.097,39.602,104.382
		 M38.434,136.984l-0.257-10.007c0.009-9.216,0.702-16.202,2.059-20.77c0.046-0.152,0.153-0.229,0.212-0.259
		c0.106-0.06,0.226-0.07,0.342-0.037c0.152,0.046,0.231,0.152,0.263,0.213c0.031,0.062,0.079,0.186,0.033,0.34
		c-1.678,5.579-2.024,14.235-2.02,20.515l0.257,9.959c0.013,0.244-0.176,0.455-0.42,0.47
		C38.641,137.408,38.445,137.222,38.434,136.984 M36.656,137.085v-0.013V137.085z"/>
</g>
<g>
	<defs>
		<rect id="SVGID_105_" x="54.626" y="105.002" width="3.508" height="33.294"/>
	</defs>
	<clipPath id="SVGID_106_">
		<use xlink:href="#SVGID_105_"  overflow="visible"/>
	</clipPath>
	<path clip-path="url(#SVGID_106_)" fill="#FFFFFF" d="M54.732,136.988c-0.046-2.106-0.107-5.778-0.107-10.011
		c0.002-6.869,0.162-15.187,0.846-20.8c0.091-0.733,0.758-1.256,1.49-1.166c0.73,0.091,1.253,0.758,1.164,1.49
		c-0.662,5.367-0.83,13.662-0.828,20.476c-0.002,4.206,0.059,7.858,0.105,9.956c0.015,0.737-0.569,1.347-1.306,1.362h-0.028
		C55.344,138.296,54.747,137.717,54.732,136.988"/>
</g>
<g>
	<defs>
		<rect id="SVGID_107_" width="220.787" height="167.92"/>
	</defs>
	<clipPath id="SVGID_108_">
		<use xlink:href="#SVGID_107_"  overflow="visible"/>
	</clipPath>
	<path clip-path="url(#SVGID_108_)" d="M54.589,106.066c-0.564,4.616-0.852,11.652-0.854,20.911l0.107,10.036v-0.005
		c0.026,1.2,1.024,2.179,2.227,2.179c1.274-0.03,2.249-1.048,2.222-2.275l-0.104-9.932c-0.002-6.235,0.137-14.827,0.821-20.371
		c0.149-1.218-0.721-2.33-1.939-2.479C55.853,103.979,54.739,104.849,54.589,106.066 M55.622,136.97l-0.107-9.992
		c0.002-9.188,0.286-16.149,0.841-20.693c0.031-0.242,0.253-0.418,0.497-0.39c0.244,0.033,0.416,0.255,0.388,0.499
		c-0.695,5.631-0.837,14.302-0.835,20.584l0.105,9.975c0.007,0.246-0.19,0.448-0.436,0.455
		C55.827,137.407,55.626,137.211,55.622,136.97"/>
</g>
<g>
	<defs>
		<rect id="SVGID_109_" x="100.105" y="105" width="3.299" height="33.296"/>
	</defs>
	<clipPath id="SVGID_110_">
		<use xlink:href="#SVGID_109_"  overflow="visible"/>
	</clipPath>
	<path clip-path="url(#SVGID_110_)" fill="#FFFFFF" d="M100.186,136.982c-0.031-2.106-0.076-5.77-0.078-9.998
		c0.002-6.866,0.119-15.182,0.631-20.77v0.003c0.068-0.735,0.722-1.28,1.454-1.212c0.734,0.072,1.275,0.721,1.207,1.453
		c-0.497,5.401-0.623,13.705-0.621,20.525c0,4.208,0.046,7.862,0.079,9.957c0.01,0.736-0.578,1.345-1.317,1.355h-0.017
		C100.795,138.297,100.194,137.711,100.186,136.982"/>
</g>
<g>
	<defs>
		<rect id="SVGID_111_" width="220.787" height="167.92"/>
	</defs>
	<clipPath id="SVGID_112_">
		<use xlink:href="#SVGID_111_"  overflow="visible"/>
	</clipPath>
	<path clip-path="url(#SVGID_112_)" d="M99.854,106.133c-0.421,4.583-0.636,11.598-0.636,20.852c0,0,0.078,10.006,0.078,10.011
		c0.015,1.207,1.016,2.191,2.227,2.191c0.626-0.009,1.181-0.249,1.595-0.676s0.639-0.989,0.63-1.582l-0.081-9.944
		c0-6.248,0.107-14.867,0.617-20.443c0.118-1.214-0.782-2.301-2.005-2.419C101.052,104.009,99.967,104.911,99.854,106.133
		 M101.076,136.971l-0.08-9.986c0.004-9.199,0.215-16.159,0.629-20.688c0.025-0.244,0.242-0.427,0.486-0.403
		c0.242,0.024,0.425,0.239,0.401,0.481c-0.518,5.646-0.625,14.324-0.623,20.609l0.079,9.972c0.002,0.159-0.079,0.265-0.127,0.314
		c-0.048,0.049-0.152,0.134-0.311,0.137C101.279,137.407,101.079,137.21,101.076,136.971 M99.295,136.999v-0.004V136.999z"/>
	<path clip-path="url(#SVGID_112_)" fill="#FABE00" d="M97.248,3.885c-0.724,0.137-1.199,0.839-1.059,1.562l2.432,12.729
		c0.139,0.723,0.839,1.198,1.562,1.061c0.724-0.139,1.199-0.839,1.062-1.562L98.81,4.946C98.671,4.221,97.974,3.748,97.248,3.885"/>
	<path clip-path="url(#SVGID_112_)" fill="#FABE00" d="M82.237,14c-0.414,0.61-0.255,1.44,0.355,1.855l10.719,7.28
		c0.611,0.414,1.441,0.255,1.855-0.355c0.414-0.61,0.257-1.44-0.355-1.855l-10.717-7.28C83.483,13.231,82.651,13.388,82.237,14"/>
	<path clip-path="url(#SVGID_112_)" fill="#FABE00" d="M111.842,6.223l-3.94,11.626c-0.238,0.697,0.135,1.462,0.837,1.693
		c0.699,0.238,1.462-0.135,1.693-0.837l3.94-11.626c0.236-0.697-0.136-1.462-0.837-1.693C112.838,5.15,112.073,5.521,111.842,6.223"
		/>
</g>
<text transform="matrix(1 0 0 1 45.4951 41.353)" fill="#FFF100" font-family="'FuturaPT-Book'" font-size="6.5375">0</text>
<text transform="matrix(1 0 0 1 48.9336 41.353)" fill="#FFF100" font-family="'FuturaPT-Book'" font-size="6.5375">1</text>
<text transform="matrix(1 0 0 1 106.2744 41.353)" fill="#FFF100" font-family="'FuturaPT-Book'" font-size="6.5375">0</text>
<text transform="matrix(1 0 0 1 109.7129 41.353)" fill="#FFF100" font-family="'FuturaPT-Book'" font-size="6.5375">2</text>
<text transform="matrix(1 0 0 1 181.292 41.353)" fill="#FFF100" font-family="'FuturaPT-Book'" font-size="6.5375">0</text>
<text transform="matrix(1 0 0 1 184.7305 41.353)" fill="#FFF100" font-family="'FuturaPT-Book'" font-size="6.5375">3</text>
</svg>
