<?xml version="1.0" encoding="utf-8"?>
<!-- Generator: Adobe Illustrator 15.0.0, SVG Export Plug-In . SVG Version: 6.00 Build 0)  -->
<!DOCTYPE svg PUBLIC "-//W3C//DTD SVG 1.1//EN" "http://www.w3.org/Graphics/SVG/1.1/DTD/svg11.dtd">
<svg version="1.1" id="レイヤー_1" xmlns="http://www.w3.org/2000/svg" xmlns:xlink="http://www.w3.org/1999/xlink" x="0px"
	 y="0px" width="176.184px" height="178.609px" viewBox="0 0 176.184 178.609" enable-background="new 0 0 176.184 178.609"
	 xml:space="preserve">
<g>
	<defs>
		<rect id="SVGID_1_" width="176.184" height="178.609"/>
	</defs>
	<clipPath id="SVGID_2_">
		<use xlink:href="#SVGID_1_"  overflow="visible"/>
	</clipPath>
	<path clip-path="url(#SVGID_2_)" fill="#E60012" d="M163.358,77.92c-0.03,0-0.06-0.002-0.089-0.006l-2.75-0.411
		c-0.327-0.05-0.554-0.355-0.505-0.683c0.049-0.328,0.348-0.548,0.682-0.505l2.591,0.388l0.057-0.021
		c0.305-0.122,0.656,0.03,0.776,0.339c0.121,0.308-0.03,0.657-0.34,0.778l-0.204,0.08C163.508,77.907,163.434,77.92,163.358,77.92
		 M157.642,77.064c-0.029,0-0.06-0.002-0.09-0.005l-2.967-0.444c-0.327-0.049-0.555-0.354-0.505-0.682
		c0.049-0.329,0.35-0.549,0.683-0.505l2.967,0.443c0.327,0.049,0.553,0.354,0.505,0.683
		C158.189,76.852,157.934,77.064,157.642,77.064 M166.353,76.739c-0.24,0-0.465-0.144-0.558-0.38
		c-0.122-0.308,0.028-0.657,0.337-0.778l2.79-1.103c0.308-0.125,0.656,0.03,0.777,0.337c0.122,0.309-0.028,0.658-0.337,0.779
		l-2.79,1.102C166.501,76.726,166.426,76.739,166.353,76.739 M151.708,76.178c-0.029,0-0.06-0.002-0.091-0.006l-2.56-0.383
		c-0.275-0.041-0.485-0.265-0.509-0.541c-0.024-0.276,0.144-0.533,0.406-0.621l2.843-0.958c0.313-0.108,0.653,0.062,0.76,0.377
		c0.106,0.313-0.063,0.654-0.377,0.76l-0.485,0.164l0.101,0.014c0.327,0.05,0.554,0.355,0.505,0.683
		C152.256,75.964,152,76.178,151.708,76.178 M171.933,74.534c-0.239,0-0.465-0.144-0.558-0.38c-0.122-0.308,0.029-0.657,0.337-0.778
		l2.296-0.907l-1.758-0.208c-0.329-0.039-0.564-0.337-0.525-0.666c0.039-0.33,0.343-0.564,0.666-0.526l2.979,0.352
		c0.329,0.039,0.565,0.337,0.526,0.666c-0.037,0.311-0.31,0.538-0.613,0.529c0.118,0.307-0.033,0.652-0.339,0.773l-2.79,1.102
		C172.081,74.52,172.006,74.534,171.933,74.534 M154.832,73.878c-0.251,0-0.484-0.158-0.568-0.409
		c-0.107-0.314,0.062-0.655,0.377-0.76l2.843-0.958c0.314-0.106,0.654,0.062,0.759,0.377c0.107,0.313-0.062,0.654-0.377,0.76
		l-2.842,0.958C154.96,73.868,154.896,73.878,154.832,73.878 M160.518,71.962c-0.251,0-0.485-0.158-0.569-0.409
		c-0.105-0.314,0.063-0.655,0.377-0.76l2.393-0.807c0.084-0.029,0.173-0.039,0.262-0.027l0.472,0.056
		c0.329,0.039,0.565,0.336,0.526,0.666c-0.039,0.329-0.328,0.565-0.666,0.525l-0.339-0.04l-2.264,0.764
		C160.646,71.952,160.581,71.962,160.518,71.962 M169.342,71.914c-0.023,0-0.048-0.001-0.071-0.004l-2.979-0.351
		c-0.329-0.04-0.564-0.337-0.525-0.666c0.039-0.33,0.342-0.562,0.666-0.526l2.979,0.352c0.329,0.039,0.565,0.337,0.526,0.666
		C169.9,71.689,169.642,71.914,169.342,71.914"/>
	<polygon clip-path="url(#SVGID_2_)" fill="#7C6B6C" points="157.133,13.836 154.592,9.788 135.296,0.6 89.142,5.796 80.438,12.002 
			"/>
	<path clip-path="url(#SVGID_2_)" d="M157.133,14.436h-0.015l-76.695-1.834c-0.258-0.006-0.484-0.177-0.559-0.424
		c-0.076-0.247,0.015-0.514,0.225-0.664l8.704-6.206c0.083-0.059,0.18-0.096,0.28-0.108l46.155-5.197
		c0.111-0.011,0.224,0.006,0.325,0.054l19.296,9.189c0.103,0.049,0.189,0.127,0.25,0.222l2.541,4.049
		c0.118,0.188,0.123,0.424,0.013,0.617C157.548,14.321,157.349,14.436,157.133,14.436 M82.251,11.446l73.779,1.764l-1.854-2.955
		l-18.985-9.04L89.362,6.376L82.251,11.446z"/>
	<polygon clip-path="url(#SVGID_2_)" fill="#7C6B6C" points="78.758,68.059 78.758,12.182 138.427,5.796 138.427,77.438 
		119.163,74.41 119.163,58.838 107.965,57.933 107.965,72.65 105.939,72.332 105.944,57.77 93.794,56.789 93.794,70.423 	"/>
	<path clip-path="url(#SVGID_2_)" d="M138.427,78.038c-0.031,0-0.063-0.002-0.093-0.007l-19.264-3.028
		c-0.292-0.045-0.507-0.296-0.507-0.592v-15.02l-9.998-0.807V72.65c0,0.176-0.076,0.342-0.21,0.456
		c-0.133,0.115-0.315,0.163-0.483,0.137l-2.025-0.319c-0.292-0.046-0.508-0.297-0.507-0.592l0.004-14.008l-10.949-0.885v12.983
		c0,0.176-0.076,0.342-0.21,0.456c-0.134,0.115-0.315,0.166-0.483,0.137l-15.036-2.363c-0.292-0.046-0.507-0.298-0.507-0.593V12.182
		c0-0.306,0.231-0.563,0.537-0.597L138.363,5.2c0.16-0.016,0.337,0.036,0.464,0.15c0.126,0.114,0.199,0.277,0.199,0.446v71.642
		c0,0.176-0.077,0.342-0.21,0.456C138.706,77.988,138.568,78.038,138.427,78.038 M119.763,73.898l18.063,2.839V6.464l-58.468,6.257
		v54.825l13.837,2.174V56.789c0-0.168,0.069-0.328,0.192-0.442c0.123-0.113,0.288-0.175,0.455-0.156l12.148,0.981
		c0.313,0.025,0.554,0.286,0.553,0.598l-0.005,14.049l0.827,0.13V57.933c0-0.168,0.069-0.327,0.192-0.441
		c0.123-0.114,0.291-0.178,0.455-0.156l11.197,0.904c0.313,0.024,0.552,0.285,0.552,0.597V73.898z"/>
	<polygon clip-path="url(#SVGID_2_)" fill="#7C6B6C" points="138.427,5.796 161.177,15.574 161.177,69.057 138.427,77.438 	"/>
	<path clip-path="url(#SVGID_2_)" d="M138.426,78.038c-0.12,0-0.24-0.036-0.342-0.107c-0.162-0.113-0.257-0.296-0.257-0.493V5.796
		c0-0.202,0.1-0.39,0.269-0.501c0.169-0.111,0.382-0.132,0.568-0.05l22.75,9.778c0.219,0.094,0.362,0.311,0.362,0.551v53.483
		c0,0.251-0.156,0.476-0.394,0.563l-22.75,8.381C138.566,78.025,138.497,78.038,138.426,78.038 M139.026,6.708v69.87l21.551-7.938
		V15.971L139.026,6.708z"/>
	<polygon clip-path="url(#SVGID_2_)" points="126.816,19.63 126.816,15.905 122.11,16.257 122.11,19.905 	"/>
	<polygon clip-path="url(#SVGID_2_)" points="100.312,21.178 100.312,17.884 95.605,18.236 95.605,21.453 	"/>
	<polygon clip-path="url(#SVGID_2_)" points="113.564,20.404 113.564,16.895 108.858,17.246 108.858,20.679 	"/>
	<polygon clip-path="url(#SVGID_2_)" points="120.19,20.017 120.19,16.4 115.484,16.751 115.484,20.292 	"/>
	<polygon clip-path="url(#SVGID_2_)" points="82.872,19.187 82.872,22.196 87.06,21.953 87.06,18.874 	"/>
	<polygon clip-path="url(#SVGID_2_)" points="106.938,20.791 106.938,17.39 102.232,17.741 102.232,21.066 	"/>
	<polygon clip-path="url(#SVGID_2_)" points="93.686,21.565 93.686,18.379 88.979,18.73 88.979,21.84 	"/>
	<polygon clip-path="url(#SVGID_2_)" points="133.421,19.244 133.421,15.412 128.737,15.762 128.737,19.518 	"/>
	<polygon clip-path="url(#SVGID_2_)" points="113.564,26.092 113.564,22.465 108.858,22.741 108.858,26.273 	"/>
	<polygon clip-path="url(#SVGID_2_)" points="120.19,25.836 120.19,22.077 115.484,22.353 115.484,26.018 	"/>
	<polygon clip-path="url(#SVGID_2_)" points="122.111,25.763 126.816,25.582 126.816,21.688 122.111,21.964 	"/>
	<polygon clip-path="url(#SVGID_2_)" points="106.938,26.347 106.938,22.853 102.232,23.129 102.232,26.528 	"/>
	<polygon clip-path="url(#SVGID_2_)" points="93.686,23.63 88.979,23.906 88.979,27.039 93.686,26.857 	"/>
	<polygon clip-path="url(#SVGID_2_)" points="100.312,26.602 100.312,23.242 95.605,23.517 95.605,26.783 	"/>
	<polygon clip-path="url(#SVGID_2_)" points="133.421,25.327 133.421,21.301 128.737,21.576 128.737,25.507 	"/>
	<polygon clip-path="url(#SVGID_2_)" points="82.872,24.263 82.872,27.273 87.06,27.112 87.06,24.019 	"/>
	<polygon clip-path="url(#SVGID_2_)" points="115.484,31.733 120.19,31.628 120.19,27.809 115.484,28.016 	"/>
	<polygon clip-path="url(#SVGID_2_)" points="102.232,28.6 102.232,32.03 106.938,31.925 106.938,28.392 	"/>
	<polygon clip-path="url(#SVGID_2_)" points="93.686,28.977 88.979,29.185 88.979,32.327 93.686,32.222 	"/>
	<polygon clip-path="url(#SVGID_2_)" points="133.421,31.332 133.421,27.225 128.737,27.431 128.737,31.437 	"/>
	<polygon clip-path="url(#SVGID_2_)" points="122.111,31.585 126.816,31.48 126.816,27.516 122.111,27.723 	"/>
	<polygon clip-path="url(#SVGID_2_)" points="100.312,28.685 95.605,28.892 95.605,32.179 100.312,32.074 	"/>
	<polygon clip-path="url(#SVGID_2_)" points="108.858,28.308 108.858,31.882 113.564,31.777 113.564,28.1 	"/>
	<polygon clip-path="url(#SVGID_2_)" points="82.872,29.454 82.872,32.464 87.06,32.37 87.06,29.269 	"/>
	<polygon clip-path="url(#SVGID_2_)" points="133.421,37.348 133.421,33.25 128.737,33.367 128.737,37.364 	"/>
	<polygon clip-path="url(#SVGID_2_)" points="93.686,34.241 88.979,34.358 88.979,37.5 93.686,37.484 	"/>
	<polygon clip-path="url(#SVGID_2_)" points="115.484,33.697 115.484,37.409 120.19,37.394 120.19,33.581 	"/>
	<polygon clip-path="url(#SVGID_2_)" points="108.858,33.863 108.858,37.432 113.564,37.416 113.564,33.746 	"/>
	<polygon clip-path="url(#SVGID_2_)" points="82.872,34.511 82.872,37.521 87.06,37.507 87.06,34.407 	"/>
	<polygon clip-path="url(#SVGID_2_)" points="95.606,34.193 95.606,37.477 100.312,37.461 100.312,34.076 	"/>
	<polygon clip-path="url(#SVGID_2_)" points="102.232,34.028 102.232,37.455 106.938,37.439 106.938,33.911 	"/>
	<polygon clip-path="url(#SVGID_2_)" points="122.111,37.387 126.816,37.371 126.816,33.415 122.111,33.532 	"/>
	<polygon clip-path="url(#SVGID_2_)" points="95.606,39.445 95.606,42.917 100.312,42.999 100.312,39.429 	"/>
	<polygon clip-path="url(#SVGID_2_)" points="122.111,39.354 122.111,43.378 126.816,43.459 126.816,39.338 	"/>
	<polygon clip-path="url(#SVGID_2_)" points="88.979,39.468 88.979,42.802 93.686,42.884 93.686,39.452 	"/>
	<polygon clip-path="url(#SVGID_2_)" points="102.232,39.422 102.232,43.033 106.938,43.114 106.938,39.407 	"/>
	<polygon clip-path="url(#SVGID_2_)" points="108.858,39.4 108.858,43.147 113.564,43.229 113.564,39.384 	"/>
	<polygon clip-path="url(#SVGID_2_)" points="115.484,39.377 115.484,43.263 120.19,43.344 120.19,39.361 	"/>
	<polygon clip-path="url(#SVGID_2_)" points="82.872,39.489 82.872,42.696 87.06,42.769 87.06,39.475 	"/>
	<polygon clip-path="url(#SVGID_2_)" points="133.421,43.574 133.421,39.315 128.737,39.331 128.737,43.493 	"/>
	<polygon clip-path="url(#SVGID_2_)" points="146.064,51.296 146.064,55.541 148.577,55.3 148.577,51.222 	"/>
	<polygon clip-path="url(#SVGID_2_)" points="153.233,51.085 153.233,54.853 155.518,54.633 155.518,51.019 	"/>
	<polygon clip-path="url(#SVGID_2_)" points="141.563,51.428 141.563,55.973 144.992,55.644 144.992,51.327 	"/>
	<polygon clip-path="url(#SVGID_2_)" points="149.649,51.191 149.649,55.197 152.162,54.956 152.162,51.117 	"/>
	<polygon clip-path="url(#SVGID_2_)" points="158.921,54.306 158.921,50.918 156.589,50.987 156.589,54.53 	"/>
	<polygon clip-path="url(#SVGID_2_)" points="158.921,39.274 158.921,35.75 156.589,35.469 156.589,39.039 	"/>
	<polygon clip-path="url(#SVGID_2_)" points="149.649,38.341 152.162,38.594 152.162,34.937 149.649,34.635 	"/>
	<polygon clip-path="url(#SVGID_2_)" points="148.577,34.506 146.064,34.205 146.064,37.98 148.577,38.233 	"/>
	<polygon clip-path="url(#SVGID_2_)" points="141.563,33.664 141.563,37.528 144.992,37.873 144.992,34.076 	"/>
	<polygon clip-path="url(#SVGID_2_)" points="153.233,38.702 155.518,38.932 155.518,35.341 153.233,35.066 	"/>
	<polygon clip-path="url(#SVGID_2_)" points="153.233,33.334 155.518,33.661 155.518,30.132 153.233,29.704 	"/>
	<polygon clip-path="url(#SVGID_2_)" points="149.649,32.823 152.162,33.181 152.162,29.502 149.649,29.03 	"/>
	<polygon clip-path="url(#SVGID_2_)" points="148.577,28.829 146.064,28.357 146.064,32.312 148.577,32.67 	"/>
	<polygon clip-path="url(#SVGID_2_)" points="141.563,27.511 141.563,31.67 144.992,32.159 144.992,28.155 	"/>
	<polygon clip-path="url(#SVGID_2_)" points="158.921,34.146 158.921,30.773 156.589,30.334 156.589,33.813 	"/>
	<polygon clip-path="url(#SVGID_2_)" points="148.577,45.609 146.064,45.534 146.064,49.403 148.577,49.386 	"/>
	<polygon clip-path="url(#SVGID_2_)" points="153.233,49.354 155.518,49.338 155.518,45.817 153.233,45.748 	"/>
	<polygon clip-path="url(#SVGID_2_)" points="158.921,49.314 158.921,45.918 156.589,45.849 156.589,49.331 	"/>
	<polygon clip-path="url(#SVGID_2_)" points="149.649,45.641 149.649,49.378 152.162,49.361 152.162,45.716 	"/>
	<polygon clip-path="url(#SVGID_2_)" points="141.563,45.399 141.563,49.435 144.992,49.411 144.992,45.501 	"/>
	<polygon clip-path="url(#SVGID_2_)" points="158.921,44.314 158.921,40.878 156.589,40.695 156.589,44.192 	"/>
	<polygon clip-path="url(#SVGID_2_)" points="153.233,44.017 155.518,44.137 155.518,40.612 153.233,40.434 	"/>
	<polygon clip-path="url(#SVGID_2_)" points="149.649,43.829 152.162,43.961 152.162,40.349 149.649,40.153 	"/>
	<polygon clip-path="url(#SVGID_2_)" points="141.563,39.521 141.563,43.406 144.992,43.585 144.992,39.789 	"/>
	<polygon clip-path="url(#SVGID_2_)" points="148.577,40.069 146.064,39.874 146.064,43.642 148.577,43.773 	"/>
	<polygon clip-path="url(#SVGID_2_)" points="141.563,15.905 141.563,19.994 144.992,20.942 144.992,17.048 	"/>
	<polygon clip-path="url(#SVGID_2_)" points="158.921,24.792 158.921,21.688 156.589,20.912 156.589,24.147 	"/>
	<polygon clip-path="url(#SVGID_2_)" points="152.162,22.924 152.162,19.437 149.648,18.599 149.648,22.229 	"/>
	<polygon clip-path="url(#SVGID_2_)" points="155.518,23.852 155.518,20.554 153.233,19.793 153.233,23.22 	"/>
	<polygon clip-path="url(#SVGID_2_)" points="148.577,21.933 148.577,18.242 146.064,17.405 146.064,21.238 	"/>
	<polygon clip-path="url(#SVGID_2_)" points="158.921,29.168 158.921,26.396 156.589,25.804 156.589,28.678 	"/>
	<polygon clip-path="url(#SVGID_2_)" points="141.563,21.987 141.563,25.518 144.992,26.239 144.992,22.858 	"/>
	<polygon clip-path="url(#SVGID_2_)" points="148.577,23.769 146.064,23.131 146.064,26.465 148.577,26.993 	"/>
	<polygon clip-path="url(#SVGID_2_)" points="153.233,27.972 155.518,28.452 155.518,25.531 153.233,24.951 	"/>
	<polygon clip-path="url(#SVGID_2_)" points="152.162,27.747 152.162,24.68 149.648,24.041 149.648,27.219 	"/>
	<path clip-path="url(#SVGID_2_)" d="M118.786,74.128c-0.03,0-0.061-0.002-0.09-0.006l-9.529-1.431
		c-0.328-0.049-0.554-0.355-0.505-0.682c0.05-0.328,0.361-0.543,0.683-0.505l9.529,1.431c0.328,0.049,0.554,0.355,0.505,0.682
		C119.334,73.916,119.078,74.128,118.786,74.128"/>
	<path clip-path="url(#SVGID_2_)" d="M119.164,70.556c-0.026,0-0.053-0.001-0.078-0.005l-9.672-1.256
		c-0.329-0.042-0.562-0.343-0.519-0.672c0.043-0.33,0.346-0.569,0.672-0.517l9.673,1.256c0.328,0.042,0.561,0.343,0.518,0.672
		C119.719,70.336,119.461,70.556,119.164,70.556"/>
	<polygon clip-path="url(#SVGID_2_)" fill="#FFFFFF" points="92.059,54.853 82.872,54.204 82.872,46.201 92.059,46.568 	"/>
	<path clip-path="url(#SVGID_2_)" d="M92.059,55.452c-0.014,0-0.028,0-0.042-0.001l-9.187-0.649
		c-0.314-0.022-0.557-0.283-0.557-0.598v-8.003c0-0.163,0.066-0.32,0.183-0.433c0.119-0.113,0.245-0.167,0.441-0.167l9.186,0.368
		c0.322,0.013,0.576,0.278,0.576,0.6v8.283c0,0.166-0.068,0.325-0.19,0.438C92.356,55.395,92.21,55.452,92.059,55.452
		 M83.472,53.644l7.987,0.564v-7.063l-7.987-0.319V53.644z"/>
	<polygon clip-path="url(#SVGID_2_)" fill="#FFFFFF" points="92.059,66.772 82.872,65.477 82.872,55.973 92.059,56.649 	"/>
	<path clip-path="url(#SVGID_2_)" d="M92.059,67.372c-0.028,0-0.056-0.002-0.084-0.006l-9.187-1.295
		c-0.295-0.041-0.515-0.295-0.515-0.594v-9.503c0-0.167,0.069-0.327,0.191-0.44c0.122-0.113,0.285-0.166,0.452-0.159l9.187,0.676
		c0.313,0.023,0.556,0.284,0.556,0.598v10.123c0,0.174-0.076,0.339-0.207,0.454C92.343,67.321,92.201,67.372,92.059,67.372
		 M83.472,64.956l7.987,1.126v-8.875l-7.987-0.588V64.956z"/>
	<polygon clip-path="url(#SVGID_2_)" fill="#FFFFFF" points="133.421,72.604 122.224,71.009 122.224,59.084 133.421,59.989 	"/>
	<path clip-path="url(#SVGID_2_)" d="M133.421,73.203c-0.029,0-0.057-0.002-0.085-0.006l-11.198-1.594
		c-0.294-0.042-0.514-0.295-0.514-0.593V59.085c0-0.168,0.069-0.327,0.192-0.442c0.123-0.113,0.29-0.177,0.455-0.156l11.197,0.904
		c0.313,0.025,0.551,0.285,0.551,0.598v12.614c0,0.174-0.074,0.339-0.205,0.453C133.704,73.152,133.564,73.203,133.421,73.203
		 M122.823,70.489l9.998,1.423V60.543l-9.998-0.808V70.489z"/>
	<polygon clip-path="url(#SVGID_2_)" fill="#FFFFFF" points="133.421,57.889 122.224,57.073 122.224,47.778 133.421,48.227 	"/>
	<path clip-path="url(#SVGID_2_)" d="M133.421,58.489c-0.015,0-0.03,0-0.044-0.001l-11.198-0.817
		c-0.313-0.023-0.555-0.284-0.555-0.598v-9.295c0-0.163,0.066-0.32,0.183-0.433c0.119-0.113,0.245-0.174,0.441-0.167l11.197,0.449
		c0.32,0.013,0.574,0.278,0.574,0.6v9.662c0,0.167-0.068,0.326-0.19,0.439C133.718,58.432,133.572,58.489,133.421,58.489
		 M122.823,56.515l9.998,0.729v-8.441l-9.998-0.4V56.515z"/>
	<polygon clip-path="url(#SVGID_2_)" fill="#FFFFFF" points="105.944,55.886 93.686,54.992 93.686,46.634 105.944,47.125 	"/>
	<path clip-path="url(#SVGID_2_)" d="M105.944,56.486c-0.015,0-0.029,0-0.045-0.001L93.641,55.59
		c-0.313-0.023-0.555-0.284-0.555-0.598v-8.358c0-0.163,0.066-0.319,0.183-0.432c0.118-0.114,0.252-0.175,0.441-0.167l12.259,0.491
		c0.321,0.012,0.575,0.277,0.575,0.599v8.761c0,0.167-0.07,0.326-0.192,0.44C106.241,56.429,106.096,56.486,105.944,56.486
		 M94.285,54.434l11.06,0.807v-7.539l-11.06-0.443V54.434z"/>
	<polygon clip-path="url(#SVGID_2_)" fill="#FFFFFF" points="119.163,56.486 107.966,55.871 107.966,47.206 119.163,47.655 	"/>
	<path clip-path="url(#SVGID_2_)" d="M119.163,57.085c-0.011,0-0.021,0-0.034-0.001l-11.196-0.614
		c-0.317-0.017-0.566-0.28-0.566-0.599v-8.665c0-0.163,0.066-0.319,0.183-0.432c0.119-0.114,0.259-0.17,0.441-0.167l11.197,0.448
		c0.32,0.013,0.574,0.277,0.574,0.6v8.831c0,0.165-0.066,0.322-0.187,0.435C119.463,57.027,119.316,57.085,119.163,57.085
		 M108.565,55.303l9.998,0.549v-7.621l-9.998-0.401V55.303z"/>
	<polygon clip-path="url(#SVGID_2_)" fill="#7C6B6C" points="101.024,67.601 93.795,70.422 93.795,56.79 101.024,57.447 	"/>
	<path clip-path="url(#SVGID_2_)" d="M93.794,71.022c-0.118,0-0.236-0.035-0.338-0.104c-0.164-0.112-0.261-0.297-0.261-0.495V56.789
		c0-0.169,0.07-0.329,0.195-0.444c0.124-0.114,0.288-0.173,0.459-0.154l7.229,0.659c0.309,0.029,0.544,0.287,0.544,0.598V67.6
		c0,0.247-0.15,0.469-0.381,0.559l-7.229,2.822C93.942,71.009,93.868,71.022,93.794,71.022 M94.395,57.446v12.099l6.029-2.355
		v-9.194L94.395,57.446z"/>
	<polygon clip-path="url(#SVGID_2_)" fill="#7C6B6C" points="101.024,55.541 93.795,54.992 93.795,46.634 101.024,46.928 	"/>
	<path clip-path="url(#SVGID_2_)" d="M101.024,56.141c-0.015,0-0.03,0-0.046-0.001l-7.23-0.55c-0.312-0.024-0.553-0.285-0.553-0.598
		v-8.358c0-0.163,0.066-0.319,0.183-0.432c0.119-0.114,0.285-0.175,0.441-0.167l7.229,0.294c0.322,0.012,0.575,0.277,0.575,0.599
		v8.613c0,0.167-0.068,0.327-0.19,0.441C101.321,56.084,101.174,56.141,101.024,56.141 M94.395,54.436l6.029,0.458v-7.39
		l-6.029-0.245V54.436z"/>
	<path clip-path="url(#SVGID_2_)" d="M105.941,68.838c-0.026,0-0.052-0.001-0.078-0.005l-4.916-0.639
		c-0.329-0.042-0.562-0.343-0.518-0.671c0.042-0.331,0.347-0.571,0.672-0.518l4.916,0.639c0.329,0.042,0.561,0.343,0.518,0.672
		C106.496,68.618,106.238,68.838,105.941,68.838"/>
	<path clip-path="url(#SVGID_2_)" d="M175.585,82.653c-0.03,0-0.062-0.002-0.091-0.006l-35.245-5.319
		c-0.327-0.05-0.554-0.356-0.504-0.684c0.05-0.327,0.361-0.547,0.684-0.504l35.245,5.32c0.327,0.049,0.553,0.355,0.504,0.683
		C176.133,82.44,175.877,82.653,175.585,82.653"/>
	<path clip-path="url(#SVGID_2_)" d="M78.76,68.04c-0.03,0-0.061-0.002-0.091-0.006l-10.352-1.561
		c-0.328-0.05-0.553-0.356-0.504-0.684c0.05-0.328,0.362-0.544,0.683-0.504l10.353,1.562c0.327,0.049,0.553,0.355,0.504,0.683
		C79.308,67.827,79.052,68.04,78.76,68.04"/>
	<path clip-path="url(#SVGID_2_)" d="M105.94,72.2c-0.03,0-0.061-0.002-0.09-0.006l-10.951-1.643
		c-0.328-0.05-0.555-0.356-0.505-0.683c0.05-0.328,0.361-0.543,0.683-0.505l10.951,1.644c0.328,0.049,0.554,0.355,0.505,0.682
		C106.488,71.987,106.232,72.2,105.94,72.2"/>
	<path clip-path="url(#SVGID_2_)" d="M109.256,56.538c-0.331,0-0.601-0.269-0.601-0.6v-8.469c0-0.331,0.27-0.6,0.601-0.6
		s0.6,0.269,0.6,0.6v8.469C109.855,56.269,109.587,56.538,109.256,56.538"/>
	<path clip-path="url(#SVGID_2_)" d="M109.256,72.698c-0.331,0-0.601-0.269-0.601-0.6v-13.99c0-0.331,0.27-0.599,0.601-0.599
		s0.6,0.268,0.6,0.599v13.99C109.855,72.429,109.587,72.698,109.256,72.698"/>
	<path clip-path="url(#SVGID_2_)" d="M107.966,73.25c-0.232,0-0.454-0.137-0.552-0.364c-0.131-0.305,0.011-0.657,0.315-0.788
		l1.29-0.552c0.304-0.129,0.657,0.011,0.788,0.315c0.13,0.305-0.011,0.658-0.316,0.788l-1.29,0.552
		C108.125,73.234,108.045,73.25,107.966,73.25"/>
	<polygon clip-path="url(#SVGID_2_)" fill="#FFFFFF" points="150.251,76.734 143.278,75.651 143.278,61.896 150.251,62.051 	"/>
	<path clip-path="url(#SVGID_2_)" d="M150.252,77.333c-0.03,0-0.063-0.002-0.092-0.007l-6.974-1.083
		c-0.293-0.044-0.508-0.296-0.508-0.592V61.896c0-0.161,0.064-0.317,0.179-0.429c0.116-0.113,0.271-0.155,0.435-0.171l6.974,0.155
		c0.326,0.007,0.586,0.274,0.586,0.6v14.683c0,0.174-0.077,0.341-0.209,0.456C150.532,77.283,150.395,77.333,150.252,77.333
		 M143.878,75.137l5.773,0.896V62.638l-5.773-0.129V75.137z"/>
	<polygon clip-path="url(#SVGID_2_)" fill="#FFFFFF" points="150.251,76.734 151.729,76.045 151.729,61.896 150.251,62.051 	"/>
	<path clip-path="url(#SVGID_2_)" d="M150.251,77.333c-0.111,0-0.224-0.031-0.321-0.094c-0.174-0.11-0.277-0.3-0.277-0.505V62.051
		c0-0.307,0.23-0.564,0.537-0.597l1.476-0.155c0.169-0.015,0.338,0.037,0.464,0.15c0.127,0.115,0.199,0.277,0.199,0.447v14.149
		c0,0.234-0.135,0.445-0.346,0.544l-1.478,0.689C150.424,77.315,150.337,77.333,150.251,77.333 M150.852,62.591v13.201l0.276-0.129
		V62.563L150.852,62.591z"/>
	<path clip-path="url(#SVGID_2_)" d="M147.031,64.768l0.03,0.001c0.713,0.014,1.198,0.473,1.186,1.121
		c-0.015,0.684-0.551,1.123-1.358,1.107h-0.031l-0.917-0.011l-0.024-0.001c-0.042-0.001-0.055,0.01-0.056,0.052v0.012v0.03
		l-0.025,1.355l-0.001,0.042c-0.004,0.197-0.09,0.293-0.239,0.29c-0.146-0.003-0.221-0.102-0.217-0.299l0.001-0.024l0.062-3.255
		v-0.036c0.008-0.378,0.039-0.413,0.393-0.407h0.029L147.031,64.768z M146.92,66.554h0.028c0.518,0.011,0.847-0.253,0.854-0.673
		c0.007-0.366-0.281-0.659-0.659-0.666l-0.036-0.001l-1.108-0.021h-0.018h-0.006c-0.06-0.001-0.085,0.015-0.086,0.069l0.006,0.019
		l-0.022,1.157v0.023c-0.001,0.049,0.017,0.073,0.052,0.073l0.018,0.001L146.92,66.554z"/>
	
		<path clip-path="url(#SVGID_2_)" fill="none" stroke="#000000" stroke-width="0.5" stroke-linecap="round" stroke-linejoin="round" stroke-miterlimit="10" d="
		M147.031,64.768l0.03,0.001c0.713,0.014,1.198,0.473,1.186,1.121c-0.015,0.684-0.551,1.123-1.358,1.107h-0.031l-0.917-0.011
		l-0.024-0.001c-0.042-0.001-0.055,0.01-0.056,0.052v0.012v0.03l-0.025,1.355l-0.001,0.042c-0.004,0.197-0.09,0.293-0.239,0.29
		c-0.146-0.003-0.221-0.102-0.217-0.299l0.001-0.024l0.062-3.255v-0.036c0.008-0.378,0.039-0.413,0.393-0.407h0.029L147.031,64.768z
		 M146.92,66.554h0.028c0.518,0.011,0.847-0.253,0.854-0.673c0.007-0.366-0.281-0.659-0.659-0.666l-0.036-0.001l-1.108-0.021h-0.018
		h-0.006c-0.06-0.001-0.085,0.015-0.086,0.069l0.006,0.019l-0.022,1.157v0.023c-0.001,0.049,0.017,0.073,0.052,0.073l0.018,0.001
		L146.92,66.554z"/>
	<path clip-path="url(#SVGID_2_)" fill="#FFFFFF" d="M117.857,13.995V14c0.013,0.191-0.053,0.28-0.196,0.29
		c-0.151,0.01-0.24-0.074-0.25-0.231l-0.001-0.011l-0.095-1.436l-0.001-0.012c-0.004-0.059-0.01-0.059-0.101-0.053l-0.023,0.002
		l-1.771,0.117l-0.028,0.002c-0.049,0.003-0.064,0.022-0.062,0.076h0.006l0.001,0.029l0.082,1.401l0.002,0.042
		c0.01,0.132-0.081,0.233-0.211,0.242c-0.144,0.01-0.221-0.069-0.232-0.242l-0.003-0.042l-0.225-3.392l-0.003-0.03
		c-0.011-0.173,0.065-0.286,0.209-0.296c0.155-0.011,0.233,0.074,0.246,0.266l0.001,0.018l0.092,1.394l0.001,0.017
		c0.004,0.054,0.018,0.066,0.077,0.062l0.024-0.002l1.775-0.118l0.036-0.002c0.061-0.004,0.071-0.017,0.067-0.082l-0.002-0.031
		l-0.09-1.345l-0.001-0.012c-0.014-0.21,0.058-0.322,0.199-0.332c0.139-0.009,0.236,0.104,0.247,0.278l0.001,0.018L117.857,13.995z"
		/>
	
		<path clip-path="url(#SVGID_2_)" fill="none" stroke="#FFFFFF" stroke-width="0.5" stroke-linecap="round" stroke-linejoin="round" stroke-miterlimit="10" d="
		M117.857,13.995V14c0.013,0.191-0.053,0.28-0.196,0.29c-0.151,0.01-0.24-0.074-0.25-0.231l-0.001-0.011l-0.095-1.436l-0.001-0.012
		c-0.004-0.059-0.01-0.059-0.101-0.053l-0.023,0.002l-1.771,0.117l-0.028,0.002c-0.049,0.003-0.064,0.022-0.062,0.076h0.006
		l0.001,0.029l0.082,1.401l0.002,0.042c0.01,0.132-0.081,0.233-0.211,0.242c-0.144,0.01-0.221-0.069-0.232-0.242l-0.003-0.042
		l-0.225-3.392l-0.003-0.03c-0.011-0.173,0.065-0.286,0.209-0.296c0.155-0.011,0.233,0.074,0.246,0.266l0.001,0.018l0.092,1.394
		l0.001,0.017c0.004,0.054,0.018,0.066,0.077,0.062l0.024-0.002l1.775-0.118l0.036-0.002c0.061-0.004,0.071-0.017,0.067-0.082
		l-0.002-0.031l-0.09-1.345l-0.001-0.012c-0.014-0.21,0.058-0.322,0.199-0.332c0.139-0.009,0.236,0.104,0.247,0.278l0.001,0.018
		L117.857,13.995z"/>
	<path clip-path="url(#SVGID_2_)" fill="#FFFFFF" d="M121.908,12.437l0.002,0.023c0.061,0.915-0.512,1.614-1.362,1.671
		c-0.508,0.033-1.049-0.231-1.303-0.641c-0.142-0.218-0.226-0.501-0.247-0.812l-0.002-0.03l-0.066-1.005l-0.002-0.03
		c-0.055-0.826,0.554-1.527,1.373-1.582c0.532-0.035,1.078,0.242,1.317,0.665c0.13,0.225,0.209,0.52,0.231,0.849l0.003,0.048
		L121.908,12.437z M119.438,12.593l0.002,0.03c0.046,0.688,0.477,1.111,1.086,1.07c0.616-0.041,0.987-0.522,0.94-1.216l-0.003-0.036
		l-0.055-0.837l-0.002-0.042c-0.037-0.551-0.2-0.834-0.578-1.007c-0.156-0.074-0.326-0.105-0.499-0.094
		c-0.58,0.039-0.997,0.541-0.956,1.157l0.002,0.031L119.438,12.593z"/>
	
		<path clip-path="url(#SVGID_2_)" fill="none" stroke="#FFFFFF" stroke-width="0.5" stroke-linecap="round" stroke-linejoin="round" stroke-miterlimit="10" d="
		M121.908,12.437l0.002,0.023c0.061,0.915-0.512,1.614-1.362,1.671c-0.508,0.033-1.049-0.231-1.303-0.641
		c-0.142-0.218-0.226-0.501-0.247-0.812l-0.002-0.03l-0.066-1.005l-0.002-0.03c-0.055-0.826,0.554-1.527,1.373-1.582
		c0.532-0.035,1.078,0.242,1.317,0.665c0.13,0.225,0.209,0.52,0.231,0.849l0.003,0.048L121.908,12.437z M119.438,12.593l0.002,0.03
		c0.046,0.688,0.477,1.111,1.086,1.07c0.616-0.041,0.987-0.522,0.94-1.216l-0.003-0.036l-0.055-0.837l-0.002-0.042
		c-0.037-0.551-0.2-0.834-0.578-1.007c-0.156-0.074-0.326-0.105-0.499-0.094c-0.58,0.039-0.997,0.541-0.956,1.157l0.002,0.031
		L119.438,12.593z"/>
	<path clip-path="url(#SVGID_2_)" fill="#FFFFFF" d="M125.097,9.798l0.042-0.003c0.18-0.012,0.28,0.06,0.29,0.203
		c0.01,0.15-0.069,0.221-0.268,0.234l-0.023,0.002l-0.79,0.052l-0.023,0.001c-0.037,0.003-0.052,0.034-0.049,0.082l0.001,0.012
		l0.209,3.152l0.003,0.042c0.011,0.186-0.065,0.286-0.209,0.296c-0.144,0.01-0.227-0.075-0.24-0.266l-0.003-0.042l-0.21-3.164
		l-0.001-0.012c-0.003-0.06-0.01-0.066-0.076-0.062l-0.017,0.002l-0.802,0.053l-0.02,0.001c-0.214,0.015-0.301-0.034-0.312-0.189
		c-0.011-0.162,0.062-0.233,0.254-0.246l0.03-0.002L125.097,9.798z"/>
	
		<path clip-path="url(#SVGID_2_)" fill="none" stroke="#FFFFFF" stroke-width="0.5" stroke-linecap="round" stroke-linejoin="round" stroke-miterlimit="10" d="
		M125.097,9.798l0.042-0.003c0.18-0.012,0.28,0.06,0.29,0.203c0.01,0.15-0.069,0.221-0.268,0.234l-0.023,0.002l-0.79,0.052
		l-0.023,0.001c-0.037,0.003-0.052,0.034-0.049,0.082l0.001,0.012l0.209,3.152l0.003,0.042c0.011,0.186-0.065,0.286-0.209,0.296
		c-0.144,0.01-0.227-0.075-0.24-0.266l-0.003-0.042l-0.21-3.164l-0.001-0.012c-0.003-0.06-0.01-0.066-0.076-0.062l-0.017,0.002
		l-0.802,0.053l-0.02,0.001c-0.214,0.015-0.301-0.034-0.312-0.189c-0.011-0.162,0.062-0.233,0.254-0.246l0.03-0.002L125.097,9.798z"
		/>
	<path clip-path="url(#SVGID_2_)" fill="#FFFFFF" d="M129.027,9.491l0.022-0.001c0.163-0.011,0.265,0.066,0.273,0.204
		c0.01,0.144-0.075,0.221-0.237,0.232l-0.03,0.002l-1.998,0.132l-0.035,0.002c-0.065,0.005-0.09,0.025-0.085,0.073l0.001,0.017
		l0.077,1.185l0.003,0.017c0.003,0.054,0.021,0.066,0.081,0.061l0.024-0.001l1.597-0.1l0.031-0.003
		c0.161-0.01,0.268,0.061,0.276,0.187c0.009,0.138-0.08,0.239-0.218,0.249l-0.024,0.001l-1.663,0.104l-0.024,0.002
		c-0.035,0.002-0.058,0.022-0.057,0.046c0.001,0.006,0.001,0.006,0.002,0.024l0.001,0.011l0.073,1.203l0.002,0.03
		c0.002,0.024,0.027,0.041,0.062,0.038l0.031-0.002l1.992-0.132l0.042-0.003c0.184-0.012,0.292,0.059,0.301,0.202
		c0.008,0.132-0.086,0.235-0.212,0.242l-0.042,0.003l-2.267,0.151l-0.036,0.003c-0.215,0.013-0.285-0.041-0.299-0.257l-0.001-0.006
		l-0.208-3.411l-0.002-0.029c-0.018-0.264,0.045-0.322,0.367-0.343l0.035-0.003L129.027,9.491z"/>
	
		<path clip-path="url(#SVGID_2_)" fill="none" stroke="#FFFFFF" stroke-width="0.5" stroke-linecap="round" stroke-linejoin="round" stroke-miterlimit="10" d="
		M129.027,9.491l0.022-0.001c0.163-0.011,0.265,0.066,0.273,0.204c0.01,0.144-0.075,0.221-0.237,0.232l-0.03,0.002l-1.998,0.132
		l-0.035,0.002c-0.065,0.005-0.09,0.025-0.085,0.073l0.001,0.017l0.077,1.185l0.003,0.017c0.003,0.054,0.021,0.066,0.081,0.061
		l0.024-0.001l1.597-0.1l0.031-0.003c0.161-0.01,0.268,0.061,0.276,0.187c0.009,0.138-0.08,0.239-0.218,0.249l-0.024,0.001
		l-1.663,0.104l-0.024,0.002c-0.035,0.002-0.058,0.022-0.057,0.046c0.001,0.006,0.001,0.006,0.002,0.024l0.001,0.011l0.073,1.203
		l0.002,0.03c0.002,0.024,0.027,0.041,0.062,0.038l0.031-0.002l1.992-0.132l0.042-0.003c0.184-0.012,0.292,0.059,0.301,0.202
		c0.008,0.132-0.086,0.235-0.212,0.242l-0.042,0.003l-2.267,0.151l-0.036,0.003c-0.215,0.013-0.285-0.041-0.299-0.257l-0.001-0.006
		l-0.208-3.411l-0.002-0.029c-0.018-0.264,0.045-0.322,0.367-0.343l0.035-0.003L129.027,9.491z"/>
	<path clip-path="url(#SVGID_2_)" fill="#FFFFFF" d="M131.256,12.901l0.001,0.019c0.003,0.041,0.016,0.046,0.057,0.043l0.024-0.001
		l1.591-0.106l0.036-0.002c0.186-0.013,0.278,0.047,0.289,0.191c0.01,0.143-0.093,0.241-0.254,0.252h-0.023l-1.759,0.118
		l-0.03,0.002c-0.287,0.018-0.353-0.068-0.382-0.504l-0.002-0.03l-0.201-3.128l-0.001-0.019c-0.014-0.203,0.045-0.309,0.188-0.318
		c0.138-0.009,0.234,0.08,0.242,0.223l0.004,0.048L131.256,12.901z"/>
	
		<path clip-path="url(#SVGID_2_)" fill="none" stroke="#FFFFFF" stroke-width="0.5" stroke-linecap="round" stroke-linejoin="round" stroke-miterlimit="10" d="
		M131.256,12.901l0.001,0.019c0.003,0.041,0.016,0.046,0.057,0.043l0.024-0.001l1.591-0.106l0.036-0.002
		c0.186-0.013,0.278,0.047,0.289,0.191c0.01,0.143-0.093,0.241-0.254,0.252h-0.023l-1.759,0.118l-0.03,0.002
		c-0.287,0.018-0.353-0.068-0.382-0.504l-0.002-0.03l-0.201-3.128l-0.001-0.019c-0.014-0.203,0.045-0.309,0.188-0.318
		c0.138-0.009,0.234,0.08,0.242,0.223l0.004,0.048L131.256,12.901z"/>
	<path clip-path="url(#SVGID_2_)" fill="#6FBA2C" d="M50.768,62.225c-1.505-1.881-5.168-0.989-6.867-1.881
		c-1.761-0.926-0.006-2.023-0.006-2.023s-2.326-1.589-2.282-3.949c0.049-2.544,1.536-2.282,1.536-2.282s-1.846-1.466-1.185-3.787
		c0.473-1.659,1.8-1.392,1.8-1.392s-1.141-2.458-0.439-4.142c0.612-1.469,2.019-1.151,2.019-1.151s-1.054-1.906-0.351-3.484
		c0.687-1.545,1.492-1.185,1.492-1.185s-1.109-3.176,1.254-3.815c-0.289-1.252,1.005-2.11,1.686-1.357
		c0.307-3.469,4.301-3.177,3.763,0.148c0.582,0.149,1.459,0.297,1.942,2.151c0.405,1.556-0.219,3.445-0.219,3.445
		s1.014-0.223,1.316,0.955c0.326,1.268,0.088,2.738-0.62,3.783c0,0,1.366-0.423,1.7,1.498c0.355,2.045-0.421,3.696-0.421,3.696
		s1.449-0.38,1.492,1.652c0.044,2.106-1.01,3.511-1.01,3.511s1.628-0.526,1.624,1.536c-0.005,2.586-2.063,3.957-2.063,3.957
		s0.891,1.441-0.231,1.962C54.702,61,52.792,60.532,50.768,62.225"/>
	<path clip-path="url(#SVGID_2_)" d="M50.767,62.825c-0.019,0-0.04-0.001-0.059-0.003c-0.161-0.016-0.309-0.096-0.409-0.222
		c-0.745-0.931-2.273-1.045-3.75-1.154c-1.102-0.082-2.143-0.16-2.928-0.572c-0.711-0.374-1.082-0.851-1.104-1.42
		c-0.016-0.45,0.204-0.833,0.451-1.116c-0.764-0.695-1.991-2.107-1.955-3.978c0.022-1.164,0.328-1.996,0.908-2.475
		c0.045-0.037,0.09-0.071,0.137-0.102c-0.549-0.75-1.136-2.011-0.672-3.645c0.306-1.072,0.941-1.562,1.534-1.75
		c-0.314-0.94-0.689-2.557-0.15-3.85c0.39-0.933,1.067-1.343,1.684-1.488c-0.271-0.799-0.513-2.031-0.01-3.161
		c0.34-0.765,0.774-1.259,1.287-1.468c-0.133-0.695-0.217-1.76,0.239-2.624c0.249-0.471,0.635-0.835,1.129-1.067
		c0.019-0.699,0.387-1.338,0.993-1.654c0.287-0.151,0.586-0.205,0.881-0.172c0.263-0.951,0.828-1.662,1.615-2.005
		c0.773-0.338,1.654-0.237,2.297,0.263c0.653,0.507,0.987,1.339,0.948,2.331c0.748,0.273,1.46,0.826,1.878,2.431
		c0.286,1.102,0.119,2.32-0.043,3.07c0.477,0.165,0.942,0.563,1.139,1.333c0.288,1.119,0.191,2.353-0.243,3.407
		c0.099,0.036,0.199,0.085,0.3,0.145c0.538,0.329,0.886,0.926,1.033,1.775c0.234,1.34,0.024,2.52-0.185,3.257
		c0.156,0.052,0.318,0.13,0.474,0.248c0.506,0.382,0.772,1.033,0.79,1.933c0.027,1.245-0.296,2.267-0.603,2.949
		c0.154,0.049,0.309,0.123,0.458,0.232c0.507,0.369,0.762,1.002,0.761,1.88c-0.005,2.143-1.247,3.532-1.916,4.126
		c0.143,0.369,0.269,0.893,0.12,1.393c-0.125,0.418-0.418,0.743-0.846,0.943c-0.849,0.395-1.667,0.553-2.459,0.708
		c-1.145,0.222-2.227,0.432-3.339,1.362C51.044,62.776,50.907,62.825,50.767,62.825 M43.03,52.68c-0.05,0-0.209,0.01-0.362,0.146
		c-0.28,0.244-0.441,0.797-0.455,1.557c-0.038,2.012,2,3.428,2.021,3.443c0.167,0.114,0.265,0.304,0.261,0.506
		c-0.004,0.203-0.11,0.39-0.281,0.497c-0.234,0.15-0.503,0.436-0.497,0.58c0.001,0.057,0.101,0.213,0.462,0.403
		c0.564,0.296,1.485,0.364,2.458,0.437c1.458,0.108,3.088,0.229,4.187,1.175c1.189-0.843,2.331-1.064,3.438-1.279
		c0.754-0.147,1.466-0.285,2.182-0.618c0.146-0.069,0.184-0.139,0.202-0.2c0.076-0.254-0.111-0.714-0.228-0.904
		c-0.17-0.275-0.091-0.636,0.177-0.814c0.072-0.049,1.791-1.24,1.797-3.458c0-0.456-0.093-0.778-0.264-0.907
		c-0.216-0.159-0.578-0.057-0.581-0.055c-0.251,0.072-0.52-0.019-0.668-0.232c-0.148-0.212-0.147-0.494,0.008-0.702
		c0.008-0.011,0.929-1.281,0.89-3.138c-0.011-0.494-0.12-0.847-0.308-0.995c-0.181-0.142-0.439-0.087-0.441-0.087
		c-0.225,0.051-0.46-0.03-0.603-0.209c-0.144-0.177-0.179-0.42-0.083-0.627c0.006-0.015,0.69-1.519,0.374-3.34
		c-0.085-0.486-0.25-0.817-0.478-0.955c-0.212-0.131-0.451-0.074-0.453-0.072c-0.242,0.073-0.507-0.01-0.659-0.215
		c-0.153-0.205-0.158-0.483-0.016-0.694c0.609-0.9,0.819-2.194,0.535-3.298c-0.147-0.574-0.503-0.541-0.606-0.518
		c-0.209,0.049-0.429-0.024-0.574-0.184c-0.145-0.16-0.192-0.386-0.125-0.59c0.005-0.017,0.563-1.745,0.209-3.106
		c-0.373-1.437-0.915-1.571-1.437-1.702c-0.303-0.075-0.566-0.388-0.518-0.696c0.126-0.775-0.036-1.402-0.445-1.718
		c-0.3-0.236-0.706-0.277-1.082-0.112c-0.583,0.254-0.964,0.922-1.045,1.83c-0.021,0.238-0.18,0.441-0.407,0.516
		c-0.228,0.077-0.477,0.01-0.635-0.166c-0.037-0.039-0.132-0.145-0.333-0.039c-0.224,0.117-0.422,0.436-0.324,0.858
		c0.072,0.315-0.117,0.63-0.429,0.714c-0.409,0.111-0.69,0.322-0.861,0.643c-0.401,0.758-0.123,1.987,0.018,2.397
		c0.078,0.226,0.014,0.477-0.162,0.639c-0.176,0.161-0.429,0.204-0.65,0.105c-0.041,0-0.361,0.122-0.699,0.881
		c-0.57,1.281,0.32,2.935,0.329,2.951c0.113,0.207,0.096,0.462-0.047,0.65c-0.142,0.187-0.376,0.275-0.61,0.224
		c-0.153-0.028-0.945-0.137-1.334,0.798c-0.493,1.182,0.143,3.041,0.429,3.658c0.096,0.205,0.068,0.446-0.072,0.624
		c-0.14,0.177-0.37,0.26-0.59,0.216c-0.175-0.022-0.814-0.049-1.104,0.968c-0.545,1.914,0.966,3.141,0.981,3.153
		c0.215,0.171,0.287,0.466,0.174,0.716c-0.112,0.25-0.383,0.389-0.65,0.345H43.03z"/>
	<path clip-path="url(#SVGID_2_)" d="M50.768,69.3c-0.331,0-0.6-0.269-0.6-0.6V44.136c0-0.331,0.269-0.6,0.6-0.6s0.6,0.269,0.6,0.6
		V68.7C51.367,69.031,51.099,69.3,50.768,69.3"/>
	<path clip-path="url(#SVGID_2_)" d="M50.768,58.708c-0.174,0-0.347-0.075-0.465-0.221c-0.21-0.257-0.171-0.634,0.086-0.843
		c3.362-2.744,4.618-8.915,4.63-8.976c0.064-0.326,0.385-0.534,0.705-0.473c0.325,0.065,0.536,0.38,0.473,0.705
		c-0.054,0.271-1.35,6.656-5.05,9.673C51.035,58.664,50.901,58.708,50.768,58.708"/>
	<path clip-path="url(#SVGID_2_)" d="M50.767,53.287c-0.097,0-0.196-0.024-0.288-0.074c-0.184-0.102-4.511-2.554-4.356-9.308
		c0.008-0.332,0.308-0.559,0.614-0.586c0.331,0.008,0.593,0.282,0.586,0.614c-0.139,6.032,3.695,8.207,3.734,8.227
		c0.29,0.16,0.397,0.524,0.237,0.815C51.185,53.173,50.979,53.287,50.767,53.287"/>
	<path clip-path="url(#SVGID_2_)" d="M50.767,48.902c-0.114,0-0.23-0.032-0.333-0.102c-0.275-0.184-0.349-0.556-0.164-0.832
		c1.971-2.94,2.316-6.857,2.32-6.896c0.027-0.331,0.316-0.59,0.648-0.548c0.33,0.027,0.575,0.317,0.548,0.648
		c-0.014,0.172-0.377,4.268-2.52,7.464C51.15,48.809,50.959,48.902,50.767,48.902"/>
	<path clip-path="url(#SVGID_2_)" fill="#6FBA2C" d="M63.964,62.225c-1.505-1.881-5.168-0.989-6.867-1.881
		c-1.761-0.926-0.006-2.023-0.006-2.023s-2.326-1.589-2.282-3.949c0.049-2.544,1.536-2.282,1.536-2.282s-1.846-1.466-1.185-3.787
		c0.473-1.659,1.8-1.392,1.8-1.392s-1.141-2.458-0.439-4.142c0.612-1.469,2.019-1.151,2.019-1.151s-1.054-1.906-0.351-3.484
		c0.687-1.545,1.492-1.185,1.492-1.185s-1.109-3.176,1.254-3.815c-0.289-1.252,1.005-2.11,1.686-1.357
		c0.307-3.469,4.301-3.177,3.763,0.148c0.582,0.149,1.459,0.297,1.942,2.151c0.405,1.556-0.219,3.445-0.219,3.445
		s1.014-0.223,1.316,0.955c0.326,1.268,0.088,2.738-0.62,3.783c0,0,1.366-0.423,1.7,1.498c0.355,2.045-0.421,3.696-0.421,3.696
		s1.449-0.38,1.492,1.652c0.044,2.106-1.01,3.511-1.01,3.511s1.628-0.526,1.624,1.536c-0.005,2.586-2.063,3.957-2.063,3.957
		s0.891,1.441-0.231,1.962C67.898,61,65.988,60.532,63.964,62.225"/>
	<path clip-path="url(#SVGID_2_)" d="M63.963,62.825c-0.019,0-0.04-0.001-0.059-0.003c-0.161-0.016-0.309-0.096-0.409-0.222
		c-0.745-0.931-2.273-1.045-3.75-1.154c-1.102-0.082-2.143-0.16-2.928-0.572c-0.711-0.374-1.082-0.851-1.104-1.42
		c-0.016-0.45,0.204-0.833,0.451-1.116c-0.764-0.695-1.991-2.107-1.955-3.978c0.022-1.164,0.328-1.996,0.908-2.475
		c0.045-0.037,0.091-0.071,0.137-0.102c-0.549-0.75-1.136-2.011-0.671-3.646c0.306-1.071,0.941-1.561,1.533-1.749
		c-0.313-0.94-0.688-2.557-0.149-3.85c0.389-0.933,1.066-1.343,1.683-1.488c-0.271-0.799-0.513-2.031-0.01-3.161
		c0.34-0.765,0.774-1.259,1.287-1.469c-0.132-0.694-0.216-1.759,0.24-2.623c0.249-0.472,0.634-0.835,1.128-1.067
		c0.019-0.699,0.387-1.338,0.993-1.654c0.287-0.151,0.586-0.205,0.881-0.172c0.263-0.951,0.828-1.662,1.615-2.005
		c0.773-0.338,1.654-0.237,2.297,0.263c0.653,0.507,0.987,1.339,0.948,2.331c0.748,0.273,1.46,0.826,1.878,2.431
		c0.286,1.102,0.119,2.32-0.043,3.07c0.477,0.165,0.943,0.563,1.14,1.332c0.287,1.121,0.19,2.355-0.244,3.408
		c0.1,0.037,0.2,0.085,0.3,0.145c0.538,0.329,0.886,0.926,1.033,1.775c0.234,1.34,0.024,2.52-0.185,3.257
		c0.156,0.052,0.318,0.13,0.474,0.248c0.506,0.382,0.773,1.033,0.791,1.933c0.027,1.245-0.297,2.267-0.603,2.949
		c0.153,0.049,0.308,0.123,0.457,0.232c0.507,0.369,0.762,1.002,0.761,1.88c-0.004,2.143-1.246,3.532-1.916,4.126
		c0.144,0.369,0.27,0.893,0.121,1.393c-0.125,0.418-0.418,0.743-0.846,0.943c-0.85,0.395-1.668,0.553-2.459,0.708
		c-1.146,0.222-2.228,0.432-3.34,1.362C64.24,62.776,64.104,62.825,63.963,62.825 M56.226,52.68c-0.05,0-0.209,0.01-0.362,0.146
		c-0.28,0.244-0.441,0.797-0.455,1.557c-0.038,2.012,2,3.428,2.021,3.443c0.167,0.114,0.265,0.304,0.261,0.506
		c-0.004,0.203-0.11,0.39-0.281,0.497c-0.234,0.15-0.503,0.436-0.497,0.58c0.001,0.057,0.101,0.213,0.462,0.403
		c0.564,0.296,1.485,0.364,2.458,0.437c1.458,0.108,3.088,0.229,4.187,1.175c1.189-0.843,2.331-1.064,3.439-1.279
		c0.753-0.147,1.466-0.285,2.182-0.618c0.146-0.069,0.184-0.139,0.202-0.2c0.076-0.254-0.111-0.714-0.228-0.904
		c-0.17-0.275-0.091-0.636,0.177-0.814c0.072-0.049,1.791-1.24,1.796-3.458c0-0.456-0.093-0.778-0.264-0.907
		c-0.215-0.159-0.578-0.057-0.581-0.055c-0.25,0.072-0.52-0.019-0.668-0.232c-0.148-0.212-0.147-0.494,0.008-0.702
		c0.008-0.011,0.929-1.281,0.891-3.138c-0.011-0.494-0.12-0.847-0.309-0.995c-0.18-0.142-0.439-0.087-0.441-0.087
		c-0.224,0.051-0.46-0.03-0.603-0.209c-0.144-0.177-0.179-0.42-0.083-0.627c0.006-0.015,0.69-1.519,0.374-3.34
		c-0.085-0.486-0.25-0.817-0.478-0.955c-0.212-0.131-0.451-0.074-0.453-0.072c-0.242,0.073-0.507-0.01-0.659-0.215
		c-0.153-0.206-0.158-0.484-0.016-0.695c0.609-0.898,0.819-2.192,0.536-3.297c-0.147-0.575-0.504-0.541-0.606-0.518
		c-0.21,0.049-0.429-0.024-0.574-0.184c-0.144-0.16-0.192-0.385-0.125-0.59c0.005-0.017,0.562-1.745,0.208-3.106
		c-0.373-1.437-0.915-1.571-1.437-1.702c-0.303-0.075-0.566-0.388-0.518-0.696c0.126-0.775-0.036-1.402-0.445-1.718
		c-0.301-0.236-0.705-0.277-1.082-0.112c-0.583,0.254-0.964,0.922-1.045,1.83c-0.021,0.238-0.18,0.441-0.407,0.516
		c-0.229,0.077-0.477,0.01-0.635-0.166c-0.037-0.039-0.132-0.145-0.333-0.039c-0.224,0.117-0.422,0.436-0.324,0.858
		c0.072,0.315-0.117,0.63-0.429,0.714c-0.408,0.111-0.69,0.321-0.86,0.643c-0.402,0.758-0.124,1.987,0.017,2.397
		c0.078,0.226,0.014,0.477-0.162,0.639c-0.176,0.161-0.428,0.204-0.65,0.105c-0.041,0-0.361,0.122-0.699,0.881
		c-0.57,1.281,0.32,2.935,0.329,2.951c0.113,0.207,0.096,0.462-0.047,0.65c-0.143,0.187-0.377,0.275-0.61,0.224
		c-0.152-0.028-0.943-0.136-1.333,0.797c-0.491,1.177,0.143,3.04,0.429,3.66c0.094,0.205,0.066,0.446-0.074,0.623
		c-0.14,0.177-0.367,0.26-0.589,0.216c-0.175-0.022-0.813-0.049-1.103,0.968c-0.54,1.894,0.92,3.105,0.982,3.155
		c0.213,0.172,0.283,0.467,0.17,0.716c-0.113,0.249-0.382,0.388-0.648,0.343H56.226z"/>
	<path clip-path="url(#SVGID_2_)" d="M63.964,69.3c-0.331,0-0.6-0.269-0.6-0.6V44.136c0-0.331,0.269-0.6,0.6-0.6s0.6,0.269,0.6,0.6
		V68.7C64.563,69.031,64.295,69.3,63.964,69.3"/>
	<path clip-path="url(#SVGID_2_)" d="M63.964,58.708c-0.174,0-0.347-0.075-0.465-0.221c-0.21-0.257-0.171-0.634,0.086-0.843
		c3.362-2.744,4.618-8.915,4.63-8.976c0.064-0.326,0.386-0.534,0.705-0.473c0.325,0.065,0.536,0.38,0.473,0.705
		c-0.054,0.271-1.35,6.656-5.05,9.673C64.232,58.664,64.098,58.708,63.964,58.708"/>
	<path clip-path="url(#SVGID_2_)" d="M63.963,53.287c-0.097,0-0.196-0.024-0.288-0.074c-0.184-0.102-4.511-2.554-4.356-9.308
		c0.008-0.332,0.315-0.559,0.614-0.586c0.331,0.008,0.593,0.282,0.586,0.614c-0.139,6.032,3.695,8.207,3.734,8.227
		c0.29,0.16,0.397,0.524,0.237,0.815C64.381,53.173,64.175,53.287,63.963,53.287"/>
	<path clip-path="url(#SVGID_2_)" d="M63.963,48.902c-0.114,0-0.23-0.032-0.333-0.102c-0.275-0.184-0.349-0.556-0.164-0.832
		c1.971-2.94,2.316-6.857,2.32-6.896c0.027-0.331,0.319-0.59,0.648-0.548c0.33,0.027,0.575,0.317,0.548,0.648
		c-0.014,0.172-0.377,4.268-2.52,7.464C64.347,48.809,64.156,48.902,63.963,48.902"/>
	<path clip-path="url(#SVGID_2_)" fill="#E8373D" d="M171.247,47.871c0-4.034-3.27-7.304-7.304-7.304s-7.305,3.27-7.305,7.304
		c0,0.511,0.064,3.302,2.174,6.112c2.109,2.811,2.775,4.039,3.664,7.144c0.629,2.199,1.103,4.121,1.324,5.056
		c0.036,0.15,0.247,0.15,0.283,0c0.224-0.935,0.696-2.857,1.325-5.056c0.889-3.105,1.555-4.333,3.664-7.144
		C171.184,51.173,171.247,48.382,171.247,47.871"/>
	<path clip-path="url(#SVGID_2_)" d="M163.943,66.796c-0.299,0-0.558-0.204-0.628-0.496c-0.225-0.94-0.693-2.843-1.319-5.035
		c-0.85-2.967-1.452-4.14-3.583-6.981c-2.111-2.812-2.275-5.619-2.275-6.412c0-4.304,3.501-7.805,7.806-7.805
		c4.303,0,7.804,3.501,7.804,7.805c0,0.794-0.164,3.601-2.275,6.412c-2.131,2.841-2.733,4.014-3.582,6.981
		c-0.616,2.16-1.093,4.081-1.319,5.034c-0.068,0.29-0.325,0.496-0.625,0.497H163.943z M163.943,41.067
		c-3.752,0-6.806,3.053-6.806,6.805c0,0.715,0.15,3.247,2.075,5.812c2.07,2.76,2.813,4.053,3.744,7.306
		c0.4,1.398,0.736,2.68,0.986,3.673c0.253-1.002,0.59-2.288,0.985-3.673c0.931-3.252,1.673-4.546,3.743-7.306
		c1.925-2.563,2.075-5.096,2.075-5.812C170.747,44.12,167.695,41.067,163.943,41.067"/>
	<path clip-path="url(#SVGID_2_)" fill="#A52126" d="M166.455,47.991c0,1.388-1.125,2.513-2.513,2.513
		c-1.387,0-2.512-1.125-2.512-2.513c0-1.388,1.125-2.513,2.512-2.513C165.33,45.478,166.455,46.603,166.455,47.991"/>
	<path clip-path="url(#SVGID_2_)" d="M163.943,51.003c-1.661,0-3.014-1.351-3.014-3.012c0-1.661,1.353-3.013,3.014-3.013
		s3.013,1.352,3.013,3.013C166.956,49.652,165.604,51.003,163.943,51.003 M163.943,45.978c-1.109,0-2.014,0.903-2.014,2.013
		c0,1.109,0.904,2.012,2.014,2.012c1.108,0,2.013-0.903,2.013-2.012C165.956,46.881,165.052,45.978,163.943,45.978"/>
	<path clip-path="url(#SVGID_2_)" fill="#E60012" d="M69.187,178.609c-0.105,0-0.209-0.027-0.301-0.08l-1.338-0.774
		c-0.286-0.166-0.384-0.533-0.218-0.82c0.167-0.287,0.533-0.384,0.82-0.219l1.152,0.667l1.224-0.2
		c0.324-0.056,0.636,0.168,0.688,0.495c0.054,0.326-0.168,0.635-0.495,0.688l-1.435,0.235
		C69.252,178.607,69.219,178.609,69.187,178.609 M73.582,177.888c-0.289,0-0.543-0.209-0.591-0.503
		c-0.054-0.327,0.168-0.636,0.495-0.688l2.961-0.485c0.324-0.056,0.636,0.168,0.688,0.495c0.054,0.327-0.168,0.636-0.495,0.688
		l-2.961,0.484C73.647,177.886,73.614,177.888,73.582,177.888 M79.502,176.918c-0.288,0-0.542-0.208-0.59-0.503
		c-0.054-0.326,0.168-0.635,0.495-0.688l2.961-0.485c0.324-0.056,0.635,0.167,0.688,0.495c0.054,0.326-0.168,0.635-0.495,0.688
		l-2.961,0.485C79.568,176.917,79.535,176.918,79.502,176.918 M65.252,176.332c-0.101,0-0.205-0.026-0.299-0.081l-2.596-1.504
		c-0.287-0.166-0.385-0.533-0.219-0.82c0.166-0.286,0.534-0.385,0.821-0.219l2.595,1.504c0.287,0.166,0.385,0.533,0.219,0.82
		C65.662,176.224,65.46,176.332,65.252,176.332 M85.423,175.948c-0.288,0-0.543-0.208-0.59-0.503
		c-0.054-0.326,0.168-0.635,0.495-0.688l2.961-0.485c0.324-0.056,0.635,0.167,0.688,0.495c0.054,0.326-0.168,0.635-0.495,0.688
		l-2.961,0.485C85.489,175.946,85.456,175.948,85.423,175.948 M91.345,174.977c-0.287,0-0.543-0.208-0.591-0.503
		c-0.053-0.327,0.168-0.636,0.496-0.688l2.96-0.484c0.324-0.057,0.635,0.167,0.688,0.495c0.054,0.327-0.168,0.636-0.495,0.688
		l-2.96,0.484C91.411,174.975,91.377,174.977,91.345,174.977 M97.267,174.007c-0.288,0-0.543-0.208-0.592-0.503
		c-0.053-0.326,0.168-0.635,0.495-0.688l2.96-0.485c0.325-0.057,0.637,0.167,0.689,0.495c0.054,0.326-0.168,0.635-0.495,0.688
		L97.364,174C97.332,174.005,97.298,174.007,97.267,174.007 M60.06,173.325c-0.101,0-0.205-0.026-0.3-0.081l-2.595-1.504
		c-0.288-0.166-0.385-0.533-0.219-0.82s0.533-0.385,0.82-0.219l2.596,1.504c0.287,0.166,0.385,0.534,0.219,0.82
		C60.469,173.217,60.267,173.325,60.06,173.325 M103.188,173.037c-0.288,0-0.543-0.208-0.591-0.503
		c-0.054-0.326,0.168-0.635,0.494-0.688l2.96-0.485c0.325-0.057,0.637,0.167,0.689,0.495c0.053,0.326-0.168,0.635-0.495,0.688
		l-2.96,0.485C103.252,173.035,103.219,173.037,103.188,173.037 M109.108,172.066c-0.288,0-0.543-0.208-0.591-0.503
		c-0.055-0.327,0.168-0.636,0.494-0.688l2.961-0.484c0.323-0.058,0.636,0.167,0.688,0.495c0.053,0.327-0.168,0.636-0.495,0.688
		l-2.96,0.484C109.173,172.064,109.141,172.066,109.108,172.066 M115.029,171.096c-0.288,0-0.543-0.208-0.591-0.503
		c-0.055-0.326,0.168-0.635,0.495-0.688l2.961-0.486c0.322-0.058,0.636,0.167,0.688,0.495c0.053,0.326-0.168,0.635-0.496,0.688
		l-2.96,0.485C115.094,171.094,115.062,171.096,115.029,171.096 M54.869,170.317c-0.102,0-0.205-0.026-0.3-0.081l-2.596-1.503
		c-0.287-0.166-0.385-0.533-0.219-0.82c0.166-0.286,0.535-0.384,0.821-0.219l2.595,1.504c0.288,0.166,0.385,0.532,0.219,0.819
		C55.278,170.209,55.076,170.317,54.869,170.317 M120.95,170.125c-0.288,0-0.543-0.208-0.591-0.503
		c-0.054-0.326,0.168-0.634,0.495-0.688l2.961-0.485c0.323-0.058,0.636,0.167,0.688,0.495c0.055,0.326-0.168,0.635-0.495,0.688
		l-2.961,0.485C121.016,170.124,120.982,170.125,120.95,170.125 M126.871,169.156c-0.288,0-0.543-0.208-0.591-0.503
		c-0.054-0.326,0.168-0.635,0.495-0.688l2.961-0.485c0.323-0.059,0.636,0.167,0.688,0.495c0.055,0.326-0.168,0.635-0.494,0.688
		l-2.962,0.485C126.937,169.154,126.903,169.156,126.871,169.156 M132.792,168.186c-0.289,0-0.543-0.209-0.591-0.504
		c-0.054-0.326,0.168-0.635,0.495-0.688l2.961-0.485c0.323-0.059,0.636,0.167,0.688,0.495c0.055,0.326-0.168,0.635-0.494,0.688
		l-2.961,0.485C132.857,168.183,132.824,168.186,132.792,168.186 M49.676,167.31c-0.101,0-0.205-0.026-0.3-0.081l-2.595-1.504
		c-0.287-0.166-0.385-0.533-0.219-0.819c0.167-0.288,0.533-0.386,0.82-0.22l2.596,1.504c0.287,0.167,0.385,0.533,0.219,0.82
		C50.085,167.203,49.883,167.31,49.676,167.31 M138.712,167.214c-0.288,0-0.543-0.208-0.59-0.503
		c-0.054-0.326,0.168-0.635,0.495-0.688l2.961-0.485c0.323-0.059,0.635,0.167,0.688,0.495c0.054,0.326-0.168,0.635-0.495,0.688
		l-2.961,0.485C138.778,167.212,138.745,167.214,138.712,167.214 M144.634,166.245c-0.288,0-0.543-0.208-0.591-0.503
		c-0.053-0.326,0.168-0.635,0.496-0.688l2.96-0.485c0.323-0.055,0.635,0.168,0.688,0.495c0.054,0.326-0.168,0.635-0.495,0.688
		l-2.96,0.485C144.7,166.243,144.667,166.245,144.634,166.245 M150.556,165.274c-0.288,0-0.544-0.208-0.592-0.503
		c-0.053-0.326,0.168-0.635,0.496-0.688l2.959-0.485c0.324-0.055,0.637,0.168,0.689,0.495c0.054,0.326-0.168,0.635-0.495,0.688
		l-2.96,0.485C150.621,165.272,150.587,165.274,150.556,165.274 M156.477,164.303c-0.288,0-0.543-0.208-0.592-0.503
		c-0.053-0.327,0.168-0.635,0.495-0.688l0.713-0.117c0.006-0.026,0.012-0.054,0.021-0.08c0.098-0.316,0.435-0.491,0.752-0.393
		l0.861,0.271c0.266,0.083,0.438,0.338,0.419,0.615c-0.02,0.276-0.228,0.504-0.502,0.549l-2.069,0.339
		C156.542,164.301,156.508,164.303,156.477,164.303 M44.485,164.303c-0.102,0-0.205-0.026-0.3-0.081l-2.597-1.504
		c-0.287-0.166-0.384-0.533-0.218-0.82c0.167-0.286,0.533-0.384,0.82-0.219l2.597,1.504c0.287,0.166,0.384,0.533,0.218,0.82
		C44.894,164.196,44.692,164.303,44.485,164.303 M154.823,162.797c-0.06,0-0.12-0.01-0.18-0.028l-2.863-0.897
		c-0.317-0.099-0.492-0.436-0.394-0.752c0.1-0.314,0.439-0.49,0.753-0.393l2.862,0.897c0.317,0.099,0.493,0.436,0.394,0.752
		C155.315,162.632,155.079,162.797,154.823,162.797 M39.293,161.294c-0.102,0-0.206-0.025-0.3-0.08l-2.596-1.504
		c-0.287-0.166-0.385-0.533-0.219-0.82s0.533-0.385,0.821-0.219l2.595,1.504c0.287,0.166,0.385,0.533,0.219,0.82
		C39.702,161.188,39.5,161.294,39.293,161.294 M149.098,161.001c-0.06,0-0.12-0.01-0.18-0.028l-2.862-0.897
		c-0.316-0.099-0.492-0.436-0.393-0.752c0.098-0.315,0.438-0.491,0.752-0.393l2.862,0.897c0.315,0.099,0.492,0.436,0.392,0.752
		C149.589,160.836,149.354,161.001,149.098,161.001 M143.373,159.206c-0.06,0-0.121-0.01-0.18-0.028l-2.862-0.896
		c-0.316-0.1-0.493-0.437-0.393-0.753c0.099-0.315,0.437-0.489,0.752-0.393l2.861,0.897c0.317,0.099,0.492,0.436,0.394,0.752
		C143.865,159.041,143.628,159.206,143.373,159.206 M34.1,158.289c-0.101,0-0.205-0.026-0.3-0.081l-2.595-1.504
		c-0.287-0.166-0.385-0.533-0.219-0.82c0.166-0.286,0.533-0.384,0.82-0.219l2.596,1.504c0.287,0.166,0.385,0.533,0.219,0.821
		C34.509,158.181,34.307,158.289,34.1,158.289 M137.647,157.411c-0.061,0-0.12-0.01-0.181-0.028l-2.861-0.898
		c-0.316-0.099-0.492-0.436-0.394-0.752c0.1-0.317,0.437-0.492,0.752-0.393l2.863,0.899c0.316,0.098,0.492,0.435,0.392,0.751
		C138.14,157.247,137.902,157.411,137.647,157.411 M131.922,155.615c-0.059,0-0.12-0.01-0.179-0.028l-2.863-0.898
		c-0.315-0.099-0.491-0.436-0.392-0.752c0.098-0.317,0.435-0.492,0.752-0.393l2.862,0.898c0.315,0.099,0.491,0.436,0.393,0.752
		C132.415,155.451,132.177,155.615,131.922,155.615 M28.909,155.281c-0.102,0-0.205-0.026-0.299-0.081l-0.382-0.221
		c-0.227-0.131-0.342-0.392-0.286-0.646c0.055-0.255,0.268-0.445,0.528-0.471l2.987-0.289c0.328-0.012,0.623,0.209,0.655,0.539
		c0.031,0.329-0.21,0.623-0.54,0.655l-2.14,0.207l-0.003,0.006C29.318,155.172,29.117,155.281,28.909,155.281 M34.499,154.479
		c-0.305,0-0.567-0.231-0.596-0.541c-0.032-0.33,0.209-0.624,0.538-0.655l2.986-0.292c0.347-0.014,0.624,0.21,0.656,0.54
		c0.032,0.329-0.209,0.623-0.539,0.655l-2.986,0.291C34.538,154.478,34.518,154.479,34.499,154.479 M40.47,153.898
		c-0.304,0-0.566-0.231-0.596-0.542c-0.032-0.329,0.21-0.623,0.54-0.655l2.986-0.29c0.324-0.017,0.623,0.21,0.655,0.54
		c0.031,0.33-0.21,0.623-0.54,0.655l-2.986,0.29C40.509,153.897,40.49,153.898,40.47,153.898 M126.198,153.819
		c-0.06,0-0.12-0.01-0.18-0.028l-2.863-0.897c-0.317-0.099-0.492-0.436-0.394-0.752c0.1-0.315,0.438-0.491,0.753-0.393l2.862,0.897
		c0.317,0.099,0.493,0.436,0.394,0.752C126.69,153.654,126.454,153.819,126.198,153.819 M46.443,153.318
		c-0.305,0-0.567-0.231-0.597-0.542c-0.031-0.328,0.21-0.623,0.54-0.655l2.986-0.29c0.326-0.013,0.623,0.21,0.655,0.54
		c0.031,0.329-0.21,0.623-0.54,0.655l-2.986,0.29C46.482,153.317,46.462,153.318,46.443,153.318 M52.415,152.737
		c-0.305,0-0.567-0.231-0.597-0.542c-0.031-0.329,0.21-0.622,0.54-0.655l2.985-0.29c0.328-0.015,0.623,0.21,0.656,0.54
		c0.031,0.329-0.21,0.623-0.54,0.655l-2.986,0.29C52.454,152.736,52.434,152.737,52.415,152.737 M58.386,152.157
		c-0.304,0-0.566-0.231-0.596-0.542c-0.032-0.329,0.21-0.623,0.54-0.655l2.985-0.29c0.33-0.01,0.623,0.21,0.655,0.54
		c0.031,0.329-0.21,0.623-0.54,0.655l-2.985,0.291C58.425,152.156,58.406,152.157,58.386,152.157 M120.473,152.023
		c-0.06,0-0.12-0.01-0.18-0.028l-2.862-0.897c-0.316-0.099-0.492-0.436-0.393-0.752c0.098-0.314,0.437-0.489,0.752-0.393
		l2.862,0.897c0.315,0.099,0.492,0.436,0.392,0.752C120.964,151.858,120.729,152.023,120.473,152.023 M64.358,151.577
		c-0.305,0-0.566-0.231-0.597-0.542c-0.031-0.329,0.21-0.623,0.54-0.655l2.987-0.29c0.331-0.014,0.623,0.21,0.655,0.54
		c0.031,0.329-0.21,0.623-0.54,0.655l-2.986,0.29C64.397,151.576,64.377,151.577,64.358,151.577 M70.33,150.996
		c-0.305,0-0.567-0.231-0.597-0.542c-0.031-0.329,0.21-0.623,0.54-0.655l2.986-0.29c0.326-0.017,0.623,0.21,0.656,0.54
		c0.031,0.329-0.21,0.623-0.54,0.655l-2.987,0.29C70.369,150.995,70.349,150.996,70.33,150.996 M76.301,150.416
		c-0.304,0-0.566-0.231-0.596-0.542c-0.032-0.329,0.21-0.623,0.54-0.655l2.986-0.29c0.327-0.012,0.623,0.21,0.655,0.54
		c0.032,0.329-0.21,0.623-0.54,0.655l-2.986,0.29C76.34,150.415,76.321,150.416,76.301,150.416 M114.748,150.228
		c-0.06,0-0.121-0.01-0.18-0.028l-2.862-0.898c-0.316-0.099-0.493-0.436-0.393-0.752c0.099-0.317,0.437-0.492,0.752-0.393
		l2.861,0.898c0.317,0.099,0.492,0.436,0.394,0.752C115.24,150.064,115.002,150.228,114.748,150.228 M82.274,149.835
		c-0.305,0-0.566-0.231-0.597-0.541c-0.031-0.33,0.21-0.624,0.539-0.656l2.986-0.291c0.346-0.015,0.624,0.21,0.655,0.539
		c0.032,0.33-0.209,0.624-0.538,0.655l-2.985,0.292C82.313,149.834,82.293,149.835,82.274,149.835 M88.246,149.254
		c-0.305,0-0.567-0.231-0.597-0.542c-0.031-0.329,0.21-0.623,0.54-0.655l2.984-0.29c0.331-0.01,0.623,0.21,0.656,0.54
		c0.031,0.329-0.21,0.623-0.54,0.655l-2.985,0.29C88.285,149.253,88.266,149.254,88.246,149.254 M94.217,148.674
		c-0.304,0-0.565-0.231-0.596-0.542c-0.032-0.329,0.21-0.623,0.54-0.655l2.986-0.29c0.324-0.013,0.623,0.21,0.654,0.54
		c0.032,0.329-0.21,0.623-0.54,0.655l-2.985,0.29C94.256,148.673,94.237,148.674,94.217,148.674 M109.022,148.432
		c-0.061,0-0.12-0.01-0.181-0.028l-2.861-0.898c-0.316-0.099-0.492-0.436-0.394-0.752c0.1-0.317,0.438-0.49,0.752-0.393l2.863,0.898
		c0.316,0.099,0.492,0.436,0.392,0.752C109.515,148.268,109.277,148.432,109.022,148.432 M100.189,148.093
		c-0.306,0-0.566-0.231-0.598-0.542c-0.03-0.329,0.21-0.623,0.54-0.655l2.987-0.29c0.326-0.016,0.623,0.21,0.655,0.54
		c0.031,0.329-0.21,0.623-0.54,0.655l-2.986,0.29C100.229,148.092,100.209,148.093,100.189,148.093"/>
	<path clip-path="url(#SVGID_2_)" d="M107.88,90.845c-0.324,0-0.591-0.258-0.601-0.583c-0.009-0.331,0.252-0.607,0.583-0.616
		l16.288-0.449h0.018c0.324,0,0.591,0.257,0.6,0.583c0.009,0.331-0.252,0.607-0.583,0.616l-16.288,0.449H107.88z"/>
	<path clip-path="url(#SVGID_2_)" d="M0.6,155.059c-0.306,0-0.567-0.232-0.597-0.543c-0.031-0.33,0.211-0.623,0.541-0.654
		l103.327-9.781c0.331-0.025,0.624,0.211,0.655,0.54c0.031,0.331-0.211,0.624-0.541,0.655L0.657,155.057
		C0.637,155.059,0.62,155.059,0.6,155.059"/>
	<polygon clip-path="url(#SVGID_2_)" fill="#A7A2A5" points="8.578,153.705 10.506,155.647 10.506,117.512 8.578,117.512 	"/>
	<path clip-path="url(#SVGID_2_)" d="M10.506,156.247c-0.156,0-0.31-0.062-0.426-0.177l-1.928-1.942
		c-0.112-0.112-0.174-0.265-0.174-0.423v-36.192c0-0.331,0.268-0.6,0.599-0.6h1.929c0.331,0,0.6,0.269,0.6,0.6v38.135
		c0,0.243-0.147,0.462-0.371,0.555C10.661,156.232,10.583,156.247,10.506,156.247 M9.178,153.458l0.729,0.733v-36.079H9.178V153.458
		z"/>
	<polygon clip-path="url(#SVGID_2_)" fill="#A7A2A5" points="22.771,154.459 10.507,155.647 10.507,117.512 22.771,117.512 	"/>
	<path clip-path="url(#SVGID_2_)" d="M10.506,156.247c-0.148,0-0.292-0.055-0.403-0.156c-0.125-0.113-0.196-0.274-0.196-0.443
		v-38.135c0-0.331,0.268-0.6,0.599-0.6h12.265c0.331,0,0.6,0.269,0.6,0.6v36.947c0,0.309-0.235,0.567-0.542,0.598l-12.265,1.188
		C10.544,156.246,10.526,156.247,10.506,156.247 M11.106,118.112v36.874l11.065-1.071v-35.803H11.106z"/>
	<polygon clip-path="url(#SVGID_2_)" fill="#FFFFFF" points="137.851,160.029 114.686,163.158 110.877,163.758 86.613,168.618 
		86.613,169.734 88.974,170.66 139.896,161.643 139.896,160.564 	"/>
	<path clip-path="url(#SVGID_2_)" d="M88.975,171.259c-0.074,0-0.15-0.014-0.219-0.041l-2.361-0.926
		c-0.231-0.09-0.381-0.312-0.381-0.559v-1.116c0-0.286,0.201-0.532,0.481-0.588l24.264-4.859l3.833-0.605l23.179-3.131
		c0.076-0.012,0.156-0.006,0.232,0.015l2.045,0.535c0.264,0.068,0.447,0.308,0.447,0.58v1.079c0,0.291-0.208,0.54-0.495,0.591
		l-50.921,9.017C89.045,171.256,89.01,171.259,88.975,171.259 M87.213,169.325l1.823,0.715l50.26-8.899v-0.113l-1.482-0.388
		l-23.048,3.113l-3.795,0.599l-23.758,4.759V169.325z"/>
	<polygon clip-path="url(#SVGID_2_)" fill="#FFFFFF" points="125.891,157.114 102.708,159.066 98.719,159.576 74.963,163.812 
		74.963,165.168 76.95,165.894 127.921,158.394 127.921,157.592 	"/>
	<path clip-path="url(#SVGID_2_)" d="M76.95,166.494c-0.071,0-0.14-0.012-0.206-0.036l-1.987-0.726
		c-0.236-0.087-0.393-0.312-0.393-0.563v-1.357c0-0.291,0.208-0.539,0.494-0.59l23.754-4.236l4.019-0.514l23.208-1.955
		c0.067-0.007,0.127-0.001,0.189,0.014l2.03,0.479c0.271,0.063,0.462,0.306,0.462,0.584v0.802c0,0.298-0.218,0.55-0.514,0.594
		l-50.97,7.5C77.008,166.492,76.979,166.494,76.95,166.494 M75.563,164.749l1.45,0.529l49.808-7.328l-0.976-0.23l-23.088,1.944
		l-3.965,0.507l-23.229,4.145V164.749z"/>
	<polygon clip-path="url(#SVGID_2_)" fill="#FFFFFF" points="113.317,153.333 90.806,155.281 88.196,155.615 63.562,159.686 
		63.562,160.701 65.326,161.372 115.71,154.674 115.71,153.969 	"/>
	<path clip-path="url(#SVGID_2_)" d="M65.326,161.971c-0.072,0-0.144-0.013-0.213-0.039l-1.763-0.671
		c-0.234-0.088-0.387-0.312-0.387-0.561v-1.016c0-0.295,0.212-0.545,0.502-0.592l24.634-4.07l2.629-0.337l22.538-1.95
		c0.071-0.006,0.139,0.001,0.206,0.018l2.393,0.637c0.263,0.07,0.444,0.309,0.444,0.58v0.705c0,0.301-0.222,0.555-0.52,0.595
		l-50.384,6.696C65.379,161.97,65.352,161.971,65.326,161.971 M64.162,160.287l1.235,0.47l49.007-6.513l-1.14-0.304l-22.409,1.938
		l-2.583,0.331l-24.11,3.984V160.287z"/>
	<polygon clip-path="url(#SVGID_2_)" fill="#FFFFFF" points="101.746,150.839 82.479,152.16 79.845,152.481 55.062,156.442 
		55.062,157.352 56.745,158.029 103.437,151.99 103.437,151.285 	"/>
	<path clip-path="url(#SVGID_2_)" d="M56.745,158.628c-0.076,0-0.152-0.015-0.223-0.043l-1.684-0.676
		c-0.227-0.091-0.376-0.312-0.376-0.557v-0.91c0-0.295,0.214-0.546,0.505-0.594l24.783-3.961l2.655-0.325l19.3-1.322
		c0.065-0.005,0.13,0.001,0.194,0.019l1.69,0.445c0.263,0.069,0.445,0.308,0.445,0.58v0.705c0,0.302-0.223,0.557-0.521,0.595
		l-46.692,6.039C56.796,158.627,56.771,158.628,56.745,158.628 M55.675,156.953l1.148,0.461l45.289-5.857l-0.423-0.111
		l-19.169,1.313l-2.602,0.319L55.675,156.953z"/>
	<polygon clip-path="url(#SVGID_2_)" fill="#FFFFFF" points="91.644,148.263 72.887,149.51 69.645,149.847 47.138,153.334 
		47.138,154.264 49.015,154.941 93.457,149.458 93.457,148.75 	"/>
	<path clip-path="url(#SVGID_2_)" d="M49.015,155.541c-0.07,0-0.138-0.012-0.204-0.035l-1.876-0.677
		c-0.239-0.086-0.397-0.312-0.397-0.564v-0.931c0-0.296,0.216-0.548,0.508-0.593l22.507-3.486l3.271-0.341l18.779-1.249
		c0.067-0.004,0.132,0.003,0.196,0.02l1.813,0.486c0.263,0.07,0.444,0.308,0.444,0.579v0.708c0,0.303-0.226,0.559-0.526,0.596
		l-44.442,5.483C49.063,155.54,49.039,155.541,49.015,155.541 M47.747,153.846l1.336,0.481l43.052-5.312l-0.551-0.147l-18.657,1.24
		l-3.22,0.335L47.747,153.846z"/>
	<polygon clip-path="url(#SVGID_2_)" fill="#FFFFFF" points="83.497,145.844 62.467,146.947 62.467,147.789 60.895,147.979 
		59.322,147.4 39.286,150.251 39.286,151.186 41.031,151.876 85.388,147.007 85.388,146.174 	"/>
	<path clip-path="url(#SVGID_2_)" d="M41.031,152.376c-0.062,0-0.125-0.012-0.183-0.035l-1.746-0.689
		c-0.191-0.075-0.316-0.26-0.316-0.465v-0.936c0-0.249,0.184-0.46,0.43-0.495l20.036-2.852c0.083-0.01,0.165-0.002,0.243,0.026
		l1.459,0.537l1.014-0.123v-0.399c0-0.266,0.208-0.485,0.473-0.499l21.03-1.102c0.037-0.005,0.074,0,0.112,0.007l1.891,0.33
		c0.24,0.041,0.415,0.249,0.415,0.492v0.833c0,0.255-0.193,0.469-0.446,0.497l-44.357,4.869
		C41.067,152.375,41.05,152.376,41.031,152.376 M39.786,150.847l1.313,0.519l43.665-4.793l-1.297-0.227l-20.499,1.074v0.368
		c0,0.253-0.189,0.466-0.44,0.496l-1.573,0.19c-0.082,0.013-0.159,0-0.233-0.027l-1.455-0.535l-19.481,2.772V150.847z"/>
	<path clip-path="url(#SVGID_2_)" fill="#A7A2A5" d="M53.836,91.721c-7.943,0-23.102-0.01-23.102-0.01v1.364h23.102
		c6.325,0,7.058,5.111,7.058,5.111v51.382l1.573-0.479V98.187C62.468,98.187,61.78,91.721,53.836,91.721"/>
	<path clip-path="url(#SVGID_2_)" d="M60.895,150.168c-0.127,0-0.253-0.04-0.358-0.117c-0.152-0.113-0.242-0.292-0.242-0.482V98.187
		c-0.023-0.101-0.754-4.512-6.458-4.512H30.735c-0.331,0-0.599-0.269-0.599-0.6v-1.364c0-0.159,0.062-0.312,0.176-0.425
		c0.112-0.112,0.264-0.175,0.423-0.175c0,0,15.159,0.011,23.102,0.011c8.386,0,9.22,6.931,9.227,7.001l0.003,50.966
		c0,0.264-0.171,0.497-0.424,0.575l-1.574,0.479C61.012,150.161,60.953,150.168,60.895,150.168 M31.334,92.476h22.502
		c6.767,0,7.644,5.569,7.651,5.626l0.006,50.656l0.374-0.113V98.187c-0.024-0.177-0.746-5.866-8.031-5.866
		c-7.003,0-19.613-0.007-22.502-0.009V92.476z"/>
	<path clip-path="url(#SVGID_2_)" fill="#A7A2A5" d="M127.484,89.437c-10.954,0-12.311,8.426-12.311,8.426v68.214l2.148-0.437
		V97.863c0,0,1.439-6.558,10.162-6.558h27.396v-1.882C154.88,89.423,138.438,89.437,127.484,89.437"/>
	<path clip-path="url(#SVGID_2_)" d="M115.174,166.676c-0.137,0-0.271-0.048-0.38-0.135c-0.14-0.114-0.22-0.285-0.22-0.465V97.863
		c0.021-0.185,1.576-9.026,12.91-9.026c10.955,0,27.395-0.013,27.395-0.013h0.001c0.159,0,0.312,0.062,0.423,0.175
		c0.114,0.113,0.177,0.265,0.177,0.424v1.882c0,0.331-0.269,0.6-0.6,0.6h-27.396c-7.727,0-9.398,5.421-9.563,6.031v67.704
		c0,0.285-0.201,0.53-0.48,0.588l-2.148,0.437C115.254,166.672,115.214,166.676,115.174,166.676 M154.28,90.024
		c-3.053,0.002-17.081,0.013-26.796,0.013c-10.285,0-11.665,7.6-11.72,7.923l0.009,67.383l0.948-0.192V97.863
		c0-0.043,0.005-0.086,0.015-0.129c0.016-0.07,1.647-7.028,10.748-7.028h26.796V90.024z"/>
	<polygon clip-path="url(#SVGID_2_)" fill="#A7A2A5" points="62.684,98.187 62.684,150.141 64.284,149.927 64.284,98.187 	"/>
	<path clip-path="url(#SVGID_2_)" d="M62.683,150.741c-0.144,0-0.285-0.052-0.395-0.148c-0.13-0.113-0.204-0.278-0.204-0.452V98.187
		c0-0.331,0.268-0.6,0.599-0.6h1.601c0.331,0,0.6,0.269,0.6,0.6v51.74c0,0.301-0.222,0.555-0.521,0.595l-1.601,0.214
		C62.736,150.74,62.71,150.741,62.683,150.741 M63.283,98.787v50.669l0.401-0.054V98.787H63.283z"/>
	<path clip-path="url(#SVGID_2_)" fill="#A7A2A5" d="M55.316,93.181h-3.7c3.775,0.376,7.706,1.84,7.706,5.006v50.901l1.573,0.48
		V98.187C60.895,98.187,60.295,93.181,55.316,93.181"/>
	<path clip-path="url(#SVGID_2_)" d="M60.895,150.168c-0.059,0-0.118-0.008-0.175-0.025l-1.572-0.479
		c-0.253-0.077-0.425-0.311-0.425-0.574V98.187c0-3.429-5.486-4.241-7.166-4.409c-0.319-0.031-0.556-0.307-0.54-0.626
		c0.016-0.32,0.28-0.57,0.599-0.57h3.701c5.448,0,6.167,5.479,6.173,5.534l0.004,51.453c0,0.19-0.09,0.369-0.242,0.482
		C61.147,150.128,61.021,150.168,60.895,150.168 M59.922,148.645l0.373,0.113V98.187c-0.016-0.093-0.438-3.188-3.222-4.133
		c1.837,0.996,2.849,2.417,2.849,4.133V148.645z"/>
	<path clip-path="url(#SVGID_2_)" fill="#FFFFFF" d="M49.737,93.181h1.879c-0.685-0.068-1.365-0.105-2.014-0.105L49.737,93.181z"/>
	<path clip-path="url(#SVGID_2_)" d="M51.616,93.781h-1.879c-0.134,0-0.263-0.044-0.368-0.126l-0.136-0.105
		c-0.202-0.157-0.282-0.426-0.199-0.668c0.083-0.243,0.311-0.405,0.567-0.405c0.657,0,1.354,0.036,2.075,0.108
		c0.318,0.031,0.555,0.308,0.54,0.627C52.199,93.531,51.935,93.781,51.616,93.781"/>
	<path clip-path="url(#SVGID_2_)" fill="#A7A2A5" d="M102.863,89.437c-10.954,0-27.396-0.014-27.396-0.014v1.882h27.396
		c8.723,0,10.161,6.558,10.161,6.558v68.538l2.149-0.324V97.863C115.174,97.863,113.816,89.437,102.863,89.437"/>
	<path clip-path="url(#SVGID_2_)" d="M113.025,167c-0.144,0-0.281-0.051-0.393-0.145c-0.131-0.114-0.208-0.28-0.208-0.455V97.935
		c-0.17-0.664-1.791-6.03-9.562-6.03H75.467c-0.331,0-0.599-0.269-0.599-0.6v-1.881c0-0.159,0.062-0.312,0.176-0.425
		c0.112-0.112,0.264-0.175,0.423-0.175h0.001c0,0,16.441,0.014,27.395,0.014c11.334,0,12.889,8.841,12.903,8.931l0.007,68.309
		c0,0.297-0.217,0.549-0.51,0.594l-2.148,0.324C113.085,166.999,113.055,167,113.025,167 M76.067,90.706h26.796
		c9.099,0,10.731,6.958,10.748,7.028c0.01,0.043,0.014,0.086,0.014,0.129v67.841l0.949-0.144V97.863
		c-0.046-0.227-1.426-7.826-11.711-7.826c-9.714,0-23.743-0.011-26.796-0.013V90.706z"/>
	<path clip-path="url(#SVGID_2_)" fill="#A7A2A5" d="M109.631,93.181c-3.45-2.218-9.574-1.875-9.574-1.875
		c4.78,0,7.613,1.808,9.237,3.643c1.625,1.835,1.582,2.914,1.582,2.914v65.895l2.149,0.832V97.863
		C113.025,97.863,113.081,95.398,109.631,93.181"/>
	<path clip-path="url(#SVGID_2_)" d="M113.025,165.19c-0.073,0-0.147-0.013-0.217-0.04l-2.148-0.832
		c-0.23-0.09-0.383-0.312-0.383-0.56V97.863c0-0.015-0.035-0.938-1.432-2.516c-1.391-1.57-4.043-3.442-8.788-3.442
		c-0.325,0-0.592-0.258-0.601-0.583c-0.008-0.324,0.243-0.598,0.567-0.615c0.261-0.016,6.358-0.326,9.931,1.97
		c3.691,2.371,3.672,5.086,3.669,5.2v66.714c0,0.198-0.097,0.383-0.26,0.495C113.264,165.155,113.145,165.19,113.025,165.19
		 M111.477,163.347l0.949,0.367V97.863c0-0.096-0.034-2.194-3.119-4.177c-0.369-0.237-0.772-0.442-1.197-0.623
		c0.664,0.487,1.203,1.002,1.635,1.489c1.733,1.959,1.737,3.199,1.732,3.334V163.347z"/>
	<path clip-path="url(#SVGID_2_)" d="M39.727,139.417c-4.238,0-7.674,3.979-7.674,8.886s3.436,8.885,7.674,8.885
		c4.238,0,7.674-3.978,7.674-8.885S43.965,139.417,39.727,139.417 M39.727,155.974c-3.66,0-6.626-3.435-6.626-7.672
		s2.966-7.672,6.626-7.672c3.66,0,6.626,3.435,6.626,7.672S43.387,155.974,39.727,155.974"/>
	<path clip-path="url(#SVGID_2_)" d="M39.726,157.587c-4.452,0-8.074-4.165-8.074-9.285s3.622-9.286,8.074-9.286
		c4.452,0,8.075,4.166,8.075,9.286S44.178,157.587,39.726,157.587 M39.726,139.817c-4.011,0-7.273,3.807-7.273,8.485
		s3.262,8.484,7.273,8.484c4.012,0,7.274-3.806,7.274-8.484S43.738,139.817,39.726,139.817 M39.726,156.375
		c-3.874,0-7.026-3.621-7.026-8.072s3.152-8.073,7.026-8.073c3.875,0,7.027,3.622,7.027,8.073S43.601,156.375,39.726,156.375
		 M39.726,141.03c-3.433,0-6.226,3.262-6.226,7.272c0,4.01,2.793,7.271,6.226,7.271c3.434,0,6.227-3.262,6.227-7.271
		C45.953,144.292,43.16,141.03,39.726,141.03"/>
	<path clip-path="url(#SVGID_2_)" fill="#FFFFFF" d="M40.017,140.629c-3.66,0-6.626,3.436-6.626,7.672
		c0,4.237,2.966,7.673,6.626,7.673s6.626-3.436,6.626-7.673C46.643,144.065,43.677,140.629,40.017,140.629 M40.017,155.171
		c-3.277,0-5.933-3.076-5.933-6.87s2.656-6.869,5.933-6.869s5.933,3.075,5.933,6.869S43.293,155.171,40.017,155.171"/>
	<path clip-path="url(#SVGID_2_)" d="M40.017,156.375c-3.874,0-7.026-3.621-7.026-8.071c0-4.452,3.152-8.074,7.026-8.074
		c3.875,0,7.027,3.622,7.027,8.074C47.043,152.753,43.892,156.375,40.017,156.375 M39.093,155.495
		c0.604,0.106,1.247,0.104,1.851-0.001C40.339,155.595,39.696,155.596,39.093,155.495 M40.017,141.833
		c-3.051,0-5.533,2.902-5.533,6.471c0,3.566,2.482,6.468,5.533,6.468c3.051,0,5.533-2.901,5.533-6.468
		C45.549,144.735,43.067,141.833,40.017,141.833 M40.017,141.032c0.314,0,0.623,0.026,0.926,0.078
		c-0.605-0.105-1.245-0.106-1.848-0.001C39.396,141.058,39.705,141.032,40.017,141.032"/>
	<path clip-path="url(#SVGID_2_)" d="M65.896,137.462c-3.492,0.132-6.188,3.826-6.02,8.251c0.167,4.424,3.134,7.904,6.626,7.771
		c3.493-0.132,6.188-3.825,6.02-8.251C72.354,140.809,69.388,137.331,65.896,137.462 M66.46,152.391
		c-3.015,0.114-5.577-2.89-5.722-6.711c-0.144-3.821,2.183-7.01,5.198-7.124c3.016-0.115,5.577,2.89,5.722,6.711
		C71.804,149.087,69.476,152.277,66.46,152.391"/>
	<path clip-path="url(#SVGID_2_)" d="M66.306,153.888c-1.737,0-3.388-0.818-4.669-2.321c-1.309-1.536-2.077-3.61-2.161-5.84
		c-0.177-4.637,2.696-8.524,6.403-8.665h0.001c3.677-0.155,6.865,3.519,7.041,8.156c0.176,4.639-2.698,8.526-6.405,8.666
		C66.446,153.887,66.375,153.888,66.306,153.888 M65.911,137.861c-3.267,0.125-5.795,3.64-5.636,7.836
		c0.078,2.051,0.777,3.951,1.971,5.352c1.169,1.372,2.656,2.088,4.24,2.037c3.266-0.124,5.795-3.639,5.637-7.837
		C71.962,141.051,69.206,137.745,65.911,137.861L65.911,137.861z M66.292,152.794c-1.516,0-2.957-0.714-4.074-2.023
		c-1.138-1.336-1.805-3.139-1.879-5.076c-0.073-1.937,0.456-3.784,1.491-5.202c1.055-1.447,2.508-2.276,4.091-2.336
		c0.06-0.003,0.12-0.004,0.18-0.004c3.152,0,5.807,3.14,5.957,7.099c0.153,4.035-2.352,7.417-5.582,7.539
		C66.414,152.793,66.354,152.794,66.292,152.794 M66.103,138.953c-0.051,0-0.101,0.001-0.15,0.003
		c-1.334,0.051-2.568,0.764-3.476,2.008c-0.929,1.273-1.404,2.943-1.338,4.702c0.067,1.758,0.667,3.387,1.69,4.586
		c0.999,1.173,2.306,1.799,3.617,1.74c2.791-0.106,4.95-3.116,4.814-6.71C71.125,141.753,68.827,138.953,66.103,138.953"/>
	<path clip-path="url(#SVGID_2_)" fill="#FFFFFF" d="M65.937,138.555c-3.015,0.114-5.342,3.305-5.198,7.125
		c0.145,3.82,2.707,6.825,5.722,6.711c3.015-0.114,5.343-3.304,5.198-7.125C71.514,141.447,68.953,138.442,65.937,138.555
		 M66.436,151.732c-2.728,0.103-4.788-2.58-4.919-6.036s1.717-6.377,4.445-6.48s4.768,2.507,4.899,5.963
		C70.992,148.634,69.164,151.628,66.436,151.732"/>
	<path clip-path="url(#SVGID_2_)" d="M66.293,152.794c-1.517,0-2.957-0.714-4.075-2.023c-1.138-1.336-1.805-3.139-1.878-5.076
		c-0.074-1.937,0.456-3.784,1.49-5.202c1.055-1.447,2.509-2.276,4.092-2.336c0.059-0.003,0.12-0.004,0.179-0.004
		c3.153,0,5.807,3.14,5.957,7.099c0.154,4.035-2.351,7.417-5.582,7.539C66.415,152.793,66.353,152.794,66.293,152.794
		 M66.114,139.613c-0.046,0-0.091,0.001-0.137,0.002c-2.402,0.092-4.186,2.756-4.061,6.066c0.125,3.313,2.017,5.734,4.505,5.651
		c2.392-0.091,4.168-2.787,4.041-6.139c-0.061-1.601-0.554-3.05-1.388-4.08C68.288,140.142,67.241,139.613,66.114,139.613"/>
	<path clip-path="url(#SVGID_2_)" fill="#00A0E9" d="M65.128,136.629c0,0-1.642,0.198-3.576,2.136
		c-1.792,1.795-2.414,4.427-2.262,6.142c0.951,0.066,1.156-0.679,1.156-0.679s0.132-2.826,1.945-4.455
		c1.813-1.628,2.808-1.715,2.808-1.715s0.24-0.351,0.212-0.805C65.383,136.798,65.128,136.629,65.128,136.629"/>
	<path clip-path="url(#SVGID_2_)" d="M59.408,145.31c-0.047,0-0.096-0.002-0.146-0.005c-0.196-0.015-0.353-0.169-0.37-0.364
		c-0.165-1.864,0.507-4.584,2.377-6.457c2.01-2.014,3.739-2.243,3.811-2.252c0.096-0.012,0.191,0.012,0.269,0.064
		c0.043,0.028,0.422,0.297,0.462,0.932c0.034,0.574-0.248,1.008-0.28,1.055c-0.069,0.1-0.177,0.163-0.296,0.174
		c-0.002,0-0.922,0.129-2.577,1.615c-1.668,1.499-1.812,4.148-1.813,4.175C60.736,144.678,60.317,145.31,59.408,145.31
		 M64.968,137.072c-0.48,0.125-1.726,0.565-3.134,1.977c-1.549,1.552-2.188,3.811-2.166,5.427c0.316-0.093,0.387-0.339,0.391-0.353
		c-0.008-0.035,0.148-2.927,2.063-4.646c1.429-1.283,2.39-1.661,2.81-1.771c0.043-0.103,0.09-0.257,0.079-0.428
		C65.006,137.189,64.988,137.122,64.968,137.072"/>
	<polygon clip-path="url(#SVGID_2_)" fill="#9FA0A0" points="46.828,131.6 45.643,131.858 47.374,137.619 48.518,137.236 	"/>
	<path clip-path="url(#SVGID_2_)" d="M47.374,138.019c-0.064,0-0.127-0.016-0.184-0.045c-0.097-0.05-0.168-0.137-0.199-0.24
		l-1.731-5.761c-0.032-0.106-0.018-0.223,0.038-0.318c0.057-0.096,0.151-0.164,0.26-0.187l1.185-0.259
		c0.2-0.05,0.407,0.075,0.468,0.275l1.69,5.636c0.063,0.207-0.051,0.426-0.256,0.494l-1.144,0.383
		C47.46,138.012,47.417,138.019,47.374,138.019 M46.151,132.157l1.487,4.952l0.386-0.13l-1.473-4.909L46.151,132.157z"/>
	<path clip-path="url(#SVGID_2_)" fill="#00A0E9" d="M66.372,145.405c-0.09-0.191-6.287-12.783-6.287-12.783l-1.013,0.385
		l0.796,1.884l-10.446,4.526l-0.854-2.317l-1.417,0.531l0.04,0.11c0.066,0.182,0.047,0.384-0.052,0.551l-5.945,10.237l0.612,0.39
		l5.71-9.631c0.069-0.098,0.222-0.072,0.254,0.044l2.311,6.81c0.047,0.166-0.482,1.19,0.637,0.846
		c0.092-0.028,0.737-0.497,0.778-0.583l-1.875-5.631l10.594-4.859c0.095-0.033,0.198,0.019,0.229,0.114l5.352,10.165
		C66.392,146.697,66.579,145.843,66.372,145.405"/>
	<path clip-path="url(#SVGID_2_)" d="M41.807,149.319c-0.076,0-0.151-0.021-0.216-0.063l-0.611-0.391
		c-0.18-0.115-0.238-0.353-0.13-0.538l5.944-10.236c0.039-0.067,0.047-0.144,0.022-0.212l-0.04-0.109
		c-0.076-0.206,0.03-0.436,0.235-0.513l1.417-0.531c0.1-0.036,0.208-0.034,0.308,0.012c0.096,0.044,0.171,0.125,0.208,0.225
		l0.708,1.92l9.694-4.2l-0.642-1.52c-0.043-0.1-0.042-0.213,0-0.313c0.043-0.1,0.124-0.178,0.226-0.217l1.014-0.386
		c0.192-0.071,0.41,0.012,0.502,0.197c0.251,0.514,6.175,12.551,6.289,12.79c0.198,0.423,0.16,1.093-0.214,1.38
		c-0.105,0.079-0.481,0.308-0.983-0.115c-0.039-0.033-0.071-0.074-0.094-0.119l-5.271-10.008l-10.059,4.614l1.762,5.292
		c0.032,0.098,0.026,0.205-0.018,0.298c-0.108,0.226-0.871,0.747-1.021,0.793c-0.172,0.055-0.689,0.213-1.021-0.096
		c-0.317-0.293-0.214-0.741-0.154-1.009c0.006-0.025,0.012-0.048,0.016-0.068l-2.109-6.214l-5.418,9.141
		c-0.055,0.093-0.146,0.16-0.251,0.185C41.868,149.315,41.837,149.319,41.807,149.319 M47.633,138.827
		c0.03,0,0.062,0.003,0.093,0.008c0.209,0.036,0.374,0.186,0.43,0.391l2.305,6.787c0.044,0.156,0.015,0.283-0.018,0.43
		c-0.012,0.052-0.032,0.139-0.041,0.21c0.045-0.007,0.111-0.02,0.199-0.047c0.042-0.025,0.273-0.193,0.434-0.32l-1.794-5.387
		c-0.064-0.193,0.028-0.404,0.213-0.489l10.595-4.858c0.181-0.066,0.346-0.055,0.484,0.015c0.139,0.069,0.246,0.194,0.293,0.342
		l5.227,9.914c0.002-0.081-0.009-0.175-0.043-0.245v-0.001c-0.082-0.175-3.949-8.036-6.122-12.451l-0.285,0.109l0.634,1.503
		c0.085,0.202-0.008,0.436-0.209,0.522l-10.446,4.525c-0.101,0.043-0.217,0.044-0.316,0.001c-0.102-0.044-0.18-0.127-0.218-0.229
		l-0.716-1.94l-0.704,0.265c0.017,0.212-0.032,0.426-0.143,0.614l-1.789,3.08l1.477-2.491
		C47.291,138.914,47.457,138.827,47.633,138.827"/>
	<path clip-path="url(#SVGID_2_)" fill="#00A0E9" d="M41.159,147.681c0.758-0.294,7.936-2.426,9.119-2.898
		c1.271-0.509,2.634,0,3.092,1.227c0.42,1.127,0.304,2.511-0.647,3.127c-0.313,0.203-1.082,0.719-2.207,0.207
		c-1.405-0.639-1.184-2.285-1.184-2.285c-3.159,0.859-7.301,2.159-7.971,2.19C40.255,149.298,40.4,147.974,41.159,147.681"/>
	<path clip-path="url(#SVGID_2_)" d="M51.463,149.963c-0.329,0-0.702-0.069-1.113-0.256c-1.013-0.461-1.357-1.405-1.421-2.124
		c-1.028,0.285-2.13,0.605-3.165,0.906c-2.501,0.727-3.938,1.138-4.386,1.158c-0.712,0.037-1.104-0.404-1.192-0.827
		c-0.127-0.607,0.244-1.286,0.829-1.513c0.336-0.131,1.819-0.589,3.537-1.117c2.189-0.675,4.914-1.514,5.577-1.779
		c0.757-0.305,1.556-0.302,2.252,0.005c0.634,0.28,1.118,0.797,1.363,1.454c0.446,1.194,0.385,2.831-0.804,3.603
		C52.693,149.632,52.183,149.963,51.463,149.963 M49.331,146.658c0.096,0,0.189,0.034,0.263,0.099
		c0.101,0.087,0.151,0.22,0.134,0.353c-0.006,0.056-0.157,1.365,0.954,1.87c0.909,0.414,1.518,0.021,1.81-0.169
		c0.795-0.516,0.851-1.727,0.502-2.66c-0.172-0.46-0.495-0.807-0.936-1.001c-0.498-0.221-1.077-0.218-1.631,0.005
		c-0.695,0.278-3.322,1.088-5.64,1.802c-1.632,0.503-3.173,0.979-3.483,1.098c-0.244,0.096-0.378,0.396-0.335,0.604
		c0.012,0.057,0.052,0.218,0.374,0.192c0.374-0.018,2.317-0.582,4.197-1.129c1.214-0.352,2.518-0.73,3.687-1.049
		C49.261,146.662,49.296,146.658,49.331,146.658"/>
	<path clip-path="url(#SVGID_2_)" d="M53.822,152.332l-0.767-1.019c-0.113-0.148-0.326-0.177-0.473-0.063l-0.252,0.197l-0.282-3.423
		c0.379-0.171,0.627-0.58,0.547-1.038c-0.066-0.375-0.361-0.685-0.734-0.762c-0.617-0.13-1.16,0.338-1.16,0.933
		c0,0.484,0.362,0.88,0.829,0.941l0.323,3.598l-0.416,0.284c-0.103,0.07-0.142,0.203-0.094,0.317l0.635,1.517
		c0,0,0.623-0.03,1.118-0.342s0.862-0.779,0.862-0.779L53.822,152.332z"/>
	<path clip-path="url(#SVGID_2_)" d="M42.297,130.847c0.112-0.308,0.434-0.514,0.895-0.611c0.46-0.1,4.077-0.591,4.555-0.614
		c0.635-0.031,0.939-0.041,1.161,0.283c0.223,0.323,0.274,0.724-0.042,0.979c-0.316,0.256-1.644,1.061-1.96,1.315
		c-0.316,0.256-0.68,0.89-1.369,0.938c-0.404,0.028-0.818-0.245-1.47-0.501c-0.652-0.255-1.344-0.413-1.552-0.531
		c-0.209-0.119-0.349-0.283-0.309-0.677C42.245,131.035,42.297,130.847,42.297,130.847"/>
	<path clip-path="url(#SVGID_2_)" fill="#9FA0A0" d="M62.021,127.261l-3.561-0.472c-0.292,0.001-0.581-0.055-0.85-0.166
		l-2.957-1.012l-0.01,0.744l2.829,0.939c-0.159,0.166-0.353,0.378-0.422,0.491c-0.164,0.267-0.152,0.494-0.045,0.854
		c0.051,0.175,2.068,4.365,2.068,4.365l0.871-0.37l-1.972-4.186c-0.052-0.127-0.046-0.271,0.017-0.393l0.377-0.523
		c0.063,0.006,0.124,0.02,0.187,0.021l3.499,0.545L62.021,127.261z"/>
	<path clip-path="url(#SVGID_2_)" d="M59.072,133.407c-0.149,0-0.292-0.084-0.36-0.227c-0.927-1.925-2.041-4.256-2.092-4.426
		c-0.124-0.419-0.156-0.779,0.089-1.178c0.015-0.023,0.034-0.054,0.063-0.092l-2.256-0.75c-0.166-0.056-0.276-0.211-0.274-0.385
		l0.01-0.743c0.002-0.129,0.065-0.248,0.17-0.322s0.238-0.09,0.36-0.052l2.957,1.012c0.242,0.1,0.475,0.145,0.712,0.145h0.007
		l3.615,0.476c0.193,0.025,0.34,0.188,0.347,0.382l0.031,0.839c0.005,0.119-0.044,0.234-0.134,0.313
		c-0.089,0.079-0.21,0.112-0.327,0.097l-3.436-0.536l-0.241,0.332l1.993,4.174c0.046,0.099,0.05,0.212,0.012,0.313
		c-0.039,0.102-0.117,0.184-0.218,0.226l-0.872,0.37C59.178,133.396,59.125,133.407,59.072,133.407 M57.829,127.115
		c0.013,0.026,0.023,0.055,0.03,0.084c0.033,0.133-0.004,0.273-0.098,0.373c-0.294,0.309-0.36,0.407-0.37,0.424
		c-0.076,0.123-0.099,0.21-0.003,0.532c0.067,0.178,1.127,2.396,1.879,3.961l0.138-0.059l-1.795-3.808
		c-0.105-0.258-0.093-0.523,0.025-0.749l0.407-0.571c0.038-0.055,0.088-0.097,0.145-0.125
		C58.071,127.167,57.95,127.145,57.829,127.115"/>
	<path clip-path="url(#SVGID_2_)" d="M61.136,127.477c-0.077,0.405,0.475,0.564,0.475,0.564l1.448,0.33c0,0,0.388-0.024,0.475-0.464
		c0.105-0.526-0.3-0.668-0.3-0.668l-1.458-0.134C61.776,127.106,61.221,127.031,61.136,127.477"/>
	<path clip-path="url(#SVGID_2_)" d="M63.06,128.772c-0.03,0-0.06-0.004-0.089-0.011l-1.448-0.33
		c-0.457-0.132-0.879-0.506-0.779-1.029c0.103-0.536,0.625-0.753,1.086-0.692l1.441,0.132c0.349,0.108,0.793,0.457,0.656,1.145
		c-0.116,0.586-0.602,0.77-0.842,0.785C63.076,128.771,63.068,128.772,63.06,128.772 M61.137,127.477l0.393,0.077
		c0.014,0.019,0.116,0.079,0.196,0.104l1.339,0.304c0.056-0.028,0.072-0.104,0.077-0.131c0.024-0.124,0-0.177-0.026-0.201
		l-1.375-0.126c-0.089-0.01-0.185,0.007-0.206,0.028l-0.005,0.02L61.137,127.477z"/>
	<path clip-path="url(#SVGID_2_)" d="M54.393,125.309l1.477,0.599c0,0,0.216,0.021,0.064,0.522
		c-0.151,0.501-0.459,0.276-0.459,0.276l-1.526-0.446c0,0-0.228-0.276-0.069-0.636C54.005,125.343,54.25,125.263,54.393,125.309"/>
	<path clip-path="url(#SVGID_2_)" d="M55.631,127.157c-0.119,0-0.23-0.034-0.317-0.081l-1.477-0.433
		c-0.077-0.022-0.144-0.067-0.195-0.128c-0.143-0.174-0.332-0.59-0.128-1.053c0.215-0.488,0.677-0.641,1.004-0.533
		c0.009,0.003,0.017,0.006,0.025,0.009l1.477,0.599l-0.002,0.005c0.104,0.044,0.215,0.128,0.263,0.2
		c0.13,0.193,0.141,0.456,0.036,0.804c-0.114,0.381-0.327,0.524-0.485,0.578C55.763,127.147,55.696,127.157,55.631,127.157
		 M54.229,125.924l1.316,0.386c0.012-0.037,0.021-0.067,0.027-0.092l-1.267-0.514c-0.015,0.012-0.038,0.036-0.057,0.081
		C54.223,125.839,54.221,125.886,54.229,125.924"/>
	<path clip-path="url(#SVGID_2_)" fill="#E8373D" d="M21.891,92.627c0-4.034-3.27-7.304-7.304-7.304s-7.305,3.27-7.305,7.304
		c0,0.511,0.065,3.302,2.174,6.111c2.11,2.812,2.776,4.039,3.664,7.145c0.629,2.199,1.103,4.122,1.325,5.056
		c0.036,0.15,0.247,0.15,0.283,0c0.223-0.934,0.696-2.856,1.325-5.056c0.889-3.105,1.555-4.333,3.664-7.145
		C21.827,95.929,21.891,93.138,21.891,92.627"/>
	<path clip-path="url(#SVGID_2_)" d="M14.587,111.552c-0.299,0-0.557-0.203-0.628-0.495c-0.223-0.938-0.69-2.838-1.319-5.036
		c-0.85-2.967-1.452-4.141-3.583-6.981c-2.111-2.811-2.275-5.618-2.275-6.412c0-4.304,3.501-7.805,7.805-7.805
		c4.304,0,7.805,3.501,7.805,7.805c0,0.794-0.164,3.602-2.275,6.412c-2.132,2.841-2.734,4.015-3.583,6.981
		c-0.62,2.168-1.093,4.085-1.32,5.035c-0.068,0.29-0.325,0.496-0.625,0.496H14.587z M14.587,85.823
		c-3.752,0-6.805,3.053-6.805,6.805c0,0.716,0.15,3.248,2.074,5.813c2.071,2.76,2.814,4.053,3.745,7.306
		c0.4,1.4,0.736,2.682,0.986,3.673c0.252-1,0.589-2.284,0.986-3.673c0.93-3.253,1.673-4.546,3.745-7.306
		c1.924-2.564,2.074-5.097,2.074-5.813C21.392,88.876,18.339,85.823,14.587,85.823"/>
	<path clip-path="url(#SVGID_2_)" fill="#A52126" d="M17.099,92.747c0,1.389-1.125,2.514-2.513,2.514
		c-1.387,0-2.512-1.125-2.512-2.514c0-1.388,1.125-2.513,2.512-2.513C15.974,90.234,17.099,91.359,17.099,92.747"/>
	<path clip-path="url(#SVGID_2_)" d="M14.587,95.759c-1.661,0-3.013-1.352-3.013-3.013s1.352-3.012,3.013-3.012
		c1.661,0,3.013,1.351,3.013,3.012S16.248,95.759,14.587,95.759 M14.587,90.735c-1.109,0-2.013,0.902-2.013,2.012
		s0.904,2.013,2.013,2.013c1.109,0,2.013-0.903,2.013-2.013S15.696,90.735,14.587,90.735"/>
	<polygon clip-path="url(#SVGID_2_)" fill="#9FA0A0" points="85.345,136.608 86.974,135.827 87.592,136.18 85.794,137.016 	"/>
	<path clip-path="url(#SVGID_2_)" d="M85.795,137.417c-0.098,0-0.193-0.036-0.269-0.104l-0.45-0.408
		c-0.098-0.089-0.146-0.222-0.127-0.354s0.103-0.245,0.223-0.303l1.629-0.782c0.117-0.058,0.256-0.052,0.372,0.014l0.618,0.354
		c0.13,0.074,0.207,0.215,0.2,0.363c-0.006,0.149-0.094,0.282-0.23,0.346l-1.797,0.836C85.91,137.404,85.853,137.417,85.795,137.417
		"/>
	<path clip-path="url(#SVGID_2_)" fill="#FFFFFF" d="M81.176,131.723c0.113,0.02,2.76-1.507,4.076-1.976
		c1.313-0.469,2.172-0.61,3.205-0.445c1.974,0.315,5.414,0.721,6.272,1.092c0.154,1.431,0.047,6.369,0.047,6.369
		s0.035,0.525-0.616,0.854c-0.988,0.499-2.597,1.444-3.344,1.726c-0.315,0.119-1.026,0.271-1.364,0.12
		c-0.338-0.149-6.636-1.805-6.636-1.805L80.933,132L81.176,131.723z"/>
	<path clip-path="url(#SVGID_2_)" d="M89.839,139.927c-0.197,0-0.391-0.026-0.549-0.098c-0.292-0.117-4.188-1.157-6.574-1.784
		c-0.131-0.034-0.235-0.132-0.278-0.261l-1.885-5.658c-0.045-0.135-0.015-0.283,0.08-0.391l0.244-0.277
		c0.058-0.065,0.134-0.109,0.217-0.127c0.115-0.048,0.505-0.253,0.882-0.451c0.912-0.48,2.291-1.206,3.142-1.51
		c1.42-0.506,2.34-0.632,3.404-0.463c0.521,0.083,1.145,0.173,1.795,0.266c1.914,0.275,3.893,0.56,4.572,0.853
		c0.133,0.057,0.224,0.181,0.239,0.324c0.153,1.441,0.054,6.219,0.05,6.422c0.017,0.259-0.137,0.85-0.837,1.203
		c-0.352,0.177-0.779,0.41-1.22,0.65c-0.815,0.443-1.658,0.901-2.164,1.092C90.758,139.792,90.282,139.927,89.839,139.927
		 M83.129,137.327c1.41,0.371,6.156,1.625,6.486,1.772c0.159,0.07,0.703,0.003,1.061-0.13c0.454-0.171,1.271-0.616,2.062-1.047
		c0.449-0.244,0.887-0.481,1.243-0.662c0.384-0.193,0.397-0.454,0.397-0.483c0.001-0.067,0.093-4.449-0.023-6.093
		c-0.78-0.234-2.632-0.5-4.15-0.719c-0.656-0.094-1.284-0.185-1.81-0.269c-0.921-0.146-1.711-0.036-3.007,0.428
		c-0.799,0.284-2.148,0.994-3.039,1.464c-0.518,0.271-0.783,0.412-0.943,0.479l-0.021,0.024L83.129,137.327z"/>
	<path clip-path="url(#SVGID_2_)" d="M88.256,134.017c-0.025,0-0.051-0.003-0.077-0.008l-6.409-1.253
		c-0.217-0.042-0.358-0.253-0.316-0.47c0.042-0.216,0.248-0.357,0.47-0.315l6.223,1.217l1.632-1.355
		c0.032-0.025,0.066-0.046,0.103-0.062c0.777-0.324,3.273-1.356,3.858-1.495c-0.025-0.182,0.078-0.362,0.259-0.43
		c0.21-0.075,0.439,0.029,0.516,0.237c0.021,0.057,0.118,0.354-0.048,0.634c-0.076,0.129-0.234,0.293-0.548,0.338
		c-0.256,0.044-2.059,0.758-3.675,1.431l-1.731,1.438C88.438,133.985,88.349,134.017,88.256,134.017"/>
	<path clip-path="url(#SVGID_2_)" d="M89.581,139.384c-0.181,0-0.345-0.122-0.39-0.305l-1.325-5.367
		c-0.053-0.214,0.078-0.431,0.293-0.484c0.216-0.055,0.431,0.078,0.483,0.293l1.326,5.367c0.052,0.214-0.078,0.431-0.293,0.484
		C89.644,139.38,89.611,139.384,89.581,139.384"/>
	<path clip-path="url(#SVGID_2_)" d="M60.787,145.445c-5.148,0-9.322,4.833-9.322,10.794c0,5.96,4.174,10.793,9.322,10.793
		c5.148,0,9.322-4.833,9.322-10.793C70.108,150.278,65.935,145.445,60.787,145.445 M60.787,165.557
		c-4.445,0-8.049-4.172-8.049-9.318c0-5.147,3.604-9.32,8.049-9.32c4.445,0,8.049,4.173,8.049,9.32
		C68.835,161.385,65.231,165.557,60.787,165.557"/>
	<path clip-path="url(#SVGID_2_)" d="M60.787,167.431c-5.361,0-9.723-5.021-9.723-11.193s4.362-11.193,9.723-11.193
		c5.36,0,9.722,5.021,9.722,11.193S66.147,167.431,60.787,167.431 M60.787,145.845c-4.92,0-8.922,4.662-8.922,10.393
		s4.002,10.394,8.922,10.394c4.919,0,8.921-4.663,8.921-10.394S65.706,145.845,60.787,145.845 M60.787,165.958
		c-4.659,0-8.45-4.36-8.45-9.72s3.791-9.72,8.45-9.72c4.659,0,8.449,4.36,8.449,9.72S65.446,165.958,60.787,165.958 M60.787,147.319
		c-4.218,0-7.649,4.001-7.649,8.919s3.431,8.919,7.649,8.919c4.218,0,7.648-4.001,7.648-8.919S65.005,147.319,60.787,147.319"/>
	<path clip-path="url(#SVGID_2_)" fill="#FFFFFF" d="M61.139,146.918c-4.445,0-8.049,4.172-8.049,9.319
		c0,5.146,3.604,9.32,8.049,9.32c4.445,0,8.049-4.174,8.049-9.32C69.188,151.09,65.583,146.918,61.139,146.918 M61.139,164.583
		c-3.98,0-7.207-3.735-7.207-8.345s3.227-8.345,7.207-8.345s7.207,3.735,7.207,8.345S65.119,164.583,61.139,164.583"/>
	<path clip-path="url(#SVGID_2_)" d="M61.139,165.958c-4.659,0-8.449-4.36-8.449-9.72s3.79-9.72,8.449-9.72
		c4.659,0,8.449,4.36,8.449,9.72S65.797,165.958,61.139,165.958 M61.139,147.319c-4.218,0-7.648,4.001-7.648,8.919
		s3.43,8.919,7.648,8.919c4.218,0,7.648-4.001,7.648-8.919S65.356,147.319,61.139,147.319 M61.139,164.983
		c-4.194,0-7.607-3.923-7.607-8.745s3.413-8.745,7.607-8.745c4.194,0,7.607,3.923,7.607,8.745S65.333,164.983,61.139,164.983
		 M61.139,148.293c-3.753,0-6.807,3.563-6.807,7.944s3.054,7.944,6.807,7.944s6.807-3.563,6.807-7.944
		S64.892,148.293,61.139,148.293"/>
	<path clip-path="url(#SVGID_2_)" d="M92.573,143.07c-4.242,0.161-7.515,4.648-7.312,10.023c0.204,5.374,3.807,9.601,8.049,9.441
		c4.242-0.161,7.516-4.648,7.313-10.023C100.419,147.137,96.815,142.911,92.573,143.07 M93.261,161.206
		c-3.663,0.139-6.774-3.512-6.951-8.152c-0.176-4.641,2.651-8.515,6.314-8.654c3.663-0.139,6.774,3.512,6.95,8.152
		S96.923,161.066,93.261,161.206"/>
	<path clip-path="url(#SVGID_2_)" d="M93.073,162.938c-2.084,0-4.066-0.983-5.605-2.789c-1.58-1.852-2.504-4.352-2.606-7.041
		c-0.101-2.688,0.632-5.252,2.066-7.217c1.455-1.994,3.455-3.138,5.63-3.22h-0.001c2.201-0.103,4.258,0.905,5.86,2.784
		c1.578,1.852,2.503,4.352,2.604,7.041c0.102,2.688-0.633,5.252-2.065,7.217c-1.455,1.994-3.455,3.138-5.632,3.22
		C93.241,162.937,93.157,162.938,93.073,162.938 M92.589,143.47c-1.926,0.073-3.707,1.1-5.015,2.892
		c-1.328,1.821-2.008,4.206-1.913,6.717c0.095,2.509,0.953,4.836,2.415,6.551c1.439,1.688,3.29,2.585,5.219,2.505
		c1.926-0.073,3.708-1.1,5.015-2.892c1.328-1.821,2.009-4.206,1.913-6.718c-0.094-2.509-0.951-4.835-2.415-6.55
		C96.37,144.287,94.514,143.397,92.589,143.47L92.589,143.47z M93.06,161.608c-3.783,0.002-6.969-3.775-7.148-8.539
		c-0.089-2.334,0.549-4.56,1.794-6.267c1.266-1.736,3.008-2.731,4.903-2.803c3.896-0.162,7.182,3.683,7.364,8.536
		c0.089,2.334-0.548,4.56-1.794,6.267c-1.265,1.735-3.007,2.731-4.902,2.803h-0.001C93.204,161.607,93.132,161.608,93.06,161.608
		 M92.825,144.795c-0.063,0-0.124,0.001-0.188,0.003c-1.645,0.063-3.168,0.941-4.287,2.476c-1.14,1.563-1.722,3.609-1.641,5.765
		c0.167,4.413,3.089,7.893,6.536,7.768h-0.001c1.646-0.063,3.17-0.941,4.288-2.476c1.141-1.563,1.723-3.609,1.642-5.765
		C99.011,148.233,96.18,144.795,92.825,144.795"/>
	<path clip-path="url(#SVGID_2_)" fill="#FFFFFF" d="M92.624,144.399c-3.663,0.139-6.49,4.013-6.314,8.654
		c0.176,4.641,3.288,8.291,6.95,8.151c3.663-0.138,6.49-4.013,6.314-8.653C99.399,147.91,96.287,144.261,92.624,144.399
		 M93.23,160.404c-3.314,0.125-5.816-3.134-5.976-7.332c-0.159-4.199,2.086-7.746,5.399-7.872c3.313-0.125,5.792,3.046,5.951,7.244
		C98.764,156.643,96.544,160.279,93.23,160.404"/>
	<path clip-path="url(#SVGID_2_)" d="M93.061,161.61c-3.784,0.001-6.97-3.777-7.15-8.54c-0.088-2.334,0.549-4.561,1.794-6.268
		c1.266-1.734,3.007-2.731,4.904-2.803h0.001c3.843-0.162,7.18,3.683,7.364,8.536c0.089,2.334-0.549,4.56-1.794,6.267
		c-1.267,1.735-3.008,2.731-4.903,2.803C93.203,161.608,93.132,161.61,93.061,161.61 M92.619,160.79
		c0.207,0.019,0.414,0.023,0.626,0.017c1.646-0.063,3.169-0.941,4.288-2.476c1.141-1.563,1.723-3.609,1.642-5.765
		c-0.077-2.026-0.736-3.856-1.762-5.231c0.956,1.36,1.519,3.15,1.591,5.094c0.082,2.151-0.433,4.19-1.449,5.742
		c-1.069,1.634-2.602,2.568-4.311,2.633C93.035,160.812,92.825,160.807,92.619,160.79 M92.84,145.597
		c-0.057,0-0.113,0.001-0.171,0.003c-1.449,0.055-2.759,0.848-3.685,2.231c-0.933,1.393-1.405,3.249-1.33,5.225
		c0.075,1.969,0.685,3.764,1.717,5.055c1.023,1.275,2.417,1.95,3.844,1.894h0.001c1.442-0.055,2.745-0.861,3.67-2.271
		c0.927-1.414,1.396-3.288,1.319-5.273c-0.074-1.964-0.679-3.741-1.704-5.007C95.529,146.251,94.235,145.597,92.84,145.597
		 M90.047,145.638c-0.629,0.408-1.201,0.958-1.695,1.636c-1.141,1.563-1.723,3.609-1.642,5.765c0.089,2.336,0.952,4.412,2.256,5.83
		c-0.074-0.084-0.147-0.17-0.22-0.259c-1.138-1.424-1.81-3.385-1.891-5.522c-0.082-2.144,0.438-4.169,1.465-5.701
		C88.809,146.657,89.394,146.069,90.047,145.638 M92.64,144.798c-0.338,0.013-0.67,0.062-0.994,0.14
		c0.322-0.077,0.654-0.124,0.994-0.137c0.178-0.008,0.357-0.005,0.534,0.006C92.997,144.795,92.819,144.792,92.64,144.798
		L92.64,144.798z"/>
	<path clip-path="url(#SVGID_2_)" fill="#E8373D" d="M68.191,149.103c-1.438-1.847-2.45-2.783-3.884-3.479
		c-1.392-0.676-4.039-1.053-6.896,0.023c-3.515,1.321-5.297,4.163-5.937,5.472c-0.142,0.291,1.343,0.444,1.605,0.606l0.524-0.251
		c0,0,2.023-3.716,5.886-4.664c2.359-0.58,4.081-0.362,5.133,0.108c2.723,1.219,3.389,2.503,4.214,3.873l0.505-0.026
		C69.341,150.765,69.308,150.537,68.191,149.103"/>
	<path clip-path="url(#SVGID_2_)" d="M53.08,152.125c-0.074,0-0.148-0.021-0.212-0.061c-0.059-0.028-0.329-0.089-0.506-0.13
		c-0.699-0.157-1.102-0.262-1.248-0.568c-0.054-0.11-0.052-0.314,0.002-0.424c0.603-1.235,2.412-4.263,6.155-5.671
		c3.004-1.133,5.763-0.711,7.212-0.009c1.455,0.707,2.509,1.647,4.024,3.594c1.183,1.518,1.219,1.77,1.231,1.853
		c0.015,0.11-0.017,0.224-0.088,0.31c-0.071,0.087-0.175,0.14-0.287,0.146l-0.505,0.027c-0.143,0.003-0.288-0.066-0.364-0.193
		l-0.12-0.199c-0.772-1.291-1.439-2.406-3.915-3.516c-0.693-0.309-2.242-0.734-4.874-0.085c-3.639,0.894-5.612,4.431-5.63,4.466
		c-0.042,0.073-0.103,0.133-0.178,0.169l-0.524,0.252C53.197,152.112,53.138,152.125,53.08,152.125 M51.976,151.016
		c0.175,0.052,0.411,0.104,0.562,0.139c0.226,0.051,0.396,0.09,0.528,0.132l0.252-0.12c0.388-0.66,2.429-3.85,6.076-4.745
		c2.864-0.703,4.607-0.219,5.392,0.132c0.356,0.159,0.678,0.321,0.972,0.483c-0.518-0.438-1.038-0.768-1.625-1.054
		c-1.305-0.633-3.811-1.003-6.581,0.037C54.332,147.232,52.652,149.74,51.976,151.016"/>
	<path clip-path="url(#SVGID_2_)" fill="#E8373D" d="M91.642,142.059c0,0-1.994,0.241-4.344,2.595
		c-2.176,2.181-2.932,5.377-2.747,7.459c1.155,0.082,1.404-0.823,1.404-0.823s0.16-3.434,2.362-5.411
		c2.203-1.979,3.411-2.083,3.411-2.083s0.291-0.427,0.258-0.979C91.951,142.265,91.642,142.059,91.642,142.059"/>
	<path clip-path="url(#SVGID_2_)" d="M84.692,152.518c-0.055,0-0.112-0.002-0.171-0.006c-0.196-0.015-0.352-0.169-0.37-0.364
		c-0.198-2.245,0.611-5.52,2.863-7.775c2.42-2.426,4.493-2.7,4.58-2.711c0.095-0.01,0.189,0.012,0.27,0.064
		c0.049,0.032,0.477,0.337,0.521,1.066c0.04,0.669-0.289,1.173-0.328,1.229c-0.066,0.099-0.175,0.162-0.295,0.173
		c-0.005,0.001-1.14,0.151-3.178,1.982c-2.048,1.84-2.229,5.1-2.231,5.132C86.23,151.792,85.746,152.518,84.692,152.518
		 M91.494,142.497c-0.539,0.13-2.12,0.643-3.914,2.44c-1.933,1.937-2.711,4.772-2.653,6.762c0.482-0.088,0.618-0.438,0.643-0.521
		c-0.009-0.055,0.179-3.531,2.479-5.598c1.778-1.597,2.944-2.027,3.418-2.143c0.06-0.132,0.133-0.351,0.119-0.597
		C91.576,142.68,91.535,142.569,91.494,142.497"/>
	<polygon clip-path="url(#SVGID_2_)" fill="#9FA0A0" points="67.884,136.89 66.445,137.204 68.547,144.202 69.937,143.737 	"/>
	<path clip-path="url(#SVGID_2_)" d="M68.547,144.602c-0.064,0-0.127-0.016-0.184-0.045c-0.097-0.05-0.168-0.137-0.199-0.24
		l-2.102-6.998c-0.032-0.106-0.018-0.223,0.038-0.318c0.057-0.096,0.151-0.164,0.26-0.187l1.439-0.314
		c0.203-0.05,0.407,0.075,0.467,0.275l2.053,6.847c0.063,0.207-0.051,0.426-0.256,0.494l-1.389,0.465
		C68.633,144.595,68.59,144.602,68.547,144.602 M66.953,137.502l1.858,6.189l0.631-0.211l-1.835-6.121L66.953,137.502z"/>
	<path clip-path="url(#SVGID_2_)" d="M77.062,129.208l2.464-0.197c0,0,0.319-0.1,0.415,0.528c0.096,0.628-0.48,0.563-0.48,0.563
		l-2.439,0.389c0,0-0.494-0.168-0.492-0.647C76.532,129.465,76.831,129.24,77.062,129.208"/>
	<path clip-path="url(#SVGID_2_)" d="M77.022,130.89c-0.044,0-0.087-0.008-0.129-0.021c-0.284-0.097-0.765-0.422-0.763-1.028
		c0.002-0.57,0.449-0.972,0.878-1.029c0.008-0.001,0.015-0.002,0.022-0.002l2.464-0.197c0.038-0.022,0.238-0.022,0.423,0.092
		c0.221,0.139,0.362,0.399,0.42,0.774c0.061,0.405-0.077,0.646-0.204,0.778c-0.221,0.229-0.507,0.247-0.652,0.246l-2.395,0.382
		C77.064,130.888,77.044,130.89,77.022,130.89 M77.111,129.605c-0.038,0.009-0.181,0.071-0.181,0.239
		c-0.001,0.115,0.084,0.19,0.151,0.231l2.317-0.37c0.037-0.007,0.072-0.008,0.109-0.003c0.039,0.011,0.051-0.018,0.039-0.104
		c-0.016-0.102-0.036-0.161-0.05-0.194L77.111,129.605z"/>
	<path clip-path="url(#SVGID_2_)" fill="#E8373D" d="M93.153,152.718c-0.109-0.23-2.146-2.215-3.692-5.563
		c-2.019-4.375-3.945-9.964-3.945-9.964l-1.23,0.468l1.504,4.4c0,0-5.213,10.392-9.035,11.553c-3.757,1.14-5.12-5.077-5.586-6.414
		c-0.465-1.336-1.095-3.767-1.095-3.767l-1.721,0.646l0.049,0.133c0.08,0.221,0.057,0.467-0.063,0.669l-5.77,11.633l0.743,0.476
		l5.485-10.898c0.084-0.12,0.269-0.088,0.309,0.053c0,0,0.722,2.248,1.286,3.965c0.654,1.991,2.42,5.855,6.778,4.899
		c3.754-0.824,9.288-10.88,9.288-10.88c0.116-0.039,0.241,0.024,0.278,0.14c0,0,0.716,2.125,1.976,4.55
		c1.26,2.424,3.741,4.86,3.741,4.86C93.177,154.288,93.404,153.252,93.153,152.718"/>
	<path clip-path="url(#SVGID_2_)" d="M63.313,157.387c-0.076,0-0.151-0.021-0.215-0.063l-0.743-0.474
		c-0.173-0.109-0.235-0.331-0.144-0.515l5.77-11.634c0.074-0.127,0.085-0.246,0.045-0.354l-0.047-0.133
		c-0.077-0.206,0.028-0.435,0.234-0.513l1.721-0.645c0.107-0.04,0.224-0.032,0.325,0.019c0.1,0.053,0.174,0.146,0.202,0.255
		c0.007,0.024,0.633,2.43,1.087,3.734c0.053,0.151,0.116,0.363,0.193,0.619c0.437,1.451,1.346,4.473,3.068,5.395
		c0.565,0.303,1.163,0.352,1.83,0.148c3.374-1.024,8.066-9.935,8.718-11.2l-1.45-4.24c-0.069-0.203,0.035-0.426,0.237-0.503
		l1.23-0.469c0.101-0.038,0.214-0.034,0.313,0.012c0.097,0.046,0.172,0.13,0.208,0.232c0.019,0.056,1.943,5.621,3.93,9.927
		c1.204,2.61,2.701,4.361,3.342,5.11c0.221,0.258,0.304,0.354,0.349,0.45l0.001,0.001c0.227,0.483,0.187,1.247-0.235,1.57
		c-0.145,0.109-0.538,0.324-1.086-0.137c-0.126-0.122-2.563-2.53-3.837-4.982c-0.933-1.794-1.565-3.407-1.842-4.16
		c-1.212,2.111-5.838,9.808-9.26,10.558c-3.337,0.731-5.908-1.103-7.243-5.165c-0.399-1.21-0.875-2.684-1.121-3.45l-5.222,10.385
		c-0.051,0.102-0.143,0.176-0.251,0.206C63.384,157.382,63.348,157.387,63.313,157.387 M63.087,156.369l0.067,0.043l5.286-10.502
		c0.159-0.233,0.375-0.324,0.597-0.285c0.22,0.038,0.394,0.195,0.454,0.41c0,0,0.719,2.238,1.282,3.947
		c0.84,2.561,2.622,5.441,6.311,4.634c3.536-0.775,8.97-10.583,9.024-10.683c0.048-0.086,0.128-0.153,0.223-0.186
		c0.155-0.054,0.326-0.042,0.477,0.033c0.149,0.075,0.258,0.205,0.309,0.363c0.005,0.016,0.721,2.121,1.95,4.486
		c1.215,2.338,3.643,4.736,3.666,4.761c0.078,0.063,0.126,0.073,0.127,0.073c-0.008-0.043,0.029-0.349-0.062-0.561
		c-0.038-0.054-0.122-0.15-0.24-0.288c-0.66-0.773-2.208-2.584-3.459-5.293c-1.699-3.681-3.348-8.264-3.824-9.612l-0.485,0.185
		l1.379,4.036c0.034,0.101,0.026,0.211-0.021,0.308c-0.216,0.431-5.335,10.559-9.277,11.755c-0.872,0.266-1.691,0.192-2.439-0.209
		c-2.015-1.079-2.989-4.314-3.456-5.869c-0.074-0.242-0.134-0.442-0.184-0.586c-0.351-1.01-0.788-2.605-0.991-3.367l-0.962,0.36
		c0.035,0.262-0.019,0.529-0.156,0.761L63.087,156.369z"/>
	<path clip-path="url(#SVGID_2_)" fill="#E8373D" d="M62.812,155.735c0.921-0.356,11.35-3.65,12.787-4.227
		c1.544-0.618,3.199,0,3.756,1.491c0.511,1.369-0.06,3.171-1.53,3.793c-1.565,0.661-13.428,1.888-14.77,1.949
		C61.713,158.802,61.891,156.09,62.812,155.735"/>
	<path clip-path="url(#SVGID_2_)" d="M63.01,159.143c-0.637,0-1.109-0.445-1.268-1.203c-0.204-0.969,0.149-2.277,0.925-2.578
		c0.397-0.154,2.459-0.82,4.846-1.593c3.171-1.026,7.117-2.303,7.937-2.632c0.898-0.359,1.848-0.358,2.671,0.007
		c0.748,0.331,1.319,0.94,1.608,1.717c0.555,1.484-0.015,3.566-1.749,4.3c-1.64,0.693-13.65,1.923-14.907,1.98
		C63.052,159.142,63.031,159.143,63.01,159.143 M62.956,156.108c-0.309,0.12-0.579,0.966-0.431,1.667
		c0.081,0.388,0.221,0.57,0.512,0.567c1.577-0.072,13.168-1.3,14.632-1.918c1.311-0.555,1.736-2.146,1.31-3.284
		c-0.212-0.572-0.632-1.021-1.181-1.265c-0.626-0.276-1.353-0.274-2.051,0.003c-0.845,0.34-4.64,1.568-7.988,2.651
		C65.482,155.266,63.333,155.961,62.956,156.108"/>
	<path clip-path="url(#SVGID_2_)" d="M79.724,160.515l-0.932-1.236c-0.137-0.182-0.395-0.215-0.574-0.076l-0.307,0.239l-0.342-4.156
		c0.46-0.209,0.761-0.706,0.664-1.263c-0.079-0.455-0.438-0.83-0.891-0.926c-0.749-0.155-1.41,0.411-1.41,1.135
		c0,0.588,0.44,1.068,1.008,1.144l0.392,4.369l-0.505,0.346c-0.125,0.085-0.172,0.246-0.114,0.386l0.771,1.843
		c0,0,0.757-0.038,1.358-0.416c0.602-0.379,1.048-0.947,1.048-0.947L79.724,160.515z"/>
	<path clip-path="url(#SVGID_2_)" d="M62.403,135.668c0.136-0.374,0.527-0.624,1.087-0.744c0.559-0.118,4.953-0.717,5.533-0.745
		c0.771-0.037,1.141-0.05,1.411,0.344c0.27,0.393,0.332,0.88-0.052,1.189c-0.384,0.311-1.996,1.287-2.38,1.598
		c-0.385,0.311-0.827,1.082-1.663,1.139c-0.491,0.034-0.995-0.298-1.786-0.608c-0.792-0.31-1.632-0.502-1.885-0.646
		c-0.254-0.145-0.424-0.343-0.376-0.82C62.34,135.896,62.403,135.668,62.403,135.668"/>
	<path clip-path="url(#SVGID_2_)" fill="#9FA0A0" d="M86.959,129.618c-0.646-0.198-2.796-0.079-2.796-0.079
		c-0.355,0.001-0.705-0.068-1.033-0.202l-1.256-0.349c-0.166-0.068-0.348-0.083-0.522-0.042l-1.814,0.26l0.112,0.875l1.282-0.225
		c0.286-0.092,0.634-0.189,0.914-0.082l1.117,0.379c-0.193,0.202-0.429,0.459-0.513,0.596c-0.199,0.324-0.184,0.6-0.055,1.039
		c0.063,0.212,1.891,5.871,1.891,5.871l1.059-0.45l-1.775-5.652c-0.063-0.154-0.055-0.329,0.021-0.478l0.459-0.635
		c0.075,0.007,0.15,0.021,0.226,0.023l1.902,0.022l-0.329,0.979l0.96,0.292l0.346-0.962
		C87.155,130.798,87.479,129.778,86.959,129.618"/>
	<path clip-path="url(#SVGID_2_)" d="M84.286,138.059c-0.057,0-0.114-0.013-0.166-0.036c-0.103-0.047-0.18-0.135-0.215-0.241
		c-0.074-0.231-1.83-5.667-1.894-5.882c-0.148-0.501-0.183-0.902,0.098-1.36c0.026-0.043,0.068-0.104,0.15-0.203l-0.542-0.185
		c-0.177-0.069-0.494,0.031-0.664,0.085l-1.334,0.237c-0.109,0.021-0.217-0.007-0.306-0.071c-0.088-0.065-0.146-0.163-0.159-0.271
		l-0.113-0.875c-0.028-0.217,0.123-0.416,0.34-0.446l1.815-0.26c0.221-0.056,0.485-0.034,0.731,0.068l1.21,0.332
		c0.324,0.131,0.666,0.17,0.925,0.188c0.206-0.012,2.221-0.116,2.914,0.097v0.001c0.201,0.062,0.359,0.194,0.459,0.384
		c0.245,0.469,0.044,1.166,0.001,1.301l-0.351,0.976c-0.071,0.199-0.285,0.311-0.492,0.247l-0.961-0.292
		c-0.103-0.031-0.189-0.104-0.239-0.199c-0.05-0.097-0.059-0.209-0.024-0.312l0.154-0.457l-1.352-0.016
		c-0.011-0.001-0.022-0.001-0.033-0.001l-0.322,0.446l0.001-0.001c0.006,0,0.006,0.05,0.024,0.094l1.785,5.683
		c0.062,0.196-0.036,0.407-0.225,0.488l-1.059,0.45C84.392,138.048,84.339,138.059,84.286,138.059 M82.531,129.583l0.56,0.19
		c0.129,0.044,0.227,0.151,0.26,0.283c0.032,0.133-0.005,0.272-0.098,0.371c-0.356,0.373-0.445,0.501-0.463,0.531
		c-0.111,0.18-0.129,0.314-0.011,0.715c0.045,0.153,1.099,3.42,1.753,5.445l0.322-0.138l-1.666-5.306
		c-0.096-0.232-0.082-0.528,0.048-0.78l0.489-0.687c0.082-0.114,0.22-0.179,0.361-0.164c0.005,0.001,0.095,0.012,0.101,0.012
		l1.995,0.032c0.128,0.002,0.247,0.064,0.322,0.169c0.074,0.104,0.093,0.237,0.052,0.359l-0.197,0.588l0.202,0.062l0.218-0.604
		c0.074-0.238,0.101-0.572,0.051-0.667c-0.436-0.125-1.85-0.104-2.645-0.059c-0.418-0.021-0.83-0.077-1.208-0.231L82.531,129.583z
		 M79.985,129.545l0.009,0.069l0.869-0.152c0.093-0.031,0.195-0.063,0.305-0.088L79.985,129.545z"/>
	<path clip-path="url(#SVGID_2_)" d="M86.753,130.516c-0.467-0.182-0.779,0.442-0.779,0.442l-0.716,1.656
		c0,0-0.056,0.469,0.449,0.67c0.606,0.241,0.864-0.21,0.864-0.21l0.484-1.713C87.055,131.362,87.268,130.716,86.753,130.516"/>
	<path clip-path="url(#SVGID_2_)" d="M86.04,133.755c-0.146,0-0.306-0.029-0.481-0.1c-0.625-0.249-0.729-0.82-0.698-1.088
		c0.005-0.039,0.015-0.076,0.03-0.112l0.716-1.656c0.238-0.478,0.738-0.868,1.292-0.656c0.636,0.248,0.669,0.939,0.536,1.345
		l-0.478,1.695C86.815,133.451,86.505,133.755,86.04,133.755 M85.658,132.7c0.009,0.062,0.05,0.154,0.198,0.213
		c0.196,0.08,0.3,0.033,0.351-0.018l0.464-1.641c0.007-0.024,0.091-0.306-0.063-0.365c-0.069-0.035-0.232,0.164-0.277,0.251
		L85.658,132.7z"/>
	<polygon clip-path="url(#SVGID_2_)" fill="#A7A2A5" points="75.468,91.305 30.734,93.077 30.734,91.711 75.468,89.423 	"/>
	<path clip-path="url(#SVGID_2_)" d="M30.735,93.676c-0.154,0-0.303-0.061-0.416-0.167c-0.117-0.114-0.183-0.271-0.183-0.434v-1.364
		c0-0.319,0.25-0.583,0.569-0.6l44.733-2.288c0.166,0,0.325,0.052,0.443,0.165c0.119,0.113,0.186,0.271,0.186,0.435v1.881
		c0,0.322-0.253,0.587-0.576,0.6l-44.732,1.771H30.735z M31.334,92.282v0.17l43.533-1.724v-0.673L31.334,92.282z"/>
	<path clip-path="url(#SVGID_2_)" d="M110.877,99.575h-0.01l-48.41-0.788c-0.331-0.005-0.596-0.278-0.59-0.609
		c0.004-0.332,0.267-0.607,0.61-0.59l48.409,0.788c0.331,0.005,0.595,0.278,0.59,0.609
		C111.472,99.313,111.204,99.575,110.877,99.575"/>
</g>
</svg>
