<?xml version="1.0" encoding="utf-8"?>
<!-- Generator: Adobe Illustrator 15.0.0, SVG Export Plug-In . SVG Version: 6.00 Build 0)  -->
<!DOCTYPE svg PUBLIC "-//W3C//DTD SVG 1.1//EN" "http://www.w3.org/Graphics/SVG/1.1/DTD/svg11.dtd">
<svg version="1.1" id="レイヤー_1" xmlns="http://www.w3.org/2000/svg" xmlns:xlink="http://www.w3.org/1999/xlink" x="0px"
	 y="0px" width="169.452px" height="140.933px" viewBox="0 0 169.452 140.933" enable-background="new 0 0 169.452 140.933"
	 xml:space="preserve">
<polygon fill="#7C6B6C" points="163.329,8.493 125.462,9.919 125.462,127.925 128.288,128.84 131.265,127.86 131.265,129.803 
	134.86,130.968 138.457,129.803 138.457,132.131 142.053,133.295 145.648,131.977 145.648,134.46 149.245,135.624 152.84,133.984 
	152.84,136.788 156.438,137.953 159.747,136.226 159.747,139.024 163.329,140.184 168.702,137.455 168.702,8.493 "/>
<g>
	<defs>
		<rect id="SVGID_1_" width="169.452" height="140.933"/>
	</defs>
	<clipPath id="SVGID_2_">
		<use xlink:href="#SVGID_1_"  overflow="visible"/>
	</clipPath>
	<path clip-path="url(#SVGID_2_)" d="M163.329,140.933c-0.078,0-0.155-0.012-0.23-0.036l-3.581-1.159
		c-0.311-0.101-0.521-0.389-0.521-0.714v-1.562l-2.214,1.154c-0.179,0.094-0.387,0.11-0.577,0.048l-3.596-1.162
		c-0.31-0.101-0.52-0.389-0.52-0.714v-1.639l-2.534,1.157c-0.171,0.078-0.364,0.089-0.542,0.031l-3.597-1.164
		c-0.31-0.101-0.52-0.389-0.52-0.714v-1.409L142.312,134c-0.158,0.058-0.33,0.063-0.49,0.01l-3.595-1.164
		c-0.31-0.101-0.52-0.39-0.52-0.714v-1.297l-2.616,0.847c-0.148,0.049-0.312,0.049-0.462,0l-3.596-1.164
		c-0.309-0.101-0.519-0.389-0.519-0.714v-0.908l-1.992,0.656c-0.151,0.051-0.315,0.051-0.465,0.002l-2.827-0.915
		c-0.31-0.101-0.52-0.389-0.52-0.714V9.918c0-0.403,0.318-0.734,0.722-0.749l37.868-1.425l5.401-0.001c0.414,0,0.75,0.336,0.75,0.75
		v128.961c0,0.282-0.158,0.541-0.41,0.669l-5.373,2.729C163.563,140.906,163.446,140.933,163.329,140.933 M160.497,138.478
		l2.769,0.896l4.687-2.379V9.243h-4.623l-37.118,1.398v116.738l2.075,0.672l2.744-0.904c0.227-0.076,0.478-0.038,0.674,0.104
		c0.195,0.141,0.311,0.367,0.311,0.607v1.399l2.846,0.922l3.366-1.09c0.228-0.074,0.478-0.034,0.672,0.107
		c0.193,0.141,0.309,0.366,0.309,0.606v1.782l2.83,0.917l3.353-1.23c0.229-0.087,0.486-0.052,0.688,0.089
		c0.2,0.141,0.32,0.37,0.32,0.615v1.938l2.801,0.906l3.33-1.521c0.234-0.104,0.502-0.086,0.717,0.052s0.345,0.376,0.345,0.631v2.26
		l2.777,0.898l3.032-1.58c0.23-0.121,0.511-0.112,0.735,0.023c0.225,0.137,0.361,0.38,0.361,0.642V138.478z"/>
	<path clip-path="url(#SVGID_2_)" d="M128.288,129.59c-0.414,0-0.75-0.336-0.75-0.75V9.813c0-0.414,0.336-0.75,0.75-0.75
		s0.75,0.336,0.75,0.75V128.84C129.038,129.254,128.702,129.59,128.288,129.59"/>
	<path clip-path="url(#SVGID_2_)" d="M131.265,128.609c-0.414,0-0.75-0.336-0.75-0.75V84.11c0-0.414,0.336-0.75,0.75-0.75
		s0.75,0.336,0.75,0.75v43.749C132.015,128.273,131.679,128.609,131.265,128.609"/>
	<path clip-path="url(#SVGID_2_)" d="M149.245,136.375c-0.414,0-0.75-0.336-0.75-0.75v-47.78c0-0.414,0.336-0.75,0.75-0.75
		s0.75,0.336,0.75,0.75v47.78C149.995,136.039,149.659,136.375,149.245,136.375"/>
	<path clip-path="url(#SVGID_2_)" d="M152.841,134.733c-0.414,0-0.75-0.336-0.75-0.75V87.844c0-0.414,0.336-0.75,0.75-0.75
		s0.75,0.336,0.75,0.75v46.139C153.591,134.397,153.255,134.733,152.841,134.733"/>
	<path clip-path="url(#SVGID_2_)" d="M156.437,138.702c-0.414,0-0.75-0.336-0.75-0.75V88.186c0-0.414,0.336-0.75,0.75-0.75
		s0.75,0.336,0.75,0.75v49.766C157.187,138.366,156.851,138.702,156.437,138.702"/>
	<path clip-path="url(#SVGID_2_)" d="M159.747,136.976c-0.414,0-0.75-0.336-0.75-0.75V8.741c0-0.414,0.336-0.75,0.75-0.75
		s0.75,0.336,0.75,0.75v127.485C160.497,136.64,160.161,136.976,159.747,136.976"/>
	<path clip-path="url(#SVGID_2_)" d="M163.329,140.933c-0.414,0-0.75-0.336-0.75-0.75V8.493c0-0.414,0.336-0.75,0.75-0.75
		s0.75,0.336,0.75,0.75v131.69C164.079,140.597,163.743,140.933,163.329,140.933"/>
	<path clip-path="url(#SVGID_2_)" d="M134.86,131.718c-0.414,0-0.75-0.336-0.75-0.75V84.868c0-0.414,0.336-0.75,0.75-0.75
		s0.75,0.336,0.75,0.75v46.101C135.61,131.382,135.274,131.718,134.86,131.718"/>
	<path clip-path="url(#SVGID_2_)" d="M138.457,130.554c-0.414,0-0.75-0.336-0.75-0.75V85.275c0-0.414,0.336-0.75,0.75-0.75
		s0.75,0.336,0.75,0.75v44.529C139.207,130.218,138.871,130.554,138.457,130.554"/>
	<path clip-path="url(#SVGID_2_)" d="M142.053,133.793c-0.414,0-0.75-0.336-0.75-0.75V85.857c0-0.414,0.336-0.75,0.75-0.75
		s0.75,0.336,0.75,0.75v47.187C142.803,133.458,142.467,133.793,142.053,133.793"/>
	<path clip-path="url(#SVGID_2_)" d="M145.648,132.945c-0.414,0-0.75-0.336-0.75-0.75V86.446c0-0.414,0.336-0.75,0.75-0.75
		s0.75,0.336,0.75,0.75v45.749C146.398,132.609,146.063,132.945,145.648,132.945"/>
	<path clip-path="url(#SVGID_2_)" d="M159.747,38.631h-31.459c-0.414,0-0.75-0.336-0.75-0.75s0.336-0.75,0.75-0.75h31.459
		c0.414,0,0.75,0.336,0.75,0.75S160.161,38.631,159.747,38.631"/>
	<path clip-path="url(#SVGID_2_)" d="M159.747,42.847h-0.015l-31.459-0.62c-0.414-0.009-0.743-0.351-0.735-0.765
		c0.008-0.414,0.333-0.733,0.765-0.735l31.459,0.62c0.414,0.009,0.743,0.351,0.735,0.765
		C160.489,42.521,160.154,42.847,159.747,42.847"/>
	<path clip-path="url(#SVGID_2_)" d="M159.748,89.472c-0.04,0-0.08-0.003-0.121-0.01l-31.459-5.094
		c-0.408-0.066-0.687-0.451-0.62-0.86s0.445-0.692,0.86-0.62l31.459,5.094c0.408,0.066,0.687,0.451,0.62,0.86
		C160.428,89.21,160.109,89.472,159.748,89.472"/>
	<path clip-path="url(#SVGID_2_)" d="M130.272,38.631c-0.414,0-0.75-0.336-0.75-0.75V9.918c0-0.414,0.336-0.75,0.75-0.75
		s0.75,0.336,0.75,0.75v27.963C131.022,38.295,130.687,38.631,130.272,38.631"/>
	<path clip-path="url(#SVGID_2_)" d="M130.272,84.378c-0.414,0-0.75-0.336-0.75-0.75V41.787c0-0.414,0.336-0.75,0.75-0.75
		s0.75,0.336,0.75,0.75v41.842C131.022,84.042,130.687,84.378,130.272,84.378"/>
	<path clip-path="url(#SVGID_2_)" d="M157.925,88.936c-0.414,0-0.75-0.336-0.75-0.75V42.097c0-0.414,0.336-0.75,0.75-0.75
		s0.75,0.336,0.75,0.75v46.089C158.675,88.6,158.339,88.936,157.925,88.936"/>
	<path clip-path="url(#SVGID_2_)" d="M157.925,38.631c-0.414,0-0.75-0.336-0.75-0.75V8.74c0-0.414,0.336-0.75,0.75-0.75
		s0.75,0.336,0.75,0.75v29.141C158.675,38.295,158.339,38.631,157.925,38.631"/>
	<polygon clip-path="url(#SVGID_2_)" fill="#7C6B6C" points="21.582,79.592 21.582,94.694 6.016,99.495 0.75,97.599 0.75,83.489 
		3.136,80.267 16.005,78.585 	"/>
	<path clip-path="url(#SVGID_2_)" d="M6.016,100.245c-0.086,0-0.172-0.015-0.254-0.044l-5.266-1.895C0.198,98.199,0,97.917,0,97.6
		V83.489c0-0.161,0.052-0.317,0.147-0.446l2.386-3.223c0.121-0.164,0.304-0.271,0.506-0.298l12.87-1.681
		c0.077-0.01,0.154-0.008,0.23,0.006l5.575,1.007c0.357,0.064,0.617,0.375,0.617,0.738v15.102c0,0.329-0.215,0.62-0.529,0.717
		l-15.566,4.801C6.165,100.234,6.09,100.245,6.016,100.245 M1.5,97.073l4.534,1.632l14.797-4.564V80.218l-4.844-0.875L3.549,80.968
		L1.5,83.736V97.073z"/>
	<path clip-path="url(#SVGID_2_)" d="M8.572,82.356c-0.06,0-0.12-0.007-0.181-0.021l-5.435-1.341
		c-0.403-0.1-0.648-0.506-0.549-0.908c0.101-0.402,0.507-0.646,0.908-0.549l5.436,1.34c0.402,0.1,0.647,0.506,0.549,0.908
		C9.215,82.127,8.909,82.356,8.572,82.356"/>
	<path clip-path="url(#SVGID_2_)" d="M6.016,85.88c-0.073,0-0.148-0.011-0.224-0.034l-5.265-1.642
		c-0.396-0.123-0.615-0.544-0.492-0.939c0.123-0.395,0.535-0.619,0.939-0.492l5.266,1.642c0.395,0.123,0.615,0.544,0.492,0.939
		C6.632,85.674,6.334,85.88,6.016,85.88"/>
	<polygon clip-path="url(#SVGID_2_)" fill="#7C6B6C" points="25.396,97.714 30.177,95.728 30.177,85.081 23.97,84.077 
		18.948,84.416 18.948,95.778 20.145,96.32 23.97,94.926 23.97,97.249 	"/>
	<path clip-path="url(#SVGID_2_)" d="M25.396,98.464c-0.078,0-0.157-0.013-0.233-0.037l-1.425-0.465
		c-0.309-0.101-0.518-0.389-0.518-0.713v-1.252l-2.818,1.027c-0.184,0.066-0.387,0.059-0.567-0.021l-1.197-0.542
		c-0.268-0.122-0.44-0.389-0.44-0.684V84.416c0-0.395,0.305-0.722,0.699-0.748l5.022-0.339c0.061-0.003,0.114-0.002,0.171,0.008
		l6.207,1.004c0.363,0.059,0.63,0.372,0.63,0.74v10.647c0,0.303-0.183,0.576-0.462,0.692l-4.781,1.986
		C25.593,98.445,25.494,98.464,25.396,98.464 M24.721,96.706l0.645,0.21l4.062-1.688v-9.508l-5.492-0.889l-4.237,0.286v10.178
		l0.477,0.216l3.538-1.289c0.227-0.084,0.486-0.052,0.687,0.091c0.201,0.141,0.32,0.369,0.32,0.614V96.706z"/>
	<path clip-path="url(#SVGID_2_)" d="M6.016,100.245c-0.414,0-0.75-0.336-0.75-0.75V85.13c0-0.158,0.05-0.313,0.143-0.44
		l2.555-3.524c0.116-0.16,0.291-0.268,0.486-0.3l12.574-2.072c0.401-0.066,0.795,0.209,0.862,0.618
		c0.068,0.409-0.21,0.795-0.618,0.862L8.997,82.295l-2.231,3.078v14.121C6.766,99.909,6.43,100.245,6.016,100.245"/>
	<polygon clip-path="url(#SVGID_2_)" fill="#7C6B6C" points="18.719,56.935 18.719,95.778 20.146,96.32 20.146,61.419 23.97,62.014 
		23.97,97.249 25.396,97.714 25.396,57.891 	"/>
	<path clip-path="url(#SVGID_2_)" d="M25.396,98.464c-0.078,0-0.156-0.012-0.232-0.037l-1.426-0.465
		c-0.309-0.101-0.518-0.389-0.518-0.713V62.655l-2.325-0.361V96.32c0,0.246-0.121,0.478-0.324,0.617
		c-0.202,0.141-0.46,0.17-0.693,0.084l-1.425-0.542c-0.291-0.11-0.484-0.39-0.484-0.701V56.936c0-0.218,0.095-0.424,0.259-0.567
		c0.164-0.142,0.384-0.204,0.598-0.176l6.676,0.956c0.37,0.053,0.644,0.37,0.644,0.743v39.823c0,0.24-0.115,0.466-0.31,0.607
		C25.708,98.416,25.553,98.464,25.396,98.464 M20.146,60.669c0.038,0,0.077,0.003,0.115,0.009l3.825,0.594
		c0.251,0.039,0.456,0.199,0.561,0.416v-3.147L19.47,57.8v3.294c0.045-0.093,0.109-0.176,0.188-0.244
		C19.793,60.732,19.967,60.669,20.146,60.669"/>
	<path clip-path="url(#SVGID_2_)" d="M7.39,100.745c-0.066,0-0.134-0.009-0.201-0.027c-0.4-0.11-0.633-0.524-0.523-0.923
		c0.002-0.009,0.231-0.841,0.443-2.229c0.558-3.659,3.416-6.848,6.949-7.753c1.801-0.461,4.422-0.922,4.533-0.94
		c0.41-0.062,0.796,0.202,0.868,0.61c0.072,0.408-0.202,0.797-0.61,0.867c-0.026,0.005-2.675,0.47-4.419,0.916
		c-2.967,0.76-5.368,3.444-5.839,6.526c-0.226,1.486-0.47,2.367-0.479,2.404C8.02,100.527,7.718,100.745,7.39,100.745"/>
	<path clip-path="url(#SVGID_2_)" d="M12.118,102.934c-0.034,0-0.068-0.002-0.103-0.007c-0.41-0.056-0.697-0.435-0.641-0.845
		c0.014-0.1,0.338-2.456,0.781-4.214c0.628-2.493,1.978-5.902,6.429-6.724c2.368-0.438,4.627-0.74,4.649-0.743
		c0.417-0.063,0.788,0.232,0.843,0.644s-0.233,0.788-0.644,0.843c-0.022,0.003-2.246,0.302-4.577,0.731
		c-2.816,0.521-4.384,2.199-5.245,5.616c-0.423,1.676-0.747,4.026-0.75,4.05C12.808,102.662,12.487,102.934,12.118,102.934"/>
	<polygon clip-path="url(#SVGID_2_)" fill="#7C6B6C" points="40.446,83.615 40.446,99.63 23.937,104.723 18.352,102.712 
		18.352,87.747 20.883,84.329 34.532,82.546 	"/>
	<path clip-path="url(#SVGID_2_)" d="M23.937,105.473c-0.086,0-0.172-0.015-0.254-0.044l-5.585-2.01
		c-0.298-0.107-0.496-0.39-0.496-0.706V87.747c0-0.161,0.052-0.317,0.147-0.446l2.532-3.417c0.121-0.164,0.303-0.271,0.506-0.298
		l13.649-1.782c0.078-0.009,0.154-0.007,0.229,0.006l5.914,1.067c0.357,0.064,0.617,0.375,0.617,0.738V99.63
		c0,0.329-0.215,0.62-0.53,0.717l-16.508,5.093C24.085,105.462,24.011,105.473,23.937,105.473 M19.102,102.186l4.854,1.747
		l15.74-4.856V84.242l-5.182-0.936l-13.218,1.726l-2.194,2.962V102.186z"/>
	<path clip-path="url(#SVGID_2_)" d="M26.648,86.5c-0.06,0-0.12-0.007-0.181-0.021l-5.764-1.422c-0.403-0.1-0.648-0.506-0.549-0.908
		c0.1-0.402,0.508-0.644,0.908-0.549l5.765,1.421c0.402,0.1,0.647,0.506,0.549,0.908C27.292,86.272,26.985,86.5,26.648,86.5"/>
	<path clip-path="url(#SVGID_2_)" d="M23.937,90.239c-0.074,0-0.149-0.011-0.224-0.034l-5.585-1.742
		c-0.395-0.123-0.615-0.544-0.492-0.939c0.122-0.395,0.544-0.616,0.94-0.492l5.585,1.742c0.395,0.123,0.615,0.544,0.492,0.939
		C24.553,90.033,24.255,90.239,23.937,90.239"/>
	<polygon clip-path="url(#SVGID_2_)" fill="#7C6B6C" points="44.491,102.833 49.563,100.728 49.563,89.435 42.979,88.371 
		37.653,88.731 37.653,100.781 38.922,101.356 42.979,99.876 42.979,102.34 	"/>
	<path clip-path="url(#SVGID_2_)" d="M44.492,103.583c-0.078,0-0.157-0.013-0.233-0.037l-1.511-0.492
		c-0.309-0.101-0.518-0.388-0.518-0.713v-1.393l-3.05,1.111c-0.184,0.066-0.387,0.059-0.565-0.021l-1.271-0.574
		c-0.267-0.122-0.44-0.389-0.44-0.684V88.73c0-0.395,0.305-0.722,0.699-0.748l5.326-0.359c0.06-0.004,0.114-0.002,0.171,0.008
		l6.583,1.064c0.363,0.059,0.63,0.373,0.63,0.74v11.292c0,0.303-0.183,0.576-0.462,0.692l-5.071,2.106
		C44.687,103.564,44.588,103.583,44.492,103.583 M43.729,101.796l0.73,0.238l4.353-1.809V90.074l-5.868-0.949l-4.541,0.307v10.865
		l0.55,0.249l3.769-1.373c0.23-0.083,0.487-0.051,0.687,0.091c0.201,0.141,0.32,0.369,0.32,0.614V101.796z"/>
	<path clip-path="url(#SVGID_2_)" d="M23.937,105.473c-0.414,0-0.75-0.336-0.75-0.75V89.489c0-0.158,0.05-0.313,0.143-0.44
		l2.711-3.738c0.116-0.16,0.291-0.268,0.485-0.3l13.336-2.198c0.399-0.067,0.795,0.209,0.862,0.618s-0.21,0.795-0.618,0.862
		L27.074,86.44l-2.387,3.292v14.991C24.687,105.137,24.351,105.473,23.937,105.473"/>
	<polygon clip-path="url(#SVGID_2_)" fill="#7C6B6C" points="37.41,59.584 37.41,100.781 38.922,101.355 38.922,64.34 42.979,64.97 
		42.979,102.341 44.491,102.833 44.491,60.599 	"/>
	<path clip-path="url(#SVGID_2_)" d="M44.492,103.583c-0.078,0-0.157-0.012-0.233-0.037l-1.511-0.492
		c-0.309-0.101-0.518-0.388-0.518-0.713V65.612l-2.558-0.397v36.14c0,0.246-0.121,0.478-0.324,0.617
		c-0.203,0.14-0.46,0.173-0.692,0.084l-1.512-0.574c-0.291-0.11-0.483-0.39-0.483-0.701V59.584c0-0.218,0.094-0.424,0.258-0.566
		c0.165-0.143,0.385-0.204,0.598-0.176l7.081,1.015c0.369,0.052,0.644,0.369,0.644,0.742v42.234c0,0.24-0.116,0.466-0.31,0.606
		C44.801,103.535,44.647,103.583,44.492,103.583 M43.729,101.796l0.012,0.004V61.25l-5.581-0.8l0.011,39.819V64.34
		c0-0.219,0.096-0.427,0.262-0.569c0.166-0.143,0.388-0.205,0.604-0.172l4.057,0.63c0.365,0.056,0.635,0.371,0.635,0.741V101.796z"
		/>
	<path clip-path="url(#SVGID_2_)" d="M25.355,106.59c-0.05,0-0.101-0.005-0.151-0.016c-0.407-0.083-0.667-0.479-0.584-0.885
		c0.003-0.014,0.288-1.416,0.551-3.146c0.683-4.476,3.361-7.529,7.539-8.6c2.124-0.543,5.512-1.661,5.546-1.672
		c0.392-0.133,0.819,0.083,0.948,0.477c0.13,0.394-0.083,0.817-0.477,0.947c-0.141,0.047-3.471,1.146-5.645,1.702
		c-3.611,0.924-5.833,3.474-6.428,7.372c-0.27,1.769-0.553,3.161-0.566,3.22C26.017,106.346,25.705,106.59,25.355,106.59"/>
	<path clip-path="url(#SVGID_2_)" d="M31.091,109.261c-0.03,0-0.061-0.002-0.091-0.006c-0.411-0.049-0.704-0.423-0.654-0.834
		c0.016-0.137,0.409-3.364,0.945-5.493c1.022-4.052,2.733-6.973,7.763-8.06c2.883-0.622,5.011-0.797,5.1-0.805
		c0.411-0.017,0.774,0.275,0.807,0.688c0.033,0.412-0.274,0.773-0.687,0.808c-0.021,0.001-2.124,0.175-4.904,0.775
		c-4.307,0.931-5.691,3.257-6.624,6.96c-0.513,2.037-0.908,5.273-0.912,5.306C31.788,108.982,31.465,109.261,31.091,109.261"/>
	<polygon clip-path="url(#SVGID_2_)" fill="#7C6B6C" points="59.646,88.589 59.646,105.627 42.083,111.044 36.142,108.907 
		36.142,92.985 38.833,89.349 53.354,87.454 	"/>
	<path clip-path="url(#SVGID_2_)" d="M42.083,111.794c-0.086,0-0.171-0.015-0.254-0.044l-5.941-2.138
		c-0.298-0.107-0.496-0.39-0.496-0.706V92.985c0-0.161,0.052-0.317,0.147-0.446l2.693-3.636c0.121-0.164,0.304-0.271,0.506-0.298
		l14.52-1.896c0.077-0.01,0.155-0.008,0.23,0.006l6.291,1.136c0.357,0.064,0.617,0.375,0.617,0.738v17.038
		c0,0.329-0.215,0.62-0.529,0.717l-17.563,5.417C42.232,111.784,42.158,111.794,42.083,111.794 M36.892,108.379l5.21,1.875
		l16.794-5.181V89.216l-5.56-1.004l-14.089,1.839l-2.355,3.181V108.379z"/>
	<path clip-path="url(#SVGID_2_)" d="M44.968,91.611c-0.06,0-0.12-0.007-0.181-0.021l-6.132-1.512
		c-0.403-0.1-0.648-0.506-0.549-0.908c0.1-0.402,0.508-0.646,0.908-0.549l6.133,1.511c0.402,0.101,0.647,0.507,0.549,0.909
		C45.611,91.381,45.305,91.611,44.968,91.611"/>
	<path clip-path="url(#SVGID_2_)" d="M42.083,95.587c-0.074,0-0.148-0.011-0.224-0.034l-5.941-1.853
		c-0.396-0.123-0.615-0.544-0.492-0.939c0.122-0.395,0.538-0.617,0.939-0.492l5.942,1.853c0.395,0.123,0.615,0.544,0.492,0.939
		C42.699,95.381,42.402,95.587,42.083,95.587"/>
	<polygon clip-path="url(#SVGID_2_)" fill="#7C6B6C" points="63.949,109.035 69.344,106.793 69.344,94.781 62.34,93.649 
		56.674,94.032 56.674,106.851 58.025,107.461 62.34,105.89 62.34,108.51 	"/>
	<path clip-path="url(#SVGID_2_)" d="M63.949,109.785c-0.078,0-0.157-0.013-0.232-0.037l-1.608-0.524
		c-0.309-0.101-0.518-0.389-0.518-0.713v-1.55l-3.309,1.207c-0.183,0.066-0.388,0.06-0.566-0.022l-1.351-0.612
		c-0.268-0.121-0.44-0.389-0.44-0.683V94.032c0-0.395,0.306-0.722,0.699-0.748L62.29,92.9c0.056-0.004,0.114-0.002,0.171,0.008
		l7.003,1.133c0.363,0.059,0.63,0.372,0.63,0.74v12.013c0,0.303-0.183,0.576-0.462,0.692l-5.395,2.241
		C64.146,109.765,64.047,109.785,63.949,109.785 M63.091,107.966l0.827,0.27l4.676-1.943V95.419l-6.288-1.018l-4.881,0.331v11.634
		l0.632,0.286l4.027-1.469c0.228-0.084,0.485-0.051,0.687,0.091c0.201,0.14,0.32,0.369,0.32,0.614V107.966z"/>
	<path clip-path="url(#SVGID_2_)" d="M42.083,111.794c-0.414,0-0.75-0.336-0.75-0.75V94.837c0-0.158,0.05-0.313,0.143-0.44
		l2.883-3.977c0.117-0.16,0.291-0.268,0.486-0.3l14.186-2.338c0.4-0.068,0.795,0.209,0.863,0.618
		c0.067,0.409-0.21,0.795-0.619,0.862L45.393,91.55l-2.56,3.53v15.964C42.833,111.458,42.497,111.794,42.083,111.794"/>
	<polygon clip-path="url(#SVGID_2_)" fill="#7C6B6C" points="56.417,63.025 56.417,106.85 58.025,107.462 58.025,68.084 
		62.34,68.755 62.34,108.51 63.949,109.035 63.949,64.104 	"/>
	<path clip-path="url(#SVGID_2_)" d="M63.949,109.785c-0.078,0-0.156-0.012-0.232-0.037l-1.608-0.524
		c-0.309-0.101-0.518-0.389-0.518-0.713V69.398l-2.816-0.438v38.502c0,0.247-0.121,0.478-0.325,0.617
		c-0.202,0.141-0.463,0.171-0.692,0.084l-1.608-0.612c-0.291-0.111-0.484-0.39-0.484-0.701V63.026c0-0.218,0.095-0.424,0.259-0.567
		c0.163-0.142,0.384-0.205,0.598-0.176l7.533,1.079c0.369,0.052,0.643,0.369,0.643,0.742v44.93c0,0.24-0.115,0.466-0.309,0.607
		C64.26,109.736,64.106,109.785,63.949,109.785 M63.091,107.966l0.108,0.035V64.754l-6.033-0.863v42.442l0.109,0.041V68.085
		c0-0.219,0.095-0.427,0.261-0.569c0.167-0.143,0.389-0.204,0.604-0.172l4.316,0.67c0.365,0.056,0.635,0.371,0.635,0.741V107.966z"
		/>
	<polygon clip-path="url(#SVGID_2_)" fill="#7C6B6C" points="82.642,93.82 82.642,112.933 62.94,119.01 56.275,116.612 
		56.275,98.75 59.295,94.672 75.585,92.545 	"/>
	<path clip-path="url(#SVGID_2_)" d="M62.94,119.76c-0.086,0-0.172-0.015-0.254-0.044l-6.665-2.398
		c-0.298-0.107-0.496-0.39-0.496-0.706V98.75c0-0.161,0.052-0.317,0.147-0.446l3.02-4.078c0.121-0.163,0.304-0.271,0.506-0.298
		l16.29-2.127c0.077-0.01,0.154-0.008,0.229,0.006l7.058,1.274c0.357,0.065,0.617,0.375,0.617,0.738v19.113
		c0,0.329-0.215,0.62-0.529,0.717l-19.702,6.077C63.089,119.75,63.014,119.76,62.94,119.76 M57.025,116.084l5.934,2.136
		l18.933-5.841V94.447l-6.326-1.143l-15.858,2.07l-2.683,3.623V116.084z"/>
	<path clip-path="url(#SVGID_2_)" d="M66.176,97.118c-0.06,0-0.12-0.007-0.181-0.021l-6.88-1.696
		c-0.402-0.1-0.647-0.506-0.548-0.908c0.1-0.402,0.505-0.646,0.908-0.549l6.88,1.695c0.402,0.1,0.647,0.506,0.549,0.908
		C66.819,96.889,66.513,97.118,66.176,97.118"/>
	<path clip-path="url(#SVGID_2_)" d="M62.94,101.58c-0.074,0-0.149-0.011-0.224-0.034l-6.665-2.079
		c-0.395-0.123-0.615-0.544-0.492-0.939c0.122-0.395,0.543-0.619,0.94-0.492l6.665,2.079c0.395,0.123,0.615,0.544,0.492,0.939
		C63.557,101.374,63.259,101.58,62.94,101.58"/>
	<polygon clip-path="url(#SVGID_2_)" fill="#7C6B6C" points="87.471,116.755 93.522,114.242 93.522,100.766 85.665,99.495 
		79.309,99.925 79.309,114.306 80.824,114.992 85.665,113.227 85.665,116.167 	"/>
	<path clip-path="url(#SVGID_2_)" d="M87.471,117.505c-0.078,0-0.156-0.013-0.232-0.037l-1.805-0.588
		c-0.309-0.101-0.518-0.388-0.518-0.713v-1.869l-3.835,1.398c-0.185,0.066-0.388,0.059-0.566-0.022L79,114.989
		c-0.269-0.122-0.44-0.39-0.44-0.684V99.924c0-0.395,0.305-0.722,0.699-0.748l6.356-0.43c0.057-0.003,0.113-0.001,0.171,0.008
		l7.856,1.271c0.363,0.059,0.63,0.372,0.63,0.741v13.475c0,0.303-0.183,0.576-0.462,0.693l-6.052,2.513
		C87.666,117.486,87.568,117.505,87.471,117.505 M86.416,115.623l1.023,0.334l5.333-2.216v-12.336l-7.142-1.156l-5.571,0.377v13.196
		l0.795,0.36l4.554-1.66c0.227-0.084,0.485-0.051,0.687,0.091c0.201,0.141,0.32,0.369,0.32,0.614V115.623z"/>
	<path clip-path="url(#SVGID_2_)" d="M62.94,119.76c-0.414,0-0.75-0.336-0.75-0.75V100.83c0-0.158,0.05-0.313,0.143-0.44
		l3.234-4.462c0.116-0.16,0.291-0.268,0.485-0.3l15.916-2.622c0.403-0.068,0.795,0.209,0.863,0.618
		c0.067,0.408-0.21,0.795-0.619,0.862l-15.612,2.571l-2.91,4.016v17.938C63.69,119.424,63.354,119.76,62.94,119.76"/>
	<polygon clip-path="url(#SVGID_2_)" fill="#7C6B6C" points="79.02,65.142 79.02,114.305 80.825,114.992 80.825,70.817 
		85.666,71.57 85.666,116.167 87.471,116.755 87.471,66.352 	"/>
	<path clip-path="url(#SVGID_2_)" d="M87.471,117.505c-0.078,0-0.156-0.012-0.232-0.037l-1.805-0.588
		c-0.309-0.101-0.518-0.388-0.518-0.713V72.212l-3.342-0.52v43.299c0,0.247-0.121,0.478-0.324,0.617
		c-0.203,0.141-0.463,0.17-0.692,0.084l-1.805-0.687c-0.291-0.111-0.483-0.39-0.483-0.701V65.142c0-0.218,0.094-0.424,0.258-0.567
		c0.164-0.142,0.383-0.205,0.598-0.176l8.451,1.211c0.369,0.053,0.644,0.369,0.644,0.742v50.404c0,0.24-0.115,0.466-0.31,0.606
		C87.781,117.457,87.627,117.505,87.471,117.505 M86.416,115.623l0.305,0.1v-48.72l-6.951-0.996v47.781l0.304,0.116V70.817
		c0-0.218,0.096-0.426,0.262-0.569c0.166-0.142,0.388-0.205,0.603-0.172l4.842,0.752c0.365,0.057,0.635,0.371,0.635,0.741V115.623z"
		/>
	<polygon clip-path="url(#SVGID_2_)" fill="#7C6B6C" points="105.007,99.422 105.007,119.967 83.829,126.5 76.665,123.922 
		76.665,104.723 79.911,100.339 97.421,98.052 	"/>
	<path clip-path="url(#SVGID_2_)" d="M83.829,127.25c-0.086,0-0.172-0.015-0.254-0.044l-7.164-2.578
		c-0.298-0.107-0.496-0.39-0.496-0.706v-19.199c0-0.161,0.052-0.317,0.147-0.446l3.247-4.385c0.121-0.164,0.303-0.271,0.505-0.298
		l17.51-2.286c0.077-0.01,0.153-0.008,0.229,0.006l7.587,1.37c0.356,0.064,0.616,0.375,0.616,0.738v20.545
		c0,0.329-0.215,0.62-0.53,0.717l-21.177,6.533C83.978,127.24,83.903,127.25,83.829,127.25 M77.415,123.395l6.433,2.315
		l20.409-6.297v-19.364l-6.854-1.238l-17.078,2.229l-2.909,3.93V123.395z"/>
	<path clip-path="url(#SVGID_2_)" d="M87.308,102.912c-0.06,0-0.12-0.007-0.181-0.021l-7.396-1.823
		c-0.403-0.1-0.648-0.506-0.549-0.908c0.101-0.402,0.507-0.644,0.908-0.549l7.396,1.822c0.402,0.101,0.647,0.507,0.549,0.909
		C87.95,102.682,87.645,102.912,87.308,102.912"/>
	<path clip-path="url(#SVGID_2_)" d="M83.829,107.708c-0.074,0-0.149-0.011-0.224-0.034l-7.164-2.234
		c-0.395-0.123-0.615-0.545-0.492-0.939c0.122-0.396,0.543-0.618,0.94-0.492l7.164,2.234c0.396,0.123,0.615,0.544,0.492,0.939
		C84.445,107.501,84.148,107.708,83.829,107.708"/>
	<polygon clip-path="url(#SVGID_2_)" fill="#7C6B6C" points="110.197,124.077 116.702,121.375 116.702,106.889 108.257,105.523 
		101.425,105.985 101.425,121.443 103.053,122.181 108.257,120.284 108.257,123.445 	"/>
	<path clip-path="url(#SVGID_2_)" d="M110.197,124.827c-0.078,0-0.156-0.013-0.232-0.037l-1.94-0.632
		c-0.309-0.101-0.518-0.388-0.518-0.713v-2.09l-4.197,1.53c-0.184,0.066-0.387,0.059-0.566-0.021l-1.628-0.737
		c-0.269-0.123-0.44-0.389-0.44-0.684v-15.458c0-0.395,0.306-0.722,0.699-0.748l6.832-0.462c0.058-0.003,0.113-0.002,0.171,0.008
		l8.445,1.366c0.363,0.059,0.63,0.372,0.63,0.74v14.485c0,0.303-0.183,0.576-0.462,0.692l-6.505,2.702
		C110.394,124.807,110.295,124.827,110.197,124.827 M109.007,122.9l1.159,0.378l5.786-2.404v-13.346l-7.73-1.251l-6.047,0.409
		v14.273l0.908,0.411l4.917-1.792c0.228-0.084,0.485-0.051,0.687,0.091c0.201,0.141,0.32,0.369,0.32,0.614V122.9z"/>
	<path clip-path="url(#SVGID_2_)" d="M83.829,127.25c-0.414,0-0.75-0.336-0.75-0.75v-19.543c0-0.158,0.05-0.312,0.143-0.44
		l3.477-4.796c0.116-0.16,0.291-0.268,0.485-0.3l17.107-2.819c0.402-0.064,0.795,0.209,0.862,0.618s-0.21,0.795-0.618,0.862
		l-16.804,2.769l-3.153,4.35v19.3C84.579,126.915,84.243,127.25,83.829,127.25"/>
	<polygon clip-path="url(#SVGID_2_)" fill="#7C6B6C" points="101.113,68.596 101.113,121.443 103.053,122.181 103.053,74.697 
		108.257,75.505 108.257,123.445 110.197,124.077 110.197,69.897 	"/>
	<path clip-path="url(#SVGID_2_)" d="M110.197,124.827c-0.078,0-0.156-0.012-0.232-0.037l-1.94-0.632
		c-0.309-0.101-0.518-0.388-0.518-0.713V76.148l-3.704-0.575v46.607c0,0.246-0.121,0.478-0.324,0.617
		c-0.202,0.141-0.463,0.17-0.692,0.084l-1.939-0.737c-0.291-0.11-0.483-0.391-0.483-0.701V68.596c0-0.217,0.095-0.424,0.259-0.566
		c0.164-0.143,0.386-0.204,0.598-0.176l9.084,1.301c0.369,0.053,0.644,0.369,0.644,0.742v54.18c0,0.24-0.115,0.466-0.31,0.606
		C110.508,124.778,110.354,124.827,110.197,124.827 M109.007,122.9l0.44,0.144V70.547l-7.584-1.085v51.463l0.439,0.167V74.697
		c0-0.219,0.096-0.427,0.262-0.569c0.168-0.143,0.389-0.205,0.604-0.172l5.204,0.809c0.364,0.057,0.635,0.371,0.635,0.741V122.9z"/>
	<path clip-path="url(#SVGID_2_)" fill="#9FA0A0" d="M84.952,127.155c0.173-1.075,0.158-1.761,0.788-5.075
		c1.068-5.633,5.404-8.51,10.287-9.629c2.938-0.674,6.944-1.631,6.944-1.631l0.064,1.631c0,0-4.271,0.878-6.407,1.454
		c-5.912,1.592-8.756,5.105-9.393,9.022c-0.426,2.62-0.677,4.515-0.677,4.515C86.087,128.057,84.77,127.82,84.952,127.155"/>
	<path clip-path="url(#SVGID_2_)" d="M85.739,128.298c-0.262,0-0.517-0.056-0.728-0.161c-0.442-0.22-0.656-0.644-0.55-1.084
		c0.049-0.309,0.083-0.588,0.122-0.909c0.094-0.771,0.222-1.828,0.664-4.157c0.971-5.109,4.759-8.669,10.669-10.023
		c2.936-0.674,6.938-1.63,6.938-1.63c0.144-0.032,0.299-0.002,0.418,0.088s0.192,0.229,0.198,0.379l0.064,1.631
		c0.009,0.244-0.159,0.46-0.399,0.51c-0.042,0.008-4.279,0.881-6.379,1.446c-5.143,1.386-8.35,4.446-9.028,8.62
		c-0.423,2.609-0.673,4.497-0.673,4.5c-0.012,0.087-0.046,0.17-0.1,0.239C86.661,128.13,86.19,128.298,85.739,128.298
		 M85.445,127.237c0.058,0.031,0.18,0.073,0.324,0.061c0.125-0.005,0.237-0.04,0.318-0.092c0.071-0.521,0.304-2.192,0.655-4.358
		c0.745-4.585,4.21-7.932,9.756-9.425c1.734-0.468,4.892-1.139,6.021-1.375l-0.023-0.601c-1.223,0.291-4.104,0.975-6.356,1.491
		c-3.89,0.892-8.766,3.218-9.909,9.235c-0.436,2.297-0.562,3.334-0.654,4.092c-0.041,0.343-0.077,0.638-0.13,0.969
		C85.445,127.235,85.445,127.236,85.445,127.237"/>
	<path clip-path="url(#SVGID_2_)" fill="#C2DA69" d="M53.094,105.543l1.366,0.755c0,0,2.859,1.478,5.114,4.604
		c1.689,2.344,2.69,4.187,3.124,5.287c0.096,0.243-0.109,0.498-0.345,0.428c-0.458-0.14-1.137-0.373-1.816-0.71
		c-1.456-2.459-3.007-5.884-6.999-7.546L53.094,105.543z"/>
	<path clip-path="url(#SVGID_2_)" d="M62.433,117.128c-0.075,0-0.15-0.011-0.225-0.033c-0.475-0.145-1.188-0.391-1.893-0.742
		c-0.086-0.043-0.158-0.109-0.208-0.192c-0.171-0.289-0.344-0.593-0.522-0.904c-1.346-2.358-2.872-5.031-6.24-6.434
		c-0.16-0.067-0.274-0.213-0.302-0.384l-0.443-2.817c-0.029-0.189,0.051-0.378,0.207-0.487c0.156-0.11,0.36-0.121,0.529-0.028
		l1.366,0.755c0.108,0.057,2.979,1.563,5.277,4.75c1.48,2.052,2.641,4.019,3.184,5.395c0.117,0.297,0.054,0.639-0.16,0.871
		C62.852,117.04,62.646,117.128,62.433,117.128 M60.892,115.522c0.417,0.199,0.832,0.359,1.184,0.479
		c-0.363-0.814-1.191-2.424-2.908-4.807c-2.16-2.995-4.911-4.438-4.938-4.452l-0.483-0.267l0.242,1.535
		c3.504,1.562,5.142,4.433,6.465,6.75C60.603,115.022,60.747,115.277,60.892,115.522"/>
	<path clip-path="url(#SVGID_2_)" d="M89.624,83.411c-0.45,0-0.815-0.116-1.274-0.264c-0.488-0.157-5.335-1.233-7.161-1.635
		c-0.167-0.037-0.304-0.156-0.363-0.316l-3.022-8.247c-0.073-0.2-0.011-0.427,0.157-0.562l0.689-0.552
		c0.073-0.059,0.161-0.096,0.252-0.105c0.209-0.057,1.175-0.445,2.11-0.821c1.175-0.471,2.604-1.045,3.766-1.469
		c2.063-0.753,3.015-0.764,4.117-0.776l0.497-0.008c2.047-0.049,7.667,0.55,8.798,1.256c0.116,0.073,0.197,0.19,0.225,0.324
		c0.364,1.768,0.792,7.891,0.811,8.151c0.163,0.603,0.159,2.036-1.131,2.5c-1.148,0.413-7.323,2.366-7.957,2.477
		C89.95,83.397,89.782,83.411,89.624,83.411 M81.671,80.594c1.351,0.298,6.412,1.418,6.983,1.6c0.594,0.191,0.853,0.267,1.311,0.186
		c0.516-0.091,6.582-1.998,7.791-2.434c0.765-0.275,0.488-1.389,0.485-1.4c-0.018-0.146-0.42-5.893-0.762-7.871
		c-1.179-0.464-5.888-1.07-8.063-1.018l-0.512,0.008c-1.052,0.012-1.883,0.021-3.784,0.715c-1.153,0.421-2.571,0.99-3.736,1.458
		c-1.409,0.566-1.944,0.776-2.2,0.851l-0.319,0.255L81.671,80.594z"/>
	<path clip-path="url(#SVGID_2_)" d="M88.24,76.538c-0.039,0-0.078-0.005-0.117-0.014l-9.248-2.236
		c-0.269-0.065-0.434-0.335-0.369-0.604s0.334-0.428,0.603-0.369l8.867,2.145l1.646-3.177c0.064-0.123,0.177-0.214,0.311-0.251
		c0.054-0.015,4.843-1.349,6.388-1.791c-0.066-0.132-0.074-0.291-0.008-0.435c0.115-0.25,0.411-0.36,0.661-0.245
		c0.218,0.1,0.721,0.383,0.688,0.862c-0.015,0.217-0.139,0.507-0.643,0.657c-0.637,0.191-5.514,1.552-6.608,1.856l-1.726,3.332
		C88.596,76.436,88.424,76.538,88.24,76.538"/>
	<path clip-path="url(#SVGID_2_)" d="M89.663,83.17c-0.229,0-0.436-0.158-0.488-0.391l-1.423-6.333
		c-0.061-0.27,0.109-0.537,0.379-0.598c0.274-0.058,0.537,0.109,0.598,0.379l1.423,6.333c0.061,0.27-0.109,0.537-0.379,0.598
		C89.735,83.167,89.699,83.17,89.663,83.17"/>
	<path clip-path="url(#SVGID_2_)" d="M97.229,81.078c-0.247,0-0.462-0.184-0.495-0.436l-1.201-9.239
		c-0.035-0.273,0.158-0.524,0.432-0.56c0.269-0.037,0.524,0.157,0.561,0.431l1.201,9.239c0.035,0.273-0.158,0.524-0.432,0.561
		C97.272,81.077,97.249,81.078,97.229,81.078"/>
	<path clip-path="url(#SVGID_2_)" d="M95.237,81.799c-0.247,0-0.462-0.184-0.495-0.435l-1.251-9.532
		c-0.035-0.274,0.157-0.525,0.431-0.562c0.268-0.037,0.525,0.156,0.562,0.431l1.251,9.532c0.035,0.274-0.157,0.525-0.431,0.562
		C95.281,81.798,95.26,81.799,95.237,81.799"/>
	<path clip-path="url(#SVGID_2_)" d="M93.47,82.357c-0.243,0-0.456-0.178-0.493-0.426l-1.436-9.514
		c-0.041-0.272,0.146-0.527,0.42-0.568c0.263-0.038,0.527,0.146,0.568,0.42l1.436,9.514c0.041,0.272-0.146,0.527-0.42,0.568
		C93.521,82.355,93.495,82.357,93.47,82.357"/>
	<path clip-path="url(#SVGID_2_)" d="M91.533,82.953c-0.241,0-0.453-0.175-0.493-0.421l-1.483-9.277
		c-0.043-0.272,0.143-0.53,0.415-0.573c0.275-0.042,0.528,0.142,0.573,0.415l1.483,9.277c0.043,0.272-0.143,0.529-0.415,0.573
		C91.586,82.951,91.56,82.953,91.533,82.953"/>
	<path clip-path="url(#SVGID_2_)" d="M88.182,83.084c-0.225,0-0.429-0.151-0.485-0.379l-1.703-6.834
		c-0.065-0.269,0.098-0.539,0.365-0.606c0.271-0.064,0.539,0.096,0.606,0.364l1.702,6.834c0.066,0.269-0.097,0.539-0.364,0.606
		C88.262,83.08,88.222,83.084,88.182,83.084"/>
	<path clip-path="url(#SVGID_2_)" d="M86.479,82.482c-0.217,0-0.416-0.142-0.479-0.359l-1.963-6.704
		c-0.079-0.266,0.074-0.543,0.339-0.62c0.269-0.08,0.543,0.075,0.62,0.339l1.962,6.704c0.078,0.266-0.074,0.543-0.339,0.619
		C86.573,82.475,86.525,82.482,86.479,82.482"/>
	<path clip-path="url(#SVGID_2_)" d="M84.839,82.312c-0.222,0-0.424-0.147-0.483-0.372l-1.83-6.89
		c-0.071-0.267,0.087-0.54,0.355-0.611c0.271-0.072,0.54,0.088,0.611,0.355l1.831,6.89c0.07,0.267-0.087,0.54-0.355,0.611
		C84.924,82.307,84.881,82.312,84.839,82.312"/>
	<path clip-path="url(#SVGID_2_)" d="M83.524,82.036c-0.212,0-0.408-0.136-0.477-0.348l-2.228-6.99
		c-0.084-0.264,0.061-0.545,0.324-0.629c0.268-0.081,0.545,0.063,0.629,0.324l2.229,6.99c0.084,0.264-0.062,0.545-0.325,0.629
		C83.626,82.028,83.574,82.036,83.524,82.036"/>
	<path clip-path="url(#SVGID_2_)" d="M88.502,78.46c-0.04,0-0.08-0.005-0.121-0.015l-8.872-2.21
		c-0.268-0.067-0.431-0.339-0.364-0.606c0.066-0.269,0.333-0.429,0.606-0.364l8.872,2.21c0.268,0.067,0.431,0.338,0.364,0.606
		C88.931,78.309,88.727,78.46,88.502,78.46"/>
	<path clip-path="url(#SVGID_2_)" d="M89.002,79.955c-0.04,0-0.082-0.005-0.123-0.016l-8.456-2.15
		c-0.268-0.067-0.43-0.34-0.361-0.607c0.068-0.268,0.336-0.435,0.607-0.361l8.456,2.15c0.268,0.067,0.43,0.34,0.361,0.607
		C89.429,79.804,89.226,79.955,89.002,79.955"/>
	<path clip-path="url(#SVGID_2_)" d="M89.404,81.829c-0.042,0-0.086-0.005-0.129-0.017l-8.108-2.161
		c-0.267-0.071-0.426-0.346-0.355-0.612c0.071-0.266,0.344-0.429,0.613-0.354l8.108,2.161c0.268,0.071,0.426,0.346,0.354,0.612
		C89.828,81.681,89.626,81.829,89.404,81.829"/>
	<path clip-path="url(#SVGID_2_)" d="M89.404,74.697c-0.22,0-0.421-0.145-0.481-0.366c-0.074-0.267,0.082-0.542,0.348-0.615
		l8.729-2.42c0.271-0.076,0.543,0.082,0.615,0.348c0.074,0.267-0.082,0.542-0.348,0.616l-8.729,2.419
		C89.493,74.691,89.448,74.697,89.404,74.697"/>
	<path clip-path="url(#SVGID_2_)" d="M88.24,76.538c-0.224,0-0.427-0.15-0.484-0.376c-0.068-0.268,0.093-0.54,0.36-0.608
		l10.067-2.571c0.271-0.07,0.54,0.093,0.608,0.36s-0.093,0.54-0.36,0.608l-10.067,2.571C88.322,76.533,88.281,76.538,88.24,76.538"
		/>
	<path clip-path="url(#SVGID_2_)" d="M88.622,78.314c-0.22,0-0.421-0.146-0.482-0.367c-0.073-0.267,0.083-0.542,0.35-0.615
		l9.845-2.71c0.271-0.068,0.541,0.084,0.615,0.35c0.073,0.267-0.083,0.542-0.35,0.615l-9.845,2.71
		C88.71,78.308,88.666,78.314,88.622,78.314"/>
	<path clip-path="url(#SVGID_2_)" d="M89.002,79.955c-0.218,0-0.417-0.143-0.479-0.361c-0.077-0.266,0.076-0.543,0.341-0.619
		l9.544-2.745c0.268-0.08,0.542,0.077,0.619,0.342c0.076,0.266-0.077,0.543-0.342,0.619l-9.544,2.745
		C89.094,79.949,89.048,79.955,89.002,79.955"/>
	<path clip-path="url(#SVGID_2_)" d="M89.404,81.829c-0.213,0-0.41-0.137-0.478-0.352c-0.082-0.263,0.065-0.545,0.329-0.626
		l9.321-2.907c0.264-0.083,0.543,0.065,0.626,0.329c0.082,0.263-0.065,0.544-0.329,0.626l-9.321,2.907
		C89.504,81.822,89.453,81.829,89.404,81.829"/>
	<path clip-path="url(#SVGID_2_)" d="M79.515,74.171c-0.197,0-0.384-0.117-0.463-0.311c-0.104-0.256,0.019-0.548,0.274-0.652
		c0.251-0.103,6.161-2.507,9.193-2.933c2.68-0.379,6.06,0.377,6.204,0.411c0.27,0.06,0.438,0.328,0.377,0.597
		c-0.06,0.27-0.326,0.44-0.598,0.377c-0.033-0.008-3.349-0.749-5.845-0.396c-2.909,0.409-8.894,2.845-8.954,2.869
		C79.642,74.16,79.578,74.171,79.515,74.171"/>
	<path clip-path="url(#SVGID_2_)" d="M82,75.208c-0.212,0-0.408-0.135-0.476-0.347c-0.085-0.264,0.06-0.545,0.323-0.629
		c0.05-0.017,5.093-1.635,7.02-2.172c1.157-0.322,2.051-0.438,2.749-0.35c0.273,0.034,0.468,0.284,0.434,0.559
		s-0.292,0.471-0.559,0.434c-0.547-0.068-1.344,0.039-2.355,0.32c-1.908,0.532-6.933,2.145-6.983,2.16
		C82.102,75.2,82.051,75.208,82,75.208"/>
	<path clip-path="url(#SVGID_2_)" d="M85.364,75.91c-0.215,0-0.414-0.14-0.479-0.355c-0.08-0.266,0.07-0.544,0.335-0.623l4.04-1.213
		c0.264-0.079,0.543,0.07,0.622,0.336c0.08,0.264-0.07,0.543-0.335,0.621l-4.04,1.214C85.46,75.903,85.412,75.91,85.364,75.91"/>
	<path clip-path="url(#SVGID_2_)" d="M83.742,75.422c-0.225,0-0.428-0.151-0.485-0.378l-1.136-4.518
		c-0.066-0.268,0.096-0.541,0.363-0.608c0.269-0.066,0.539,0.096,0.608,0.363l1.135,4.519c0.066,0.269-0.096,0.54-0.363,0.607
		C83.823,75.417,83.782,75.422,83.742,75.422"/>
	<path clip-path="url(#SVGID_2_)" d="M85.531,76.03c-0.226,0-0.43-0.152-0.485-0.381l-1.385-5.62
		c-0.067-0.268,0.098-0.538,0.366-0.604c0.273-0.065,0.539,0.098,0.604,0.366l1.385,5.62c0.066,0.268-0.098,0.538-0.366,0.604
		C85.61,76.025,85.57,76.03,85.531,76.03"/>
	<path clip-path="url(#SVGID_2_)" d="M87.269,76.348c-0.223,0-0.426-0.149-0.484-0.375l-1.529-5.938
		c-0.068-0.268,0.092-0.541,0.359-0.61c0.271-0.069,0.54,0.093,0.609,0.36l1.529,5.938c0.068,0.268-0.092,0.54-0.359,0.609
		C87.352,76.343,87.31,76.348,87.269,76.348"/>
	<path clip-path="url(#SVGID_2_)" d="M88.871,75.422c-0.233,0-0.441-0.164-0.489-0.402l-1.127-5.646
		c-0.054-0.27,0.121-0.534,0.393-0.588c0.268-0.057,0.533,0.12,0.588,0.393l1.127,5.646c0.054,0.271-0.121,0.535-0.393,0.588
		C88.937,75.419,88.904,75.422,88.871,75.422"/>
	<path clip-path="url(#SVGID_2_)" d="M90.441,72.843c-0.249,0-0.464-0.186-0.495-0.438l-0.392-3.186
		c-0.034-0.273,0.161-0.523,0.436-0.557c0.266-0.038,0.522,0.16,0.557,0.436l0.392,3.185c0.034,0.273-0.161,0.523-0.436,0.557
		C90.482,72.842,90.462,72.843,90.441,72.843"/>
	<path clip-path="url(#SVGID_2_)" d="M92.416,72.357c-0.243,0-0.457-0.179-0.493-0.427l-0.382-2.58
		c-0.041-0.273,0.147-0.527,0.421-0.567c0.27-0.04,0.527,0.148,0.567,0.421l0.382,2.58c0.041,0.273-0.147,0.527-0.421,0.567
		C92.466,72.355,92.44,72.357,92.416,72.357"/>
	<path clip-path="url(#SVGID_2_)" d="M94.161,72.057c-0.249,0-0.464-0.186-0.495-0.439l-0.255-2.08
		c-0.034-0.273,0.161-0.523,0.436-0.556c0.267-0.043,0.522,0.16,0.557,0.435l0.255,2.08c0.034,0.273-0.161,0.523-0.436,0.557
		C94.202,72.056,94.182,72.057,94.161,72.057"/>
	<path clip-path="url(#SVGID_2_)" d="M95.343,71.42c-0.256,0-0.475-0.196-0.497-0.456l-0.105-1.206
		c-0.024-0.275,0.18-0.518,0.454-0.542c0.287-0.021,0.519,0.179,0.542,0.454l0.105,1.206c0.024,0.275-0.18,0.518-0.454,0.542
		C95.372,71.419,95.357,71.42,95.343,71.42"/>
	<path clip-path="url(#SVGID_2_)" d="M45.989,105.96c-8.262,0.839-14.329,8.735-13.55,17.639
		c0.778,8.903,8.107,15.439,16.369,14.601c8.263-0.839,13.65-8.735,12.872-17.639C60.901,111.658,54.252,105.121,45.989,105.96
		 M48.616,135.999c-7.134,0.725-12.839-4.92-13.511-12.607c-0.672-7.688,3.943-14.506,11.077-15.23
		c7.134-0.724,13.462,4.92,14.134,12.607C60.989,128.456,55.75,135.275,48.616,135.999"/>
	<path clip-path="url(#SVGID_2_)" d="M47.385,138.772c-3.413,0-6.723-1.203-9.453-3.462c-3.406-2.817-5.589-7.069-5.992-11.667
		c-0.801-9.159,5.479-17.316,13.998-18.18c3.745-0.386,7.409,0.729,10.308,3.127c3.349,2.771,5.512,7.118,5.932,11.927
		c0.817,9.353-5.033,17.339-13.319,18.18C48.366,138.748,47.875,138.772,47.385,138.772 M45.989,105.96l0.051,0.497
		c-7.979,0.811-13.857,8.48-13.104,17.098c0.379,4.333,2.433,8.337,5.633,10.984c2.915,2.411,6.537,3.532,10.189,3.162
		c7.736-0.785,13.193-8.295,12.423-17.097c-0.397-4.544-2.428-8.643-5.573-11.244c-2.729-2.258-6.043-3.256-9.568-2.903
		L45.989,105.96z M47.371,136.563c-2.804,0-5.417-0.944-7.621-2.769c-2.903-2.401-4.778-6.178-5.144-10.359
		c-0.709-8.116,4.353-15.043,11.525-15.771c3.412-0.35,6.777,0.698,9.487,2.941c2.954,2.443,4.848,6.133,5.196,10.119
		c0.696,7.946-4.754,15.021-12.147,15.772C48.23,136.542,47.799,136.563,47.371,136.563 M47.408,108.598
		c-0.391,0-0.783,0.021-1.176,0.06c-6.622,0.673-11.291,7.125-10.63,14.689c0.343,3.918,2.087,7.444,4.785,9.677
		c2.33,1.928,5.162,2.781,8.178,2.479c6.854-0.696,11.902-7.286,11.253-14.69c-0.325-3.723-2.089-7.162-4.838-9.438
		C52.792,109.564,50.139,108.598,47.408,108.598"/>
	<path clip-path="url(#SVGID_2_)" fill="#FFFFFF" d="M46.182,108.162c-7.134,0.724-11.749,7.639-11.077,15.326
		S41.482,136.723,48.616,136c7.134-0.726,12.373-7.544,11.701-15.231C59.645,113.082,53.316,107.436,46.182,108.162 M48.489,134.543
		c-6.388,0.648-11.431-4.31-12.033-11.193c-0.602-6.883,3.465-13.085,9.853-13.733c6.388-0.648,12.055,4.405,12.657,11.289
		S54.877,133.894,48.489,134.543"/>
	<path clip-path="url(#SVGID_2_)" d="M47.398,136.561c-2.822,0-5.517-0.961-7.701-2.768c-2.915-2.411-4.723-6.056-5.091-10.262
		c-0.714-8.17,4.349-15.14,11.525-15.868c3.412-0.35,6.777,0.698,9.487,2.941c2.954,2.443,4.848,6.133,5.196,10.119
		c0.696,7.946-4.754,15.021-12.147,15.772C48.242,136.54,47.818,136.561,47.398,136.561 M46.232,108.658
		c-6.627,0.674-11.296,7.168-10.63,14.786c0.345,3.938,2.026,7.34,4.733,9.579c2.333,1.931,5.179,2.786,8.23,2.479
		c6.854-0.696,11.902-7.286,11.253-14.69c-0.325-3.723-2.089-7.162-4.838-9.438C52.478,109.305,49.37,108.343,46.232,108.658
		 M47.356,135.101c-2.526,0-4.869-0.842-6.835-2.469c-2.611-2.16-4.231-5.441-4.563-9.238c-0.644-7.354,3.881-13.623,10.301-14.274
		c3.068-0.312,6.094,0.628,8.532,2.644c2.655,2.197,4.359,5.514,4.673,9.099c0.624,7.144-4.277,13.504-10.924,14.178
		C48.141,135.082,47.747,135.101,47.356,135.101 M47.408,110.061c-0.349,0-0.698,0.018-1.048,0.053
		c-5.87,0.596-10.002,6.391-9.406,13.192c0.308,3.529,1.802,6.566,4.205,8.556c2.059,1.704,4.58,2.454,7.279,2.185
		c6.108-0.62,10.607-6.495,10.03-13.097c-0.291-3.32-1.864-6.388-4.315-8.416C52.203,110.92,49.841,110.061,47.408,110.061"/>
	<path clip-path="url(#SVGID_2_)" d="M96.281,97.519c-6.838-0.349-12.854,6.053-13.437,14.299s4.488,15.214,11.326,15.563
		s12.854-6.053,13.438-14.299C108.189,104.836,103.119,97.869,96.281,97.519 M94.314,125.342
		c-5.904-0.302-10.283-6.317-9.779-13.438c0.503-7.121,5.697-12.648,11.603-12.348c5.903,0.303,10.281,6.319,9.778,13.439
		S100.219,125.644,94.314,125.342"/>
	<path clip-path="url(#SVGID_2_)" d="M94.699,127.895c-0.185,0-0.369-0.005-0.555-0.015c-3.013-0.153-5.854-1.573-7.999-3.997
		c-2.74-3.095-4.124-7.506-3.8-12.101c0.602-8.502,6.893-15.132,13.961-14.763c3.013,0.153,5.854,1.573,7.999,3.997
		c2.739,3.095,4.124,7.506,3.8,12.101C107.521,121.397,101.565,127.895,94.699,127.895 M95.75,98.005
		c-6.347,0-11.858,6.09-12.406,13.848c-0.307,4.329,0.988,8.472,3.551,11.367c1.966,2.221,4.559,3.521,7.301,3.662
		c6.541,0.304,12.351-5.872,12.912-13.835c0.307-4.329-0.988-8.472-3.551-11.367c-1.966-2.221-4.559-3.521-7.301-3.662
		C96.087,98.01,95.918,98.005,95.75,98.005 M94.772,125.854c-0.159,0-0.321-0.004-0.483-0.013c-2.62-0.134-5.09-1.368-6.955-3.475
		c-2.378-2.687-3.58-6.513-3.298-10.498c0.521-7.377,5.937-13.142,12.126-12.81c2.62,0.134,5.09,1.368,6.955,3.475
		c2.378,2.687,3.581,6.513,3.298,10.498C105.907,120.216,100.736,125.854,94.772,125.854 M95.677,100.046
		c-5.444,0-10.172,5.23-10.643,11.893c-0.264,3.72,0.848,7.278,3.048,9.765c1.686,1.905,3.908,3.02,6.258,3.14
		c5.608,0.268,10.594-5.043,11.077-11.882c0.264-3.72-0.848-7.278-3.048-9.765c-1.686-1.904-3.908-3.02-6.258-3.14
		C95.966,100.05,95.822,100.046,95.677,100.046"/>
	<path clip-path="url(#SVGID_2_)" fill="#FFFFFF" d="M96.137,99.558c-5.904-0.302-11.099,5.227-11.602,12.346
		c-0.504,7.12,3.875,13.138,9.779,13.438c5.903,0.302,11.099-5.227,11.602-12.346C106.419,105.876,102.041,99.859,96.137,99.558
		 M94.401,124.113c-5.341-0.272-9.302-5.716-8.847-12.156c0.454-6.441,5.153-11.442,10.495-11.169
		c5.342,0.272,9.303,5.716,8.848,12.156C104.441,119.385,99.742,124.386,94.401,124.113"/>
	<path clip-path="url(#SVGID_2_)" d="M94.772,125.854c-0.161,0-0.321-0.004-0.483-0.014c-2.62-0.133-5.09-1.367-6.955-3.474
		c-2.378-2.687-3.58-6.513-3.298-10.498c0.521-7.377,5.937-13.142,12.126-12.81c2.62,0.134,5.09,1.368,6.955,3.475
		c2.378,2.687,3.58,6.513,3.298,10.498C105.907,120.215,100.736,125.854,94.772,125.854 M95.677,100.046
		c-5.444,0-10.172,5.23-10.643,11.893c-0.264,3.72,0.848,7.278,3.048,9.765c1.686,1.904,3.908,3.02,6.258,3.14
		c5.607,0.268,10.594-5.043,11.077-11.882c0.264-3.72-0.848-7.278-3.048-9.765c-1.686-1.904-3.908-3.02-6.258-3.14
		C95.966,100.05,95.82,100.046,95.677,100.046 M94.816,124.624c-0.146,0-0.293-0.004-0.44-0.012
		c-2.383-0.121-4.63-1.243-6.325-3.159c-2.159-2.439-3.251-5.913-2.995-9.531c0.473-6.702,5.424-11.941,11.02-11.633
		c2.383,0.121,4.629,1.243,6.325,3.158c2.159,2.439,3.252,5.914,2.996,9.533C104.935,119.504,100.235,124.624,94.816,124.624
		 M95.633,101.277c-4.899,0-9.155,4.712-9.579,10.715c-0.237,3.352,0.764,6.559,2.745,8.798c1.517,1.714,3.516,2.716,5.628,2.824
		c5.091,0.278,9.536-4.543,9.972-10.704c0.237-3.353-0.765-6.561-2.747-8.8c-1.517-1.713-3.515-2.715-5.627-2.823
		C95.894,101.28,95.763,101.277,95.633,101.277"/>
	<path clip-path="url(#SVGID_2_)" d="M34.249,113.637l15.292,8.766l0.844-0.323l4.312-14.556c0,0,0.04-2.003-0.475-2.403
		c-1.084-0.844-1.961-1.42-3.093-1.712c-2.1-0.104-4.914-0.319-8.708,1.277c-4.917,2.068-7.785,5.576-8.621,7.717
		C33.614,112.878,33.812,113.426,34.249,113.637"/>
	<path clip-path="url(#SVGID_2_)" d="M74.907,67.634l1.809,0.057c0.211,0.006,0.415,0.084,0.583,0.221l0.975,0.435
		c0.334,0.272,1.552,1.101,1.957,1.215l1.5-0.264l0.439,1.958l-2.104,0.301c-0.386-0.119-0.951-0.383-1.277-0.637l-0.995-0.517
		c-0.288-0.223-1.246-0.982-1.599-0.963l-1.784-0.169L74.907,67.634z"/>
	<path clip-path="url(#SVGID_2_)" fill="#C2DA69" d="M92.515,96.185c0,0-3.042,0.414-6.608,4.31
		c-3.302,3.605-4.428,8.871-4.129,12.294c1.764,0.124,2.136-1.368,2.136-1.368s0.215-5.647,3.56-8.922
		c3.346-3.274,5.189-3.458,5.189-3.458s0.439-0.705,0.384-1.612S92.515,96.185,92.515,96.185"/>
	<path clip-path="url(#SVGID_2_)" d="M81.981,113.296c-0.078,0-0.158-0.003-0.239-0.009c-0.245-0.018-0.441-0.211-0.463-0.455
		c-0.319-3.646,0.873-8.979,4.258-12.676c3.648-3.982,6.778-4.449,6.91-4.467c0.126-0.018,0.253,0.014,0.355,0.087
		c0.069,0.049,0.674,0.506,0.742,1.621c0.065,1.054-0.438,1.873-0.46,1.907c-0.082,0.131-0.22,0.217-0.374,0.231
		c-0.011,0.002-1.761,0.258-4.889,3.319c-3.166,3.1-3.407,8.529-3.409,8.583c-0.002,0.035-0.007,0.069-0.015,0.103
		C84.242,112.167,83.539,113.296,81.981,113.296 M92.338,96.734c-0.771,0.195-3.251,1.028-6.062,4.099
		c-3.019,3.295-4.184,8.129-4.032,11.446c0.853-0.115,1.117-0.768,1.172-0.939c0.035-0.668,0.411-5.972,3.707-9.198
		c2.728-2.669,4.534-3.363,5.202-3.541c0.102-0.227,0.252-0.652,0.222-1.141C92.524,97.099,92.423,96.868,92.338,96.734"/>
	<path clip-path="url(#SVGID_2_)" fill="#9FA0A0" d="M82.447,81.636l-0.596-0.101l-3.333-8.09c-0.101-0.292-0.386-0.826-0.245-1.104
		l1.527-1.725l-1.285-0.904c0,0-1.813,1.697-2.085,2.145c-0.365,0.601-0.173,0.782,0.028,1.608c0.097,0.4,3.143,6.643,3.9,9.084
		l-0.669,0.302l0.76,1.501l2.586-1.094L82.447,81.636z"/>
	<path clip-path="url(#SVGID_2_)" d="M80.449,84.854c-0.182,0-0.358-0.102-0.446-0.274l-0.76-1.501
		c-0.061-0.121-0.07-0.264-0.025-0.392c0.046-0.129,0.141-0.233,0.265-0.29l0.259-0.116c-0.599-1.712-1.954-4.659-2.875-6.664
		c-0.68-1.479-0.856-1.872-0.895-2.033c-0.039-0.16-0.079-0.297-0.113-0.415c-0.145-0.506-0.259-0.906,0.144-1.571
		c0.293-0.48,1.859-1.957,2.17-2.248c0.174-0.162,0.437-0.179,0.629-0.044l1.285,0.903c0.117,0.082,0.192,0.21,0.21,0.351
		c0.016,0.141-0.029,0.283-0.123,0.389l-1.45,1.642c0.023,0.081,0.124,0.329,0.174,0.453c0.037,0.089,0.07,0.17,0.093,0.238
		l3.216,7.808l0.323,0.055c0.178,0.03,0.326,0.153,0.387,0.323l0.588,1.624c0.091,0.25-0.03,0.525-0.276,0.631l-2.586,1.094
		C80.58,84.841,80.515,84.854,80.449,84.854 M80.372,83.094l0.312,0.617l1.719-0.727l-0.327-0.904l-0.308-0.052
		c-0.17-0.028-0.314-0.144-0.379-0.303l-3.332-8.091c-0.03-0.082-0.056-0.146-0.084-0.215c-0.152-0.373-0.36-0.883-0.145-1.304
		c0.019-0.038,0.043-0.073,0.071-0.104l1.156-1.307l-0.495-0.347c-0.781,0.744-1.571,1.543-1.703,1.758
		c-0.175,0.29-0.165,0.327-0.037,0.775c0.038,0.13,0.08,0.279,0.123,0.456c0.043,0.133,0.427,0.968,0.833,1.851
		c1.012,2.204,2.542,5.533,3.06,7.204c0.075,0.241-0.042,0.5-0.272,0.604L80.372,83.094z"/>
	<polygon clip-path="url(#SVGID_2_)" fill="#9FA0A0" points="59.837,95.659 59.279,94.025 58.891,94.203 54.546,83.441 
		52.85,83.898 57.271,94.95 56.791,95.171 57.513,96.596 	"/>
	<path clip-path="url(#SVGID_2_)" d="M57.514,97.094c-0.184,0-0.358-0.101-0.446-0.272l-0.723-1.425
		c-0.061-0.122-0.07-0.263-0.025-0.392c0.044-0.128,0.139-0.232,0.262-0.289l0.049-0.022l-4.245-10.61
		c-0.054-0.133-0.047-0.281,0.017-0.409c0.063-0.128,0.179-0.222,0.317-0.259l1.696-0.457c0.243-0.065,0.499,0.062,0.594,0.295
		l4.152,10.285c0.107-0.024,0.214-0.016,0.315,0.026c0.13,0.057,0.23,0.164,0.276,0.299l0.558,1.634
		c0.085,0.251-0.04,0.525-0.287,0.625l-2.323,0.937C57.64,97.083,57.576,97.094,57.514,97.094 M57.472,95.408l0.28,0.553
		l1.459-0.589l-0.231-0.676c-0.088,0.016-0.185,0.008-0.273-0.027c-0.127-0.051-0.227-0.15-0.279-0.277l-4.18-10.353l-0.725,0.196
		l4.213,10.529c0.099,0.247-0.013,0.528-0.255,0.64L57.472,95.408z"/>
	<path clip-path="url(#SVGID_2_)" d="M71.419,67.396l3.351,0.316c0,0,0.453-0.067,0.424,0.864c-0.028,0.932-0.783,0.696-0.783,0.696
		l-3.366-0.032c0,0-0.62-0.364-0.497-1.056C70.645,67.64,71.101,67.384,71.419,67.396"/>
	<path clip-path="url(#SVGID_2_)" d="M74.611,69.798c-0.106,0-0.197-0.014-0.26-0.028l-3.311-0.031
		c-0.087-0.001-0.173-0.024-0.248-0.068c-0.342-0.201-0.882-0.758-0.736-1.575c0.137-0.774,0.817-1.218,1.38-1.2
		c0.01,0.001,0.02,0.001,0.03,0.002l3.316,0.313c0.199-0.033,0.366,0.051,0.54,0.207c0.264,0.234,0.389,0.629,0.372,1.174
		c-0.017,0.58-0.262,0.874-0.465,1.017C75.021,69.758,74.793,69.798,74.611,69.798 M71.214,68.741l3.202,0.03
		c0.049,0.001,0.098,0.008,0.145,0.023c0.021,0.006,0.073,0.007,0.091-0.001c-0.002,0,0.038-0.055,0.042-0.233
		c0.006-0.189-0.012-0.298-0.029-0.356l-3.271-0.308c-0.083,0.004-0.304,0.096-0.354,0.376C71,68.495,71.122,68.655,71.214,68.741"
		/>
	<path clip-path="url(#SVGID_2_)" fill="#C2DA69" d="M93.611,106.217c-0.522-0.953-2.681-5.537-3.303-6.555
		c-0.43-0.706-0.918-1.539-1.18-1.989l0.316-0.231l-6.646-14.081l-2.096,0.886l2.81,6.213c0.082,0.254-0.031,0.532-0.259,0.639
		l-19.938,11.396c-0.204,0.097-0.441-0.011-0.521-0.235l-3.189-6.73l-2.266,1.177l0.106,0.24c0.175,0.398,0.175,0.861,0,1.261
		l-3.418,8.425l1.366,0.755l3.268-7.7c0.127-0.237,0.453-0.211,0.545,0.046l7.074,17.054c0.131,0.366,0.742,2.587,3.031,1.564
		c0.187-0.084,0.329-0.247,0.398-0.451l2.741-14.561l12.735-7.929c0.194-0.094,0.421,0.002,0.505,0.212l1.655,3.352l0.373-0.271
		c0.365,0.514,0.934,1.349,1.337,2.101c0.638,1.188,3.2,6.087,3.2,6.087C92.906,108.134,94.135,107.17,93.611,106.217
		 M68.536,114.353c-0.079,0.235-0.499,0.28-0.582,0.047l-2.796-7.015c-0.084-0.238,0.019-0.507,0.235-0.61l4.786-2.504
		c0.112-0.056,0.231,0.063,0.189,0.188L68.536,114.353z"/>
	<path clip-path="url(#SVGID_2_)" d="M68.208,119.117c-0.308,0-0.598-0.06-0.868-0.179c-1.008-0.439-1.385-1.558-1.509-1.925
		l-6.909-16.665l-3.069,7.233c-0.054,0.13-0.163,0.23-0.296,0.276c-0.134,0.047-0.282,0.032-0.406-0.035l-1.366-0.755
		c-0.221-0.122-0.316-0.391-0.221-0.625l3.418-8.425c0.125-0.287,0.125-0.6,0.005-0.873l-0.105-0.24
		c-0.106-0.24-0.006-0.523,0.227-0.645l2.266-1.176c0.121-0.064,0.262-0.075,0.39-0.03c0.129,0.043,0.234,0.137,0.293,0.26
		l3.157,6.663l19.791-11.313l-2.759-6.212c-0.056-0.122-0.06-0.263-0.011-0.389c0.049-0.125,0.147-0.226,0.272-0.278l2.096-0.887
		c0.246-0.102,0.532,0.005,0.647,0.247l6.647,14.082c0.094,0.199,0.046,0.434-0.112,0.58c0.268,0.457,0.626,1.062,0.95,1.594
		c0.381,0.625,1.288,2.479,2.089,4.117c0.536,1.095,1.015,2.073,1.226,2.457v0.001c0.254,0.464,0.25,0.993-0.011,1.417
		c-0.231,0.376-0.639,0.621-1.052,0.585c-0.276-0.01-0.797-0.135-1.177-0.859c0,0-2.56-4.896-3.196-6.081
		c-0.293-0.547-0.68-1.143-1.017-1.636c-0.111,0.066-0.246,0.086-0.372,0.055c-0.144-0.035-0.264-0.132-0.329-0.264l-1.61-3.262
		l-12.385,7.714l-2.701,14.345c-0.129,0.402-0.373,0.676-0.686,0.815C69.052,119.013,68.615,119.117,68.208,119.117 M58.923,99.022
		c0.019,0,0.039,0,0.059,0.002c0.319,0.023,0.585,0.229,0.696,0.537l7.065,17.032c0.004,0.011,0.031,0.089,0.035,0.1
		c0.099,0.292,0.36,1.065,0.962,1.329c0.361,0.159,0.821,0.113,1.367-0.129c0.058-0.026,0.105-0.082,0.128-0.153l2.725-14.495
		c0.025-0.138,0.108-0.258,0.226-0.331l12.736-7.93c0.261-0.129,0.51-0.14,0.731-0.053c0.228,0.089,0.411,0.274,0.502,0.507
		l1.384,2.796c0.082-0.031,0.171-0.042,0.261-0.026c0.132,0.021,0.249,0.095,0.327,0.204c0.4,0.564,0.963,1.397,1.369,2.153
		c0.639,1.188,3.203,6.092,3.203,6.092c0.122,0.234,0.248,0.32,0.325,0.323c0.026,0.002,0.119-0.041,0.164-0.11
		c0.034-0.055,0.1-0.203-0.015-0.411c-0.214-0.391-0.702-1.387-1.247-2.5c-0.752-1.538-1.688-3.451-2.044-4.035
		c-0.433-0.71-0.923-1.547-1.187-1.999c-0.125-0.215-0.072-0.489,0.121-0.643l-6.266-13.274l-1.183,0.5l2.599,5.746
		c0.181,0.547-0.044,1.082-0.5,1.298l-19.904,11.377c-0.255,0.122-0.512,0.129-0.738,0.034c-0.233-0.098-0.417-0.294-0.503-0.538
		l-2.947-6.214l-1.399,0.726c0.156,0.479,0.13,1.006-0.074,1.471l-3.246,8.001l0.493,0.271l3.052-7.189
		C58.363,99.184,58.63,99.022,58.923,99.022 M68.209,115.054c-0.337,0-0.622-0.191-0.727-0.488l-2.79-6.995
		c-0.173-0.494,0.041-1.032,0.483-1.247l4.772-2.497c0.242-0.117,0.515-0.079,0.708,0.09c0.199,0.176,0.272,0.453,0.185,0.706
		l-1.813,9.821c-0.004,0.024-0.009,0.047-0.017,0.07c-0.11,0.321-0.43,0.538-0.796,0.54H68.209z M69.748,105.06l-4.124,2.157
		l2.545,6.372L69.748,105.06z"/>
	<path clip-path="url(#SVGID_2_)" d="M52.109,103.724c0,0,0.031-0.572,1.075-0.961c1.044-0.388,2.667,1.157,2.606,5.284
		c-0.053,3.559-1.316,5.188-2.145,5.43c-0.83,0.243-1.236-0.682-1.236-0.682l-0.029,0.916c0,0,0.247,0.885,1.4,0.731
		c1.201-0.16,2.836-2.147,2.834-6.665c-0.003-5.13-1.86-6.27-3.189-6.132c-1.72,0.177-2.326,2.141-2.326,2.141L52.109,103.724z"/>
	<path clip-path="url(#SVGID_2_)" d="M53.521,114.96c-1.029,0-1.508-0.704-1.622-1.114c-0.014-0.049-0.02-0.099-0.019-0.149
		l0.029-0.916c0.008-0.233,0.176-0.43,0.406-0.476c0.227-0.041,0.459,0.076,0.552,0.29c0.024,0.05,0.251,0.513,0.637,0.402
		c0.562-0.164,1.735-1.592,1.785-4.958c0.04-2.713-0.672-4.192-1.352-4.672c-0.148-0.104-0.37-0.21-0.578-0.135
		c-0.678,0.251-0.754,0.553-0.755,0.556c-0.014,0.253-0.211,0.419-0.464,0.435l-1.01,0.063c-0.174,0.021-0.322-0.062-0.424-0.189
		c-0.101-0.129-0.134-0.3-0.085-0.457c0.029-0.093,0.726-2.282,2.752-2.491c0.734-0.072,1.444,0.17,2.019,0.689
		c1.14,1.028,1.72,3.027,1.722,5.94c0.002,4.62-1.692,6.95-3.267,7.161C53.733,114.954,53.623,114.96,53.521,114.96 M53.51,102.206
		c0.336,0,0.681,0.116,1.004,0.345c0.247,0.176,0.641,0.535,0.994,1.221c-0.241-0.584-0.524-0.955-0.785-1.191
		c-0.465-0.419-0.931-0.473-1.247-0.437c-0.328,0.033-0.609,0.154-0.845,0.318c0.113-0.059,0.239-0.114,0.379-0.166
		C53.172,102.235,53.34,102.206,53.51,102.206"/>
	<path clip-path="url(#SVGID_2_)" fill="#C2DA69" d="M51.357,119.641c0.041-0.13,0.125-0.236,0.239-0.298
		c1.538-0.827,12.989-6.291,15.386-7.619c2.576-1.427,5.692-1.307,6.901,1.383c1.109,2.467,0.544,6.263-1.904,7.683
		c-2.606,1.512-5.676-0.196-5.946-1.946c-0.15-0.976-0.189-1.189-0.265-1.778c-0.047-0.361-0.466-0.535-0.773-0.382
		c-2.11,1.051-10.875,4.291-13.629,5.67c-0.385,0.193-0.794-0.207-0.658-0.64L51.357,119.641z"/>
	<path clip-path="url(#SVGID_2_)" d="M51.162,122.904c-0.221,0-0.438-0.079-0.617-0.231c-0.317-0.27-0.44-0.704-0.314-1.109
		l0.649-2.069c0.079-0.257,0.25-0.467,0.479-0.591c0.644-0.347,2.964-1.476,5.649-2.783c3.714-1.809,8.335-4.059,9.733-4.833
		c1.723-0.956,3.567-1.221,5.064-0.723c1.141,0.379,2.018,1.188,2.534,2.338c1.198,2.662,0.625,6.734-2.109,8.32
		c-1.387,0.804-3.094,0.86-4.567,0.157c-1.161-0.556-1.975-1.498-2.123-2.46l-0.107-0.688c-0.07-0.449-0.106-0.681-0.161-1.103
		c-1.05,0.498-3.481,1.465-6.055,2.487c-2.891,1.15-6.169,2.453-7.627,3.185C51.453,122.87,51.305,122.904,51.162,122.904
		 M70.233,111.322c-0.956,0-2.014,0.288-3.009,0.84c-1.42,0.787-5.861,2.949-9.779,4.856c-2.676,1.304-4.987,2.429-5.612,2.766
		c-0.001,0.001,0.002,0.006,0.002,0.007l-0.65,2.071c1.453-0.705,4.61-1.96,7.662-3.174c2.554-1.016,4.966-1.975,5.925-2.452
		c0.303-0.152,0.664-0.143,0.969,0.018c0.29,0.154,0.48,0.427,0.522,0.747c0.053,0.412,0.089,0.639,0.157,1.077l0.107,0.689
		c0.097,0.63,0.712,1.302,1.566,1.71c0.566,0.271,2.052,0.799,3.634-0.12c2.21-1.281,2.72-4.776,1.699-7.045
		c-0.405-0.901-1.056-1.507-1.937-1.8C71.104,111.384,70.679,111.322,70.233,111.322"/>
	<path clip-path="url(#SVGID_2_)" d="M83.958,69.897c0.286,0.86-0.127,1.78-0.922,2.057s-1.671-0.196-1.957-1.056
		c-0.285-0.859,0.128-1.78,0.923-2.057C82.796,68.565,83.671,69.037,83.958,69.897"/>
	<path clip-path="url(#SVGID_2_)" d="M82.569,72.534c-0.297,0-0.594-0.07-0.873-0.207c-0.508-0.25-0.907-0.714-1.092-1.271
		c-0.37-1.117,0.182-2.322,1.233-2.688c0.491-0.17,1.026-0.134,1.503,0.1c0.509,0.251,0.906,0.714,1.092,1.271
		c0.371,1.116-0.182,2.321-1.233,2.687C82.994,72.498,82.781,72.534,82.569,72.534 M82.467,69.263c-0.103,0-0.204,0.017-0.302,0.051
		c-0.537,0.186-0.811,0.826-0.612,1.427c0.102,0.304,0.314,0.555,0.586,0.689c0.234,0.114,0.495,0.133,0.732,0.051
		c0.537-0.187,0.812-0.826,0.612-1.426v-0.001c-0.101-0.305-0.315-0.556-0.584-0.688C82.76,69.297,82.613,69.263,82.467,69.263"/>
	<path clip-path="url(#SVGID_2_)" d="M82.057,69.903c-0.536,0.652,0.267,1.563,0.267,1.563l2.195,2.227c0,0,0.7,0.39,1.287-0.313
		c0.705-0.844,0.14-1.555,0.14-1.555l-2.405-1.881C83.54,69.943,82.647,69.186,82.057,69.903"/>
	<path clip-path="url(#SVGID_2_)" d="M84.978,74.301c-0.291,0-0.543-0.082-0.701-0.17c-0.042-0.023-0.08-0.053-0.114-0.087
		l-2.195-2.228c-0.422-0.477-0.934-1.456-0.298-2.23c0.237-0.288,0.545-0.456,0.892-0.487c0.687-0.068,1.238,0.409,1.302,0.463
		l2.391,1.866c0.031,0.024,0.06,0.053,0.084,0.084c0.283,0.356,0.615,1.272-0.148,2.187C85.807,74.159,85.359,74.301,84.978,74.301
		 M84.811,73.278c0.122,0.043,0.367,0.072,0.611-0.219c0.356-0.428,0.227-0.765,0.154-0.891l-2.345-1.83
		c-0.114-0.095-0.38-0.267-0.583-0.243c-0.052,0.005-0.122,0.024-0.205,0.125c-0.25,0.305,0.25,0.909,0.256,0.915L84.811,73.278z"/>
	<path clip-path="url(#SVGID_2_)" d="M46.115,80.782c0.272-0.693,0.976-1.138,1.961-1.327c0.985-0.19,8.694-1.04,9.707-1.058
		c1.347-0.022,1.991-0.022,2.426,0.729c0.434,0.752,0.851,1.245,0.153,1.802c-0.697,0.559-2.441,2.169-3.138,2.728
		c-0.698,0.557-1.585,2.462-3.047,2.519c-0.859,0.033-2.063-0.573-3.495-0.983c-1.691-0.482-3.819-0.683-4.247-0.97
		c-0.427-0.287-0.706-0.669-0.578-1.561C45.985,81.768,46.115,80.782,46.115,80.782"/>
	<path clip-path="url(#SVGID_2_)" fill="#C2E6FA" d="M37.063,113.735c-0.195-0.084-0.291-0.321-0.21-0.53
		c0.451-1.165,3.228-4.887,7.986-6.225c4.138-1.163,6.259-0.992,8.011-0.698c0.334,0.057,0.843,0.452,0.737,0.798l-3.873,14.318
		L37.063,113.735z"/>
	<path clip-path="url(#SVGID_2_)" d="M79.538,124.895l-3.02-2.074c-0.338-0.187-0.741-0.05-0.895,0.301l-0.181,0.243l-3.312-6.066
		c0.187-0.375,0.301-0.808,0.301-1.275c0-1.385-0.938-2.507-2.094-2.507c-1.156,0-2.093,1.122-2.093,2.507
		c0,1.384,0.937,2.506,2.093,2.506c0.166,0,0.326-0.028,0.48-0.072l3.647,6.257l-0.508,0.805c-0.116,0.226-0.062,0.515,0.13,0.691
		l3.313,2.932c0,0,0.341,0.403,0.815-0.162c0.367-0.439,1.853-2.986,1.853-2.986L79.538,124.895z"/>
	<path clip-path="url(#SVGID_2_)" fill="#9FA0A0" d="M91.225,129.714c0.178-1.105,0.163-1.812,0.81-5.217
		c1.1-5.79,5.999-8.887,11.019-10.036c3.02-0.692,7.144-1.665,7.144-1.665l-0.01,1.818c0,0-4.022,0.672-6.22,1.265
		c-6.077,1.636-9.74,5.463-10.394,9.489c-0.438,2.693-0.695,4.641-0.695,4.641C92.391,130.641,91.037,130.398,91.225,129.714"/>
	<path clip-path="url(#SVGID_2_)" d="M92.034,130.876c-0.268,0-0.528-0.058-0.743-0.165c-0.448-0.224-0.664-0.652-0.557-1.099
		c0.051-0.318,0.085-0.604,0.126-0.935c0.096-0.793,0.228-1.879,0.683-4.273c0.986-5.194,5.141-8.996,11.398-10.432
		c3.018-0.691,7.14-1.663,7.14-1.663c0.153-0.038,0.308,0.001,0.428,0.095c0.12,0.096,0.189,0.241,0.188,0.395l-0.011,1.818
		c-0.001,0.243-0.178,0.45-0.418,0.49c-0.04,0.007-4.023,0.675-6.172,1.253c-5.519,1.486-9.361,4.969-10.03,9.088
		c-0.431,2.654-0.69,4.606-0.693,4.626c-0.011,0.088-0.045,0.17-0.1,0.24C92.973,130.706,92.493,130.876,92.034,130.876
		 M91.728,129.84c0.049,0,0.186,0.05,0.326,0.034c0.139-0.004,0.264-0.04,0.352-0.1c0.072-0.531,0.313-2.266,0.675-4.486
		c0.731-4.513,4.854-8.303,10.757-9.893c1.804-0.486,4.762-1.015,5.853-1.203l0.004-0.765c-1.264,0.298-4.22,0.991-6.529,1.52
		c-2.769,0.635-9.348,2.846-10.639,9.644c-0.448,2.362-0.578,3.429-0.673,4.207c-0.043,0.353-0.08,0.655-0.134,0.995
		c-0.003,0.019-0.007,0.036-0.013,0.053l-0.481-0.132l0.481,0.134C91.709,129.842,91.716,129.84,91.728,129.84"/>
	<path clip-path="url(#SVGID_2_)" fill="#41ABD5" d="M23.283,10.979c0-5.649-4.579-10.228-10.228-10.228S2.826,5.33,2.826,10.979
		c0,0.715,0.09,4.624,3.044,8.559C8.824,23.474,9.757,25.193,11,29.542c0.88,3.079,1.544,5.771,1.856,7.08
		c0.05,0.21,0.345,0.21,0.395,0c0.312-1.309,0.976-4.001,1.856-7.08c1.244-4.349,2.177-6.068,5.131-10.004
		C23.192,15.603,23.283,11.694,23.283,10.979"/>
	<path clip-path="url(#SVGID_2_)" d="M13.054,37.529c-0.442,0-0.824-0.301-0.927-0.733c-0.316-1.323-0.976-4-1.847-7.049
		c-1.186-4.143-2.028-5.785-5.009-9.759c-2.964-3.949-3.195-7.894-3.195-9.009C2.076,4.925,7,0,13.054,0
		c6.054,0,10.979,4.925,10.979,10.979c0,1.115-0.231,5.06-3.195,9.009c-2.981,3.974-3.823,5.616-5.009,9.759
		c-0.871,3.049-1.531,5.726-1.847,7.049C13.879,37.229,13.497,37.529,13.054,37.529 M13.054,1.5c-5.226,0-9.478,4.252-9.478,9.479
		c0,0.998,0.209,4.531,2.894,8.109c2.906,3.873,3.948,5.687,5.251,10.247c0.533,1.862,0.987,3.586,1.334,4.953
		c0.346-1.367,0.8-3.091,1.333-4.953c1.303-4.56,2.345-6.374,5.251-10.247c2.685-3.578,2.894-7.111,2.894-8.109
		C22.533,5.752,18.281,1.5,13.054,1.5"/>
	<path clip-path="url(#SVGID_2_)" fill="#1E6B86" d="M16.572,11.147c0,1.943-1.575,3.518-3.518,3.518
		c-1.944,0-3.519-1.575-3.519-3.518s1.575-3.518,3.519-3.518C14.998,7.629,16.572,9.204,16.572,11.147"/>
	<path clip-path="url(#SVGID_2_)" d="M13.054,15.416c-2.354,0-4.268-1.915-4.268-4.268c0-2.354,1.914-4.269,4.268-4.269
		s4.269,1.915,4.269,4.269C17.323,13.5,15.408,15.416,13.054,15.416 M13.054,8.378c-1.526,0-2.768,1.242-2.768,2.769
		c0,1.526,1.242,2.768,2.768,2.768s2.769-1.242,2.769-2.768C15.823,9.621,14.58,8.378,13.054,8.378"/>
</g>
</svg>
