<?xml version="1.0" encoding="utf-8"?>
<!-- Generator: Adobe Illustrator 15.0.0, SVG Export Plug-In . SVG Version: 6.00 Build 0)  -->
<!DOCTYPE svg PUBLIC "-//W3C//DTD SVG 1.1//EN" "http://www.w3.org/Graphics/SVG/1.1/DTD/svg11.dtd">
<svg version="1.1" id="レイヤー_1" xmlns="http://www.w3.org/2000/svg" xmlns:xlink="http://www.w3.org/1999/xlink" x="0px"
	 y="0px" width="158.632px" height="138.998px" viewBox="0 0 158.632 138.998" enable-background="new 0 0 158.632 138.998"
	 xml:space="preserve">
<g>
	<defs>
		<rect id="SVGID_1_" width="158.632" height="138.998"/>
	</defs>
	<clipPath id="SVGID_2_">
		<use xlink:href="#SVGID_1_"  overflow="visible"/>
	</clipPath>
	<path clip-path="url(#SVGID_2_)" d="M52.385,17.099v0.183c0,0.571-0.416,0.987-0.988,0.987c-0.624,0-0.936-0.364-0.936-1.118
		v-0.182V2.227V2.096c0-0.754,0.364-1.222,0.988-1.222c0.676,0,0.988,0.39,0.988,1.222v0.078L52.385,17.099z"/>
	
		<path clip-path="url(#SVGID_2_)" fill="none" stroke="#000000" stroke-width="0.5" stroke-linecap="round" stroke-linejoin="round" stroke-miterlimit="10" d="
		M52.385,17.099v0.183c0,0.571-0.416,0.987-0.988,0.987c-0.624,0-0.936-0.364-0.936-1.118v-0.182V2.227V2.096
		c0-0.754,0.364-1.222,0.988-1.222c0.676,0,0.988,0.39,0.988,1.222v0.078L52.385,17.099z"/>
	<path clip-path="url(#SVGID_2_)" d="M58.937,3.475c0.234-0.416,0.39-0.963,0.39-1.379c0-0.207,0-0.233-0.078-0.623
		c-0.026-0.131-0.052-0.234-0.052-0.339c0-0.493,0.468-0.884,1.04-0.884c0.65,0,1.04,0.624,1.04,1.691
		c0,1.767-0.832,3.328-1.768,3.328c-0.547,0-0.936-0.391-0.936-0.91c0-0.183,0.078-0.39,0.208-0.624L58.937,3.475z"/>
	
		<path clip-path="url(#SVGID_2_)" fill="none" stroke="#000000" stroke-width="0.5" stroke-linecap="round" stroke-linejoin="round" stroke-miterlimit="10" d="
		M58.937,3.475c0.234-0.416,0.39-0.963,0.39-1.379c0-0.207,0-0.233-0.078-0.623c-0.026-0.131-0.052-0.234-0.052-0.339
		c0-0.493,0.468-0.884,1.04-0.884c0.65,0,1.04,0.624,1.04,1.691c0,1.767-0.832,3.328-1.768,3.328c-0.547,0-0.936-0.391-0.936-0.91
		c0-0.183,0.078-0.39,0.208-0.624L58.937,3.475z"/>
	<path clip-path="url(#SVGID_2_)" d="M80.647,16.995v0.13c0,0.727-0.441,1.17-1.065,1.17c-0.599,0-0.963-0.416-0.963-1.145v-0.078
		v-6.395v-0.13c0-1.664-0.91-2.627-2.496-2.627c-1.638,0-2.548,1.066-2.548,2.99v0.131v5.928v0.208c0,0.675-0.416,1.118-1.014,1.118
		c-0.599,0-0.988-0.416-0.988-1.118v-0.105v-6.084v-0.103c0-1.977-0.806-2.965-2.418-2.965c-1.664,0-2.496,1.014-2.496,3.043v0.13
		v5.694v0.104c0,0.961-0.312,1.404-0.989,1.404c-0.702,0-0.987-0.364-0.987-1.326v-0.13V7.374V7.27c0-0.78,0.363-1.221,1.014-1.221
		c0.338,0,0.572,0.13,0.78,0.441l0.077,0.078c0.027,0.104,0.078,0.104,0.131,0.104c0.052,0.026,0.13-0.026,0.312-0.13
		c0.702-0.39,1.352-0.571,2.158-0.571c1.118,0,2.236,0.416,3.12,1.195c0.182,0.156,0.26,0.183,0.338,0.183
		c0.078,0,0.13-0.027,0.234-0.13c0.962-0.832,2.106-1.275,3.302-1.275c2.548,0,4.499,1.821,4.499,4.212v0.13V16.995z"/>
	
		<path clip-path="url(#SVGID_2_)" fill="none" stroke="#000000" stroke-width="0.5" stroke-linecap="round" stroke-linejoin="round" stroke-miterlimit="10" d="
		M80.647,16.995v0.13c0,0.727-0.441,1.17-1.065,1.17c-0.599,0-0.963-0.416-0.963-1.145v-0.078v-6.395v-0.13
		c0-1.664-0.91-2.627-2.496-2.627c-1.638,0-2.548,1.066-2.548,2.99v0.131v5.928v0.208c0,0.675-0.416,1.118-1.014,1.118
		c-0.599,0-0.988-0.416-0.988-1.118v-0.105v-6.084v-0.103c0-1.977-0.806-2.965-2.418-2.965c-1.664,0-2.496,1.014-2.496,3.043v0.13
		v5.694v0.104c0,0.961-0.312,1.404-0.989,1.404c-0.702,0-0.987-0.364-0.987-1.326v-0.13V7.374V7.27c0-0.78,0.363-1.221,1.014-1.221
		c0.338,0,0.572,0.13,0.78,0.441l0.077,0.078c0.027,0.104,0.078,0.104,0.131,0.104c0.052,0.026,0.13-0.026,0.312-0.13
		c0.702-0.39,1.352-0.571,2.158-0.571c1.118,0,2.236,0.416,3.12,1.195c0.182,0.156,0.26,0.183,0.338,0.183
		c0.078,0,0.13-0.027,0.234-0.13c0.962-0.832,2.106-1.275,3.302-1.275c2.548,0,4.499,1.821,4.499,4.212v0.13V16.995z"/>
	<path clip-path="url(#SVGID_2_)" d="M120.574,58.491c-0.168,0-0.337-0.042-0.491-0.13l-10.438-5.906
		c-1.682,0.709-7.46,3.009-11.668,3.009H61.17c-11.948,0-24.714-6.647-24.714-25.302v-3.461c0-11.135,3.377-17.899,6.537-20.519
		c0.426-0.351,1.056-0.293,1.408,0.133c0.353,0.425,0.294,1.056-0.132,1.408c-2.81,2.329-5.813,8.537-5.813,18.978v3.461
		c0,11.265,5.967,23.302,22.714,23.302h36.808c4.449,0,11.253-3.007,11.322-3.037c0.289-0.131,0.623-0.114,0.898,0.043l6.787,3.84
		l-3.662-4.964c-0.323-0.439-0.236-1.056,0.197-1.388c0.07-0.054,7.17-5.666,7.17-17.207l1.623-3.422
		c-0.171,0.137-0.387,0.218-0.623,0.218c-0.552,0-1-0.448-1-1c0-12.525-10.188-22.714-22.713-22.714H87.535c-0.553,0-1-0.447-1-1
		c0-0.553,0.447-1,1-1h10.442c13.622,0,24.705,11.077,24.713,24.697v0.004v4.217c0,10.4-5.222,16.287-7.21,18.15l5.899,7.996
		c0.28,0.38,0.257,0.904-0.057,1.257C121.129,58.375,120.854,58.491,120.574,58.491"/>
	<path clip-path="url(#SVGID_2_)" fill="#E8373D" d="M146.591,47.778c0-4.034-3.27-7.304-7.304-7.304s-7.306,3.27-7.306,7.304
		c0,0.511,0.065,3.302,2.175,6.112c2.109,2.811,2.775,4.039,3.664,7.144c0.629,2.199,1.103,4.121,1.325,5.056
		c0.035,0.15,0.246,0.15,0.282,0c0.224-0.935,0.696-2.857,1.325-5.056c0.889-3.105,1.555-4.333,3.664-7.144
		C146.527,51.081,146.591,48.29,146.591,47.778"/>
	<path clip-path="url(#SVGID_2_)" d="M139.286,66.703c-0.3,0-0.558-0.204-0.627-0.496c-0.227-0.948-0.699-2.863-1.32-5.035
		c-0.849-2.967-1.451-4.14-3.583-6.981c-2.109-2.811-2.273-5.618-2.273-6.412c0-4.304,3.501-7.805,7.804-7.805
		c4.304,0,7.805,3.501,7.805,7.805c0,0.794-0.164,3.601-2.274,6.412c-2.132,2.841-2.733,4.014-3.582,6.981
		c-0.621,2.172-1.094,4.087-1.32,5.035C139.845,66.499,139.587,66.703,139.286,66.703 M139.286,40.974
		c-3.752,0-6.804,3.053-6.804,6.805c0,0.716,0.149,3.249,2.073,5.812c2.072,2.76,2.813,4.053,3.745,7.306
		c0.396,1.389,0.734,2.675,0.985,3.673c0.251-0.998,0.59-2.284,0.986-3.673c0.931-3.252,1.673-4.546,3.744-7.306
		c1.925-2.564,2.074-5.097,2.074-5.812C146.091,44.027,143.039,40.974,139.286,40.974"/>
	<path clip-path="url(#SVGID_2_)" fill="#A52126" d="M141.799,47.898c0,1.388-1.125,2.513-2.513,2.513
		c-1.387,0-2.512-1.125-2.512-2.513c0-1.388,1.125-2.513,2.512-2.513C140.674,45.385,141.799,46.51,141.799,47.898"/>
	<path clip-path="url(#SVGID_2_)" d="M139.286,50.911c-1.66,0-3.013-1.351-3.013-3.012c0-1.661,1.353-3.013,3.013-3.013
		c1.661,0,3.014,1.352,3.014,3.013C142.3,49.56,140.947,50.911,139.286,50.911 M139.286,45.886c-1.109,0-2.013,0.903-2.013,2.013
		c0,1.109,0.903,2.012,2.013,2.012c1.11,0,2.014-0.903,2.014-2.012C141.3,46.789,140.396,45.886,139.286,45.886"/>
	<path clip-path="url(#SVGID_2_)" d="M85.184,130.867H54.479c-0.703,0-1.356-0.365-1.724-0.966l-4.032-5.788
		c-0.642-0.92-1.692-1.469-2.814-1.469l-24.794-0.002c-0.736-0.001-1.411-0.412-1.749-1.067l-2.419-2.409h81.344
		c0,0-9.413,0.508-9.413,7.971h-2.005c-0.531,0-0.963,0.431-0.963,0.963v2.041C85.91,130.543,85.584,130.867,85.184,130.867"/>
	<path clip-path="url(#SVGID_2_)" d="M85.184,131.617H54.479c-0.958,0-1.863-0.508-2.363-1.324l-4.008-5.751
		c-0.501-0.719-1.323-1.147-2.199-1.147l-24.793-0.002c-0.981-0.001-1.872-0.521-2.355-1.362l-2.343-2.334
		c-0.215-0.214-0.28-0.537-0.164-0.817c0.116-0.281,0.39-0.464,0.694-0.464h81.343c0.406,0,0.738,0.323,0.749,0.729
		c0.012,0.405-0.302,0.747-0.708,0.77c-0.354,0.02-8.704,0.565-8.704,7.223c0,0.414-0.336,0.75-0.75,0.75h-2.005
		c-0.117,0-0.213,0.096-0.213,0.213v2.041C86.66,130.955,85.997,131.617,85.184,131.617 M18.763,119.915l1.133,1.129
		c0.055,0.055,0.101,0.118,0.138,0.188c0.209,0.407,0.624,0.66,1.083,0.661l24.792,0.002c1.366,0,2.648,0.669,3.429,1.79
		l4.033,5.788c0.257,0.418,0.662,0.645,1.108,0.645H85.16V128.1c0-0.944,0.77-1.713,1.713-1.713h1.286
		c0.271-3.233,2.28-5.267,4.594-6.472H18.763z"/>
	<path clip-path="url(#SVGID_2_)" fill="#FFFFFF" d="M17.246,120.466h66.398c0.958,0,1.733-0.776,1.733-1.734V71.808
		c0-0.958-0.775-1.735-1.733-1.735H17.246c-0.958,0-1.735,0.777-1.735,1.735v46.924C15.51,119.689,16.288,120.466,17.246,120.466"/>
	<path clip-path="url(#SVGID_2_)" d="M83.644,121.216H17.246c-1.37,0-2.485-1.114-2.485-2.484V71.807
		c0-1.37,1.115-2.484,2.485-2.484h66.398c1.37,0,2.484,1.114,2.484,2.484v46.925C86.128,120.102,85.014,121.216,83.644,121.216
		 M17.246,70.822c-0.543,0-0.985,0.441-0.985,0.984v46.925c0,0.543,0.442,0.984,0.985,0.984h66.398c0.543,0,0.984-0.441,0.984-0.984
		V71.807c0-0.543-0.441-0.984-0.984-0.984H17.246z"/>
	<path clip-path="url(#SVGID_2_)" fill="#FFFFFF" d="M86.555,119.076l6.112,3.222c0,0,3.826-3.145,9.201-0.811
		c4.759,2.067,4.749,7.012,4.749,7.012h8.788c1.218,0,2.205-0.987,2.205-2.206v-15.008c0-1.773-0.324-3.533-0.958-5.189
		l-4.512-11.804c-0.325-0.854-1.146-1.418-2.06-1.418H87.584c-1.219,0-2.206,0.988-2.206,2.206v22.045
		C85.378,117.943,85.831,118.694,86.555,119.076"/>
	<path clip-path="url(#SVGID_2_)" d="M115.404,129.249h-8.787c-0.199,0-0.39-0.079-0.53-0.22c-0.142-0.142-0.221-0.333-0.22-0.531
		c-0.001-0.181-0.067-4.485-4.298-6.323c-4.896-2.126-8.391,0.674-8.426,0.703c-0.232,0.193-0.559,0.227-0.826,0.084l-6.112-3.223
		c-0.973-0.513-1.577-1.515-1.577-2.614V95.08c0-1.63,1.325-2.956,2.956-2.956h22.496c1.218,0,2.326,0.764,2.762,1.901l4.512,11.802
		c0.668,1.749,1.007,3.586,1.007,5.458v15.008C118.36,127.923,117.034,129.249,115.404,129.249 M107.312,127.749h8.093
		c0.803,0,1.456-0.653,1.456-1.456v-15.008c0-1.688-0.306-3.345-0.909-4.923l-4.511-11.801c-0.214-0.562-0.761-0.938-1.36-0.938
		H87.584c-0.804,0-1.456,0.653-1.456,1.456v22.045c0,0.542,0.298,1.035,0.776,1.288l5.703,3.006
		c1.191-0.786,4.806-2.685,9.561-0.619C106.218,122.559,107.113,126.176,107.312,127.749"/>
	<path clip-path="url(#SVGID_2_)" d="M113.394,112.968c-0.234,0-0.471-0.041-0.698-0.124l-21.978-8.03
		c-0.696-0.253-1.163-0.921-1.163-1.662v-7.362c0-0.976,0.794-1.77,1.77-1.77h17.426c0.73,0,1.378,0.439,1.646,1.12l4.912,12.438
		c0.082,0.209,0.123,0.427,0.123,0.649v2.704c0,0.664-0.324,1.288-0.869,1.669C114.216,112.843,113.807,112.968,113.394,112.968
		 M91.324,95.52c-0.148,0-0.27,0.121-0.27,0.27v7.362c0,0.113,0.071,0.215,0.176,0.253l21.98,8.031
		c0.168,0.06,0.346,0.037,0.491-0.064c0.068-0.048,0.229-0.188,0.229-0.439v-2.704c0-0.033-0.006-0.067-0.019-0.1l-4.911-12.438
		c-0.041-0.104-0.14-0.171-0.251-0.171H91.324z"/>
	<path clip-path="url(#SVGID_2_)" d="M89.524,129.329c0,4.52,3.664,8.184,8.183,8.184c4.521,0,8.184-3.664,8.184-8.184
		c0-4.519-3.663-8.183-8.184-8.183C93.188,121.146,89.524,124.811,89.524,129.329"/>
	<path clip-path="url(#SVGID_2_)" d="M97.707,138.263c-4.926,0-8.933-4.008-8.933-8.934s4.007-8.933,8.933-8.933
		c4.927,0,8.934,4.007,8.934,8.933S102.634,138.263,97.707,138.263 M97.707,121.896c-4.099,0-7.433,3.334-7.433,7.433
		s3.334,7.434,7.433,7.434c4.1,0,7.434-3.335,7.434-7.434S101.807,121.896,97.707,121.896"/>
	<path clip-path="url(#SVGID_2_)" d="M32.953,129.329c0,4.52,3.664,8.184,8.183,8.184c4.52,0,8.183-3.664,8.183-8.184
		c0-4.519-3.663-8.183-8.183-8.183C36.617,121.146,32.953,124.811,32.953,129.329"/>
	<path clip-path="url(#SVGID_2_)" d="M41.136,138.263c-4.926,0-8.933-4.008-8.933-8.934s4.007-8.933,8.933-8.933
		c4.926,0,8.933,4.007,8.933,8.933S46.062,138.263,41.136,138.263 M41.136,121.896c-4.099,0-7.433,3.334-7.433,7.433
		s3.334,7.434,7.433,7.434s7.433-3.335,7.433-7.434S45.235,121.896,41.136,121.896"/>
	<path clip-path="url(#SVGID_2_)" fill="#FFFFFF" d="M93.339,128.915c0,2.528,2.049,4.577,4.576,4.577
		c2.528,0,4.577-2.049,4.577-4.577s-2.049-4.577-4.577-4.577C95.388,124.338,93.339,126.387,93.339,128.915"/>
	<path clip-path="url(#SVGID_2_)" d="M97.915,134.242c-2.938,0-5.326-2.39-5.326-5.327s2.389-5.327,5.326-5.327
		c2.938,0,5.327,2.39,5.327,5.327S100.854,134.242,97.915,134.242 M97.915,125.088c-2.109,0-3.826,1.717-3.826,3.827
		c0,2.109,1.717,3.827,3.826,3.827c2.11,0,3.827-1.718,3.827-3.827C101.742,126.805,100.025,125.088,97.915,125.088"/>
	<path clip-path="url(#SVGID_2_)" fill="#FFFFFF" d="M36.559,128.915c0,2.528,2.049,4.577,4.577,4.577
		c2.528,0,4.577-2.049,4.577-4.577s-2.049-4.577-4.577-4.577C38.607,124.338,36.559,126.387,36.559,128.915"/>
	<path clip-path="url(#SVGID_2_)" d="M41.136,134.242c-2.938,0-5.327-2.39-5.327-5.327s2.389-5.327,5.327-5.327
		s5.327,2.39,5.327,5.327S44.074,134.242,41.136,134.242 M41.136,125.088c-2.11,0-3.827,1.717-3.827,3.827
		c0,2.109,1.717,3.827,3.827,3.827s3.827-1.718,3.827-3.827C44.963,126.805,43.246,125.088,41.136,125.088"/>
	<path clip-path="url(#SVGID_2_)" d="M119.34,109.445c-0.932,0-1.689-0.759-1.689-1.69v-5.548c0-0.932,0.758-1.69,1.689-1.69
		c0.933,0,1.69,0.759,1.69,1.69v5.548C121.03,108.687,120.272,109.445,119.34,109.445 M119.34,102.017
		c-0.103,0-0.189,0.087-0.189,0.19v5.548c0,0.207,0.38,0.207,0.38,0v-5.548C119.53,102.104,119.443,102.017,119.34,102.017"/>
	<path clip-path="url(#SVGID_2_)" d="M117.901,112.035h-1.19c-0.414,0-0.75-0.336-0.75-0.75v-0.489c0-0.414,0.336-0.75,0.75-0.75
		h0.959c0.045-0.022,0.13-0.222,0.13-1.026v-2.128c0-0.414,0.336-0.75,0.75-0.75h0.605c0.414,0,0.75,0.336,0.75,0.75v2.618
		C119.905,110.997,119.081,112.035,117.901,112.035"/>
	<path clip-path="url(#SVGID_2_)" fill="#FFFFFF" d="M4.921,123.972c0.379,0,0.738,0.066,1.087,0.16
		c0.181-1.569,1.465-2.806,3.084-2.806c1.742,0,3.154,1.412,3.154,3.154c0,0.827-0.335,1.565-0.856,2.129l6.001,1.789l-5.91,1.411
		c0.457,0.548,0.765,1.227,0.765,1.995c0,1.741-1.412,3.153-3.154,3.153c-1.619,0-2.903-1.235-3.084-2.806
		c-0.349,0.094-0.708,0.161-1.087,0.161c-2.304,0-4.171-1.867-4.171-4.171S2.617,123.972,4.921,123.972"/>
	<path clip-path="url(#SVGID_2_)" d="M9.092,135.709c-1.684,0-3.139-1.106-3.655-2.678c-0.177,0.021-0.347,0.032-0.516,0.032
		c-2.713,0-4.921-2.207-4.921-4.921s2.208-4.921,4.921-4.921c0.17,0,0.34,0.011,0.516,0.032c0.517-1.571,1.971-2.678,3.655-2.678
		c2.152,0,3.904,1.751,3.904,3.903c0,0.593-0.141,1.174-0.406,1.705l5.016,1.494c0.325,0.097,0.545,0.4,0.535,0.739
		c-0.009,0.34-0.245,0.631-0.575,0.709l-4.898,1.17c0.216,0.48,0.328,0.989,0.328,1.508
		C12.996,133.958,11.244,135.709,9.092,135.709 M6.008,131.402c0.149,0,0.296,0.044,0.421,0.13c0.181,0.122,0.299,0.317,0.324,0.534
		c0.141,1.222,1.146,2.143,2.339,2.143c1.326,0,2.404-1.078,2.404-2.404c0-0.667-0.321-1.191-0.591-1.515
		c-0.167-0.199-0.218-0.47-0.136-0.717c0.081-0.246,0.285-0.433,0.537-0.493l3.191-0.763l-3.322-0.989
		c-0.248-0.074-0.44-0.271-0.509-0.521c-0.068-0.25-0.002-0.518,0.174-0.708c0.423-0.457,0.656-1.032,0.656-1.62
		c0-1.325-1.078-2.403-2.404-2.403c-1.193,0-2.198,0.921-2.339,2.143c-0.025,0.217-0.143,0.412-0.324,0.535
		s-0.407,0.159-0.618,0.103c-0.338-0.092-0.621-0.135-0.89-0.135c-1.886,0-3.421,1.534-3.421,3.421s1.535,3.421,3.421,3.421
		c0.265,0,0.549-0.043,0.892-0.136C5.877,131.411,5.943,131.402,6.008,131.402"/>
	<path clip-path="url(#SVGID_2_)" fill="#E60012" d="M138.671,138.997h-0.003c-1.017-0.003-2.037-0.034-3.033-0.094
		c-0.33-0.02-0.583-0.304-0.563-0.634c0.019-0.331,0.293-0.609,0.635-0.564c0.973,0.059,1.971,0.09,2.966,0.094
		c0.331,0.001,0.599,0.271,0.598,0.602C139.269,138.731,139.001,138.997,138.671,138.997 M141.67,138.926
		c-0.318,0-0.583-0.248-0.599-0.569c-0.018-0.331,0.237-0.612,0.567-0.63c0.997-0.051,1.991-0.132,2.954-0.24
		c0.325-0.045,0.627,0.198,0.664,0.528c0.037,0.329-0.199,0.626-0.529,0.663c-0.987,0.111-2.006,0.194-3.026,0.248H141.67z
		 M132.684,138.632c-0.024,0-0.05-0.001-0.074-0.004c-1.054-0.131-2.065-0.294-3.01-0.487c-0.324-0.066-0.533-0.384-0.467-0.708
		c0.066-0.325,0.382-0.531,0.708-0.468c0.913,0.188,1.894,0.346,2.915,0.472c0.329,0.041,0.563,0.34,0.522,0.669
		C133.241,138.409,132.981,138.632,132.684,138.632 M147.627,138.235c-0.283,0-0.535-0.201-0.589-0.488
		c-0.063-0.326,0.151-0.64,0.477-0.702c1.032-0.196,1.991-0.43,2.85-0.694c0.318-0.101,0.652,0.08,0.75,0.396
		c0.098,0.317-0.079,0.653-0.396,0.751c-0.901,0.277-1.902,0.522-2.979,0.728C147.701,138.231,147.664,138.235,147.627,138.235
		 M126.819,137.396c-0.063,0-0.126-0.011-0.189-0.031c-1.17-0.388-2.134-0.829-2.864-1.311c-0.276-0.183-0.353-0.555-0.171-0.831
		c0.185-0.276,0.556-0.354,0.832-0.171c0.643,0.424,1.51,0.819,2.581,1.174c0.314,0.104,0.485,0.443,0.38,0.758
		C127.305,137.235,127.07,137.396,126.819,137.396 M153.308,136.377c-0.207,0-0.409-0.108-0.52-0.301
		c-0.166-0.288-0.067-0.653,0.22-0.819c0.969-0.56,1.502-1.164,1.502-1.701c0-0.331,0.27-0.601,0.601-0.601s0.6,0.27,0.6,0.601
		c0,1.013-0.707,1.935-2.103,2.74C153.513,136.351,153.41,136.377,153.308,136.377 M122.717,133.736
		c-0.055,0-0.11-0.008-0.166-0.023c-0.318-0.092-0.502-0.425-0.411-0.742c0.252-0.879,1.067-1.678,2.422-2.375
		c0.296-0.153,0.657-0.035,0.809,0.259c0.151,0.295,0.036,0.656-0.259,0.808c-1.02,0.524-1.665,1.106-1.817,1.639
		C123.218,133.564,122.978,133.736,122.717,133.736 M154.02,132.405c-0.127,0-0.256-0.04-0.364-0.124
		c-0.589-0.452-1.431-0.876-2.503-1.261c-0.313-0.111-0.476-0.455-0.363-0.767c0.112-0.313,0.456-0.477,0.767-0.362
		c1.192,0.426,2.145,0.91,2.83,1.438c0.265,0.202,0.313,0.579,0.11,0.842C154.378,132.325,154.2,132.405,154.02,132.405
		 M127.637,130.664c-0.261,0-0.501-0.171-0.576-0.435c-0.092-0.318,0.093-0.65,0.411-0.742c0.908-0.26,1.912-0.49,2.985-0.682
		c0.331-0.057,0.637,0.159,0.696,0.485c0.058,0.326-0.159,0.638-0.485,0.696c-1.032,0.185-1.996,0.404-2.865,0.654
		C127.748,130.657,127.692,130.664,127.637,130.664 M148.467,130.247c-0.042,0-0.085-0.004-0.128-0.014
		c-0.908-0.198-1.886-0.368-2.908-0.505c-0.328-0.044-0.559-0.346-0.515-0.675c0.044-0.328,0.349-0.568,0.674-0.516
		c1.055,0.143,2.065,0.318,3.005,0.523c0.324,0.07,0.529,0.391,0.458,0.714C148.992,130.056,148.743,130.247,148.467,130.247
		 M133.533,129.582c-0.305,0-0.565-0.229-0.597-0.538c-0.034-0.329,0.205-0.624,0.534-0.658c0.986-0.103,2.005-0.177,3.029-0.223
		c0.339,0.011,0.611,0.244,0.626,0.574c0.014,0.331-0.243,0.611-0.574,0.626c-1,0.043-1.995,0.116-2.957,0.216
		C133.574,129.58,133.553,129.582,133.533,129.582 M142.525,129.435c-0.015,0-0.027,0-0.043-0.001
		c-0.963-0.066-1.96-0.105-2.963-0.117c-0.332-0.004-0.597-0.275-0.594-0.606c0.004-0.329,0.272-0.593,0.601-0.593h0.007
		c1.025,0.012,2.046,0.052,3.032,0.119c0.33,0.022,0.58,0.309,0.558,0.64C143.101,129.192,142.838,129.435,142.525,129.435"/>
	<path clip-path="url(#SVGID_2_)" fill="#906325" d="M141.404,79.291c0,0,0.435-1.584,1.639-2.123
		c1.382-0.617,2.872,0.291,3.454,2.337c0.441,1.551,2.125,1.525,2.925,0.301c-0.471,1.581-1.435,2.679-3.079,2.854
		c-2.102,0.225-3.118-0.802-4.833-2.425L141.404,79.291z"/>
	<path clip-path="url(#SVGID_2_)" d="M145.795,83.19c-1.895,0-3.006-1.053-4.491-2.461l-0.138-0.131
		c-0.086-0.081-0.141-0.19-0.154-0.308l-0.104-0.944c-0.007-0.063-0.003-0.127,0.015-0.188c0.021-0.074,0.513-1.819,1.917-2.447
		c0.701-0.314,1.465-0.313,2.149,0.008c0.92,0.43,1.627,1.37,1.989,2.648c0.134,0.472,0.417,0.763,0.796,0.82
		c0.441,0.063,0.926-0.189,1.229-0.656c0.136-0.208,0.401-0.286,0.629-0.181c0.225,0.104,0.34,0.358,0.269,0.597
		c-0.569,1.915-1.781,3.024-3.505,3.209C146.187,83.18,145.985,83.19,145.795,83.19 M141.985,79.998l0.007,0.006
		c1.6,1.517,2.473,2.353,4.297,2.159c0.791-0.085,1.419-0.409,1.894-0.983c-0.186,0.026-0.373,0.025-0.559-0.003
		c-0.778-0.117-1.364-0.677-1.608-1.535c-0.279-0.98-0.807-1.715-1.451-2.016c-0.423-0.196-0.879-0.198-1.317-0.002
		c-0.823,0.369-1.231,1.415-1.334,1.717L141.985,79.998z"/>
	<path clip-path="url(#SVGID_2_)" d="M134.183,129.636c0,0-0.895,0.676-2.213,1.271c-0.849,0.385-0.452,1.272,0.388,1.272
		c0.841,0,3.615-0.635,3.615-0.635l0.035-1.909H134.183z"/>
	<path clip-path="url(#SVGID_2_)" d="M132.358,132.779c-0.714,0-1.304-0.427-1.436-1.038c-0.122-0.563,0.192-1.106,0.8-1.381
		c1.234-0.558,2.09-1.197,2.099-1.204c0.104-0.078,0.231-0.12,0.361-0.12h1.824c0.161,0,0.316,0.064,0.429,0.18
		c0.112,0.114,0.175,0.27,0.172,0.431l-0.034,1.908c-0.006,0.275-0.197,0.513-0.467,0.574
		C135.816,132.195,133.241,132.779,132.358,132.779 M132.105,131.531c0.033,0,0.115,0.049,0.253,0.049
		c0.53,0,2.09-0.315,3.022-0.519l0.017-0.826h-1.021c-0.33,0.23-1.116,0.747-2.159,1.219c-0.077,0.035-0.114,0.068-0.125,0.082
		C132.095,131.533,132.1,131.531,132.105,131.531"/>
	<path clip-path="url(#SVGID_2_)" d="M139.334,129.636c0,0,0.895,0.676,2.213,1.271c0.849,0.385,0.452,1.272-0.388,1.272
		c-0.841,0-3.615-0.635-3.615-0.635l-0.035-1.909H139.334z"/>
	<path clip-path="url(#SVGID_2_)" d="M141.158,132.779c-0.882,0-3.458-0.584-3.748-0.65c-0.269-0.062-0.461-0.299-0.466-0.574
		l-0.035-1.908c-0.003-0.161,0.06-0.316,0.172-0.431c0.113-0.115,0.268-0.18,0.429-0.18h1.824c0.13,0,0.257,0.042,0.361,0.12
		c0.008,0.007,0.864,0.646,2.098,1.204c0.608,0.275,0.922,0.817,0.801,1.381C142.462,132.353,141.871,132.779,141.158,132.779
		 M138.136,131.062c0.934,0.203,2.491,0.519,3.022,0.519c0.132,0,0.212-0.045,0.247-0.076c-0.019-0.003-0.053-0.026-0.106-0.05
		c-1.042-0.472-1.828-0.988-2.157-1.219h-1.021L138.136,131.062z"/>
	<path clip-path="url(#SVGID_2_)" fill="#FDEDDB" d="M129.552,79.01l-1.518-4.997c0,0,1.02-0.604,1.33-1.381
		c0.311-0.776,0.404-2.206,0.404-2.879s-0.652-1.136-0.886,0c-0.163,0.795-0.642,0.998-0.642,0.998s-0.354-3.393-0.388-4.124
		c-0.046-0.982-0.843-1.18-0.98,0.003c-0.13,1.119-0.21,2.767-0.21,2.767s-0.457-2.065-0.622-3.003
		c-0.144-0.823-1.086-0.697-1.035,0.155c0.065,1.098,0.362,2.952,0.362,2.952s-0.712-1.896-1.078-2.658
		c-0.229-0.476-1.028-0.328-0.873,0.449c0.155,0.777,0.636,2.674,0.636,2.674s-0.78-0.953-1.066-1.294
		c-0.423-0.504-1.028-0.209-0.563,0.826c0.466,1.036,1.038,1.84,1.038,1.84s0.196,1.444,0.507,2.014
		c0.311,0.57,1.613,1.272,1.613,1.272l1.044,5.183L129.552,79.01z"/>
	<path clip-path="url(#SVGID_2_)" d="M126.626,80.406c-0.11,0-0.22-0.03-0.315-0.089c-0.141-0.088-0.24-0.229-0.272-0.393
		l-0.99-4.914c-0.453-0.267-1.304-0.818-1.606-1.371c-0.302-0.553-0.492-1.666-0.554-2.077c-0.183-0.273-0.629-0.969-1.011-1.818
		c-0.425-0.944-0.165-1.538,0.22-1.78c0.252-0.159,0.556-0.171,0.839-0.058c-0.042-0.188-0.079-0.359-0.106-0.497
		c-0.149-0.745,0.243-1.233,0.699-1.384c0.314-0.106,0.648-0.054,0.912,0.116c0.124-0.531,0.531-0.846,0.951-0.895
		c0.39-0.056,0.841,0.145,1.084,0.588c0.229-0.462,0.595-0.622,0.923-0.62c0.584,0.021,1.018,0.59,1.055,1.385
		c0.016,0.342,0.105,1.305,0.194,2.211c0.29-0.351,0.643-0.353,0.78-0.343c0.537,0.055,0.942,0.608,0.942,1.286
		c0,0.685-0.095,2.216-0.448,3.101c-0.247,0.618-0.801,1.116-1.186,1.405l1.39,4.575c0.047,0.155,0.029,0.323-0.049,0.465
		c-0.078,0.143-0.212,0.246-0.367,0.289l-2.927,0.797C126.731,80.399,126.679,80.406,126.626,80.406 M123.428,70.149
		c0.285,0.504,0.52,0.836,0.523,0.841c0.057,0.079,0.093,0.171,0.105,0.267c0.07,0.517,0.251,1.465,0.438,1.808
		c0.135,0.247,0.817,0.732,1.371,1.03c0.157,0.085,0.269,0.235,0.305,0.41l0.917,4.555l1.711-0.467l-1.339-4.405
		c-0.08-0.264,0.03-0.549,0.268-0.69c0.236-0.141,0.889-0.611,1.079-1.088c0.164-0.41,0.265-1.075,0.317-1.683
		c-0.276,0.406-0.598,0.555-0.649,0.577c-0.175,0.074-0.375,0.062-0.539-0.036c-0.164-0.097-0.271-0.265-0.292-0.454
		c-0.01-0.096-0.174-1.678-0.287-2.895c-0.059,0.791-0.095,1.497-0.095,1.507c-0.015,0.3-0.249,0.543-0.548,0.569
		c-0.3,0.03-0.572-0.175-0.637-0.468c-0.011-0.047-0.15-0.681-0.302-1.397c0.091,0.69,0.184,1.266,0.186,1.277
		c0.049,0.304-0.142,0.597-0.439,0.675c-0.296,0.081-0.606-0.081-0.715-0.369c-0.004-0.012-0.256-0.682-0.533-1.375
		c0.175,0.749,0.358,1.469,0.361,1.481c0.069,0.272-0.061,0.557-0.312,0.683c-0.252,0.128-0.556,0.063-0.733-0.154
		C123.59,70.346,123.525,70.269,123.428,70.149"/>
	<polygon clip-path="url(#SVGID_2_)" fill="#DCDDDD" points="130.808,108.311 133.985,129.636 136.277,129.636 135.881,111.679 
		136.952,111.679 137.288,129.636 139.334,129.636 141.747,108.311 	"/>
	<path clip-path="url(#SVGID_2_)" d="M139.334,130.136h-2.046c-0.271,0-0.494-0.218-0.5-0.49l-0.327-17.467h-0.068l0.385,17.446
		c0.003,0.134-0.048,0.265-0.143,0.36s-0.224,0.15-0.357,0.15h-2.292c-0.248,0-0.458-0.182-0.495-0.427l-3.178-21.325
		c-0.021-0.144,0.021-0.289,0.116-0.399c0.095-0.11,0.232-0.174,0.379-0.174h10.939c0.143,0,0.278,0.061,0.373,0.167
		s0.14,0.248,0.124,0.39l-2.413,21.325C139.803,129.944,139.588,130.136,139.334,130.136 M137.779,129.136h1.108l2.3-20.325h-9.8
		l3.028,20.325h1.351l-0.386-17.446c-0.003-0.134,0.049-0.265,0.143-0.36s0.223-0.15,0.357-0.15h1.071c0.272,0,0.494,0.218,0.5,0.49
		L137.779,129.136z"/>
	<path clip-path="url(#SVGID_2_)" d="M137.776,112.278h-2.888c-0.331,0-0.6-0.269-0.6-0.6s0.269-0.6,0.6-0.6h2.888
		c0.331,0,0.6,0.269,0.6,0.6S138.107,112.278,137.776,112.278"/>
	<path clip-path="url(#SVGID_2_)" fill="#FEDC5E" d="M149.422,101.645c0,0-3.682-5.057-5.806-7.737
		c-1.208-1.525-2.8-1.796-3.841-1.796h-4.435c0,0-2.644-4.654-3.581-7.08c-0.777-2.01-2.207-6.021-2.207-6.021l-2.928,0.796
		c0,0,0.977,4.54,1.686,7.298c0.608,2.359,1.861,6.233,2.497,8.279l-1.37,13.447c0,0,2.342,0.851,6.79,0.851s6.79-0.851,6.79-0.851
		l-0.14-9.541l4.973,3.79L149.422,101.645z"/>
	<path clip-path="url(#SVGID_2_)" d="M136.228,110.281c-4.503,0-6.896-0.852-6.995-0.889c-0.259-0.094-0.421-0.351-0.393-0.624
		l1.358-13.324l-0.416-1.324c-0.66-2.098-1.564-4.971-2.052-6.867c-0.705-2.736-1.682-7.274-1.69-7.32
		c-0.067-0.312,0.121-0.621,0.428-0.705l2.926-0.797c0.307-0.081,0.617,0.083,0.724,0.378c0.014,0.04,1.437,4.027,2.202,6.007
		c0.774,2.004,2.774,5.628,3.372,6.696h4.085c1.235,0,2.986,0.351,4.311,2.022c2.107,2.66,5.783,7.706,5.819,7.756
		c0.18,0.247,0.146,0.59-0.08,0.797l-1.571,1.436c-0.214,0.194-0.538,0.209-0.769,0.034l-3.99-3.042l0.122,8.306
		c0.004,0.256-0.155,0.485-0.396,0.572C143.124,109.43,140.73,110.281,136.228,110.281 M130.084,108.397
		c0.858,0.23,2.949,0.685,6.144,0.685c3.246,0,5.353-0.469,6.185-0.696l-0.135-9.088c-0.003-0.229,0.125-0.441,0.33-0.545
		c0.205-0.102,0.452-0.08,0.634,0.059l4.574,3.486l0.805-0.734c-0.938-1.282-3.743-5.1-5.473-7.283
		c-0.825-1.041-1.96-1.569-3.371-1.569h-4.437c-0.215,0-0.415-0.115-0.521-0.304c-0.108-0.191-2.676-4.721-3.618-7.159
		c-0.604-1.563-1.611-4.357-2.026-5.514l-1.841,0.502c0.283,1.296,1.006,4.57,1.559,6.718c0.48,1.865,1.38,4.721,2.035,6.806
		l0.453,1.445c0.024,0.077,0.032,0.158,0.024,0.238L130.084,108.397z"/>
	<path clip-path="url(#SVGID_2_)" fill="#FDEDDB" d="M144.089,83.911c0-0.778,0.012-1.013-0.197-2.171
		c-0.209-1.159-0.714-5.653-6.125-6.012c-5.411-0.359-6.648,4.237-6.866,5.148s-0.363,1.298-0.467,2.07
		c-2.267-1.033-2.41,3.939,0.091,3.795c0.455,1.743,1.851,3.479,4.593,4.732c-0.004,0.052-0.109,1.006-0.109,1.006
		s0.382,1.065,1.944,1.049c1.248-0.014,1.616-0.825,1.616-0.825s-0.226-1.083-0.222-1.135c2.509-0.596,4.358-2.31,5.04-3.977
		C145.847,88.068,146.393,83.456,144.089,83.911"/>
	<path clip-path="url(#SVGID_2_)" d="M136.913,94.129c-1.93,0-2.449-1.387-2.471-1.446c-0.03-0.086-0.041-0.178-0.031-0.269
		l0.064-0.58c-2.771-1.372-3.931-3.133-4.403-4.515c-0.741-0.113-1.342-0.596-1.69-1.375c-0.506-1.133-0.342-2.575,0.371-3.283
		c0.329-0.325,0.745-0.475,1.199-0.451c0.054-0.258,0.116-0.495,0.186-0.765c0.054-0.204,0.112-0.432,0.18-0.708
		c0.337-1.409,1.886-5.988,7.488-5.607c3.739,0.248,5.976,2.378,6.646,6.329l0.03,0.174c0.153,0.854,0.192,1.237,0.202,1.67
		c0.453,0.073,0.837,0.315,1.101,0.71c0.552,0.823,0.48,2.178-0.163,3.149c-0.455,0.686-1.118,1.059-1.866,1.063
		c-0.863,1.713-2.642,3.134-4.723,3.777c0.058,0.27,0.123,0.578,0.123,0.578c0.025,0.125,0.012,0.255-0.041,0.371
		c-0.196,0.431-0.87,1.162-2.157,1.176C136.943,94.129,136.928,94.129,136.913,94.129 M135.623,92.371
		c0.12,0.185,0.471,0.542,1.322,0.558c0.556-0.007,0.847-0.211,0.983-0.354c-0.189-0.918-0.187-0.958-0.181-1.045
		c0.017-0.264,0.204-0.484,0.459-0.545c2.406-0.57,4.056-2.229,4.624-3.619c0.108-0.267,0.392-0.421,0.669-0.362
		c0.464,0.085,0.84-0.081,1.122-0.505c0.405-0.612,0.413-1.45,0.166-1.818c-0.081-0.122-0.222-0.254-0.583-0.181
		c-0.178,0.036-0.359-0.012-0.498-0.125c-0.138-0.114-0.219-0.284-0.219-0.464v-0.118c0.001-0.675,0.001-0.902-0.188-1.947
		l-0.032-0.186c-0.232-1.373-0.853-5.021-5.542-5.333c-4.556-0.298-5.882,3.18-6.242,4.689c-0.069,0.285-0.131,0.521-0.186,0.732
		c-0.118,0.453-0.204,0.78-0.27,1.277c-0.026,0.188-0.139,0.354-0.305,0.446c-0.167,0.093-0.365,0.101-0.54,0.021
		c-0.388-0.178-0.526-0.038-0.586,0.02c-0.316,0.314-0.438,1.231-0.122,1.942c0.217,0.482,0.551,0.713,1.013,0.688
		c0.293-0.01,0.544,0.172,0.614,0.448c0.466,1.775,1.938,3.276,4.264,4.338c0.227,0.104,0.365,0.337,0.349,0.586
		C135.713,91.553,135.654,92.087,135.623,92.371"/>
	<path clip-path="url(#SVGID_2_)" d="M135.513,83.512c-0.028,0.425-0.322,0.752-0.656,0.729c-0.334-0.021-0.582-0.385-0.554-0.81
		c0.028-0.426,0.322-0.752,0.656-0.73C135.293,82.724,135.541,83.087,135.513,83.512"/>
	<path clip-path="url(#SVGID_2_)" d="M139.69,83.934c-0.027,0.425-0.321,0.752-0.655,0.73c-0.334-0.022-0.582-0.386-0.555-0.811
		c0.028-0.426,0.322-0.752,0.656-0.729C139.471,83.146,139.719,83.509,139.69,83.934"/>
	<path clip-path="url(#SVGID_2_)" fill="#FFFFFF" d="M135.303,83.371c-0.009,0.13-0.1,0.231-0.201,0.225
		c-0.103-0.008-0.179-0.118-0.17-0.249c0.009-0.13,0.099-0.23,0.201-0.224C135.235,83.129,135.312,83.241,135.303,83.371"/>
	<path clip-path="url(#SVGID_2_)" fill="#FFFFFF" d="M139.457,83.749c-0.009,0.13-0.099,0.231-0.2,0.224
		c-0.104-0.007-0.18-0.117-0.171-0.249c0.01-0.13,0.1-0.229,0.201-0.223C139.391,83.507,139.467,83.619,139.457,83.749"/>
	<path clip-path="url(#SVGID_2_)" d="M136.895,86.633c-0.393,0-0.735-0.217-0.918-0.581c-0.218-0.437-0.172-1.023,0.108-1.397
		c0.231-0.309,0.596-0.451,0.975-0.38c0.326,0.06,0.542,0.372,0.482,0.698c-0.046,0.253-0.246,0.44-0.485,0.482
		c0.253,0.07,0.438,0.303,0.438,0.578C137.495,86.364,137.227,86.633,136.895,86.633"/>
	<path clip-path="url(#SVGID_2_)" fill="#906325" d="M137.565,75.443c-3.096-0.14-4.896,1.509-6.009,3.651
		c-1.166,2.244-1.091,4.556-1.091,4.556l0.456,0.03l3.379-4.337l0.816,1.32l1.726-1.047l0.279,1.098l1.898-0.908l0.671,1.249
		l1.818-0.82l1.892,4.383l0.595,0.012c0,0,0.402-2.694-0.596-4.917C142.316,77.297,140.416,75.572,137.565,75.443"/>
	<path clip-path="url(#SVGID_2_)" d="M143.997,85.129h-0.009l-0.596-0.011c-0.196-0.004-0.372-0.122-0.45-0.302l-1.691-3.916
		l-1.354,0.611c-0.239,0.105-0.522,0.012-0.646-0.22l-0.444-0.828l-1.469,0.702c-0.136,0.064-0.291,0.064-0.428,0.002
		c-0.135-0.063-0.235-0.185-0.271-0.33l-0.113-0.442l-1.148,0.697c-0.237,0.141-0.542,0.069-0.685-0.165l-0.439-0.71l-2.937,3.771
		c-0.103,0.13-0.253,0.2-0.428,0.191l-0.456-0.03c-0.256-0.019-0.458-0.226-0.467-0.482c-0.003-0.101-0.064-2.47,1.146-4.803
		c1.418-2.731,3.597-4.079,6.476-3.92c2.818,0.128,4.985,1.706,6.269,4.563c1.046,2.331,0.653,5.08,0.635,5.195
		C144.455,84.948,144.244,85.129,143.997,85.129 M141.51,79.735c0.061,0,0.122,0.011,0.181,0.034
		c0.125,0.048,0.225,0.145,0.278,0.268l1.599,3.703c0.035-0.925-0.021-2.48-0.623-3.823c-0.78-1.736-2.35-3.835-5.402-3.975
		c-2.479-0.104-4.303,0.994-5.542,3.383c-0.663,1.276-0.901,2.59-0.987,3.426l2.894-3.715c0.101-0.129,0.262-0.21,0.421-0.191
		c0.164,0.009,0.313,0.097,0.399,0.236l0.555,0.899l1.302-0.791c0.136-0.081,0.303-0.094,0.448-0.035
		c0.147,0.06,0.257,0.185,0.296,0.34l0.129,0.507l1.349-0.646c0.241-0.116,0.529-0.021,0.656,0.215l0.45,0.838l1.393-0.629
		C141.368,79.75,141.439,79.735,141.51,79.735"/>
	<path clip-path="url(#SVGID_2_)" fill="#EF856D" d="M138.347,84.856c0,0.096-0.078,0.174-0.175,0.174s-0.175-0.078-0.175-0.174
		s0.078-0.174,0.175-0.174S138.347,84.761,138.347,84.856"/>
	<path clip-path="url(#SVGID_2_)" fill="#EF856D" d="M137.82,84.068c0,0.096-0.078,0.174-0.174,0.174
		c-0.098,0-0.176-0.078-0.176-0.174c0-0.097,0.078-0.174,0.176-0.174C137.742,83.895,137.82,83.972,137.82,84.068"/>
	<path clip-path="url(#SVGID_2_)" fill="#EF856D" d="M137.077,83.736c0,0.097-0.078,0.175-0.174,0.175
		c-0.098,0-0.176-0.078-0.176-0.175c0-0.096,0.078-0.174,0.176-0.174C136.999,83.563,137.077,83.641,137.077,83.736"/>
	<path clip-path="url(#SVGID_2_)" fill="#EF856D" d="M136.356,83.911c0,0.096-0.078,0.174-0.175,0.174s-0.175-0.078-0.175-0.174
		s0.078-0.174,0.175-0.174S136.356,83.815,136.356,83.911"/>
	<path clip-path="url(#SVGID_2_)" fill="#EF856D" d="M135.515,84.5c0,0.096-0.078,0.174-0.174,0.174
		c-0.097,0-0.175-0.078-0.175-0.174s0.078-0.174,0.175-0.174C135.437,84.326,135.515,84.404,135.515,84.5"/>
	<path clip-path="url(#SVGID_2_)" fill="#EF856D" d="M140.816,86.847c0,0.62-0.503,1.124-1.124,1.124
		c-0.62,0-1.124-0.504-1.124-1.124c0-0.621,0.504-1.124,1.124-1.124C140.313,85.723,140.816,86.226,140.816,86.847"/>
	<path clip-path="url(#SVGID_2_)" fill="#EF856D" d="M135.425,86.363c0,0.621-0.503,1.124-1.124,1.124s-1.124-0.503-1.124-1.124
		c0-0.62,0.503-1.123,1.124-1.123S135.425,85.743,135.425,86.363"/>
	<path clip-path="url(#SVGID_2_)" d="M137.144,88.882c-0.086,0-0.176-0.004-0.269-0.012c-1.868-0.148-2.314-1.532-2.332-1.591
		c-0.097-0.316,0.081-0.652,0.398-0.749c0.315-0.099,0.645,0.077,0.745,0.387c0.028,0.077,0.277,0.677,1.283,0.758
		c0.883,0.06,1.142-0.428,1.168-0.485c0.138-0.293,0.489-0.433,0.787-0.303s0.441,0.467,0.319,0.769
		C139.222,87.708,138.725,88.882,137.144,88.882"/>
	<polygon clip-path="url(#SVGID_2_)" fill="#898989" points="141.976,101.998 140.856,114.193 139.977,114.094 141.023,101.981 	"/>
	<path clip-path="url(#SVGID_2_)" d="M140.856,114.593c-0.016,0-0.03,0-0.045-0.002l-0.881-0.101
		c-0.216-0.024-0.371-0.216-0.354-0.432l1.048-12.111c0.019-0.209,0.214-0.365,0.405-0.366l0.952,0.017
		c0.111,0.002,0.217,0.051,0.291,0.134c0.074,0.082,0.11,0.192,0.101,0.303l-1.119,12.195c-0.01,0.107-0.063,0.206-0.146,0.274
		C141.037,114.562,140.948,114.593,140.856,114.593 M140.408,113.739l0.087,0.011l1.043-11.359l-0.148-0.003L140.408,113.739z"/>
	<polygon clip-path="url(#SVGID_2_)" fill="#898989" points="150.184,108.979 149.749,111.494 150.467,111.73 150.879,109.074 	"/>
	<path clip-path="url(#SVGID_2_)" d="M150.466,112.132c-0.042,0-0.085-0.007-0.126-0.021l-0.716-0.237
		c-0.188-0.063-0.302-0.253-0.268-0.448l0.433-2.516c0.037-0.211,0.237-0.353,0.448-0.328l0.695,0.095
		c0.106,0.015,0.202,0.071,0.267,0.157s0.091,0.194,0.075,0.301l-0.412,2.658c-0.019,0.116-0.087,0.219-0.188,0.28
		C150.611,112.111,150.539,112.132,150.466,112.132"/>
	<path clip-path="url(#SVGID_2_)" d="M153.712,107.712c-0.042-0.429-0.06-0.896-0.287-1.149c-0.273-0.307-2.109-0.246-2.68-0.084
		c-0.57,0.163-1.373,0.244-2.146,0.139c-0.686-0.094-1.191-0.137-1.362,0.365c-0.143,0.414-0.237,0.631-0.313,0.948
		c-0.059,0.246-0.038,0.407,0.146,0.541c0.41,0.296,0.99,0.646,1.423,0.926c0.357,0.23,0.65,0.327,0.89,0.327
		c0.323,0,2.147,0.062,2.468,0.062s0.563,0.033,0.913-0.293c0.35-0.325,0.606-0.684,0.79-0.944
		C153.738,108.288,153.761,108.21,153.712,107.712"/>
	<path clip-path="url(#SVGID_2_)" d="M130.988,128.417c0,5.106,2.408,8.598,5.289,8.641l2.245,0.001
		c2.842-1.511,3.855-4.343,3.855-8.713c0-5.105-1.237-9.172-6.173-9.172C133.324,119.174,130.988,123.313,130.988,128.417
		 M132.943,128.284c0-4.405,1.544-7.719,4.031-7.719c2.486,0,3.732,3.447,3.732,7.852c0,4.406-1.364,7.845-3.851,7.845
		C135.35,136.262,132.943,132.071,132.943,128.284"/>
	<path clip-path="url(#SVGID_2_)" fill="#898989" d="M132.943,128.284c0,4.406,2.016,7.978,4.502,7.978s4.301-2.854,4.301-7.996
		c0-4.406-1.118-7.958-4.301-7.958C134.959,120.308,132.943,123.879,132.943,128.284 M134.573,128.284
		c0-3.693,1.488-6.688,3.323-6.688s2.812,3.128,2.812,6.82c0,3.694-1.493,6.556-2.812,6.556
		C136.062,134.973,134.573,131.979,134.573,128.284"/>
	<path clip-path="url(#SVGID_2_)" d="M137.446,136.662c-2.749,0-4.903-3.681-4.903-8.378s2.154-8.377,4.903-8.377
		c3.031,0,4.701,2.969,4.701,8.358C142.147,133.444,140.346,136.662,137.446,136.662 M137.446,120.708
		c-2.225,0-4.104,3.47-4.104,7.576c0,4.107,1.879,7.577,4.104,7.577c2.37,0,3.9-2.981,3.9-7.596
		C141.347,124.817,140.67,120.708,137.446,120.708 M137.897,135.373c-2.089,0-3.724-3.114-3.724-7.089s1.635-7.088,3.724-7.088
		c1.949,0,3.21,2.835,3.21,7.222C141.107,132.123,139.607,135.373,137.897,135.373 M137.897,121.997
		c-1.585,0-2.924,2.879-2.924,6.287c0,3.409,1.339,6.288,2.924,6.288c0.971,0,2.41-2.584,2.41-6.154
		C140.308,124.697,139.294,121.997,137.897,121.997"/>
	<path clip-path="url(#SVGID_2_)" d="M149.1,126.104c0,4.385,1.746,7.688,5.008,7.688c2.385,0,4.524-2.4,4.524-7.945
		c0-5.328-2.053-7.943-4.808-7.943S149.1,121.721,149.1,126.104 M150.928,126.104c0-3.782,0.782-6.85,3.161-6.85
		c2.377,0,3.656,3.067,3.656,6.85c0,3.783-1.279,6.851-3.656,6.851C152.396,132.955,150.928,129.888,150.928,126.104"/>
	<path clip-path="url(#SVGID_2_)" fill="#898989" d="M150.928,126.104c0,3.783,1.48,6.851,3.256,6.851
		c2.187,0,3.562-2.568,3.562-6.851c0-4.151-1.375-6.85-3.562-6.85S150.928,122.322,150.928,126.104 M152.022,126.104
		c0-3.172,0.873-5.742,2.499-5.742c1.211,0,2.343,2.446,2.343,5.617c0,3.173-1.007,5.684-2.329,5.684
		C152.909,131.663,152.022,128.719,152.022,126.104"/>
	<path clip-path="url(#SVGID_2_)" d="M154.184,133.355c-2.051,0-3.656-3.186-3.656-7.251c0-4.472,1.4-7.25,3.656-7.25
		c2.407,0,3.963,2.846,3.963,7.251C158.146,130.576,156.628,133.355,154.184,133.355 M154.184,119.655
		c-1.735,0-2.856,2.531-2.856,6.449c0,3.802,1.506,6.45,2.856,6.45c1.951,0,3.162-2.471,3.162-6.449
		C157.346,122.187,156.104,119.655,154.184,119.655 M154.535,132.063c-1.893,0-2.912-3.071-2.912-5.959
		c0-3.731,1.137-6.143,2.898-6.143c1.538,0,2.743,2.644,2.743,6.019C157.265,129.505,156.116,132.063,154.535,132.063
		 M154.521,120.763c-1.235,0-2.1,2.196-2.1,5.342c0,2.491,0.85,5.158,2.113,5.158c0.932,0,1.929-2.122,1.929-5.282
		C156.464,122.795,155.313,120.763,154.521,120.763"/>
	<path clip-path="url(#SVGID_2_)" fill="#A9D06B" d="M135.494,118.767v0.502l2.501,0.155c0,0,1.894,0.72,2.937,2.677
		c1.043,1.958,0.873,3.616,1.006,5.3c0.439,0.945,0.23,0.904,0.439,0.945c0,0,0.438-3.539-0.954-6.674
		C140.354,119.27,138.023,118.767,135.494,118.767"/>
	<path clip-path="url(#SVGID_2_)" d="M142.377,128.746c-0.025,0-0.052-0.003-0.076-0.008c-0.257-0.051-0.377-0.166-0.444-0.427
		c-0.025-0.099-0.078-0.303-0.282-0.742c-0.02-0.043-0.032-0.09-0.036-0.138c-0.026-0.344-0.042-0.686-0.057-1.03
		c-0.058-1.352-0.112-2.629-0.903-4.112c-0.862-1.62-2.377-2.341-2.675-2.47l-2.434-0.151c-0.211-0.014-0.375-0.188-0.375-0.4
		v-0.501c0-0.221,0.179-0.4,0.399-0.4c2.279,0,5.056,0.357,6.294,3.145c1.421,3.197,1.005,6.735,0.986,6.884
		c-0.014,0.11-0.072,0.21-0.163,0.275C142.543,128.72,142.46,128.746,142.377,128.746"/>
	<path clip-path="url(#SVGID_2_)" fill="#A9D06B" d="M156.97,120.257c0,0-1.148-1.686-2.862-1.686c-0.755,0-1.327,0.334-2.152,1.395
		c-1.052,1.352-1.344,3.202-1.477,3.653c-0.026,0.089-0.079,0.144-0.139,0.144h-1.19c-0.034,0-0.059-0.054-0.047-0.107
		c0.106-0.515,0.849-3.578,2.07-5.045c0.992-1.191,2.545-1.697,3.953-1.046c1.684,0.777,2.101,2.046,2.101,2.046L156.97,120.257z"/>
	<path clip-path="url(#SVGID_2_)" d="M150.341,124.163h-1.191c-0.121,0-0.265-0.071-0.341-0.164
		c-0.093-0.115-0.129-0.273-0.098-0.426c0.008-0.034,0.764-3.55,2.154-5.219c1.15-1.382,2.93-1.845,4.429-1.153
		c1.82,0.841,2.293,2.226,2.313,2.284c0.029,0.089,0.026,0.186-0.008,0.273l-0.256,0.646c-0.056,0.137-0.181,0.233-0.327,0.25
		c-0.148,0.009-0.292-0.05-0.375-0.172c-0.011-0.015-1.057-1.511-2.533-1.511c-0.552,0-1.03,0.203-1.836,1.239
		c-0.83,1.065-1.164,2.494-1.325,3.181c-0.034,0.146-0.061,0.263-0.084,0.34C150.785,123.994,150.581,124.163,150.341,124.163
		 M149.58,123.362h0.552c0.011-0.045,0.022-0.097,0.036-0.152c0.174-0.742,0.535-2.285,1.473-3.49
		c0.877-1.128,1.546-1.549,2.467-1.549c1.045,0,1.89,0.538,2.448,1.036c-0.27-0.38-0.758-0.892-1.598-1.279
		c-1.184-0.547-2.549-0.178-3.478,0.938C150.542,119.992,149.851,122.258,149.58,123.362"/>
	<path clip-path="url(#SVGID_2_)" fill="#D3EDFB" d="M158.117,120.001l-3.652,4.963l-0.261-0.036l-1.061-6.407l-0.15-0.359
		l-0.75-0.066l-0.211-0.571c0.231-0.192,0.63-0.384,1.175-0.536c1.354-0.377,2.536,0.051,3.622,0.997
		c0.636,0.556,1.122,1.421,1.296,1.756C158.165,119.816,158.161,119.932,158.117,120.001"/>
	<path clip-path="url(#SVGID_2_)" d="M154.466,125.365c-0.018,0-0.035-0.003-0.054-0.005l-0.261-0.035
		c-0.174-0.023-0.313-0.158-0.341-0.331l-1.084-6.455l-0.52-0.046c-0.153-0.014-0.286-0.115-0.34-0.26l-0.21-0.57
		c-0.058-0.159-0.011-0.337,0.119-0.445c0.288-0.241,0.745-0.454,1.322-0.615c1.403-0.392,2.71-0.038,3.994,1.081
		c0.681,0.594,1.197,1.507,1.388,1.871c0.105,0.206,0.095,0.471-0.025,0.66c-0.005,0.008-0.01,0.016-0.016,0.023l-3.651,4.963
		C154.712,125.304,154.593,125.365,154.466,125.365 M152.53,117.719l0.498,0.044c0.148,0.013,0.277,0.107,0.334,0.245l0.15,0.36
		l0.983,5.88l3.235-4.397c-0.192-0.359-0.626-1.094-1.165-1.563c-1.064-0.929-2.128-1.229-3.252-0.914
		c-0.316,0.088-0.593,0.195-0.798,0.308L152.53,117.719z"/>
	<path clip-path="url(#SVGID_2_)" d="M146.585,102.803h-9.89c-0.374,0-0.678-0.303-0.678-0.677v-0.476
		c0-0.374,0.304-0.677,0.678-0.677h9.89c0.374,0,0.677,0.303,0.677,0.677v0.476C147.262,102.5,146.959,102.803,146.585,102.803"/>
	<path clip-path="url(#SVGID_2_)" fill="#A9D06B" d="M139.561,121.321c0,0-0.965,6.119-1.03,6.546
		c-0.122,0.803,1.168,1.123,1.305,0.232c0.079-0.515,1.03-6.652,1.03-6.652c0.205-0.552-0.275-2.141-0.275-2.141l0.081-0.889
		l5.393,0.963l1.402,3.123c0,0-0.436,0.821-0.356,2.381c0.083,1.627,0.729,2.628,1.751,2.827c1.042,0.203,1.578-0.939,1.684-2.047
		c0,0,3.105,0.295,3.563,0.417c0.458,0.123,0.572-0.969,0.05-1.118c-0.604-0.172-3.566-0.448-3.566-0.448
		c0.018-1.801-0.798-2.557-0.798-2.557l0.895-6.292l1.303,3.1l1.075-0.378l-2.235-5.842l0.101-0.662l-1.586-0.525l-0.885,5.601
		l-7.485-1.511l0.568-6.375h-1.45l-0.924,10.221C139.078,119.757,139.711,120.91,139.561,121.321 M147.685,119.453l0.898,0.176
		l0.046,1.765L147.685,119.453z"/>
	<path clip-path="url(#SVGID_2_)" d="M139.234,129.034c-0.056,0-0.11-0.004-0.164-0.013c-0.538-0.081-1.034-0.559-0.936-1.215
		c0.065-0.426,1.031-6.548,1.031-6.548c0.004-0.022,0.009-0.046,0.017-0.067c0.022-0.126-0.112-0.542-0.192-0.79
		c-0.143-0.442-0.278-0.86-0.215-1.183l0.919-10.182c0.018-0.206,0.19-0.364,0.397-0.364h1.451c0.112,0,0.219,0.048,0.294,0.131
		c0.077,0.082,0.114,0.193,0.104,0.305l-0.536,6.02l6.725,1.357l0.82-5.188c0.018-0.116,0.087-0.218,0.187-0.279
		c0.102-0.061,0.222-0.075,0.334-0.038l1.586,0.524c0.186,0.062,0.299,0.247,0.271,0.44l-0.085,0.558l2.197,5.743
		c0.039,0.101,0.035,0.213-0.011,0.311c-0.045,0.098-0.128,0.174-0.229,0.209l-1.074,0.378c-0.2,0.072-0.419-0.026-0.501-0.222
		l-0.743-1.767l-0.666,4.679c0.244,0.309,0.704,1.052,0.769,2.317c0.833,0.081,2.771,0.281,3.284,0.428
		c0.546,0.155,0.732,0.803,0.591,1.314c-0.12,0.439-0.471,0.678-0.854,0.575c-0.279-0.074-1.924-0.252-3.117-0.369
		c-0.099,0.538-0.338,1.311-0.917,1.743c-0.343,0.255-0.754,0.346-1.186,0.262c-1.228-0.239-1.983-1.405-2.073-3.199
		c-0.063-1.236,0.182-2.051,0.317-2.398l-1.243-2.77l-4.756-0.849l-0.034,0.379c0.14,0.476,0.467,1.724,0.245,2.317
		c0.008,0.002-0.932,6.063-1.01,6.575C140.14,128.754,139.686,129.034,139.234,129.034 M139.951,121.414
		c-0.072,0.462-0.963,6.105-1.025,6.514c-0.038,0.254,0.262,0.303,0.265,0.303c0.223,0.032,0.239-0.123,0.249-0.191
		c0.078-0.515,1.03-6.654,1.03-6.654c0.115-0.331-0.05-1.256-0.263-1.961c-0.016-0.05-0.021-0.102-0.017-0.152l0.081-0.89
		c0.011-0.111,0.067-0.214,0.156-0.282c0.089-0.067,0.203-0.094,0.313-0.075l5.393,0.963c0.13,0.023,0.24,0.109,0.294,0.229
		l1.402,3.123c0.051,0.112,0.047,0.242-0.011,0.352c-0.003,0.005-0.382,0.763-0.311,2.173c0.042,0.821,0.282,2.231,1.428,2.455
		c0.216,0.043,0.393,0.005,0.555-0.117c0.336-0.251,0.587-0.854,0.654-1.576c0.011-0.105,0.063-0.202,0.144-0.271
		c0.083-0.067,0.189-0.099,0.293-0.09c0.3,0.029,2.796,0.269,3.508,0.403c0.011-0.048,0.018-0.117,0.007-0.192
		c-0.013-0.086-0.044-0.124-0.05-0.129c-0.466-0.132-2.68-0.357-3.494-0.434c-0.207-0.02-0.364-0.194-0.362-0.402
		c0.016-1.576-0.645-2.235-0.673-2.263c-0.093-0.089-0.139-0.22-0.121-0.347l0.896-6.293c0.024-0.178,0.167-0.317,0.345-0.34
		c0.183-0.024,0.351,0.076,0.42,0.241l1.157,2.754l0.331-0.117l-2.089-5.457c-0.025-0.065-0.032-0.135-0.022-0.204l0.051-0.328
		l-0.818-0.271l-0.812,5.135c-0.018,0.107-0.077,0.204-0.167,0.266s-0.198,0.085-0.308,0.064l-7.485-1.511
		c-0.199-0.041-0.337-0.225-0.318-0.428l0.529-5.94h-0.647l-0.893,9.857c-0.027,0.162,0.105,0.576,0.187,0.824
		C139.911,120.647,140.049,121.077,139.951,121.414 M148.629,121.794c-0.15,0-0.292-0.085-0.36-0.226l-0.943-1.94
		c-0.067-0.136-0.05-0.299,0.043-0.419c0.092-0.12,0.245-0.176,0.393-0.148l0.899,0.176c0.184,0.036,0.317,0.195,0.322,0.382
		l0.047,1.765c0.005,0.188-0.122,0.354-0.306,0.399C148.691,121.79,148.66,121.794,148.629,121.794"/>
	<polygon clip-path="url(#SVGID_2_)" fill="#FFFFFF" points="133.76,105.862 145.115,105.862 146.978,106.854 146.299,113.18 
		144.516,113.18 135.482,112.987 134.49,112.548 	"/>
	<path clip-path="url(#SVGID_2_)" d="M146.299,113.429h-1.782l-9.039-0.191c-0.033-0.001-0.066-0.008-0.096-0.021l-0.993-0.44
		c-0.081-0.036-0.138-0.113-0.147-0.201l-0.729-6.685c-0.008-0.071,0.015-0.142,0.062-0.194c0.049-0.053,0.115-0.083,0.187-0.083
		h11.355c0.041,0,0.081,0.01,0.117,0.029l1.863,0.992c0.089,0.048,0.141,0.146,0.131,0.247l-0.679,6.324
		C146.533,113.332,146.427,113.429,146.299,113.429 M135.539,112.738l8.982,0.19h1.553l0.637-5.933l-1.658-0.884h-11.014
		l0.684,6.265L135.539,112.738z"/>
	<path clip-path="url(#SVGID_2_)" d="M144.517,113.429c-0.007,0-0.014,0-0.021-0.001c-0.138-0.011-0.239-0.132-0.229-0.27l0.6-7.316
		c0.012-0.138,0.139-0.245,0.27-0.229c0.138,0.011,0.24,0.132,0.229,0.27l-0.599,7.317
		C144.755,113.33,144.645,113.429,144.517,113.429"/>
	<path clip-path="url(#SVGID_2_)" d="M145.277,107.287h-11.303c-0.138,0-0.25-0.112-0.25-0.25s0.112-0.25,0.25-0.25h11.303
		c0.138,0,0.25,0.112,0.25,0.25S145.415,107.287,145.277,107.287"/>
	<path clip-path="url(#SVGID_2_)" d="M145.115,108.473h-10.991c-0.138,0-0.25-0.112-0.25-0.25s0.112-0.25,0.25-0.25h10.991
		c0.138,0,0.25,0.112,0.25,0.25S145.253,108.473,145.115,108.473"/>
	<path clip-path="url(#SVGID_2_)" d="M144.906,109.658h-10.6c-0.138,0-0.25-0.112-0.25-0.25s0.112-0.25,0.25-0.25h10.6
		c0.138,0,0.25,0.112,0.25,0.25S145.044,109.658,144.906,109.658"/>
	<path clip-path="url(#SVGID_2_)" d="M144.707,110.843h-10.218c-0.138,0-0.25-0.112-0.25-0.25s0.112-0.25,0.25-0.25h10.218
		c0.139,0,0.25,0.112,0.25,0.25S144.846,110.843,144.707,110.843"/>
	<path clip-path="url(#SVGID_2_)" d="M144.516,112.028h-9.849c-0.138,0-0.25-0.112-0.25-0.25s0.112-0.25,0.25-0.25h9.849
		c0.139,0,0.25,0.112,0.25,0.25S144.654,112.028,144.516,112.028"/>
	<path clip-path="url(#SVGID_2_)" d="M145.497,113.237c-0.008,0-0.015,0-0.023-0.001c-0.138-0.013-0.238-0.134-0.227-0.271
		l0.598-6.604c0.013-0.138,0.134-0.239,0.272-0.227c0.137,0.013,0.238,0.134,0.226,0.271l-0.597,6.604
		C145.734,113.14,145.625,113.237,145.497,113.237"/>
	<path clip-path="url(#SVGID_2_)" d="M146.836,108.239c-0.044,0-0.09-0.012-0.13-0.037l-1.56-0.952
		c-0.117-0.071-0.154-0.226-0.083-0.343c0.072-0.118,0.227-0.156,0.344-0.083l1.559,0.952c0.118,0.071,0.155,0.226,0.083,0.343
		C147.002,108.196,146.92,108.239,146.836,108.239"/>
	<path clip-path="url(#SVGID_2_)" d="M146.731,109.392c-0.042,0-0.084-0.011-0.124-0.032l-1.615-0.919
		c-0.12-0.068-0.162-0.222-0.095-0.342c0.068-0.119,0.222-0.161,0.342-0.094l1.616,0.919c0.12,0.068,0.162,0.222,0.094,0.342
		C146.903,109.346,146.819,109.392,146.731,109.392"/>
	<path clip-path="url(#SVGID_2_)" d="M146.531,110.51c-0.04,0-0.079-0.009-0.116-0.028l-1.626-0.852
		c-0.122-0.064-0.169-0.216-0.104-0.338s0.216-0.17,0.338-0.105l1.625,0.852c0.122,0.064,0.17,0.216,0.105,0.338
		C146.708,110.461,146.621,110.51,146.531,110.51"/>
	<path clip-path="url(#SVGID_2_)" d="M146.501,111.551c-0.031,0-0.063-0.006-0.093-0.018l-1.793-0.708
		c-0.128-0.051-0.19-0.196-0.14-0.324c0.05-0.129,0.196-0.19,0.324-0.141l1.793,0.708c0.128,0.051,0.19,0.196,0.14,0.324
		C146.694,111.491,146.601,111.551,146.501,111.551"/>
	<path clip-path="url(#SVGID_2_)" d="M146.376,112.591c-0.024,0-0.048-0.003-0.072-0.011l-1.859-0.563
		c-0.133-0.04-0.207-0.18-0.167-0.312c0.039-0.133,0.181-0.209,0.311-0.167l1.86,0.563c0.133,0.04,0.207,0.18,0.167,0.312
		C146.583,112.521,146.483,112.591,146.376,112.591"/>
	<path clip-path="url(#SVGID_2_)" d="M143.159,113.237c-0.007,0-0.014,0-0.021-0.001c-0.139-0.012-0.24-0.132-0.229-0.27
		l0.597-7.125c0.013-0.139,0.137-0.233,0.271-0.229c0.138,0.012,0.24,0.132,0.228,0.271l-0.596,7.125
		C143.397,113.139,143.287,113.237,143.159,113.237"/>
	<path clip-path="url(#SVGID_2_)" d="M140.504,113.237h-0.015c-0.139-0.009-0.243-0.127-0.235-0.265l0.428-7.125
		c0.009-0.138,0.119-0.229,0.266-0.235c0.138,0.009,0.242,0.127,0.233,0.265l-0.427,7.125
		C140.746,113.135,140.635,113.237,140.504,113.237"/>
	<path clip-path="url(#SVGID_2_)" d="M139.215,113.237h-0.011c-0.137-0.006-0.245-0.122-0.239-0.26l0.274-7.125
		c0.006-0.135,0.117-0.24,0.25-0.24h0.01c0.139,0.006,0.246,0.122,0.24,0.26l-0.274,7.125
		C139.459,113.133,139.349,113.237,139.215,113.237"/>
	<path clip-path="url(#SVGID_2_)" d="M137.982,113.237c-0.138,0-0.25-0.112-0.25-0.25v-7.125c0-0.138,0.112-0.25,0.25-0.25
		s0.25,0.112,0.25,0.25v7.125C138.232,113.125,138.12,113.237,137.982,113.237"/>
	<path clip-path="url(#SVGID_2_)" d="M136.647,113.237c-0.139,0-0.25-0.112-0.25-0.25v-7.125c0-0.138,0.111-0.25,0.25-0.25
		c0.138,0,0.25,0.112,0.25,0.25v7.125C136.897,113.125,136.785,113.237,136.647,113.237"/>
	<path clip-path="url(#SVGID_2_)" d="M135.482,113.237c-0.132,0-0.241-0.103-0.25-0.236l-0.395-7.125
		c-0.007-0.138,0.098-0.256,0.236-0.264c0.141,0.003,0.256,0.098,0.263,0.236l0.396,7.125c0.008,0.138-0.098,0.256-0.235,0.264
		H135.482z"/>
	<path clip-path="url(#SVGID_2_)" d="M141.857,113.237c-0.007,0-0.013,0-0.02-0.001c-0.137-0.011-0.24-0.131-0.23-0.269l0.552-7.125
		c0.011-0.138,0.143-0.241,0.268-0.229c0.138,0.011,0.241,0.131,0.23,0.27l-0.551,7.125
		C142.097,113.138,141.987,113.237,141.857,113.237"/>
	<path clip-path="url(#SVGID_2_)" d="M150.057,124.666c0,1.048-0.405,1.896-0.905,1.896c-0.501,0-0.906-0.848-0.906-1.896
		c0-1.047,0.405-1.895,0.906-1.895C149.651,122.771,150.057,123.619,150.057,124.666"/>
	<path clip-path="url(#SVGID_2_)" fill="#FDEDDB" d="M147.556,98.882c0,0,1.733,0.586,2.221,1.449
		c0.488,0.864,0.319,1.798,0.282,2.217c-0.057,0.631-0.865,0.484-1.072,0.027c-0.424,0.669-0.882,0.537-1.075,0.03
		c-0.168,0.55-1.142,0.525-1.37-0.075c-0.239,0.475-1.219,0.52-1.289,0.072c-0.031-0.202-0.064-0.683-0.069-1.183l-0.848-0.037
		c0-1.635,0.695-2.155,0.695-2.155L147.556,98.882z"/>
	<path clip-path="url(#SVGID_2_)" d="M148.385,103.632c-0.034,0-0.065-0.002-0.094-0.005c-0.156-0.016-0.301-0.066-0.432-0.148
		c-0.157,0.072-0.335,0.114-0.523,0.12c-0.313,0.027-0.613-0.076-0.856-0.237c-0.298,0.139-0.64,0.182-0.936,0.134
		c-0.48-0.075-0.819-0.382-0.885-0.801c-0.024-0.157-0.046-0.413-0.061-0.699l-0.291-0.013c-0.32-0.015-0.573-0.278-0.573-0.6
		c0-1.881,0.842-2.565,0.938-2.637c0.081-0.061,0.177-0.101,0.278-0.114l2.524-0.345c0.092-0.013,0.187-0.002,0.273,0.026
		c0.2,0.067,1.967,0.69,2.551,1.723c0.533,0.941,0.428,1.91,0.371,2.43l-0.014,0.137c-0.045,0.499-0.378,0.872-0.849,0.952
		c-0.27,0.05-0.55-0.007-0.792-0.134C148.777,103.59,148.551,103.632,148.385,103.632 M146.544,101.922c0.011,0,0.021,0,0.033,0.001
		c0.237,0.012,0.44,0.171,0.524,0.394c0.015,0.038,0.063,0.059,0.09,0.068c0.08,0.025,0.155,0.014,0.176,0
		c0.073-0.245,0.28-0.394,0.537-0.402c0.249-0.015,0.429,0.134,0.533,0.334c0.014-0.019,0.027-0.04,0.042-0.063
		c0.117-0.187,0.335-0.292,0.549-0.277c0.188,0.013,0.356,0.113,0.459,0.269c0.043-0.419,0.086-1.056-0.233-1.619
		c-0.26-0.461-1.225-0.928-1.762-1.13l-2.171,0.297c-0.099,0.138-0.275,0.451-0.352,1.018l0.239,0.011
		c0.318,0.015,0.57,0.274,0.573,0.593c0.004,0.361,0.021,0.687,0.041,0.897c0.076-0.009,0.161-0.036,0.191-0.066
		C146.117,102.042,146.319,101.922,146.544,101.922"/>
	<path clip-path="url(#SVGID_2_)" d="M51.089,31.322v0.104v0.078v0.051c0,0.105,0.026,0.079,0.078,0.105
		c0.026-0.026,0.078-0.026,0.13-0.053c0.026-0.052,0.052-0.025,0.104-0.077c0.026-0.078,0.078-0.053,0.156-0.13
		c0.78-0.625,1.742-0.936,2.834-0.936c3.12,0,5.461,2.366,5.461,5.538v0.104v5.382v0.104c0,0.78-0.365,1.196-1.015,1.196
		c-0.676,0-0.936-0.338-0.936-1.248v-0.078v-4.577V36.73c0-2.054-0.39-2.912-1.69-3.744c-0.546-0.338-1.17-0.52-1.794-0.52
		c-1.456,0-2.807,1.04-3.146,2.418c-0.13,0.52-0.182,1.144-0.182,1.898v0.13l-0.026,4.68v0.182c0,0.65-0.39,1.066-0.962,1.066
		c-0.624,0-0.988-0.416-0.988-1.196v-0.052V26.746v-0.183c0-0.78,0.338-1.221,0.962-1.221c0.65,0,1.014,0.416,1.014,1.169v0.157
		V31.322z"/>
	
		<path clip-path="url(#SVGID_2_)" fill="none" stroke="#000000" stroke-width="0.5" stroke-linecap="round" stroke-linejoin="round" stroke-miterlimit="10" d="
		M51.089,31.322v0.104v0.078v0.051c0,0.105,0.026,0.079,0.078,0.105c0.026-0.026,0.078-0.026,0.13-0.053
		c0.026-0.052,0.052-0.025,0.104-0.077c0.026-0.078,0.078-0.053,0.156-0.13c0.78-0.625,1.742-0.936,2.834-0.936
		c3.12,0,5.461,2.366,5.461,5.538v0.104v5.382v0.104c0,0.78-0.365,1.196-1.015,1.196c-0.676,0-0.936-0.338-0.936-1.248v-0.078
		v-4.577V36.73c0-2.054-0.39-2.912-1.69-3.744c-0.546-0.338-1.17-0.52-1.794-0.52c-1.456,0-2.807,1.04-3.146,2.418
		c-0.13,0.52-0.182,1.144-0.182,1.898v0.13l-0.026,4.68v0.182c0,0.65-0.39,1.066-0.962,1.066c-0.624,0-0.988-0.416-0.988-1.196
		v-0.052V26.746v-0.183c0-0.78,0.338-1.221,0.962-1.221c0.65,0,1.014,0.416,1.014,1.169v0.157V31.322z"/>
	<path clip-path="url(#SVGID_2_)" d="M67.286,37.641h-0.182c-0.13,0.025-0.156,0.025-0.156,0.155
		c-0.025,1.586,1.639,3.095,3.38,3.095c0.91,0,1.69-0.287,2.471-0.937c0.286-0.233,0.441-0.286,0.727-0.286
		c0.546,0,0.91,0.364,0.91,0.936c0,0.338-0.103,0.572-0.467,0.858c-1.092,0.91-2.289,1.352-3.667,1.352
		c-3.198-0.026-5.434-2.444-5.434-6.005c0-1.093,0.208-2.471,0.494-3.199c0.702-1.846,2.809-3.198,4.992-3.198
		c3.017,0,5.435,2.418,5.435,5.46c0,1.378-0.338,1.742-1.534,1.742l-6.891,0.027H67.286z M73.24,35.664
		c0.442,0,0.494-0.026,0.494-0.208c0-1.586-1.638-3.12-3.38-3.12c-1.794,0-3.458,1.534-3.458,3.172c0,0.13,0.078,0.182,0.235,0.182
		h0.233L73.24,35.664z"/>
	
		<path clip-path="url(#SVGID_2_)" fill="none" stroke="#000000" stroke-width="0.5" stroke-linecap="round" stroke-linejoin="round" stroke-miterlimit="10" d="
		M67.286,37.641h-0.182c-0.13,0.025-0.156,0.025-0.156,0.155c-0.025,1.586,1.639,3.095,3.38,3.095c0.91,0,1.69-0.287,2.471-0.937
		c0.286-0.233,0.441-0.286,0.727-0.286c0.546,0,0.91,0.364,0.91,0.936c0,0.338-0.103,0.572-0.467,0.858
		c-1.092,0.91-2.289,1.352-3.667,1.352c-3.198-0.026-5.434-2.444-5.434-6.005c0-1.093,0.208-2.471,0.494-3.199
		c0.702-1.846,2.809-3.198,4.992-3.198c3.017,0,5.435,2.418,5.435,5.46c0,1.378-0.338,1.742-1.534,1.742l-6.891,0.027H67.286z
		 M73.24,35.664c0.442,0,0.494-0.026,0.494-0.208c0-1.586-1.638-3.12-3.38-3.12c-1.794,0-3.458,1.534-3.458,3.172
		c0,0.13,0.078,0.182,0.235,0.182h0.233L73.24,35.664z"/>
	<path clip-path="url(#SVGID_2_)" d="M95.557,37.641h-0.183c-0.13,0.025-0.156,0.025-0.156,0.155
		c-0.024,1.586,1.64,3.095,3.381,3.095c0.909,0,1.689-0.287,2.471-0.937c0.286-0.233,0.44-0.286,0.727-0.286
		c0.546,0,0.91,0.364,0.91,0.936c0,0.338-0.103,0.572-0.467,0.858c-1.092,0.91-2.289,1.352-3.667,1.352
		c-3.198-0.026-5.434-2.444-5.434-6.005c0-1.093,0.208-2.471,0.493-3.199c0.702-1.846,2.81-3.198,4.992-3.198
		c3.018,0,5.436,2.418,5.436,5.46c0,1.378-0.338,1.742-1.534,1.742l-6.892,0.027H95.557z M101.51,35.664
		c0.442,0,0.494-0.026,0.494-0.208c0-1.586-1.638-3.12-3.38-3.12c-1.794,0-3.458,1.534-3.458,3.172c0,0.13,0.078,0.182,0.235,0.182
		h0.232L101.51,35.664z"/>
	
		<path clip-path="url(#SVGID_2_)" fill="none" stroke="#000000" stroke-width="0.5" stroke-linecap="round" stroke-linejoin="round" stroke-miterlimit="10" d="
		M95.557,37.641h-0.183c-0.13,0.025-0.156,0.025-0.156,0.155c-0.024,1.586,1.64,3.095,3.381,3.095c0.909,0,1.689-0.287,2.471-0.937
		c0.286-0.233,0.44-0.286,0.727-0.286c0.546,0,0.91,0.364,0.91,0.936c0,0.338-0.103,0.572-0.467,0.858
		c-1.092,0.91-2.289,1.352-3.667,1.352c-3.198-0.026-5.434-2.444-5.434-6.005c0-1.093,0.208-2.471,0.493-3.199
		c0.702-1.846,2.81-3.198,4.992-3.198c3.018,0,5.436,2.418,5.436,5.46c0,1.378-0.338,1.742-1.534,1.742l-6.892,0.027H95.557z
		 M101.51,35.664c0.442,0,0.494-0.026,0.494-0.208c0-1.586-1.638-3.12-3.38-3.12c-1.794,0-3.458,1.534-3.458,3.172
		c0,0.13,0.078,0.182,0.235,0.182h0.232L101.51,35.664z"/>
	<path clip-path="url(#SVGID_2_)" d="M84.328,41.437v0.155c0,0.885-0.284,1.248-0.962,1.248c-0.676,0-0.986-0.363-0.986-1.195
		v-0.156v-9.387v-0.13c0-0.91,0.338-1.351,0.986-1.351c0.339,0,0.65,0.155,0.832,0.467c0.105,0.157,0.156,0.157,0.208,0.157
		c0.026,0,0.054,0,0.156-0.079c0.676-0.416,1.535-0.702,2.185-0.702c0.885,0,1.795,0.338,2.495,0.91c0.34,0.26,0.47,0.52,0.47,0.833
		c0,0.545-0.443,1.013-0.962,1.013c-0.184,0-0.286-0.052-0.572-0.233c-0.573-0.416-1.04-0.624-1.431-0.624
		c-1.509,0-2.419,1.143-2.419,3.015v0.157V41.437z"/>
	
		<path clip-path="url(#SVGID_2_)" fill="none" stroke="#000000" stroke-width="0.5" stroke-linecap="round" stroke-linejoin="round" stroke-miterlimit="10" d="
		M84.328,41.437v0.155c0,0.885-0.284,1.248-0.962,1.248c-0.676,0-0.986-0.363-0.986-1.195v-0.156v-9.387v-0.13
		c0-0.91,0.338-1.351,0.986-1.351c0.339,0,0.65,0.155,0.832,0.467c0.105,0.157,0.156,0.157,0.208,0.157c0.026,0,0.054,0,0.156-0.079
		c0.676-0.416,1.535-0.702,2.185-0.702c0.885,0,1.795,0.338,2.495,0.91c0.34,0.26,0.47,0.52,0.47,0.833
		c0,0.545-0.443,1.013-0.962,1.013c-0.184,0-0.286-0.052-0.572-0.233c-0.573-0.416-1.04-0.624-1.431-0.624
		c-1.509,0-2.419,1.143-2.419,3.015v0.157V41.437z"/>
	<path clip-path="url(#SVGID_2_)" d="M110.604,42.84c-0.65,0-1.118-0.441-1.118-1.065s0.494-1.119,1.144-1.119
		c0.624,0,1.118,0.495,1.118,1.092C111.747,42.399,111.253,42.84,110.604,42.84 M111.591,36.132v0.078
		c0,0.988-0.313,1.404-1.014,1.404c-0.676,0-0.988-0.364-0.988-1.221V36.21v-9.542v-0.104c0-0.703,0.391-1.119,1.015-1.119
		s0.987,0.416,0.987,1.119v0.104V36.132z"/>
	
		<path clip-path="url(#SVGID_2_)" fill="none" stroke="#000000" stroke-width="0.5" stroke-linecap="round" stroke-linejoin="round" stroke-miterlimit="10" d="
		M110.604,42.84c-0.65,0-1.118-0.441-1.118-1.065s0.494-1.119,1.144-1.119c0.624,0,1.118,0.495,1.118,1.092
		C111.747,42.399,111.253,42.84,110.604,42.84z M111.591,36.132v0.078c0,0.988-0.313,1.404-1.014,1.404
		c-0.676,0-0.988-0.364-0.988-1.221V36.21v-9.542v-0.104c0-0.703,0.391-1.119,1.015-1.119s0.987,0.416,0.987,1.119v0.104V36.132z"/>
</g>
</svg>
