<?xml version="1.0" encoding="utf-8"?>
<!-- Generator: Adobe Illustrator 15.0.0, SVG Export Plug-In . SVG Version: 6.00 Build 0)  -->
<!DOCTYPE svg PUBLIC "-//W3C//DTD SVG 1.1//EN" "http://www.w3.org/Graphics/SVG/1.1/DTD/svg11.dtd">
<svg version="1.1" id="レイヤー_1" xmlns="http://www.w3.org/2000/svg" xmlns:xlink="http://www.w3.org/1999/xlink" x="0px"
	 y="0px" width="174.483px" height="109.041px" viewBox="0 0 174.483 109.041" enable-background="new 0 0 174.483 109.041"
	 xml:space="preserve">
<g>
	<defs>
		<rect id="SVGID_1_" width="174.483" height="109.041"/>
	</defs>
	<clipPath id="SVGID_2_">
		<use xlink:href="#SVGID_1_"  overflow="visible"/>
	</clipPath>
	<path clip-path="url(#SVGID_2_)" fill="#E60012" d="M172.545,96.857c-0.216,0-0.416-0.141-0.479-0.359
		c-0.059-0.199,0.013-0.407,0.166-0.53c-0.158-0.117-0.238-0.322-0.187-0.524c0.066-0.267,0.331-0.431,0.607-0.362l1.454,0.368
		c0.218,0.056,0.372,0.25,0.376,0.476c0.005,0.225-0.142,0.426-0.357,0.488l-1.438,0.423
		C172.639,96.852,172.592,96.857,172.545,96.857"/>
	<path clip-path="url(#SVGID_2_)" fill="#E60012" d="M131.157,109.041c-0.059,0-0.116-0.011-0.172-0.03
		c-0.259-0.095-0.428-0.396-0.332-0.654c0.082-0.225,0.285-0.367,0.502-0.336l2.751-0.81c0.269-0.081,0.543,0.073,0.621,0.338
		s-0.073,0.543-0.338,0.621l-2.891,0.851C131.252,109.034,131.205,109.041,131.157,109.041 M128.19,107.952
		c-0.058,0-0.115-0.011-0.172-0.031l-2.897-1.064c-0.26-0.095-0.393-0.382-0.298-0.641c0.096-0.26,0.386-0.394,0.642-0.297
		l2.897,1.063c0.26,0.096,0.393,0.382,0.298,0.642C128.586,107.826,128.395,107.952,128.19,107.952 M137.009,107.318
		c-0.216,0-0.415-0.141-0.479-0.358c-0.078-0.266,0.073-0.543,0.338-0.621l2.962-0.872c0.267-0.08,0.543,0.073,0.621,0.338
		s-0.073,0.543-0.338,0.621l-2.962,0.872C137.103,107.312,137.056,107.318,137.009,107.318 M122.396,105.823
		c-0.058,0-0.115-0.01-0.173-0.03l-2.898-1.064c-0.259-0.095-0.392-0.382-0.297-0.642c0.096-0.259,0.382-0.392,0.643-0.297
		l2.898,1.064c0.259,0.096,0.392,0.382,0.297,0.642C122.791,105.698,122.6,105.823,122.396,105.823 M142.932,105.575
		c-0.216,0-0.416-0.142-0.479-0.359c-0.078-0.265,0.073-0.543,0.338-0.62l2.961-0.872c0.27-0.08,0.544,0.073,0.621,0.338
		c0.078,0.266-0.073,0.543-0.338,0.621l-2.961,0.872C143.025,105.568,142.979,105.575,142.932,105.575 M148.854,103.831
		c-0.216,0-0.416-0.142-0.479-0.359c-0.078-0.264,0.073-0.542,0.338-0.62l2.961-0.872c0.269-0.079,0.544,0.074,0.621,0.339
		c0.078,0.265-0.073,0.543-0.338,0.62l-2.961,0.872C148.948,103.825,148.901,103.831,148.854,103.831 M116.6,103.695
		c-0.058,0-0.115-0.01-0.172-0.03l-2.897-1.064c-0.26-0.095-0.393-0.382-0.298-0.642c0.096-0.259,0.386-0.393,0.642-0.297
		l2.897,1.063c0.26,0.096,0.393,0.383,0.298,0.643C116.995,103.569,116.804,103.695,116.6,103.695 M154.776,102.088
		c-0.216,0-0.415-0.142-0.479-0.359c-0.078-0.264,0.073-0.543,0.338-0.62l2.962-0.872c0.267-0.078,0.542,0.073,0.621,0.339
		c0.078,0.265-0.073,0.543-0.338,0.62l-2.962,0.872C154.87,102.082,154.823,102.088,154.776,102.088 M110.805,101.567
		c-0.058,0-0.115-0.01-0.172-0.03l-2.898-1.064c-0.26-0.095-0.393-0.382-0.298-0.642c0.096-0.259,0.386-0.392,0.642-0.297
		l2.898,1.063c0.26,0.096,0.393,0.383,0.298,0.642C111.2,101.441,111.009,101.567,110.805,101.567 M160.699,100.345
		c-0.216,0-0.416-0.142-0.479-0.359c-0.077-0.265,0.073-0.543,0.338-0.621l2.961-0.871c0.27-0.078,0.544,0.073,0.621,0.339
		c0.078,0.265-0.073,0.543-0.338,0.62l-2.961,0.871C160.793,100.338,160.746,100.345,160.699,100.345 M105.009,99.439
		c-0.058,0-0.115-0.01-0.173-0.03l-2.897-1.064c-0.259-0.096-0.392-0.383-0.296-0.642c0.096-0.26,0.38-0.393,0.642-0.298
		l2.897,1.065c0.259,0.095,0.392,0.382,0.297,0.641C105.403,99.313,105.213,99.439,105.009,99.439 M166.622,98.601
		c-0.216,0-0.416-0.141-0.479-0.358c-0.079-0.266,0.072-0.544,0.337-0.621l2.961-0.871c0.268-0.078,0.544,0.072,0.621,0.338
		c0.078,0.265-0.073,0.543-0.338,0.621l-2.961,0.871C166.716,98.595,166.669,98.601,166.622,98.601 M99.213,97.311
		c-0.058,0-0.115-0.009-0.172-0.03l-2.897-1.063c-0.26-0.096-0.393-0.383-0.298-0.642c0.096-0.26,0.386-0.393,0.642-0.298
		l2.897,1.064c0.26,0.095,0.393,0.382,0.298,0.642C99.608,97.186,99.417,97.311,99.213,97.311 M93.418,95.183
		c-0.058,0-0.115-0.009-0.172-0.03l-2.897-1.063c-0.26-0.096-0.393-0.383-0.298-0.643c0.096-0.259,0.385-0.392,0.642-0.297
		l2.897,1.064c0.26,0.095,0.393,0.383,0.298,0.642C93.813,95.058,93.622,95.183,93.418,95.183 M87.622,93.055
		c-0.058,0-0.115-0.01-0.172-0.031l-2.897-1.063c-0.26-0.096-0.393-0.382-0.298-0.642c0.096-0.259,0.386-0.391,0.641-0.297
		l2.898,1.064c0.26,0.095,0.393,0.382,0.298,0.641C88.019,92.93,87.826,93.055,87.622,93.055"/>
	<path clip-path="url(#SVGID_2_)" fill="#E60012" d="M81.827,90.927c-0.058,0-0.115-0.01-0.172-0.03l-1.408-0.518
		c-0.214-0.078-0.348-0.29-0.326-0.517s0.193-0.409,0.418-0.446l1.48-0.24c0.27-0.042,0.529,0.141,0.573,0.414
		c0.033,0.195-0.053,0.383-0.206,0.489c0.129,0.134,0.179,0.334,0.111,0.521C82.223,90.802,82.031,90.927,81.827,90.927"/>
	<path clip-path="url(#SVGID_2_)" fill="#E60012" d="M169.63,95.332c-0.04,0-0.081-0.005-0.123-0.015l-2.9-0.733
		c-0.268-0.067-0.43-0.34-0.361-0.607c0.066-0.268,0.33-0.431,0.607-0.362l2.9,0.733c0.268,0.067,0.43,0.34,0.361,0.607
		C170.058,95.182,169.854,95.332,169.63,95.332 M163.83,93.865c-0.04,0-0.081-0.004-0.123-0.015l-2.9-0.733
		c-0.268-0.068-0.43-0.34-0.361-0.607c0.066-0.268,0.329-0.43,0.607-0.362l2.9,0.733c0.267,0.067,0.43,0.34,0.361,0.607
		C164.258,93.715,164.055,93.865,163.83,93.865 M158.03,92.399c-0.04,0-0.081-0.005-0.123-0.016l-2.9-0.733
		c-0.268-0.068-0.43-0.34-0.361-0.607c0.066-0.267,0.328-0.43,0.607-0.362l2.9,0.733c0.268,0.068,0.43,0.34,0.361,0.607
		C158.458,92.248,158.254,92.399,158.03,92.399 M152.23,90.933c-0.04,0-0.081-0.005-0.123-0.016l-2.9-0.733
		c-0.268-0.068-0.43-0.34-0.362-0.607c0.067-0.267,0.332-0.432,0.608-0.362l2.9,0.733c0.268,0.068,0.43,0.34,0.361,0.607
		C152.658,90.781,152.454,90.933,152.23,90.933 M84.851,89.691c-0.24,0-0.453-0.175-0.492-0.42c-0.045-0.273,0.141-0.53,0.413-0.574
		l2.954-0.479c0.27-0.046,0.529,0.14,0.573,0.413c0.045,0.272-0.141,0.529-0.413,0.573l-2.954,0.479
		C84.905,89.689,84.879,89.691,84.851,89.691 M146.431,89.465c-0.04,0-0.081-0.005-0.123-0.015l-2.9-0.733
		c-0.268-0.067-0.43-0.34-0.361-0.607c0.066-0.267,0.33-0.432,0.607-0.362l2.901,0.733c0.267,0.067,0.429,0.34,0.36,0.607
		C146.858,89.314,146.654,89.465,146.431,89.465 M90.757,88.733c-0.24,0-0.452-0.174-0.492-0.42
		c-0.045-0.272,0.141-0.529,0.413-0.574l2.953-0.479c0.27-0.043,0.529,0.141,0.573,0.413c0.045,0.272-0.141,0.529-0.413,0.574
		l-2.953,0.479C90.811,88.731,90.784,88.733,90.757,88.733 M140.631,87.998c-0.04,0-0.081-0.005-0.123-0.015l-2.9-0.733
		c-0.268-0.067-0.43-0.34-0.361-0.607c0.066-0.268,0.329-0.432,0.607-0.362l2.9,0.733c0.268,0.067,0.43,0.34,0.361,0.607
		C141.059,87.848,140.854,87.998,140.631,87.998 M96.662,87.776c-0.24,0-0.453-0.175-0.492-0.42
		c-0.045-0.273,0.141-0.53,0.413-0.574l2.953-0.479c0.266-0.041,0.53,0.14,0.573,0.413c0.045,0.272-0.141,0.529-0.413,0.573
		l-2.953,0.479C96.716,87.774,96.689,87.776,96.662,87.776 M102.567,86.818c-0.24,0-0.453-0.174-0.492-0.42
		c-0.045-0.272,0.141-0.529,0.413-0.574l2.953-0.479c0.266-0.044,0.53,0.14,0.573,0.414c0.045,0.271-0.141,0.528-0.413,0.573
		l-2.953,0.479C102.621,86.816,102.595,86.818,102.567,86.818 M134.831,86.531c-0.04,0-0.081-0.004-0.123-0.015l-2.9-0.733
		c-0.268-0.068-0.43-0.34-0.361-0.607c0.065-0.268,0.331-0.431,0.608-0.362l2.899,0.733c0.267,0.067,0.43,0.34,0.361,0.607
		C135.259,86.381,135.055,86.531,134.831,86.531 M108.473,85.86c-0.24,0-0.453-0.174-0.492-0.42
		c-0.045-0.272,0.141-0.529,0.413-0.574l2.953-0.478c0.267-0.042,0.53,0.14,0.573,0.413c0.045,0.272-0.141,0.529-0.413,0.573
		l-2.952,0.479C108.526,85.858,108.5,85.86,108.473,85.86 M129.031,85.065c-0.04,0-0.081-0.005-0.123-0.017l-2.9-0.732
		c-0.268-0.068-0.43-0.34-0.361-0.607c0.066-0.268,0.33-0.431,0.607-0.362l2.9,0.733c0.268,0.068,0.43,0.34,0.361,0.607
		C129.459,84.914,129.255,85.065,129.031,85.065 M114.378,84.903c-0.241,0-0.453-0.175-0.492-0.42
		c-0.045-0.273,0.141-0.53,0.413-0.574l2.953-0.479c0.268-0.045,0.529,0.14,0.573,0.414c0.045,0.271-0.141,0.528-0.413,0.573
		l-2.953,0.479C114.432,84.901,114.405,84.903,114.378,84.903 M120.283,83.945c-0.24,0-0.453-0.174-0.492-0.42
		c-0.045-0.272,0.141-0.529,0.413-0.574l2.632-0.426c0.066-0.012,0.136-0.009,0.202,0.008l0.315,0.08
		c0.268,0.067,0.431,0.339,0.362,0.607c-0.067,0.267-0.337,0.429-0.606,0.362l-0.216-0.055l-2.529,0.411
		C120.337,83.943,120.311,83.945,120.283,83.945"/>
	<polygon clip-path="url(#SVGID_2_)" fill="#DCDDDD" points="64.071,73.262 64.071,79.255 107.037,73.281 107.037,68.575 	"/>
	<path clip-path="url(#SVGID_2_)" d="M64.071,79.755c-0.12,0-0.236-0.043-0.328-0.123c-0.109-0.095-0.172-0.232-0.172-0.377v-5.993
		c0-0.256,0.192-0.469,0.445-0.497l42.966-4.688c0.148-0.015,0.283,0.03,0.389,0.125c0.105,0.096,0.166,0.23,0.166,0.372v4.707
		c0,0.249-0.184,0.461-0.431,0.495L64.14,79.751C64.117,79.754,64.093,79.755,64.071,79.755 M64.571,73.71v4.971l41.966-5.834
		v-3.714L64.571,73.71z"/>
	<polygon clip-path="url(#SVGID_2_)" fill="#DCDDDD" points="54.908,73.787 59.165,75.276 59.165,77.467 64.072,79.255 
		64.072,73.261 54.908,70.458 	"/>
	<path clip-path="url(#SVGID_2_)" d="M64.071,79.755c-0.057,0-0.115-0.01-0.171-0.03l-4.906-1.788
		c-0.197-0.072-0.329-0.26-0.329-0.47v-1.835l-3.923-1.372c-0.2-0.071-0.335-0.26-0.335-0.473v-3.329
		c0-0.158,0.075-0.308,0.202-0.402c0.128-0.094,0.292-0.123,0.445-0.076l9.164,2.805c0.21,0.063,0.353,0.258,0.353,0.478v5.993
		c0,0.163-0.08,0.315-0.213,0.41C64.272,79.724,64.173,79.755,64.071,79.755 M59.665,77.117l3.906,1.424v-4.909l-8.164-2.498v2.298
		l3.923,1.372c0.2,0.071,0.335,0.26,0.335,0.473V77.117z"/>
	<polygon clip-path="url(#SVGID_2_)" fill="#DCDDDD" points="54.908,70.458 98.014,66.648 107.038,68.575 64.072,73.262 	"/>
	<path clip-path="url(#SVGID_2_)" d="M64.071,73.762c-0.049,0-0.098-0.008-0.146-0.022l-9.164-2.803
		c-0.229-0.07-0.376-0.292-0.351-0.531c0.025-0.236,0.215-0.425,0.453-0.445l43.107-3.81c0.049-0.006,0.1-0.002,0.148,0.009
		l9.023,1.927c0.24,0.052,0.407,0.27,0.395,0.515c-0.012,0.245-0.201,0.444-0.444,0.471l-42.966,4.688
		C64.108,73.761,64.089,73.762,64.071,73.762 M57.507,70.73l6.612,2.022l39.774-4.339l-5.91-1.261L57.507,70.73z"/>
	<path clip-path="url(#SVGID_2_)" d="M8.081,57.29l-0.179,3.104l47.006,12.429l5.221-1.752l44.28-4.511l-4.066-5.203l-88.997-6.919
		C9.651,54.306,8.179,55.593,8.081,57.29"/>
	<path clip-path="url(#SVGID_2_)" d="M54.907,73.323c-0.043,0-0.086-0.006-0.128-0.017L7.775,60.878
		c-0.23-0.061-0.385-0.275-0.371-0.513l0.178-3.104c0.055-0.956,0.483-1.83,1.204-2.46c0.722-0.63,1.643-0.938,2.6-0.862
		l88.996,6.919c0.14,0.011,0.269,0.08,0.354,0.191l4.066,5.203c0.112,0.143,0.138,0.337,0.066,0.504
		c-0.071,0.168-0.229,0.283-0.409,0.301l-44.224,4.505l-5.169,1.735C55.015,73.314,54.961,73.323,54.907,73.323 M8.425,60.016
		l46.466,12.286l5.079-1.704c0.035-0.012,0.071-0.021,0.108-0.024l43.38-4.419l-3.374-4.315l-88.776-6.902
		c-0.685-0.055-1.346,0.165-1.864,0.619c-0.517,0.451-0.824,1.078-0.864,1.763L8.425,60.016z"/>
	<path clip-path="url(#SVGID_2_)" fill="#FFFFFF" d="M12.695,30.731l-3.074,0.964c-0.923,0.289-1.618,1.055-1.818,2.001
		L4.612,46.609c-0.266,1.258-0.399,2.539-0.399,3.824v8.268c0,0.466,0.287,0.883,0.722,1.047l2.109,1.167
		c0.388,0.147,0.81-0.109,0.858-0.521l0.522-4.438c0.117-0.994,1.004-1.712,2-1.623l1.508,0.137c0.41,0.038,0.763-0.285,0.763-0.696
		V30.731z"/>
	<path clip-path="url(#SVGID_2_)" d="M7.271,61.457c-0.137,0-0.273-0.023-0.405-0.075l-2.174-1.195
		c-0.56-0.208-0.979-0.816-0.979-1.484v-8.269c0-1.315,0.137-2.636,0.409-3.926l3.195-12.93c0.233-1.105,1.061-2.016,2.154-2.359
		l3.075-0.964c0.152-0.049,0.317-0.02,0.445,0.075c0.128,0.094,0.204,0.243,0.204,0.402v23.044c0,0.336-0.143,0.659-0.391,0.886
		c-0.249,0.227-0.585,0.334-0.918,0.309l-1.506-0.137c-0.732-0.066-1.373,0.452-1.458,1.182l-0.524,4.438
		c-0.041,0.351-0.238,0.656-0.54,0.839C7.677,61.402,7.475,61.457,7.271,61.457 M12.195,31.412l-2.425,0.76
		c-0.749,0.236-1.316,0.859-1.478,1.628L5.096,46.73c-0.253,1.205-0.383,2.457-0.383,3.703v8.269c0,0.255,0.16,0.489,0.399,0.58
		l2.174,1.195c-0.013-0.011,0.028-0.024,0.055-0.04c0.021-0.014,0.058-0.044,0.065-0.103l0.522-4.437
		c0.149-1.271,1.27-2.18,2.541-2.062l1.507,0.137c0.083,0.01,0.129-0.029,0.154-0.052c0.024-0.022,0.065-0.071,0.065-0.147V31.412z"
		/>
	<path clip-path="url(#SVGID_2_)" fill="#FFFFFF" d="M11.412,32.661v10.796l-2.224,0.05l-2.205,4.906H5.582l3.424-14.224
		c0.113-0.472,0.459-0.854,0.918-1.013L11.412,32.661z"/>
	<path clip-path="url(#SVGID_2_)" d="M6.984,48.913H5.581c-0.153,0-0.298-0.07-0.392-0.19c-0.095-0.121-0.129-0.278-0.094-0.427
		L8.52,34.072c0.153-0.64,0.617-1.152,1.24-1.368l1.489-0.516c0.152-0.053,0.321-0.028,0.453,0.066
		c0.132,0.094,0.21,0.245,0.21,0.407v10.795c0,0.272-0.217,0.494-0.488,0.5l-1.909,0.043L7.44,48.618
		C7.359,48.796,7.181,48.913,6.984,48.913 M6.216,47.913H6.66l2.072-4.611c0.079-0.176,0.252-0.291,0.444-0.295l1.736-0.039v-9.605
		l-0.825,0.286c-0.299,0.103-0.521,0.349-0.595,0.657L6.216,47.913z"/>
	<path clip-path="url(#SVGID_2_)" fill="#FFFFFF" d="M1.243,39.739h1.579c0.411,0,0.744,0.333,0.744,0.744v3.623
		c0,0.41-0.333,0.743-0.744,0.743H1.243c-0.411,0-0.744-0.333-0.744-0.743v-3.623C0.5,40.072,0.833,39.739,1.243,39.739"/>
	<path clip-path="url(#SVGID_2_)" d="M2.823,45.349h-1.58C0.557,45.349,0,44.791,0,44.106v-3.624c0-0.685,0.557-1.243,1.243-1.243
		h1.58c0.686,0,1.243,0.558,1.243,1.243v3.624C4.066,44.791,3.509,45.349,2.823,45.349 M1.243,40.239
		C1.109,40.239,1,40.348,1,40.482v3.624c0,0.134,0.109,0.243,0.243,0.243h1.58c0.134,0,0.243-0.109,0.243-0.243v-3.624
		c0-0.134-0.109-0.243-0.243-0.243H1.243z"/>
	<path clip-path="url(#SVGID_2_)" d="M2.511,46.992c-0.126,0-0.227-0.023-0.296-0.047c-0.42-0.14-0.682-0.562-0.682-1.1v-0.996
		c0-0.276,0.224-0.5,0.5-0.5c0.277,0,0.5,0.224,0.5,0.5v0.996c0,0.127,0.034,0.173,0.034,0.173c-0.004-0.025,0.195-0.109,0.47-0.474
		c0.095-0.126,0.243-0.199,0.4-0.199h1.364c0.276,0,0.5,0.223,0.5,0.5c0,0.276-0.224,0.5-0.5,0.5H3.675
		C3.215,46.87,2.799,46.992,2.511,46.992"/>
	<path clip-path="url(#SVGID_2_)" d="M15.389,56.444c-0.071-0.036-0.149-0.056-0.229-0.056h-3.508c-2.183,0-3.893,3.188-3.893,7.257
		c0,4.032,1.672,7.074,3.94,7.074h0.002l3.626-0.362c0.399-0.059,0.766-0.243,1.064-0.536c0.481-0.475,2.053-2.343,2.053-6.503
		C18.444,58.085,15.514,56.509,15.389,56.444"/>
	<path clip-path="url(#SVGID_2_)" d="M45.195,59.792c-0.545-0.404-1.191-0.603-1.861-0.604l-4.578,0.063
		c-3.229,0-5.573,4.305-5.573,10.236c0,5.948,2.669,10.267,6.4,10.266h0.003l5.705-0.607c0.431-0.051,0.829-0.234,1.149-0.528
		c1.295-1.188,2.806-4.413,2.806-9.588C49.246,63.603,46.708,60.912,45.195,59.792"/>
	<path clip-path="url(#SVGID_2_)" fill="#FFFFFF" d="M12.453,63.534c0,2.091-0.667,3.785-1.49,3.785
		c-0.823,0-1.491-1.694-1.491-3.785s0.668-3.785,1.491-3.785C11.786,59.749,12.453,61.443,12.453,63.534"/>
	<path clip-path="url(#SVGID_2_)" d="M10.963,67.819c-1.308,0-1.991-2.155-1.991-4.285c0-2.129,0.683-4.285,1.991-4.285
		c1.307,0,1.99,2.156,1.99,4.285C12.953,65.664,12.27,67.819,10.963,67.819 M10.963,60.249c-0.297,0-0.991,1.118-0.991,3.285
		c0,2.168,0.694,3.285,0.991,3.285c0.287,0,0.99-1.151,0.99-3.285S11.25,60.249,10.963,60.249"/>
	<path clip-path="url(#SVGID_2_)" fill="#FFFFFF" d="M39.726,69.657c0,3.185-1.013,5.766-2.262,5.766s-2.262-2.581-2.262-5.766
		c0-3.184,1.013-5.765,2.262-5.765S39.726,66.474,39.726,69.657"/>
	<path clip-path="url(#SVGID_2_)" d="M37.464,75.923c-1.795,0-2.763-3.229-2.763-6.266c0-3.036,0.968-6.265,2.763-6.265
		c1.794,0,2.762,3.229,2.762,6.265C40.226,72.694,39.258,75.923,37.464,75.923 M37.464,64.393c-0.719,0-1.763,2.051-1.763,5.265
		c0,3.215,1.044,5.266,1.763,5.266c0.719,0,1.762-2.051,1.762-5.266C39.226,66.443,38.183,64.393,37.464,64.393"/>
	<polygon clip-path="url(#SVGID_2_)" fill="#DCDDDD" points="12.695,56.566 60.678,65.376 60.678,0.75 12.695,12.644 	"/>
	<polygon clip-path="url(#SVGID_2_)" fill="#DCDDDD" points="105.903,62.484 60.679,65.375 60.679,0.75 105.903,3.076 	"/>
	<polygon clip-path="url(#SVGID_2_)" fill="#DCDDDD" points="133.528,65.551 105.903,62.483 105.903,3.076 133.528,0.75 	"/>
	<path clip-path="url(#SVGID_2_)" d="M105.904,63.234c-0.019,0-0.038,0-0.057-0.003L85.5,61.705
		c-0.413-0.031-0.724-0.392-0.693-0.804c0.032-0.413,0.397-0.724,0.804-0.692l20.349,1.527c0.413,0.03,0.724,0.391,0.692,0.804
		C106.622,62.934,106.293,63.234,105.904,63.234"/>
	<path clip-path="url(#SVGID_2_)" d="M134.036,0.198c-0.155-0.142-0.358-0.211-0.571-0.195L105.89,2.325L60.715,0.001
		C60.675,0,60.637,0.015,60.597,0.02c-0.034,0.004-0.067-0.006-0.1,0.002L12.514,11.916c-0.334,0.083-0.569,0.383-0.569,0.728
		v43.923c0,0.361,0.259,0.672,0.614,0.737l47.983,8.809c0.045,0.009,0.09,0.013,0.135,0.013c0.016,0,0.033-0.001,0.048-0.002
		l45.161-2.887l27.56,3.059c0.028,0.003,0.056,0.005,0.083,0.005c0.184,0,0.362-0.066,0.5-0.191c0.159-0.143,0.25-0.346,0.25-0.559
		V0.75C134.278,0.54,134.19,0.34,134.036,0.198 M59.927,64.475l-46.482-8.532V13.231L59.927,1.709V64.475z M85.76,63.004V5.789
		l19.393-1.886V61.78l-19.396,1.24C85.757,63.015,85.76,63.01,85.76,63.004 M85.76,4.281v-1.49l10.023,0.516L85.76,4.281z
		 M61.427,1.54L84.26,2.714v60.29c0,0.039,0.017,0.073,0.023,0.111l-22.856,1.461V1.54z M132.778,64.713l-26.125-2.9V3.766
		l26.125-2.2V64.713z"/>
	<path clip-path="url(#SVGID_2_)" fill="#E8373D" d="M113.335,53.088l-2.944-11.437c0,0-0.45,2.016-1.259,3.599
		c-6.532-6.669-21.658-8.801-21.658-8.801c12.93,3.369,16.571,8.524,18.495,10.589c-1.279,0.551-5.088,0.687-5.088,0.687
		L113.335,53.088z"/>
	<path clip-path="url(#SVGID_2_)" d="M113.335,53.588c-0.066,0-0.134-0.013-0.197-0.041l-12.454-5.362
		c-0.215-0.093-0.337-0.322-0.294-0.552s0.239-0.399,0.474-0.407c0.845-0.031,2.938-0.162,4.205-0.44
		c-0.005-0.006-0.011-0.012-0.016-0.018c-2.111-2.375-6.04-6.795-17.705-9.835c-0.257-0.067-0.417-0.322-0.364-0.582
		c0.051-0.26,0.297-0.438,0.56-0.397c0.609,0.086,14.637,2.127,21.434,8.447c0.59-1.371,0.922-2.842,0.926-2.858
		c0.051-0.226,0.249-0.388,0.48-0.391c0.215,0.017,0.435,0.151,0.492,0.375l2.944,11.437c0.048,0.184-0.015,0.38-0.159,0.504
		C113.567,53.547,113.452,53.588,113.335,53.588 M102.989,48.089l9.607,4.137l-2.231-8.667c-0.204,0.609-0.469,1.293-0.788,1.919
		c-0.073,0.143-0.211,0.242-0.37,0.266c-0.16,0.026-0.32-0.029-0.433-0.144c-3.055-3.119-8.097-5.238-12.517-6.598
		c5.527,2.585,8.003,5.37,9.543,7.102c0.193,0.218,0.37,0.417,0.534,0.593c0.11,0.119,0.156,0.284,0.123,0.443
		c-0.032,0.159-0.142,0.292-0.291,0.357C105.464,47.8,104.14,47.983,102.989,48.089"/>
	<path clip-path="url(#SVGID_2_)" fill="#FFFFFF" d="M122.282,81.933l0.91,1.86c0.275,0.25,1.013,0.768,1.777,1.292
		c0.525,0.361,0.295,1.69,0.295,1.69s-0.87,0.832-2.39,0.703c-1.175-0.099-2.572-1.418-2.572-1.418l-0.968-0.354v-3.274
		L122.282,81.933z"/>
	<path clip-path="url(#SVGID_2_)" d="M123.192,87.893c-0.113,0-0.23-0.005-0.351-0.015c-1.164-0.1-2.451-1.2-2.751-1.469
		l-0.894-0.327c-0.157-0.059-0.263-0.208-0.263-0.376v-3.274c0-0.195,0.142-0.362,0.334-0.395l2.947-0.499
		c0.172-0.026,0.347,0.059,0.426,0.219l0.875,1.788c0.32,0.271,1.104,0.814,1.68,1.21c0.701,0.481,0.508,1.825,0.463,2.089
		c-0.015,0.085-0.057,0.162-0.118,0.221C125.503,87.101,124.657,87.893,123.192,87.893 M119.735,85.427l0.705,0.258
		c0.051,0.02,0.098,0.048,0.137,0.085c0.361,0.34,1.485,1.239,2.332,1.312c1.045,0.085,1.737-0.332,1.982-0.516
		c0.059-0.482,0.014-1.04-0.148-1.15c-1.031-0.707-1.575-1.104-1.819-1.326c-0.038-0.035-0.068-0.075-0.091-0.12l-0.778-1.592
		l-2.319,0.393V85.427z"/>
	<path clip-path="url(#SVGID_2_)" fill="#FFFFFF" d="M129.82,81.057c0,0-0.112,0.821,0.185,1.621
		c0.296,0.799,2.718,1.206,3.132,1.69c0.415,0.484,0.395,1.521,0.395,1.521s-0.135,1.178-3.23,0.631
		c-2.117-0.373-3.846-1.022-3.846-1.022l-0.248-0.785l0.284-3.655H129.82z"/>
	<path clip-path="url(#SVGID_2_)" d="M131.756,87.064c-0.446,0-0.955-0.051-1.524-0.15c-2.129-0.376-3.846-1.015-3.918-1.042
		c-0.115-0.043-0.204-0.137-0.241-0.254l-0.247-0.785c-0.015-0.049-0.021-0.1-0.017-0.151l0.284-3.656
		c0.016-0.208,0.189-0.369,0.398-0.369h3.329c0.115,0,0.225,0.05,0.301,0.137c0.076,0.086,0.11,0.202,0.096,0.316
		c-0.001,0.008-0.094,0.739,0.162,1.429c0.111,0.299,1.08,0.653,1.658,0.865c0.723,0.265,1.178,0.439,1.403,0.705
		c0.5,0.583,0.493,1.667,0.491,1.788c-0.01,0.103-0.067,0.441-0.46,0.734C133.085,86.92,132.51,87.064,131.756,87.064
		 M126.776,85.188c0.492,0.171,1.929,0.644,3.594,0.937c2.102,0.373,2.711-0.096,2.768-0.307c-0.001-0.28-0.076-0.924-0.305-1.19
		c-0.105-0.12-0.687-0.333-1.07-0.474c-0.932-0.341-1.895-0.693-2.134-1.338c-0.187-0.503-0.229-1.011-0.229-1.36h-2.538
		l-0.249,3.211L126.776,85.188z"/>
	<path clip-path="url(#SVGID_2_)" fill="#F9C158" d="M119.751,53.66c0,0-1.005,2.895-1.004,4.93c0.001,1.47,0.751,3.701,0.751,3.701
		l0.26,9.003l-0.076,11.487c0,0-0.012,0.769,1.453,1.065c1.742,0.354,1.808-0.864,1.808-0.864l1.578-12.137l0.996-8.611l1.278-0.455
		l0.184,9.341l-0.822,11.767c0,0,0.638,0.624,2.124,0.577c1.488-0.047,1.328-0.642,1.328-0.642l1.568-12.457l0.503-15.457
		L119.751,53.66z"/>
	<path clip-path="url(#SVGID_2_)" d="M121.722,84.311c-0.206,0-0.428-0.024-0.666-0.072c-1.74-0.352-1.775-1.35-1.774-1.462
		l0.076-11.485l-0.259-8.931c-0.121-0.371-0.752-2.369-0.752-3.771c-0.001-2.077,0.984-4.939,1.026-5.061
		c0.061-0.175,0.223-0.291,0.42-0.267l11.929,1.249c0.208,0.022,0.364,0.201,0.357,0.411l-0.503,15.458l-1.564,12.442
		c0.011,0.144-0.024,0.328-0.151,0.499c-0.252,0.34-0.765,0.518-1.566,0.543c-1.65,0.06-2.387-0.661-2.418-0.691
		c-0.083-0.082-0.127-0.196-0.119-0.313l0.823-11.767l-0.174-8.749l-0.521,0.186l-0.967,8.363l-1.58,12.143
		c0,0.031-0.043,0.57-0.528,0.946C122.526,84.2,122.161,84.311,121.722,84.311 M120.03,54.091c-0.249,0.782-0.884,2.929-0.883,4.498
		c0,1.39,0.722,3.552,0.729,3.573c0.013,0.037,0.02,0.076,0.021,0.116l0.261,9.003l-0.075,11.503
		c0.015,0.146,0.271,0.496,1.132,0.67c0.498,0.102,0.876,0.065,1.099-0.1c0.207-0.155,0.23-0.39,0.23-0.399l1.582-12.161
		l0.994-8.605c0.018-0.151,0.12-0.28,0.264-0.331l1.278-0.455c0.119-0.044,0.255-0.026,0.361,0.048
		c0.105,0.073,0.17,0.192,0.173,0.321l0.185,9.341l-0.81,11.585c0.231,0.146,0.776,0.397,1.698,0.366
		c0.813-0.025,0.95-0.22,0.951-0.222l1.561-12.525l0.487-15.049L120.03,54.091z"/>
	<path clip-path="url(#SVGID_2_)" fill="#F9C158" d="M132.662,37.131c0,0,1.835,0.136,2.147,1.127
		c0.405,1.281,1.499,8.826,1.886,10.533c0.06,0.258,0.073,0.519,0.046,0.782l-0.301,5.874l-2.353,0.676c0,0-0.874-4.084-1.117-6.789
		c-0.428-2.167-1.813-8.389-1.813-8.389L132.662,37.131z"/>
	<path clip-path="url(#SVGID_2_)" d="M134.088,56.523c-0.071,0-0.143-0.02-0.206-0.057c-0.095-0.057-0.162-0.151-0.186-0.26
		c-0.009-0.041-0.882-4.139-1.124-6.837c-0.416-2.097-1.792-8.277-1.806-8.339c-0.018-0.078-0.011-0.159,0.019-0.234l1.505-3.813
		c0.064-0.163,0.229-0.268,0.401-0.252c0.216,0.016,2.116,0.191,2.5,1.406c0.241,0.763,0.693,3.516,1.13,6.178
		c0.311,1.889,0.604,3.673,0.765,4.387c0.068,0.298,0.086,0.606,0.053,0.913l-0.299,5.852c-0.009,0.17-0.125,0.317-0.289,0.363
		l-2.353,0.677C134.162,56.519,134.125,56.523,134.088,56.523 M131.574,40.977c0.195,0.876,1.396,6.298,1.789,8.279
		c0.197,2.181,0.802,5.254,1.028,6.364l1.664-0.479l0.286-5.588c0.025-0.245,0.014-0.458-0.035-0.674
		c-0.167-0.737-0.462-2.532-0.774-4.434c-0.412-2.511-0.88-5.357-1.104-6.067c-0.154-0.49-0.987-0.726-1.507-0.812L131.574,40.977z"
		/>
	<path clip-path="url(#SVGID_2_)" d="M109.077,69.182c-3.086-0.073-5.695,4.393-5.829,9.978c-0.135,5.584,2.258,10.171,5.343,10.245
		c3.086,0.075,5.695-4.393,5.83-9.978C114.556,73.843,112.162,69.256,109.077,69.182 M108.447,87.727
		c-2.311-0.057-4.093-3.879-3.98-8.538c0.113-4.66,2.076-8.393,4.387-8.337c2.312,0.056,4.093,3.878,3.981,8.537
		C112.723,84.049,110.759,87.782,108.447,87.727"/>
	<path clip-path="url(#SVGID_2_)" fill="#898989" d="M108.854,70.851c-2.311-0.055-4.275,3.678-4.387,8.338
		c-0.112,4.659,1.67,8.482,3.98,8.537c2.312,0.057,4.274-3.677,4.388-8.337C112.946,74.73,111.165,70.907,108.854,70.851
		 M108.271,85.785c-1.542-0.037-2.719-3.098-2.629-6.838c0.09-3.739,1.413-6.74,2.955-6.703s2.719,3.098,2.629,6.838
		C111.136,82.821,109.813,85.822,108.271,85.785"/>
	<path clip-path="url(#SVGID_2_)" d="M108.499,88.126c-0.021,0-0.041,0-0.062,0c-1.277-0.031-2.432-1.016-3.252-2.774
		c-0.777-1.666-1.175-3.858-1.118-6.174c0.118-4.915,2.192-8.727,4.734-8.727c0.021,0,0.041,0,0.062,0.001
		c1.277,0.03,2.434,1.015,3.252,2.772c0.777,1.667,1.175,3.86,1.118,6.175C113.115,84.315,111.041,88.126,108.499,88.126
		 M108.803,71.251c-2.034,0-3.832,3.619-3.937,7.947c-0.053,2.192,0.318,4.259,1.045,5.816c0.684,1.468,1.588,2.288,2.546,2.312
		c0.014,0.001,0.027,0.001,0.041,0.001c2.034,0,3.832-3.62,3.937-7.947c0.053-2.194-0.318-4.259-1.045-5.816
		c-0.684-1.469-1.588-2.289-2.546-2.313C108.83,71.251,108.816,71.251,108.803,71.251 M108.299,86.186c-0.013,0-0.025,0-0.038-0.001
		c-1.819-0.044-3.117-3.159-3.019-7.247c0.044-1.859,0.389-3.606,0.967-4.92c0.626-1.424,1.501-2.224,2.397-2.174
		c1.819,0.044,3.117,3.159,3.019,7.247c-0.044,1.86-0.388,3.607-0.967,4.92C110.04,85.415,109.203,86.186,108.299,86.186
		 M108.568,72.644c-0.56,0-1.151,0.617-1.628,1.697c-0.537,1.219-0.856,2.859-0.899,4.616c-0.09,3.754,1.107,6.401,2.239,6.428
		h0.019c0.56,0.001,1.151-0.616,1.628-1.696c0.538-1.22,0.856-2.859,0.899-4.616c0.09-3.754-1.107-6.401-2.239-6.429H108.568z"/>
	<path clip-path="url(#SVGID_2_)" d="M135.483,74.926c-3.531,0.053-6.318,5.052-6.226,11.165c0.092,6.113,3.03,11.025,6.562,10.972
		c3.53-0.054,6.318-5.053,6.226-11.166C141.952,79.784,139.014,74.872,135.483,74.926 M135.364,95.235
		c-2.583,0.038-4.74-4.002-4.816-9.026s1.956-9.129,4.54-9.168c2.583-0.04,4.739,4.001,4.816,9.026
		C139.98,91.091,137.947,95.196,135.364,95.235"/>
	<path clip-path="url(#SVGID_2_)" fill="#898989" d="M135.088,77.041c-2.584,0.039-4.616,4.144-4.54,9.168
		c0.076,5.023,2.233,9.064,4.816,9.025c2.583-0.038,4.615-4.144,4.54-9.168C139.827,81.043,137.671,77.001,135.088,77.041
		 M135.111,93.239c-1.754,0.026-3.224-3.166-3.283-7.131c-0.062-3.965,1.312-7.199,3.064-7.227c1.753-0.026,3.224,3.166,3.283,7.13
		C138.237,89.977,136.864,93.212,135.111,93.239"/>
	<path clip-path="url(#SVGID_2_)" d="M135.326,95.636c-1.391,0-2.69-1.002-3.663-2.827c-0.939-1.76-1.478-4.102-1.516-6.594
		c-0.037-2.493,0.43-4.851,1.314-6.637c0.928-1.873,2.213-2.916,3.62-2.938c0.015-0.001,0.029-0.001,0.044-0.001
		c1.392,0,2.689,1.002,3.663,2.827c0.938,1.76,1.477,4.102,1.515,6.594c0.037,2.492-0.43,4.85-1.314,6.637
		c-0.927,1.873-2.212,2.916-3.619,2.938C135.355,95.636,135.341,95.636,135.326,95.636 M135.094,77.44
		c-1.092,0.017-2.127,0.902-2.915,2.492c-0.83,1.676-1.267,3.902-1.23,6.271c0.035,2.367,0.54,4.58,1.42,6.229
		c0.837,1.567,1.866,2.416,2.99,2.403c1.092-0.017,2.127-0.902,2.914-2.492c0.83-1.676,1.267-3.903,1.23-6.271
		c-0.035-2.367-0.54-4.579-1.42-6.229c-0.828-1.551-1.877-2.402-2.957-2.402H135.094z M135.089,93.639
		c-1.005,0-1.934-0.815-2.618-2.301c-0.643-1.396-1.014-3.251-1.044-5.224c-0.063-4.25,1.456-7.602,3.46-7.633
		c0.009,0,0.018,0,0.027,0c1.991,0,3.598,3.294,3.663,7.524c0.063,4.25-1.456,7.603-3.46,7.633
		C135.108,93.639,135.099,93.639,135.089,93.639 M134.913,79.281h-0.015c-1.339,0.021-2.732,2.767-2.671,6.821
		c0.028,1.863,0.372,3.604,0.97,4.9c0.538,1.168,1.228,1.836,1.893,1.836h0.016c1.339-0.021,2.732-2.766,2.671-6.821
		C137.715,81.979,136.249,79.281,134.913,79.281"/>
	<path clip-path="url(#SVGID_2_)" fill="#F9C158" d="M133.951,38.412l-5.735-2.706l-5.028,1.517
		c-0.378,0.087-0.699,0.324-0.889,0.663c-0.649,1.166-1.819,4.58-2.435,6.849c-0.849,3.134-0.95,11.389-0.95,11.389
		s0.572,1.082,6.821,2.647c7.195,1.802,6.616-2.429,6.616-2.429l1.685-11.383"/>
	<path clip-path="url(#SVGID_2_)" d="M128.854,59.617c-0.921,0-1.994-0.153-3.216-0.458c-6.113-1.532-6.968-2.642-7.077-2.849
		c-0.031-0.06-0.047-0.125-0.047-0.192c0.005-0.339,0.111-8.341,0.964-11.488c0.625-2.306,1.794-5.723,2.471-6.939
		c0.243-0.435,0.662-0.747,1.149-0.858l5.003-1.51c0.092-0.029,0.196-0.022,0.286,0.021l5.734,2.706
		c0.199,0.094,0.285,0.332,0.19,0.532c-0.094,0.201-0.332,0.284-0.532,0.191l-5.595-2.64l-4.883,1.473
		c-0.298,0.069-0.521,0.235-0.654,0.475c-0.631,1.131-1.786,4.501-2.397,6.758c-0.766,2.825-0.915,10.037-0.934,11.146
		c0.236,0.215,1.47,1.133,6.517,2.396c3.334,0.837,4.813,0.312,5.468-0.275c0.782-0.701,0.655-1.7,0.653-1.71
		c-0.005-0.038-0.005-0.075,0.001-0.113l1.685-11.383c0.032-0.219,0.242-0.37,0.454-0.337c0.219,0.032,0.369,0.235,0.337,0.454
		l-1.677,11.334c0.023,0.289,0.056,1.476-0.919,2.35C131.155,59.313,130.157,59.617,128.854,59.617"/>
	<path clip-path="url(#SVGID_2_)" fill="#F9C158" d="M123.396,44.848c0,0-0.999,1.779-1.798,3.943
		c1.392,2.603,3.729,7.133,3.729,7.133l-2.384,1.401c0,0-4.195-4.879-5.331-7.015c-0.683-1.284-0.819-2.326-0.472-3.301
		c0.667-1.872,1.9-4.364,3.273-6.93c0.956-1.787,1.741-2.561,3.079-2.948"/>
	<path clip-path="url(#SVGID_2_)" d="M122.942,57.726c-0.113,0-0.225-0.049-0.304-0.14c-0.172-0.201-4.237-4.938-5.381-7.089
		c-0.729-1.372-0.887-2.523-0.495-3.623c0.591-1.656,1.669-3.941,3.298-6.984c1.021-1.907,1.89-2.73,3.32-3.144
		c0.215-0.061,0.435,0.062,0.495,0.274c0.062,0.212-0.061,0.434-0.272,0.495c-1.207,0.349-1.923,1.043-2.838,2.752
		c-1.609,3.008-2.672,5.257-3.249,6.876c-0.312,0.873-0.169,1.819,0.448,2.978c0.955,1.798,4.193,5.663,5.064,6.689l1.768-1.039
		c-0.566-1.096-2.39-4.616-3.553-6.792c-0.054-0.1-0.063-0.219-0.022-0.327c0.802-2.169,1.782-3.927,1.825-4
		c0.107-0.194,0.352-0.263,0.544-0.153c0.193,0.108,0.262,0.351,0.153,0.544c-0.01,0.017-0.941,1.687-1.71,3.719
		c1.402,2.626,3.647,6.978,3.647,6.978c0.098,0.188,0.03,0.421-0.152,0.528l-2.384,1.401
		C123.082,57.707,123.012,57.726,122.942,57.726"/>
	<path clip-path="url(#SVGID_2_)" fill="#898989" d="M136.862,56.829c0,0-2.242,0.356-3.021,0.434
		c-0.6,0.059-0.542,0.964-0.542,0.964l-3.485,0.299c0,0-0.599-0.667-1.322-0.688c-1-0.029-4.651,0.094-4.651,0.094
		s-0.379,0.272-0.44,0.845c-0.06,0.572,0.478,0.837,0.478,0.837l6.126,0.071l1.096-0.106l1.146,6.44l1.343-0.323l-1.216-6.185
		l1.122-0.139l3.762-0.888c0,0,0.549-0.157,0.487-0.881C137.684,56.881,136.862,56.829,136.862,56.829"/>
	<path clip-path="url(#SVGID_2_)" d="M132.245,66.418c-0.076,0-0.152-0.022-0.218-0.065c-0.093-0.06-0.155-0.156-0.175-0.264
		l-1.083-6.077l-0.729,0.07l-6.169-0.068c-0.06-0.001-0.118-0.015-0.172-0.041c-0.293-0.145-0.769-0.568-0.697-1.238
		c0.074-0.729,0.548-1.089,0.602-1.128c0.064-0.047,0.141-0.072,0.221-0.075c0.149-0.006,3.672-0.121,4.678-0.094
		c0.654,0.02,1.206,0.442,1.459,0.674l2.954-0.254c0.073-0.492,0.351-0.939,0.886-0.993c0.759-0.074,2.976-0.427,2.998-0.43
		c0.027-0.005,0.056-0.006,0.088-0.005c0.403,0.026,1.185,0.296,1.255,1.141c0.069,0.831-0.479,1.213-0.777,1.299l-3.779,0.893
		l-0.737,0.092l1.132,5.765c0.041,0.211-0.091,0.416-0.299,0.466l-1.342,0.322C132.309,66.415,132.277,66.418,132.245,66.418
		 M131.099,59.179c0.192,0,0.359,0.137,0.394,0.33l1.073,6.021l0.555-0.134l-1.14-5.808c-0.021-0.109,0.004-0.223,0.068-0.313
		c0.065-0.09,0.165-0.147,0.275-0.162l1.121-0.139l3.717-0.879c0.029-0.013,0.213-0.106,0.184-0.459
		c-0.026-0.316-0.358-0.389-0.472-0.404c-0.347,0.056-2.269,0.357-2.994,0.429c-0.161,0.016-0.188,0.431-0.182,0.54
		c0.014,0.217-0.148,0.405-0.365,0.424l-3.485,0.299c-0.122,0.014-0.247-0.037-0.331-0.13c-0.137-0.15-0.59-0.544-1.037-0.557
		c-0.859-0.024-3.779,0.066-4.477,0.089c-0.072,0.085-0.18,0.249-0.205,0.492c-0.021,0.201,0.11,0.333,0.195,0.396l6.015,0.069
		l1.053-0.104C131.073,59.179,131.086,59.179,131.099,59.179"/>
	<polygon clip-path="url(#SVGID_2_)" fill="#898989" points="116.537,62.467 117.354,69.416 118.686,69.259 117.875,62.253 	"/>
	<path clip-path="url(#SVGID_2_)" d="M117.353,69.815c-0.09,0-0.177-0.029-0.248-0.086c-0.083-0.065-0.137-0.162-0.149-0.267
		l-0.815-6.95c-0.024-0.213,0.123-0.408,0.335-0.44l1.338-0.214c0.107-0.019,0.218,0.012,0.305,0.076
		c0.086,0.066,0.143,0.164,0.155,0.273l0.812,7.004c0.024,0.219-0.133,0.417-0.352,0.443l-1.333,0.158
		C117.384,69.814,117.368,69.815,117.353,69.815 M116.979,62.801l0.724,6.171l0.539-0.063l-0.717-6.194L116.979,62.801z"/>
	<path clip-path="url(#SVGID_2_)" d="M127.636,28.57c0,0-0.573,0.68-0.884,2.242c-0.443,2.223,0.995,4.164,0.995,4.164l1.777-4.475
		L127.636,28.57z"/>
	<path clip-path="url(#SVGID_2_)" d="M127.746,35.376c-0.126,0-0.245-0.059-0.321-0.162c-0.063-0.085-1.538-2.111-1.065-4.481
		c0.327-1.644,0.944-2.39,0.971-2.421c0.072-0.086,0.179-0.138,0.291-0.142c0.108-0.004,0.222,0.04,0.301,0.12l1.889,1.931
		c0.11,0.113,0.144,0.281,0.086,0.428l-1.778,4.475c-0.054,0.134-0.177,0.23-0.32,0.248
		C127.78,35.375,127.764,35.376,127.746,35.376 M127.705,29.213c-0.173,0.331-0.402,0.88-0.561,1.676
		c-0.256,1.282,0.176,2.473,0.53,3.182l1.382-3.477L127.705,29.213z"/>
	<path clip-path="url(#SVGID_2_)" fill="#FDEDDB" d="M129.072,30.407c0,0-0.616,1.597-0.998,2.684
		c-0.042-0.376-0.524-1.017-0.943-0.916c-0.432,0.104-0.919,0.566-0.933,1.567c-0.013,1.049,0.812,1.551,1.216,1.835
		c-0.028,0.532,0.213,1.466,1.4,2.711c1.475,1.542,3.815,1.411,5.026,0.71c1.377-0.798,1.862-1.867,2.089-3.067
		c0.168-0.899,0.767-3.928,0.767-3.928L129.072,30.407z"/>
	<path clip-path="url(#SVGID_2_)" d="M131.822,39.894c-1.171,0-2.409-0.402-3.297-1.33c-1.193-1.25-1.474-2.214-1.51-2.778
		c-0.513-0.368-1.229-0.976-1.217-2.05c0.016-1.221,0.65-1.808,1.238-1.95c0.247-0.06,0.504,0.001,0.75,0.174
		c0.071,0.05,0.141,0.11,0.207,0.176c0.342-0.931,0.705-1.873,0.705-1.873c0.071-0.183,0.265-0.288,0.455-0.248l7.624,1.596
		c0.216,0.045,0.353,0.255,0.311,0.47c0,0-0.599,3.025-0.766,3.922c-0.198,1.055-0.637,2.388-2.282,3.34
		C133.433,39.696,132.645,39.894,131.822,39.894 M127.223,32.564L127.223,32.564c-0.294,0.071-0.614,0.419-0.623,1.182
		c-0.01,0.713,0.449,1.091,0.962,1.446c0.114,0.079,0.258,0.267,0.251,0.405c-0.016,0.303,0.079,1.145,1.291,2.414
		c1.372,1.435,3.519,1.232,4.537,0.64c1.355-0.785,1.719-1.853,1.896-2.795c0.132-0.7,0.524-2.695,0.691-3.542l-6.903-1.446
		c-0.199,0.519-0.597,1.571-0.872,2.355c-0.063,0.175-0.229,0.28-0.424,0.265c-0.186-0.022-0.331-0.169-0.352-0.354
		C127.653,32.919,127.349,32.564,127.223,32.564"/>
	<path clip-path="url(#SVGID_2_)" fill="#F9C158" d="M128.404,31.348c0,0,0.965,2.253,2.019,3.628
		c1.39,1.813,6.392,2.385,6.496,0.73c0.1-1.55,0-3.384,0-3.384L128.404,31.348z"/>
	<path clip-path="url(#SVGID_2_)" d="M134.914,37.088c-1.721,0-3.916-0.703-4.809-1.868c-1.072-1.399-2.028-3.621-2.069-3.715
		c-0.056-0.131-0.038-0.282,0.048-0.396c0.084-0.114,0.218-0.174,0.366-0.158l8.516,0.974c0.193,0.023,0.343,0.181,0.354,0.376
		c0.004,0.076,0.097,1.876,0,3.431c-0.021,0.323-0.195,0.907-1.135,1.193C135.821,37.035,135.386,37.088,134.914,37.088
		 M129.063,31.826c0.358,0.756,1.004,2.028,1.678,2.907c0.928,1.211,3.816,1.85,5.212,1.426c0.364-0.111,0.556-0.271,0.568-0.478
		c0.07-1.119,0.037-2.403,0.015-3L129.063,31.826z"/>
	<path clip-path="url(#SVGID_2_)" fill="#F9C158" d="M131.68,25.536c2.739-0.192,4.802,1.911,5.313,3.555
		c0.604,1.939-0.228,4.65-0.228,4.65s-0.852,0.32-2.876,0.215c-2.418-0.125-5.264-2.373-5.264-2.373s-0.785-0.775-1.328-1.723
		c-0.227-0.393-0.222-0.877,0.003-1.271C128.219,26.983,129.258,25.706,131.68,25.536"/>
	<path clip-path="url(#SVGID_2_)" d="M134.669,34.377c-0.245,0-0.512-0.006-0.8-0.021c-2.517-0.13-5.371-2.365-5.491-2.459
		c-0.066-0.063-0.863-0.855-1.428-1.838c-0.293-0.512-0.292-1.152,0.003-1.668c0.843-1.474,1.971-3.063,4.698-3.254
		c3.033-0.216,5.202,2.162,5.724,3.834c0.633,2.034-0.191,4.772-0.227,4.888c-0.037,0.118-0.126,0.213-0.242,0.257
		C136.873,34.128,136.188,34.377,134.669,34.377 M128.907,31.298c0.004,0,2.747,2.142,5.003,2.259
		c1.384,0.071,2.191-0.063,2.53-0.141c0.172-0.653,0.638-2.707,0.171-4.207c-0.444-1.427-2.32-3.454-4.903-3.274
		c-2.116,0.148-3.091,1.158-4.06,2.853c-0.155,0.271-0.157,0.606-0.004,0.874C128.152,30.547,128.899,31.291,128.907,31.298"/>
	<path clip-path="url(#SVGID_2_)" fill="#FDEDDB" d="M136.92,56.123c0,0,0.814,0.559,1.092,1.032c0.3,0.513,0.291,1.176,0.095,1.655
		c-0.324,0.795-0.671,0.633-0.894,0.11c-0.059,0.471-0.724,0.773-0.721,0.237c-0.197,0.441-0.563,0.61-0.864,0.149
		c-0.432,0.412-0.787,0.307-0.99,0c-0.202-0.307-0.002-0.939-0.002-0.939l-0.464-1.144l-0.331,0.038l0.247-1.14
		c-0.086-1.021,1.805-1.475,2.608-0.775L136.92,56.123z"/>
	<path clip-path="url(#SVGID_2_)" d="M136.021,59.981c-0.114,0-0.272-0.027-0.437-0.143c-0.239,0.134-0.445,0.151-0.597,0.134
		c-0.271-0.03-0.513-0.188-0.683-0.443c-0.233-0.354-0.155-0.871-0.091-1.136l-0.299-0.736l-0.028,0.003
		c-0.128,0.014-0.255-0.032-0.343-0.129c-0.086-0.096-0.121-0.228-0.094-0.354l0.235-1.087c-0.016-0.501,0.282-0.941,0.825-1.217
		c0.689-0.35,1.781-0.409,2.448,0.172c0.058,0.05,0.101,0.116,0.122,0.189l0.185,0.644c0.258,0.188,0.838,0.64,1.092,1.075
		c0.336,0.575,0.383,1.362,0.12,2.008c-0.08,0.197-0.325,0.795-0.843,0.798c-0.111,0.039-0.254-0.029-0.394-0.13
		c-0.169,0.142-0.373,0.225-0.579,0.211c-0.056-0.003-0.111-0.014-0.165-0.033c-0.127,0.101-0.271,0.159-0.421,0.171
		C136.06,59.98,136.041,59.981,136.021,59.981 M134.337,56.86c0.091,0.042,0.165,0.116,0.204,0.214l0.465,1.144
		c0.035,0.085,0.039,0.182,0.012,0.271c-0.07,0.227-0.094,0.523-0.046,0.6c0.035,0.053,0.074,0.087,0.104,0.09
		c0.077-0.002,0.146-0.036,0.275-0.159c0.087-0.083,0.204-0.12,0.322-0.107c0.117,0.013,0.224,0.078,0.288,0.178
		c0.034,0.051,0.06,0.077,0.074,0.089c-0.006-0.021,0.043-0.075,0.091-0.183c0.077-0.173,0.266-0.268,0.45-0.229
		c0.093,0.021,0.173,0.073,0.229,0.144c0.005-0.013,0.009-0.025,0.01-0.038c0.022-0.181,0.163-0.322,0.342-0.348
		c0.176-0.026,0.353,0.073,0.424,0.239c0.019,0.045,0.036,0.08,0.053,0.109c0.028-0.048,0.063-0.117,0.104-0.214
		c0.141-0.347,0.174-0.884-0.071-1.303c-0.188-0.323-0.779-0.771-0.972-0.902c-0.077-0.053-0.133-0.13-0.159-0.22l-0.187-0.648
		c-0.361-0.231-1.004-0.238-1.476,0.001c-0.153,0.078-0.408,0.247-0.387,0.503c0.004,0.04,0.001,0.08-0.008,0.119L134.337,56.86z"/>
	<path clip-path="url(#SVGID_2_)" fill="#FDEDDB" d="M125.036,55.679c0.473,0.368,1.494,0.72,2.321,1.565
		c0.635,0.648,0.853,1.561,0.608,2.335c-0.179,0.562-0.478,0.86-0.881,0.546c-0.362,0.395-0.813,0.314-0.961-0.154
		c-0.233,0.542-0.762,0.654-0.916,0.123c-0.299,0.346-1.035,0.346-0.85-0.479c0.337-0.553,0.128-1.073,0.128-1.073l-0.866-0.707
		l-0.678-0.509C123.03,56.124,124.357,55.484,125.036,55.679"/>
	<path clip-path="url(#SVGID_2_)" d="M125.579,60.84c-0.016,0-0.031-0.001-0.047-0.002c-0.17-0.011-0.322-0.076-0.445-0.188
		c-0.243,0.089-0.508,0.087-0.728-0.023c-0.134-0.067-0.561-0.348-0.392-1.1c0.01-0.043,0.026-0.083,0.049-0.121
		c0.158-0.259,0.142-0.51,0.119-0.634l-1.434-1.126c-0.108-0.082-0.169-0.214-0.158-0.35c0.048-0.647,0.39-1.225,0.962-1.623
		c0.525-0.365,1.17-0.514,1.641-0.379c0.05,0.015,0.096,0.038,0.136,0.069c0.149,0.117,0.361,0.23,0.604,0.362
		c0.523,0.287,1.175,0.643,1.758,1.237c0.72,0.736,0.996,1.811,0.704,2.735c-0.163,0.512-0.409,0.822-0.731,0.922
		c-0.122,0.037-0.289,0.056-0.481-0.013c-0.227,0.149-0.479,0.205-0.72,0.151c-0.105-0.023-0.203-0.066-0.291-0.128
		C125.961,60.766,125.771,60.84,125.579,60.84 M125.208,59.694c0.028,0,0.057,0.003,0.085,0.009
		c0.144,0.032,0.258,0.139,0.299,0.279c0,0.059,0.093-0.003,0.165-0.169c0.065-0.155,0.239-0.257,0.387-0.242
		c0.167,0.009,0.312,0.12,0.361,0.279c0.027,0.086,0.064,0.123,0.083,0.127c0.039,0.006,0.111-0.023,0.202-0.123
		c0.143-0.154,0.376-0.173,0.541-0.045c0.042,0.05,0.147-0.018,0.254-0.353c0.204-0.646,0.002-1.406-0.514-1.934
		c-0.499-0.51-1.093-0.835-1.569-1.096c-0.244-0.134-0.46-0.251-0.636-0.377c-0.22-0.032-0.574,0.05-0.903,0.278
		c-0.186,0.13-0.486,0.397-0.589,0.819l1.365,1.083c0.053,0.043,0.093,0.098,0.118,0.161c0.102,0.252,0.185,0.813-0.119,1.363
		c-0.021,0.126,0,0.173,0.001,0.174c0.007-0.01,0.107-0.029,0.166-0.098C124.982,59.743,125.093,59.694,125.208,59.694"/>
	<path clip-path="url(#SVGID_2_)" d="M128.217,40.874c-0.069,0-0.139-0.018-0.199-0.053c-0.101-0.058-0.171-0.157-0.193-0.271
		l-0.859-4.432c-0.042-0.217,0.1-0.427,0.316-0.469c0.224-0.042,0.427,0.101,0.469,0.316l0.771,3.98l2.505-0.87
		c0.205-0.073,0.436,0.037,0.509,0.246c0.072,0.209-0.038,0.437-0.247,0.51l-2.94,1.021
		C128.306,40.867,128.261,40.874,128.217,40.874"/>
	<path clip-path="url(#SVGID_2_)" d="M133.396,41.289c-0.082,0-0.164-0.025-0.232-0.074l-1.948-1.391
		c-0.18-0.128-0.222-0.378-0.093-0.558c0.127-0.181,0.378-0.222,0.558-0.093l1.463,1.044l0.309-1.311
		c0.052-0.215,0.262-0.349,0.481-0.298c0.215,0.051,0.349,0.266,0.298,0.481l-0.445,1.892c-0.031,0.129-0.124,0.236-0.249,0.283
		C133.49,41.281,133.443,41.289,133.396,41.289"/>
	<path clip-path="url(#SVGID_2_)" d="M129.258,58.483c-0.088,0-0.177-0.029-0.251-0.089c-0.172-0.138-0.198-0.39-0.062-0.563
		c0.01-0.011,0.881-1.107,1.009-2.397c0.216-2.163,0.218-4.607,0.218-4.632l0.877-11.335c0.017-0.22,0.183-0.389,0.43-0.368
		c0.22,0.017,0.385,0.209,0.367,0.429l-0.875,11.305c0.002,0-0.001,2.48-0.22,4.68c-0.153,1.533-1.14,2.77-1.182,2.821
		C129.49,58.433,129.374,58.483,129.258,58.483"/>
	<path clip-path="url(#SVGID_2_)" d="M116.768,60.174c0,0-2.471-0.011-3.076,0.296c-0.606,0.305-0.651,1.774-0.651,1.774
		s0.563,0.222,2.165,0.655c1.756,0.477,2.842,0.193,2.842,0.193l2.869,0.154c0.218,0.029,0.418-0.122,0.449-0.34
		c0.062-0.432,0.15-0.674,0.126-1.013c-0.038-0.521-0.826-0.823-1.165-0.911C119.528,60.776,116.768,60.174,116.768,60.174"/>
	<path clip-path="url(#SVGID_2_)" d="M120.968,63.65c-0.034,0-0.069-0.001-0.104-0.006l-2.784-0.15
		c-0.276,0.058-1.365,0.229-2.979-0.209c-1.604-0.435-2.183-0.659-2.206-0.669c-0.158-0.061-0.26-0.216-0.254-0.384
		c0.008-0.286,0.09-1.728,0.87-2.121c0.658-0.332,2.838-0.336,3.259-0.338c0.028,0,0.056,0.003,0.083,0.009
		c0.113,0.025,2.778,0.607,3.573,0.814c0.233,0.061,1.401,0.405,1.465,1.268c0.02,0.282-0.023,0.508-0.068,0.746
		c-0.021,0.105-0.042,0.22-0.061,0.354C121.704,63.361,121.36,63.65,120.968,63.65 M118.048,62.692c0.007,0,0.014,0,0.021,0
		l2.868,0.156c0.053-0.146,0.077-0.271,0.099-0.388c0.041-0.218,0.068-0.361,0.056-0.538c-0.014-0.196-0.468-0.448-0.867-0.552
		c-0.728-0.189-3.152-0.722-3.501-0.798c-1-0.001-2.5,0.074-2.854,0.253c-0.193,0.098-0.353,0.628-0.409,1.142
		c0.307,0.103,0.89,0.286,1.849,0.546c1.614,0.438,2.629,0.193,2.638,0.19C117.979,62.696,118.015,62.692,118.048,62.692"/>
	<path clip-path="url(#SVGID_2_)" fill="#A9D06B" d="M113.185,70.846c0,0,1.227,1.818,1.497,5.364
		c-0.959,0.016-1.852-0.003-1.852-0.003s-0.196-3.083-1.503-5.357L113.185,70.846z"/>
	<path clip-path="url(#SVGID_2_)" d="M113.866,76.616c-0.6,0-1.044-0.01-1.044-0.01c-0.207-0.005-0.377-0.167-0.391-0.374
		c-0.002-0.03-0.208-3.021-1.45-5.184c-0.071-0.123-0.071-0.275,0-0.398s0.203-0.2,0.346-0.2l1.856-0.004h0.001
		c0.133,0,0.257,0.065,0.331,0.176c0.053,0.078,1.29,1.947,1.564,5.557c0.009,0.11-0.028,0.219-0.103,0.301
		c-0.074,0.081-0.179,0.128-0.289,0.13C114.401,76.614,114.119,76.616,113.866,76.616 M113.197,75.813
		c0.259,0.003,0.633,0.006,1.048,0.002c-0.258-2.523-1.009-4.068-1.287-4.568l-0.971,0.003
		C112.825,73.01,113.111,75.001,113.197,75.813"/>
	<path clip-path="url(#SVGID_2_)" d="M104.195,72.62c0,0,1.1-2.657,2.478-3.44c1.955-1.109,4.38-0.688,5.527,0.244
		c1.414,1.15,1.869,2.2,1.869,2.2l-1.93-0.007l-4.394,7.265L104.195,72.62z"/>
	<path clip-path="url(#SVGID_2_)" d="M107.747,79.283h-0.006c-0.142-0.003-0.272-0.08-0.342-0.203l-3.552-6.263
		c-0.062-0.106-0.069-0.236-0.021-0.351c0.047-0.113,1.169-2.793,2.65-3.634c2.073-1.179,4.668-0.782,5.976,0.28
		c1.474,1.198,1.964,2.306,1.984,2.353c0.054,0.124,0.041,0.266-0.033,0.379c-0.073,0.112-0.198,0.18-0.334,0.18h-0.002
		l-1.703-0.007l-4.274,7.072C108.017,79.209,107.887,79.283,107.747,79.283 M104.642,72.596l3.116,5.495l4.039-6.681
		c0.073-0.119,0.203-0.192,0.343-0.192h0.002l1.221,0.004c-0.271-0.384-0.721-0.923-1.414-1.487
		c-1.076-0.875-3.322-1.201-5.078-0.207C105.916,70.07,105.003,71.785,104.642,72.596"/>
	<path clip-path="url(#SVGID_2_)" fill="#A9D06B" d="M133.81,64.194c-0.785-0.233-2.113,0.172-2.412,0.411
		c0.039,0.366,0.22,1.381,0.332,1.99c0.051,0.279-0.109,0.552-0.377,0.646l-11.594,4.053c-0.214,0.074-0.441-0.063-0.47-0.285
		c-0.116-0.868-0.371-2.813-0.442-3.571c-0.821-0.505-1.833-0.06-2.054,0.396c0.012,0.129,0.084,0.623,0.189,1.337l-3.612,3.283
		c-0.264,0.458-0.028,1.255,0.699,1.078c0.425-0.298,3.133-2.892,3.133-2.892c0.448,2.972,1.144,7.559,1.483,10.191
		c-2.229-0.481-8.502-2.031-9.294-2.274c-1.013-0.312-1.289,0.944-0.379,1.289c1.451,0.551,9.639,2.586,9.639,2.586l2.06-0.364
		l-0.285-2.187l2.33-6.428c2.979-0.972,6.972-2.285,9.07-3.033c0.279-0.1,0.576,0.08,0.626,0.372l0.958,4.336l2.52-0.425
		C135.93,74.703,133.985,64.935,133.81,64.194 M120.153,77.79l-0.366-2.813c-0.038-0.313,0.145-0.608,0.445-0.706
		c0.385-0.125,0.853-0.275,1.364-0.442L120.153,77.79z"/>
	<path clip-path="url(#SVGID_2_)" d="M118.651,82.831c-0.032,0-0.065-0.004-0.097-0.012c-0.335-0.083-8.229-2.046-9.684-2.599
		c-0.718-0.273-0.925-0.947-0.754-1.443c0.153-0.449,0.66-0.829,1.392-0.603c0.688,0.211,6.109,1.557,8.706,2.142
		c-0.327-2.442-0.879-6.101-1.293-8.856c-0.832,0.79-2.296,2.168-2.623,2.398c-0.04,0.028-0.087,0.049-0.135,0.061
		c-0.44,0.106-0.828-0.021-1.074-0.348c-0.271-0.361-0.299-0.915-0.066-1.318c0.021-0.035,0.047-0.067,0.078-0.096l3.454-3.14
		c-0.091-0.61-0.15-1.028-0.162-1.146c-0.007-0.073,0.007-0.147,0.039-0.214c0.161-0.331,0.554-0.622,1.023-0.758
		c0.561-0.163,1.128-0.092,1.601,0.198c0.106,0.065,0.177,0.178,0.188,0.303c0.049,0.531,0.201,1.761,0.439,3.556l11.536-4.093
		c0.082-0.028,0.131-0.111,0.115-0.196c-0.086-0.468-0.292-1.604-0.336-2.018c-0.015-0.136,0.041-0.27,0.147-0.355
		c0.407-0.326,1.859-0.756,2.776-0.483c0.137,0.041,0.241,0.152,0.274,0.291c0.177,0.739,2.044,10.125,2.124,10.523
		c0.021,0.106-0.002,0.217-0.063,0.306s-0.156,0.148-0.263,0.167l-2.52,0.425c-0.216,0.038-0.411-0.102-0.457-0.309l-0.958-4.336
		l-0.235-0.457l0.135,0.376c-2.065,0.735-5.938,2.012-8.896,2.976l-2.229,6.154l0.272,2.089c0.027,0.212-0.116,0.408-0.327,0.445
		l-2.06,0.364C118.698,82.829,118.675,82.831,118.651,82.831 M109.087,78.907c-0.089,0-0.179,0.029-0.213,0.13
		c-0.04,0.116,0.001,0.329,0.28,0.436c1.335,0.507,8.649,2.336,9.511,2.551l1.6-0.283l-0.235-1.807
		c-0.009-0.064-0.001-0.128,0.021-0.188l2.328-6.429c0.042-0.116,0.136-0.206,0.253-0.244c2.975-0.969,6.961-2.281,9.061-3.029
		c0.244-0.086,0.51-0.061,0.733,0.068c0.224,0.132,0.378,0.355,0.422,0.613l0.872,3.946l1.738-0.294
		c-0.342-1.716-1.668-8.369-1.982-9.844c-0.541-0.057-1.284,0.131-1.646,0.286c0.063,0.417,0.185,1.113,0.294,1.704
		c0.086,0.475-0.183,0.936-0.639,1.095l-11.595,4.053c-0.216,0.076-0.451,0.052-0.646-0.067c-0.193-0.119-0.322-0.316-0.353-0.541
		c-0.151-1.14-0.34-2.595-0.421-3.368c-0.318-0.128-0.625-0.076-0.791-0.027c-0.231,0.067-0.391,0.179-0.473,0.266
		c0.029,0.219,0.09,0.634,0.17,1.178c0.021,0.133-0.026,0.266-0.126,0.355l-3.556,3.232c-0.049,0.126-0.036,0.298,0.035,0.394
		c0.018,0.023,0.061,0.071,0.173,0.063c0.424-0.34,2.005-1.829,3.023-2.804c0.107-0.104,0.264-0.138,0.405-0.089
		c0.142,0.048,0.244,0.171,0.267,0.318l0.101,0.667c0.45,2.99,1.067,7.086,1.383,9.532c0.017,0.129-0.03,0.258-0.126,0.346
		c-0.095,0.088-0.229,0.124-0.354,0.097c-2.198-0.475-8.475-2.021-9.327-2.282C109.23,78.926,109.159,78.907,109.087,78.907
		 M120.153,78.19c-0.015,0-0.029-0.001-0.044-0.003c-0.184-0.021-0.329-0.163-0.353-0.346l-0.366-2.813
		c-0.063-0.505,0.238-0.983,0.719-1.139l1.363-0.442c0.146-0.049,0.305-0.007,0.412,0.104c0.105,0.109,0.14,0.271,0.088,0.414
		l-1.443,3.961C120.471,78.086,120.32,78.19,120.153,78.19 M120.94,74.463l-0.585,0.188c-0.116,0.039-0.187,0.152-0.172,0.277
		l0.155,1.185L120.94,74.463z"/>
	<path clip-path="url(#SVGID_2_)" fill="#A9D06B" d="M121.135,81.933c0,1.783-0.869,3.229-1.942,3.229
		c-1.072,0-1.941-1.445-1.941-3.229s0.869-3.228,1.941-3.228C120.266,78.705,121.135,80.149,121.135,81.933"/>
	<path clip-path="url(#SVGID_2_)" d="M119.193,85.56c-1.313,0-2.343-1.593-2.343-3.627s1.03-3.628,2.343-3.628
		s2.342,1.594,2.342,3.628S120.506,85.56,119.193,85.56 M119.193,79.105c-0.836,0-1.542,1.295-1.542,2.827s0.706,2.827,1.542,2.827
		s1.541-1.295,1.541-2.827S120.029,79.105,119.193,79.105"/>
	<path clip-path="url(#SVGID_2_)" d="M119.782,81.933c0,1.025-0.389,1.856-0.867,1.856c-0.48,0-0.868-0.831-0.868-1.856
		c0-1.024,0.388-1.855,0.868-1.855C119.394,80.077,119.782,80.908,119.782,81.933"/>
	<path clip-path="url(#SVGID_2_)" d="M118.915,84.188c-0.734,0-1.269-0.948-1.269-2.256c0-1.307,0.534-2.256,1.269-2.256
		s1.268,0.949,1.268,2.256C120.183,83.24,119.649,84.188,118.915,84.188 M118.915,80.477c-0.116,0-0.468,0.517-0.468,1.456
		s0.352,1.457,0.468,1.457s0.467-0.518,0.467-1.457S119.031,80.477,118.915,80.477"/>
	<path clip-path="url(#SVGID_2_)" fill="#A9D06B" d="M128.925,83.131c0,0,0.692-3.942,2.572-6.674
		c1.625-2.361,3.871-2.49,5.73-1.897c1.792,0.57,2.773,2.187,2.773,2.187l-1.515-0.264c-0.18,0.03-0.376,0.035-0.527-0.066
		c-0.799-0.536-2.732-1.211-4.118-0.483c-1.319,0.693-2.357,1.857-3.269,3.936c-0.827,1.885-1.264,4.499-1.264,4.499L128.925,83.131
		z"/>
	<path clip-path="url(#SVGID_2_)" d="M129.31,84.767c-0.174,0-0.329-0.112-0.382-0.28l-0.385-1.235
		c-0.019-0.062-0.023-0.126-0.012-0.189c0.028-0.164,0.729-4.061,2.637-6.831c1.461-2.127,3.656-2.855,6.18-2.052
		c1.914,0.609,2.952,2.289,2.995,2.36c0.082,0.134,0.077,0.303-0.012,0.433c-0.088,0.13-0.242,0.198-0.398,0.168l-1.451-0.252
		c-0.298,0.04-0.547-0.005-0.745-0.139c-0.633-0.425-2.443-1.128-3.709-0.463c-1.302,0.685-2.254,1.839-3.09,3.742
		c-0.796,1.817-1.229,4.379-1.233,4.404c-0.03,0.183-0.183,0.321-0.367,0.333C129.328,84.767,129.318,84.767,129.31,84.767
		 M135.416,74.66c-1.21,0-2.523,0.476-3.59,2.023c-0.375,0.546-0.702,1.144-0.985,1.75c0.771-1.35,1.669-2.253,2.813-2.854
		c1.599-0.842,3.74-0.022,4.527,0.506c0.005,0.003,0.055,0.031,0.237,0.003c0.046-0.008,0.092-0.007,0.136,0l0.465,0.081
		c-0.435-0.445-1.083-0.963-1.914-1.229C136.597,74.778,136.02,74.66,135.416,74.66"/>
	<polygon clip-path="url(#SVGID_2_)" points="118.853,81.576 117.419,81.576 115.427,85.962 115.205,85.28 111.727,85.469 
		111.496,86.597 112.305,88.744 115.81,88.413 116.236,87.858 115.889,86.817 117.779,82.462 118.915,82.539 	"/>
	<path clip-path="url(#SVGID_2_)" d="M112.305,89.145c-0.165,0-0.315-0.103-0.374-0.259l-0.81-2.148
		c-0.027-0.07-0.033-0.147-0.018-0.222l0.231-1.128c0.036-0.178,0.188-0.309,0.37-0.318l3.479-0.188
		c0.099-0.008,0.188,0.025,0.26,0.078l1.611-3.548c0.064-0.144,0.207-0.235,0.364-0.235h1.434c0.211,0,0.386,0.164,0.399,0.374
		l0.063,0.964c0.007,0.115-0.035,0.229-0.117,0.31c-0.082,0.082-0.183,0.126-0.31,0.116l-0.854-0.059l-1.718,3.955l0.299,0.896
		c0.042,0.126,0.018,0.265-0.063,0.369l-0.426,0.557c-0.067,0.088-0.169,0.144-0.279,0.155l-3.505,0.33
		C112.33,89.144,112.317,89.145,112.305,89.145 M111.91,86.563l0.661,1.755l3.027-0.286l0.19-0.249l-0.281-0.839
		c-0.03-0.095-0.025-0.195,0.014-0.286l0.173-0.398c-0.077,0.07-0.178,0.111-0.29,0.103c-0.165-0.01-0.307-0.118-0.358-0.276
		l-0.126-0.389l-2.863,0.154L111.91,86.563z M117.779,82.063c0.009,0,0.018,0,0.027,0.001l0.68,0.046l-0.009-0.135h-0.801
		l-0.054,0.119C117.672,82.074,117.725,82.063,117.779,82.063"/>
	<path clip-path="url(#SVGID_2_)" fill="#C2E6FA" d="M104.832,72.539c0,0,0.908-2.413,2.215-2.949
		c2.322-0.956,4.281,2.563,4.281,2.563l-3.394,5.638L104.832,72.539z"/>
	<path clip-path="url(#SVGID_2_)" fill="#E8373D" d="M170.023,69.231c0-6.21-5.034-11.243-11.243-11.243
		c-6.21,0-11.243,5.033-11.243,11.243c0,0.786,0.099,5.082,3.346,9.408c3.248,4.327,4.272,6.216,5.64,10.997
		c0.968,3.385,1.697,6.344,2.04,7.782c0.056,0.23,0.38,0.23,0.436,0c0.343-1.438,1.071-4.397,2.04-7.782
		c1.367-4.781,2.393-6.67,5.64-10.997C169.925,74.313,170.023,70.018,170.023,69.231"/>
	<path clip-path="url(#SVGID_2_)" d="M158.781,98.092c-0.337,0-0.626-0.229-0.704-0.558c-0.351-1.467-1.081-4.426-2.035-7.76
		c-1.317-4.606-2.253-6.429-5.559-10.834c-3.198-4.26-3.446-8.508-3.446-9.709c0-6.476,5.268-11.743,11.743-11.743
		s11.743,5.268,11.743,11.743c0,1.201-0.248,5.449-3.446,9.709c-3.306,4.405-4.241,6.228-5.559,10.834
		c-0.967,3.384-1.689,6.314-2.034,7.76C159.406,97.862,159.117,98.092,158.781,98.092 M158.78,58.488
		c-5.924,0-10.743,4.819-10.743,10.743c0,1.123,0.234,5.096,3.245,9.108c3.166,4.218,4.301,6.193,5.721,11.158
		c0.76,2.653,1.378,5.07,1.777,6.695c0.396-1.608,1.01-4.009,1.777-6.695c1.42-4.965,2.555-6.94,5.721-11.158
		c3.011-4.013,3.245-7.985,3.245-9.108C169.523,63.308,164.704,58.488,158.78,58.488"/>
	<path clip-path="url(#SVGID_2_)" fill="#A52126" d="M162.647,69.416c0,2.136-1.731,3.867-3.866,3.867
		c-2.137,0-3.868-1.731-3.868-3.867s1.731-3.867,3.868-3.867C160.916,65.549,162.647,67.28,162.647,69.416"/>
	<path clip-path="url(#SVGID_2_)" d="M158.78,73.784c-2.408,0-4.367-1.96-4.367-4.368s1.959-4.367,4.367-4.367
		s4.367,1.959,4.367,4.367S161.188,73.784,158.78,73.784 M158.78,66.049c-1.856,0-3.367,1.511-3.367,3.367s1.511,3.368,3.367,3.368
		s3.367-1.512,3.367-3.368S160.637,66.049,158.78,66.049"/>
	<path clip-path="url(#SVGID_2_)" d="M19.055,19.691c0.024-0.002,0.036-0.003,0.06-0.006c0.668-0.065,1.257,0.409,1.474,1.194
		c0.113,0.399,0.173,0.905,0.173,1.481v0.051c-0.004,1.165-0.006,1.748-0.009,2.914v0.038c0,1.84-0.606,2.749-1.836,2.752
		c-0.014,0.001-0.021,0.001-0.035,0.001c-0.683,0.002-1.024,0.003-1.707,0.005c-0.018,0-0.026,0-0.044,0
		c-0.433,0.001-0.528-0.096-0.528-0.559v-0.037c0.003-2.739,0.005-4.109,0.009-6.849v-0.074c0-0.548,0.078-0.678,0.467-0.716
		c0.018-0.002,0.026-0.003,0.044-0.004C17.896,19.807,18.282,19.768,19.055,19.691 M17.279,21.034v5.969v0.05v0.024
		c0,0.111,0.026,0.135,0.087,0.134c0.01,0,0.015,0,0.026,0c0.624-0.009,0.936-0.013,1.559-0.021c0.025,0,0.037-0.001,0.061-0.001
		c0.745-0.01,1.092-0.547,1.092-1.702v-0.076c0.003-1.253,0.005-1.88,0.008-3.134v-0.025c0-1.18-0.364-1.693-1.143-1.624
		c-0.014,0.001-0.021,0.001-0.035,0.003c-0.596,0.052-0.895,0.078-1.491,0.131c-0.021,0.002-0.031,0.003-0.051,0.004
		c-0.004,0.001-0.005,0.001-0.009,0.001c-0.078,0.007-0.113,0.047-0.104,0.132v0.086V21.034z"/>
	
		<path clip-path="url(#SVGID_2_)" fill="none" stroke="#000000" stroke-width="0.5" stroke-linecap="round" stroke-linejoin="round" stroke-miterlimit="10" d="
		M19.055,19.691c0.024-0.002,0.036-0.003,0.06-0.006c0.668-0.065,1.257,0.409,1.474,1.194c0.113,0.399,0.173,0.905,0.173,1.481
		v0.051c-0.004,1.165-0.006,1.748-0.009,2.914v0.038c0,1.84-0.606,2.749-1.836,2.752c-0.014,0.001-0.021,0.001-0.035,0.001
		c-0.683,0.002-1.024,0.003-1.707,0.005c-0.018,0-0.026,0-0.044,0c-0.433,0.001-0.528-0.096-0.528-0.559v-0.037
		c0.003-2.739,0.005-4.109,0.009-6.849v-0.074c0-0.548,0.078-0.678,0.467-0.716c0.018-0.002,0.026-0.003,0.044-0.004
		C17.896,19.807,18.282,19.768,19.055,19.691z M17.279,21.034v5.969v0.05v0.024c0,0.111,0.026,0.135,0.087,0.134
		c0.01,0,0.015,0,0.026,0c0.624-0.009,0.936-0.013,1.559-0.021c0.025,0,0.037-0.001,0.061-0.001c0.745-0.01,1.092-0.547,1.092-1.702
		v-0.076c0.003-1.253,0.005-1.88,0.008-3.134v-0.025c0-1.18-0.364-1.693-1.143-1.624c-0.014,0.001-0.021,0.001-0.035,0.003
		c-0.596,0.052-0.895,0.078-1.491,0.131c-0.021,0.002-0.031,0.003-0.051,0.004c-0.004,0.001-0.005,0.001-0.009,0.001
		c-0.078,0.007-0.113,0.047-0.104,0.132v0.086V21.034z"/>
	<path clip-path="url(#SVGID_2_)" d="M26.248,18.956c0.014-0.001,0.021-0.002,0.035-0.003c0.234-0.024,0.372,0.154,0.372,0.467
		c0,0.326-0.129,0.501-0.364,0.522c-0.017,0.001-0.026,0.002-0.043,0.004c-1.158,0.102-1.737,0.153-2.894,0.256
		c-0.021,0.002-0.031,0.002-0.052,0.004c-0.095,0.009-0.13,0.052-0.13,0.156v0.04V23v0.039c0,0.118,0.026,0.143,0.113,0.138
		c0.014-0.001,0.02-0.001,0.034-0.002c0.925-0.047,1.388-0.07,2.314-0.117c0.017,0,0.026-0.001,0.043-0.002
		c0.234-0.013,0.382,0.155,0.382,0.439c0,0.311-0.139,0.534-0.339,0.543c-0.013,0-0.02,0.001-0.034,0.001
		c-0.964,0.039-1.445,0.059-2.409,0.097c-0.013,0.001-0.02,0.001-0.034,0.002c-0.052,0.002-0.087,0.043-0.087,0.096v0.053v0.026
		c-0.004,1.054-0.005,1.582-0.009,2.636v0.066c0,0.052,0.035,0.091,0.087,0.091c0.017-0.001,0.026-0.001,0.043-0.001
		c1.154-0.016,1.731-0.024,2.885-0.04c0.025,0,0.037,0,0.061-0.001c0.269-0.003,0.417,0.172,0.417,0.499
		c0,0.299-0.148,0.517-0.33,0.518c-0.025,0-0.037,0-0.061,0c-1.314,0.004-1.97,0.006-3.284,0.01c-0.021,0-0.031,0-0.052,0
		c-0.312,0.001-0.407-0.129-0.407-0.598V27.48c0.01-2.97,0.015-4.456,0.026-7.428v-0.065c0-0.573,0.095-0.7,0.563-0.746
		c0.021-0.002,0.031-0.003,0.052-0.005C24.387,19.124,25.007,19.067,26.248,18.956"/>
	
		<path clip-path="url(#SVGID_2_)" fill="none" stroke="#000000" stroke-width="0.5" stroke-linecap="round" stroke-linejoin="round" stroke-miterlimit="10" d="
		M26.248,18.956c0.014-0.001,0.021-0.002,0.035-0.003c0.234-0.024,0.372,0.154,0.372,0.467c0,0.326-0.129,0.501-0.364,0.522
		c-0.017,0.001-0.026,0.002-0.043,0.004c-1.158,0.102-1.737,0.153-2.894,0.256c-0.021,0.002-0.031,0.002-0.052,0.004
		c-0.095,0.009-0.13,0.052-0.13,0.156v0.04V23v0.039c0,0.118,0.026,0.143,0.113,0.138c0.014-0.001,0.02-0.001,0.034-0.002
		c0.925-0.047,1.388-0.07,2.314-0.117c0.017,0,0.026-0.001,0.043-0.002c0.234-0.013,0.382,0.155,0.382,0.439
		c0,0.311-0.139,0.534-0.339,0.543c-0.013,0-0.02,0.001-0.034,0.001c-0.964,0.039-1.445,0.059-2.409,0.097
		c-0.013,0.001-0.02,0.001-0.034,0.002c-0.052,0.002-0.087,0.043-0.087,0.096v0.053v0.026c-0.004,1.054-0.005,1.582-0.009,2.636
		v0.066c0,0.052,0.035,0.091,0.087,0.091c0.017-0.001,0.026-0.001,0.043-0.001c1.154-0.016,1.731-0.024,2.885-0.04
		c0.025,0,0.037,0,0.061-0.001c0.269-0.003,0.417,0.172,0.417,0.499c0,0.299-0.148,0.517-0.33,0.518c-0.025,0-0.037,0-0.061,0
		c-1.314,0.004-1.97,0.006-3.284,0.01c-0.021,0-0.031,0-0.052,0c-0.312,0.001-0.407-0.129-0.407-0.598V27.48
		c0.01-2.97,0.015-4.456,0.026-7.428v-0.065c0-0.573,0.095-0.7,0.563-0.746c0.021-0.002,0.031-0.003,0.052-0.005
		C24.387,19.124,25.007,19.067,26.248,18.956z"/>
	<path clip-path="url(#SVGID_2_)" d="M29.108,26.94v0.042c0,0.098,0.017,0.112,0.078,0.111c0.014,0,0.021,0,0.035-0.001
		c0.922-0.012,1.382-0.018,2.304-0.03c0.021,0,0.031,0,0.052,0c0.269-0.004,0.4,0.152,0.4,0.497c0,0.345-0.157,0.561-0.391,0.562
		c-0.014,0-0.021,0-0.035,0c-1.019,0.003-1.528,0.004-2.547,0.006c-0.018,0.001-0.026,0.001-0.044,0.001
		c-0.415,0.001-0.502-0.207-0.502-1.22v-0.069c0.003-2.903,0.005-4.354,0.009-7.257v-0.042c0-0.471,0.095-0.716,0.302-0.737
		c0.2-0.019,0.33,0.191,0.33,0.527v0.111C29.103,22.44,29.104,23.94,29.108,26.94"/>
	
		<path clip-path="url(#SVGID_2_)" fill="none" stroke="#000000" stroke-width="0.5" stroke-linecap="round" stroke-linejoin="round" stroke-miterlimit="10" d="
		M29.108,26.94v0.042c0,0.098,0.017,0.112,0.078,0.111c0.014,0,0.021,0,0.035-0.001c0.922-0.012,1.382-0.018,2.304-0.03
		c0.021,0,0.031,0,0.052,0c0.269-0.004,0.4,0.152,0.4,0.497c0,0.345-0.157,0.561-0.391,0.562c-0.014,0-0.021,0-0.035,0
		c-1.019,0.003-1.528,0.004-2.547,0.006c-0.018,0.001-0.026,0.001-0.044,0.001c-0.415,0.001-0.502-0.207-0.502-1.22v-0.069
		c0.003-2.903,0.005-4.354,0.009-7.257v-0.042c0-0.471,0.095-0.716,0.302-0.737c0.2-0.019,0.33,0.191,0.33,0.527v0.111
		C29.103,22.44,29.104,23.94,29.108,26.94z"/>
	<path clip-path="url(#SVGID_2_)" d="M34.1,27.425v0.103c0,0.323-0.139,0.558-0.33,0.558c-0.207,0.001-0.311-0.203-0.311-0.626
		v-0.102v-8.269v-0.073c0-0.423,0.121-0.698,0.329-0.718c0.225-0.022,0.329,0.188,0.329,0.658V19
		C34.11,22.37,34.107,24.056,34.1,27.425"/>
	
		<path clip-path="url(#SVGID_2_)" fill="none" stroke="#000000" stroke-width="0.5" stroke-linecap="round" stroke-linejoin="round" stroke-miterlimit="10" d="
		M34.1,27.425v0.103c0,0.323-0.139,0.558-0.33,0.558c-0.207,0.001-0.311-0.203-0.311-0.626v-0.102v-8.269v-0.073
		c0-0.423,0.121-0.698,0.329-0.718c0.225-0.022,0.329,0.188,0.329,0.658V19C34.11,22.37,34.107,24.056,34.1,27.425z"/>
	<path clip-path="url(#SVGID_2_)" d="M37.982,27.557c-0.069,0.366-0.156,0.503-0.286,0.504c-0.122,0-0.208-0.122-0.26-0.409
		c-0.003-0.024-0.005-0.036-0.009-0.061c-0.689-3.503-1.034-5.227-1.724-8.616c-0.004-0.03-0.005-0.044-0.009-0.074
		c-0.035-0.101-0.043-0.19-0.043-0.279c0-0.313,0.139-0.565,0.329-0.584c0.156-0.015,0.26,0.124,0.312,0.419
		c0.009,0.06,0.018,0.059,0.018,0.059c0.533,2.642,0.8,3.98,1.333,6.691c0.004,0.012,0.006,0.018,0.009,0.03
		c0.018,0.075,0.026,0.075,0.044,0.074c0.017-0.03,0.034-0.031,0.052-0.108c0.53-2.726,0.795-4.106,1.326-6.9
		c0-0.031,0-0.015,0.009-0.078c0.052-0.312,0.164-0.508,0.311-0.523c0.182-0.018,0.338,0.23,0.338,0.509
		c0,0.077-0.017,0.234-0.034,0.344c-0.007,0.031-0.01,0.047-0.017,0.078C39.001,22.258,38.662,24.043,37.982,27.557"/>
	
		<path clip-path="url(#SVGID_2_)" fill="none" stroke="#000000" stroke-width="0.5" stroke-linecap="round" stroke-linejoin="round" stroke-miterlimit="10" d="
		M37.982,27.557c-0.069,0.366-0.156,0.503-0.286,0.504c-0.122,0-0.208-0.122-0.26-0.409c-0.003-0.024-0.005-0.036-0.009-0.061
		c-0.689-3.503-1.034-5.227-1.724-8.616c-0.004-0.03-0.005-0.044-0.009-0.074c-0.035-0.101-0.043-0.19-0.043-0.279
		c0-0.313,0.139-0.565,0.329-0.584c0.156-0.015,0.26,0.124,0.312,0.419c0.009,0.06,0.018,0.059,0.018,0.059
		c0.533,2.642,0.8,3.98,1.333,6.691c0.004,0.012,0.006,0.018,0.009,0.03c0.018,0.075,0.026,0.075,0.044,0.074
		c0.017-0.03,0.034-0.031,0.052-0.108c0.53-2.726,0.795-4.106,1.326-6.9c0-0.031,0-0.015,0.009-0.078
		c0.052-0.312,0.164-0.508,0.311-0.523c0.182-0.018,0.338,0.23,0.338,0.509c0,0.077-0.017,0.234-0.034,0.344
		c-0.007,0.031-0.01,0.047-0.017,0.078C39.001,22.258,38.662,24.043,37.982,27.557z"/>
	<path clip-path="url(#SVGID_2_)" d="M45.02,17.1c0.014-0.001,0.021-0.002,0.035-0.003c0.234-0.024,0.372,0.191,0.372,0.566
		c0,0.39-0.129,0.597-0.364,0.618c-0.017,0.001-0.026,0.002-0.043,0.004c-1.158,0.102-1.737,0.153-2.895,0.256
		c-0.02,0.001-0.03,0.002-0.051,0.004c-0.095,0.009-0.13,0.06-0.13,0.186v0.047v3.127v0.047c0,0.142,0.026,0.172,0.113,0.168
		c0.013-0.001,0.02-0.002,0.034-0.002c0.925-0.046,1.388-0.069,2.314-0.114c0.017-0.001,0.026-0.002,0.043-0.003
		c0.234-0.013,0.382,0.189,0.382,0.529c0,0.373-0.139,0.639-0.339,0.648c-0.013,0.001-0.02,0.001-0.034,0.002
		c-0.964,0.037-1.445,0.056-2.409,0.094c-0.014,0.001-0.021,0.001-0.034,0.001c-0.053,0.003-0.087,0.052-0.087,0.115v0.063v0.032
		c-0.004,1.269-0.005,1.904-0.009,3.173v0.08c0,0.062,0.035,0.109,0.087,0.109c0.017-0.001,0.026-0.001,0.043-0.001
		c1.154-0.016,1.731-0.024,2.885-0.04c0.025,0,0.037,0,0.061-0.001c0.269-0.003,0.417,0.206,0.417,0.597
		c0,0.359-0.148,0.62-0.33,0.62c-0.025,0-0.037,0-0.061,0c-1.314,0.004-1.971,0.006-3.284,0.011c-0.021,0-0.031,0-0.052,0
		c-0.312,0.001-0.407-0.156-0.407-0.721v-0.015c0.01-3.579,0.015-5.37,0.026-8.95v-0.079c0-0.691,0.095-0.841,0.563-0.888
		c0.021-0.002,0.031-0.003,0.052-0.005C43.159,17.265,43.779,17.21,45.02,17.1"/>
	
		<path clip-path="url(#SVGID_2_)" fill="none" stroke="#000000" stroke-width="0.5" stroke-linecap="round" stroke-linejoin="round" stroke-miterlimit="10" d="
		M45.02,17.1c0.014-0.001,0.021-0.002,0.035-0.003c0.234-0.024,0.372,0.191,0.372,0.566c0,0.39-0.129,0.597-0.364,0.618
		c-0.017,0.001-0.026,0.002-0.043,0.004c-1.158,0.102-1.737,0.153-2.895,0.256c-0.02,0.001-0.03,0.002-0.051,0.004
		c-0.095,0.009-0.13,0.06-0.13,0.186v0.047v3.127v0.047c0,0.142,0.026,0.172,0.113,0.168c0.013-0.001,0.02-0.002,0.034-0.002
		c0.925-0.046,1.388-0.069,2.314-0.114c0.017-0.001,0.026-0.002,0.043-0.003c0.234-0.013,0.382,0.189,0.382,0.529
		c0,0.373-0.139,0.639-0.339,0.648c-0.013,0.001-0.02,0.001-0.034,0.002c-0.964,0.037-1.445,0.056-2.409,0.094
		c-0.014,0.001-0.021,0.001-0.034,0.001c-0.053,0.003-0.087,0.052-0.087,0.115v0.063v0.032c-0.004,1.269-0.005,1.904-0.009,3.173
		v0.08c0,0.062,0.035,0.109,0.087,0.109c0.017-0.001,0.026-0.001,0.043-0.001c1.154-0.016,1.731-0.024,2.885-0.04
		c0.025,0,0.037,0,0.061-0.001c0.269-0.003,0.417,0.206,0.417,0.597c0,0.359-0.148,0.62-0.33,0.62c-0.025,0-0.037,0-0.061,0
		c-1.314,0.004-1.971,0.006-3.284,0.011c-0.021,0-0.031,0-0.052,0c-0.312,0.001-0.407-0.156-0.407-0.721v-0.015
		c0.01-3.579,0.015-5.37,0.026-8.95v-0.079c0-0.691,0.095-0.841,0.563-0.888c0.021-0.002,0.031-0.003,0.052-0.005
		C43.159,17.265,43.779,17.21,45.02,17.1z"/>
	<path clip-path="url(#SVGID_2_)" d="M49.551,16.737l0.061-0.006c1.04-0.102,1.767,1.146,1.767,3.048
		c0,1.404-0.424,2.56-1.151,3.119c-0.035,0.036-0.044,0.036-0.044,0.07c0,0.051,0,0.051,0.018,0.119
		c0.003,0.013,0.005,0.02,0.008,0.033c0.427,1.542,0.64,2.32,1.066,3.89c0.061,0.239,0.078,0.325,0.078,0.462
		c0,0.342-0.139,0.6-0.321,0.6c-0.139,0.001-0.226-0.102-0.32-0.442c-0.493-1.776-0.739-2.655-1.231-4.394
		c-0.004-0.02-0.005-0.03-0.009-0.05c-0.008-0.067-0.017-0.066-0.017-0.066c-0.009-0.051-0.035-0.049-0.061-0.048
		c-0.014,0-0.021,0.001-0.034,0.001c-0.011,0.001-0.016,0.001-0.027,0.001c-0.53,0.024-0.795,0.036-1.325,0.06
		c-0.014,0-0.021,0.001-0.034,0.001c-0.061,0.003-0.079,0.054-0.079,0.17v0.05c-0.007,1.557-0.01,2.336-0.017,3.893v0.05
		c0,0.483-0.122,0.766-0.321,0.766c-0.225,0.001-0.329-0.23-0.329-0.76v-0.033c0.007-3.785,0.01-5.678,0.017-9.464v-0.083
		c0-0.629,0.087-0.769,0.546-0.814c0.014-0.002,0.021-0.002,0.035-0.004C48.518,16.838,48.862,16.805,49.551,16.737 M48.043,18.134
		c-0.013,0.001-0.02,0.002-0.034,0.003c-0.003,0-0.005,0-0.008,0.001c-0.07,0.006-0.096,0.042-0.096,0.158v0.033
		c-0.003,1.325-0.005,1.988-0.009,3.312v0.033c0,0.167,0.018,0.216,0.079,0.212c0.006,0,0.01,0,0.017-0.001
		c0.579-0.032,0.868-0.048,1.447-0.08c0.013-0.001,0.02-0.001,0.034-0.002c0.849-0.047,1.266-0.7,1.266-1.996
		c0-1.261-0.443-1.87-1.292-1.796c-0.021,0.002-0.031,0.003-0.052,0.005C48.854,18.063,48.584,18.087,48.043,18.134"/>
	
		<path clip-path="url(#SVGID_2_)" fill="none" stroke="#000000" stroke-width="0.5" stroke-linecap="round" stroke-linejoin="round" stroke-miterlimit="10" d="
		M49.551,16.737l0.061-0.006c1.04-0.102,1.767,1.146,1.767,3.048c0,1.404-0.424,2.56-1.151,3.119
		c-0.035,0.036-0.044,0.036-0.044,0.07c0,0.051,0,0.051,0.018,0.119c0.003,0.013,0.005,0.02,0.008,0.033
		c0.427,1.542,0.64,2.32,1.066,3.89c0.061,0.239,0.078,0.325,0.078,0.462c0,0.342-0.139,0.6-0.321,0.6
		c-0.139,0.001-0.226-0.102-0.32-0.442c-0.493-1.776-0.739-2.655-1.231-4.394c-0.004-0.02-0.005-0.03-0.009-0.05
		c-0.008-0.067-0.017-0.066-0.017-0.066c-0.009-0.051-0.035-0.049-0.061-0.048c-0.014,0-0.021,0.001-0.034,0.001
		c-0.011,0.001-0.016,0.001-0.027,0.001c-0.53,0.024-0.795,0.036-1.325,0.06c-0.014,0-0.021,0.001-0.034,0.001
		c-0.061,0.003-0.079,0.054-0.079,0.17v0.05c-0.007,1.557-0.01,2.336-0.017,3.893v0.05c0,0.483-0.122,0.766-0.321,0.766
		c-0.225,0.001-0.329-0.23-0.329-0.76v-0.033c0.007-3.785,0.01-5.678,0.017-9.464v-0.083c0-0.629,0.087-0.769,0.546-0.814
		c0.014-0.002,0.021-0.002,0.035-0.004C48.518,16.838,48.862,16.805,49.551,16.737z M48.043,18.134
		c-0.013,0.001-0.02,0.002-0.034,0.003c-0.003,0-0.005,0-0.008,0.001c-0.07,0.006-0.096,0.042-0.096,0.158v0.033
		c-0.003,1.325-0.005,1.988-0.009,3.312v0.033c0,0.167,0.018,0.216,0.079,0.212c0.006,0,0.01,0,0.017-0.001
		c0.579-0.032,0.868-0.048,1.447-0.08c0.013-0.001,0.02-0.001,0.034-0.002c0.849-0.047,1.266-0.7,1.266-1.996
		c0-1.261-0.443-1.87-1.292-1.796c-0.021,0.002-0.031,0.003-0.052,0.005C48.854,18.063,48.584,18.087,48.043,18.134z"/>
	<path clip-path="url(#SVGID_2_)" d="M54.967,22.433c-0.026,0.09-0.042,0.196-0.042,0.355v0.018v4.374c0,0.6-0.096,0.829-0.313,0.83
		c-0.234,0.001-0.329-0.245-0.329-0.877c-0.003-1.719-0.005-2.579-0.008-4.298v-0.088V22.73c0-0.193,0-0.246-0.044-0.367
		c0-0.035-0.009-0.017-0.009-0.052c-0.637-1.926-0.956-2.876-1.594-4.752c-0.052-0.151-0.095-0.389-0.095-0.51
		c0-0.328,0.156-0.638,0.346-0.657c0.122-0.012,0.182,0.069,0.278,0.338c0.554,1.637,0.831,2.466,1.386,4.141
		c0.007,0.014,0.01,0.021,0.017,0.034c0.01,0.035,0.016,0.052,0.026,0.086c0.017,0.035,0.026,0.016,0.035,0.034
		c0.026-0.002,0.069-0.075,0.104-0.183c0.561-1.738,0.842-2.617,1.403-4.395c0.087-0.294,0.182-0.427,0.313-0.44
		c0.181-0.018,0.328,0.254,0.328,0.629c0,0.126-0.026,0.271-0.078,0.419c-0.679,2.151-1.019,3.212-1.698,5.307
		C54.983,22.39,54.978,22.404,54.967,22.433"/>
	
		<path clip-path="url(#SVGID_2_)" fill="none" stroke="#000000" stroke-width="0.5" stroke-linecap="round" stroke-linejoin="round" stroke-miterlimit="10" d="
		M54.967,22.433c-0.026,0.09-0.042,0.196-0.042,0.355v0.018v4.374c0,0.6-0.096,0.829-0.313,0.83
		c-0.234,0.001-0.329-0.245-0.329-0.877c-0.003-1.719-0.005-2.579-0.008-4.298v-0.088V22.73c0-0.193,0-0.246-0.044-0.367
		c0-0.035-0.009-0.017-0.009-0.052c-0.637-1.926-0.956-2.876-1.594-4.752c-0.052-0.151-0.095-0.389-0.095-0.51
		c0-0.328,0.156-0.638,0.346-0.657c0.122-0.012,0.182,0.069,0.278,0.338c0.554,1.637,0.831,2.466,1.386,4.141
		c0.007,0.014,0.01,0.021,0.017,0.034c0.01,0.035,0.016,0.052,0.026,0.086c0.017,0.035,0.026,0.016,0.035,0.034
		c0.026-0.002,0.069-0.075,0.104-0.183c0.561-1.738,0.842-2.617,1.403-4.395c0.087-0.294,0.182-0.427,0.313-0.44
		c0.181-0.018,0.328,0.254,0.328,0.629c0,0.126-0.026,0.271-0.078,0.419c-0.679,2.151-1.019,3.212-1.698,5.307
		C54.983,22.39,54.978,22.404,54.967,22.433z"/>
	<path clip-path="url(#SVGID_2_)" d="M46.175,45.184c0.03-0.065,0.045-0.097,0.075-0.16c-1.248-1.842-4.007-2.565-6.277-1.34
		c-0.302-0.401-1.944-2.8-1.944-2.8c0.196-0.755,0.293-1.147,0.485-1.938c0.269,0.002,0.63,0.084,0.658,0.083
		c0.304-0.008,0.312,0.014,0.635-0.208c0.323-0.221,0.559-0.464,0.728-0.642c0.168-0.177,0.189-0.23,0.146-0.557
		c-0.037-0.281-0.052-0.589-0.255-0.746c-0.246-0.189-0.588-0.134-1.105-0.004c-0.518,0.13-1.289,0.131-1.922,0.079
		c-0.632-0.052-1.124-0.031-1.298,0.292c-0.144,0.267-0.276,0.559-0.136,0.629c0.125,0.062,1.5,0.819,1.783,0.98
		c-0.532,1.843-0.807,2.758-1.355,4.328c-0.017,0.045-0.064,0.07-0.108,0.057c-3.488-0.998-5.304-1.536-8.351-2.537
		c-0.042-0.014-0.067-0.069-0.056-0.12c0,0,1.241-6.169,1.326-6.503c0.063-0.243,0.213-0.138,0.318-0.112
		c0.365,0.094,0.617,0.124,0.617,0.124s0.417,0.148,0.554-0.2c0.149-0.378-0.278-0.539-0.278-0.539s-0.864-0.188-1.144-0.25
		c-0.28-0.061-0.463,0.12-0.541,0.473c-0.079,0.353-2.234,9.859-2.234,9.859c-0.618-0.297-1.233-0.384-1.747-0.384
		c-0.019,0.076-0.028,0.115-0.047,0.191c-2.108,0-3.173,2.228-3.173,4.974c0,2.746,1.756,5.217,3.675,5.471
		c1.918,0.254,3.643-1.86,3.667-5.011c0.067-0.012,0.101-0.018,0.168-0.03c0.002-1.915-0.608-3.909-1.998-4.927
		c0.135-0.465,0.201-0.687,0.33-1.153c0.036-0.129,0.15-0.201,0.264-0.164c2.15,0.699,3.073,1.013,5.559,1.751
		c0.067,0.02,0.123,0.068,0.155,0.134c0.413,0.863,0.626,1.332,1.053,2.306c0,0-0.602,0.594-0.591,1.622
		c0.008,0.789,0.378,1.499,1.004,1.88c-0.204,0.579-0.308,0.865-0.52,1.42c-0.171-0.013-0.257-0.02-0.43-0.034
		c-0.097-0.008-0.176,0.072-0.175,0.178c0,0.058,0.001,0.087,0.001,0.144c0.002,0.188,0.003,0.281,0.004,0.466
		c0.003,0.313,0.114,0.435,0.114,0.435c0.603,0.056,0.895,0.082,1.466,0.134c0.063,0.005,0.112-0.046,0.11-0.116
		c-0.004-0.194-0.006-0.293-0.01-0.491c-0.058-0.192-0.087-0.289-0.145-0.483c-0.029-0.097-0.106-0.167-0.192-0.174
		c-0.116-0.009-0.175-0.013-0.292-0.023c0.185-0.501,0.276-0.759,0.456-1.28c0.081,0.027,0.161,0.056,0.248,0.074
		c1.02,0.201,1.608-0.656,1.691-1.413c0.112,0.028,0.251,0.06,0.406,0.096c0,0.032-0.002,0.063-0.002,0.096
		c0.067,3.525,2.188,6.134,4.77,6.357c2.582,0.223,5.057-2.06,5.057-5.95C47.373,47.793,46.907,46.242,46.175,45.184 M27.73,48.612
		c0.016,2.24-1.19,3.843-2.598,3.668c-1.408-0.175-2.631-1.965-2.704-3.996c-0.073-2.03,0.818-3.656,2.331-3.649
		c0.458,0.002,0.917,0.157,1.33,0.435c-0.056,0.236-0.083,0.355-0.138,0.593c-0.059,0.264-0.141,0.518-0.243,0.753
		c0,0-0.619,1.557-0.739,1.777c-0.137,0.254,0.231,0.694,0.411,0.287c0.122-0.278,0.746-1.709,0.746-1.709
		c0.144-0.318,0.264-0.661,0.355-1.018c0.03-0.117,0.045-0.176,0.075-0.293C27.26,46.172,27.72,47.319,27.73,48.612 M35.683,46.234
		c0,0-0.199-0.063-0.41-0.022c-0.211,0.04-0.347,0.125-0.347,0.125c-0.328-0.761-0.492-1.128-0.814-1.819
		c-0.026-0.055,0.02-0.115,0.075-0.098c0.705,0.217,1.058,0.329,1.76,0.558c0.036,0.011,0.057,0.055,0.046,0.095
		C35.87,45.526,35.808,45.759,35.683,46.234 M40.529,45.331c0.558,1.45,0.829,2.285,1.363,3.939
		c-0.635-0.152-2.015-0.536-2.977-0.74C39.044,47.126,39.65,45.98,40.529,45.331 M37.582,48.239
		c-0.149-0.034-0.29-0.066-0.412-0.096c-0.008-1.23-0.793-1.733-0.793-1.733c0.467-1.867,0.684-2.567,1.236-4.247
		c0.607,0.856,0.918,1.205,1.561,2.069c-0.957,0.852-1.457,2.348-1.554,2.728c-0.011,0.042,0.129,0.215,0.129,0.215
		C37.667,47.514,37.613,47.871,37.582,48.239 M42.328,53.976c-1.85-0.151-3.344-2.127-3.434-4.653
		c1.149,0.252,3.02,0.689,3.281,0.757c0.275,0.071,0.414-0.239,0.346-0.5c1.028-1.284,1.56-1.963,2.629-3.222
		c0.497,0.81,0.798,1.907,0.787,3.111C45.91,52.247,44.212,54.13,42.328,53.976"/>
</g>
</svg>
