<?xml version="1.0" encoding="utf-8"?>
<!-- Generator: Adobe Illustrator 15.0.0, SVG Export Plug-In . SVG Version: 6.00 Build 0)  -->
<!DOCTYPE svg PUBLIC "-//W3C//DTD SVG 1.1//EN" "http://www.w3.org/Graphics/SVG/1.1/DTD/svg11.dtd">
<svg version="1.1" id="レイヤー_1" xmlns="http://www.w3.org/2000/svg" xmlns:xlink="http://www.w3.org/1999/xlink" x="0px"
	 y="0px" width="155.009px" height="138.805px" viewBox="0 0 155.009 138.805" enable-background="new 0 0 155.009 138.805"
	 xml:space="preserve">
<g>
	<defs>
		<rect id="SVGID_1_" width="155.009" height="138.805"/>
	</defs>
	<clipPath id="SVGID_2_">
		<use xlink:href="#SVGID_1_"  overflow="visible"/>
	</clipPath>
	<path clip-path="url(#SVGID_2_)" d="M53.146,17.099v0.183c0,0.571-0.416,0.987-0.988,0.987c-0.624,0-0.936-0.364-0.936-1.118
		v-0.182V2.227V2.096c0-0.754,0.364-1.222,0.988-1.222c0.676,0,0.988,0.39,0.988,1.222v0.078L53.146,17.099z"/>
	
		<path clip-path="url(#SVGID_2_)" fill="none" stroke="#000000" stroke-width="0.5" stroke-linecap="round" stroke-linejoin="round" stroke-miterlimit="10" d="
		M53.146,17.099v0.183c0,0.571-0.416,0.987-0.988,0.987c-0.624,0-0.936-0.364-0.936-1.118v-0.182V2.227V2.096
		c0-0.754,0.364-1.222,0.988-1.222c0.676,0,0.988,0.39,0.988,1.222v0.078L53.146,17.099z"/>
	<path clip-path="url(#SVGID_2_)" d="M59.697,3.475c0.234-0.416,0.39-0.963,0.39-1.379c0-0.207,0-0.233-0.078-0.623
		c-0.026-0.131-0.052-0.234-0.052-0.339c0-0.493,0.468-0.884,1.04-0.884c0.65,0,1.04,0.624,1.04,1.691
		c0,1.767-0.832,3.328-1.768,3.328c-0.547,0-0.936-0.391-0.936-0.91c0-0.183,0.078-0.39,0.208-0.624L59.697,3.475z"/>
	
		<path clip-path="url(#SVGID_2_)" fill="none" stroke="#000000" stroke-width="0.5" stroke-linecap="round" stroke-linejoin="round" stroke-miterlimit="10" d="
		M59.697,3.475c0.234-0.416,0.39-0.963,0.39-1.379c0-0.207,0-0.233-0.078-0.623c-0.026-0.131-0.052-0.234-0.052-0.339
		c0-0.493,0.468-0.884,1.04-0.884c0.65,0,1.04,0.624,1.04,1.691c0,1.767-0.832,3.328-1.768,3.328c-0.547,0-0.936-0.391-0.936-0.91
		c0-0.183,0.078-0.39,0.208-0.624L59.697,3.475z"/>
	<path clip-path="url(#SVGID_2_)" d="M81.407,16.996v0.13c0,0.727-0.441,1.17-1.065,1.17c-0.599,0-0.963-0.416-0.963-1.145v-0.078
		v-6.395v-0.13c0-1.664-0.91-2.627-2.496-2.627c-1.638,0-2.548,1.066-2.548,2.99v0.131v5.928v0.208c0,0.675-0.416,1.118-1.014,1.118
		c-0.599,0-0.988-0.416-0.988-1.118v-0.105v-6.084v-0.103c0-1.977-0.806-2.965-2.418-2.965c-1.664,0-2.496,1.014-2.496,3.043v0.13
		v5.694v0.104c0,0.961-0.312,1.404-0.989,1.404c-0.702,0-0.987-0.364-0.987-1.326v-0.13V7.375V7.271c0-0.78,0.363-1.221,1.014-1.221
		c0.338,0,0.572,0.13,0.78,0.441l0.077,0.078c0.027,0.104,0.078,0.104,0.131,0.104c0.052,0.026,0.13-0.026,0.312-0.13
		c0.702-0.39,1.352-0.571,2.158-0.571c1.118,0,2.236,0.416,3.12,1.195c0.182,0.156,0.26,0.183,0.338,0.183
		c0.078,0,0.13-0.027,0.234-0.13c0.962-0.832,2.106-1.275,3.302-1.275c2.548,0,4.498,1.821,4.498,4.212v0.13V16.996z"/>
	
		<path clip-path="url(#SVGID_2_)" fill="none" stroke="#000000" stroke-width="0.5" stroke-linecap="round" stroke-linejoin="round" stroke-miterlimit="10" d="
		M81.407,16.996v0.13c0,0.727-0.441,1.17-1.065,1.17c-0.599,0-0.963-0.416-0.963-1.145v-0.078v-6.395v-0.13
		c0-1.664-0.91-2.627-2.496-2.627c-1.638,0-2.548,1.066-2.548,2.99v0.131v5.928v0.208c0,0.675-0.416,1.118-1.014,1.118
		c-0.599,0-0.988-0.416-0.988-1.118v-0.105v-6.084v-0.103c0-1.977-0.806-2.965-2.418-2.965c-1.664,0-2.496,1.014-2.496,3.043v0.13
		v5.694v0.104c0,0.961-0.312,1.404-0.989,1.404c-0.702,0-0.987-0.364-0.987-1.326v-0.13V7.375V7.271c0-0.78,0.363-1.221,1.014-1.221
		c0.338,0,0.572,0.13,0.78,0.441l0.077,0.078c0.027,0.104,0.078,0.104,0.131,0.104c0.052,0.026,0.13-0.026,0.312-0.13
		c0.702-0.39,1.352-0.571,2.158-0.571c1.118,0,2.236,0.416,3.12,1.195c0.182,0.156,0.26,0.183,0.338,0.183
		c0.078,0,0.13-0.027,0.234-0.13c0.962-0.832,2.106-1.275,3.302-1.275c2.548,0,4.498,1.821,4.498,4.212v0.13V16.996z"/>
	<path clip-path="url(#SVGID_2_)" d="M121.335,58.492c-0.168,0-0.337-0.042-0.492-0.13l-10.438-5.906
		c-1.682,0.709-7.459,3.009-11.668,3.009H61.929c-11.947,0-24.713-6.647-24.713-25.302v-3.461c0-11.137,3.377-17.901,6.537-20.519
		c0.426-0.352,1.056-0.294,1.408,0.133c0.353,0.426,0.293,1.056-0.132,1.408c-2.81,2.327-5.813,8.535-5.813,18.978v3.461
		c0,11.265,5.967,23.302,22.713,23.302h36.808c4.443,0,11.254-3.007,11.321-3.038c0.29-0.129,0.623-0.113,0.9,0.044l6.787,3.84
		l-3.663-4.964c-0.324-0.439-0.236-1.056,0.197-1.388c0.07-0.054,7.171-5.666,7.171-17.207l1.623-3.422
		c-0.171,0.137-0.388,0.218-0.623,0.218c-0.552,0-1-0.448-1-1c0-12.525-10.189-22.714-22.714-22.714H88.294c-0.552,0-1-0.447-1-1
		c0-0.553,0.448-1,1-1h10.443c13.622,0,24.706,11.077,24.714,24.697v0.004v4.217c0,10.4-5.223,16.287-7.211,18.15l5.899,7.996
		c0.28,0.38,0.258,0.904-0.056,1.257C121.889,58.375,121.614,58.492,121.335,58.492"/>
	<path clip-path="url(#SVGID_2_)" fill="#E8373D" d="M147.092,47.37c0-4.034-3.27-7.304-7.304-7.304s-7.306,3.27-7.306,7.304
		c0,0.511,0.065,3.302,2.175,6.112c2.109,2.811,2.775,4.039,3.663,7.144c0.63,2.199,1.104,4.122,1.325,5.056
		c0.036,0.15,0.247,0.15,0.283,0c0.223-0.934,0.696-2.857,1.325-5.056c0.889-3.105,1.555-4.333,3.664-7.144
		C147.027,50.672,147.092,47.881,147.092,47.37"/>
	<path clip-path="url(#SVGID_2_)" d="M139.787,66.295c-0.3,0-0.558-0.205-0.627-0.497c-0.227-0.946-0.697-2.858-1.32-5.034
		c-0.849-2.967-1.45-4.14-3.583-6.982c-2.109-2.811-2.273-5.618-2.273-6.412c0-4.303,3.501-7.804,7.804-7.804
		c4.304,0,7.805,3.501,7.805,7.804c0,0.794-0.164,3.601-2.274,6.412c-2.132,2.842-2.733,4.016-3.582,6.982
		c-0.63,2.2-1.097,4.099-1.32,5.034C140.346,66.09,140.088,66.295,139.787,66.295 M139.787,40.566c-3.752,0-6.804,3.052-6.804,6.804
		c0,0.716,0.149,3.249,2.073,5.812c2.072,2.761,2.813,4.055,3.745,7.307c0.397,1.39,0.734,2.675,0.985,3.672
		c0.25-0.991,0.586-2.271,0.986-3.672c0.93-3.252,1.673-4.546,3.744-7.307c1.925-2.564,2.074-5.097,2.074-5.812
		C146.592,43.618,143.54,40.566,139.787,40.566"/>
	<path clip-path="url(#SVGID_2_)" fill="#A52126" d="M142.3,47.49c0,1.388-1.125,2.513-2.513,2.513
		c-1.387,0-2.512-1.125-2.512-2.513c0-1.388,1.125-2.513,2.512-2.513C141.175,44.977,142.3,46.102,142.3,47.49"/>
	<path clip-path="url(#SVGID_2_)" d="M139.787,50.502c-1.66,0-3.013-1.351-3.013-3.012c0-1.661,1.353-3.013,3.013-3.013
		c1.661,0,3.013,1.352,3.013,3.013C142.8,49.151,141.448,50.502,139.787,50.502 M139.787,45.477c-1.109,0-2.013,0.903-2.013,2.013
		c0,1.109,0.903,2.012,2.013,2.012s2.013-0.903,2.013-2.012C141.8,46.38,140.896,45.477,139.787,45.477"/>
	<path clip-path="url(#SVGID_2_)" d="M85.184,131.41H54.479c-0.703,0-1.356-0.365-1.724-0.966l-4.032-5.788
		c-0.642-0.92-1.692-1.469-2.814-1.469l-24.794-0.002c-0.736-0.001-1.411-0.412-1.749-1.067l-2.419-2.409h81.344
		c0,0-9.413,0.508-9.413,7.971h-2.005c-0.532,0-0.963,0.431-0.963,0.963v2.041C85.911,131.085,85.585,131.41,85.184,131.41"/>
	<path clip-path="url(#SVGID_2_)" d="M85.184,132.16H54.479c-0.958,0-1.863-0.508-2.363-1.324l-4.009-5.751
		c-0.501-0.719-1.323-1.148-2.198-1.148l-24.793-0.002c-0.981,0-1.872-0.519-2.356-1.361l-2.342-2.334
		c-0.215-0.214-0.28-0.537-0.164-0.817c0.116-0.281,0.39-0.464,0.694-0.464h81.343c0.405,0,0.737,0.323,0.749,0.729
		c0.012,0.406-0.303,0.748-0.708,0.771c-0.355,0.02-8.704,0.564-8.704,7.223c0,0.414-0.336,0.75-0.75,0.75h-2.005
		c-0.117,0-0.213,0.096-0.213,0.213v2.041C86.661,131.498,85.998,132.16,85.184,132.16 M18.764,120.458l1.133,1.129
		c0.055,0.055,0.102,0.119,0.138,0.188c0.208,0.406,0.623,0.659,1.082,0.659l24.793,0.002c1.366,0,2.647,0.67,3.429,1.791
		l4.033,5.788c0.257,0.418,0.662,0.645,1.108,0.645h30.682v-2.018c0-0.944,0.769-1.713,1.713-1.713h1.286
		c0.27-3.233,2.279-5.267,4.593-6.472H18.764z"/>
	<path clip-path="url(#SVGID_2_)" fill="#FFFFFF" d="M17.246,121.008h66.398c0.958,0,1.734-0.776,1.734-1.734V72.35
		c0-0.958-0.776-1.735-1.734-1.735H17.246c-0.958,0-1.735,0.777-1.735,1.735v46.924C15.511,120.232,16.288,121.008,17.246,121.008"
		/>
	<path clip-path="url(#SVGID_2_)" d="M83.644,121.758H17.246c-1.37,0-2.484-1.114-2.484-2.484V72.349
		c0-1.37,1.114-2.484,2.484-2.484h66.398c1.37,0,2.484,1.114,2.484,2.484v46.925C86.128,120.644,85.014,121.758,83.644,121.758
		 M17.246,71.365c-0.543,0-0.984,0.441-0.984,0.984v46.925c0,0.543,0.441,0.984,0.984,0.984h66.398c0.543,0,0.984-0.441,0.984-0.984
		V72.349c0-0.543-0.441-0.984-0.984-0.984H17.246z"/>
	<path clip-path="url(#SVGID_2_)" fill="#FFFFFF" d="M86.556,119.619l6.111,3.222c0,0,3.826-3.145,9.201-0.811
		c4.759,2.066,4.749,7.012,4.749,7.012h8.788c1.218,0,2.205-0.988,2.205-2.206v-15.008c0-1.774-0.324-3.533-0.958-5.19
		l-4.511-11.803c-0.326-0.854-1.146-1.418-2.061-1.418H87.584c-1.219,0-2.206,0.988-2.206,2.206v22.045
		C85.378,118.486,85.831,119.237,86.556,119.619"/>
	<path clip-path="url(#SVGID_2_)" d="M115.404,129.792h-8.787c-0.199,0-0.39-0.079-0.53-0.22c-0.142-0.142-0.221-0.333-0.22-0.532
		c-0.001-0.18-0.066-4.484-4.298-6.322c-4.896-2.126-8.391,0.675-8.426,0.703c-0.232,0.193-0.56,0.225-0.826,0.084l-6.112-3.223
		c-0.973-0.513-1.577-1.515-1.577-2.614V95.623c0-1.63,1.326-2.956,2.956-2.956h22.497c1.217,0,2.326,0.764,2.762,1.901
		l4.511,11.802c0.668,1.749,1.007,3.586,1.007,5.458v15.008C118.36,128.465,117.034,129.792,115.404,129.792 M107.312,128.292h8.093
		c0.803,0,1.456-0.653,1.456-1.456v-15.008c0-1.688-0.305-3.345-0.908-4.923l-4.512-11.802c-0.213-0.561-0.76-0.937-1.359-0.937
		H87.584c-0.803,0-1.456,0.653-1.456,1.456v22.045c0,0.542,0.298,1.035,0.776,1.288l5.703,3.006
		c1.192-0.785,4.806-2.684,9.561-0.619C106.219,123.101,107.113,126.718,107.312,128.292"/>
	<path clip-path="url(#SVGID_2_)" d="M113.394,113.51c-0.234,0-0.471-0.041-0.698-0.124l-21.978-8.03
		c-0.695-0.253-1.163-0.921-1.163-1.662v-7.362c0-0.976,0.794-1.77,1.77-1.77h17.426c0.73,0,1.377,0.439,1.646,1.118l4.912,12.44
		c0.081,0.206,0.123,0.425,0.123,0.649v2.704c0,0.664-0.324,1.288-0.869,1.669C114.216,113.385,113.807,113.51,113.394,113.51
		 M91.324,96.062c-0.148,0-0.27,0.121-0.27,0.27v7.362c0,0.113,0.071,0.215,0.177,0.253l21.979,8.031
		c0.167,0.06,0.346,0.038,0.491-0.064c0.068-0.048,0.229-0.188,0.229-0.439v-2.704c0-0.001-0.018-0.098-0.019-0.099l-4.911-12.439
		c-0.041-0.103-0.14-0.17-0.251-0.17H91.324z"/>
	<path clip-path="url(#SVGID_2_)" d="M89.524,129.872c0,4.52,3.664,8.183,8.184,8.183s8.183-3.663,8.183-8.183
		c0-4.519-3.663-8.183-8.183-8.183S89.524,125.353,89.524,129.872"/>
	<path clip-path="url(#SVGID_2_)" d="M97.708,138.805c-4.926,0-8.934-4.008-8.934-8.934s4.008-8.933,8.934-8.933
		s8.933,4.007,8.933,8.933S102.634,138.805,97.708,138.805 M97.708,122.439c-4.099,0-7.434,3.334-7.434,7.433
		s3.335,7.434,7.434,7.434s7.433-3.335,7.433-7.434S101.807,122.439,97.708,122.439"/>
	<path clip-path="url(#SVGID_2_)" d="M32.953,129.872c0,4.52,3.664,8.183,8.183,8.183c4.52,0,8.183-3.663,8.183-8.183
		c0-4.519-3.663-8.183-8.183-8.183C36.617,121.689,32.953,125.353,32.953,129.872"/>
	<path clip-path="url(#SVGID_2_)" d="M41.136,138.805c-4.926,0-8.933-4.008-8.933-8.934s4.007-8.933,8.933-8.933
		c4.926,0,8.934,4.007,8.934,8.933S46.062,138.805,41.136,138.805 M41.136,122.439c-4.099,0-7.433,3.334-7.433,7.433
		s3.334,7.434,7.433,7.434s7.434-3.335,7.434-7.434S45.235,122.439,41.136,122.439"/>
	<path clip-path="url(#SVGID_2_)" fill="#FFFFFF" d="M93.339,129.458c0,2.528,2.049,4.577,4.577,4.577
		c2.527,0,4.577-2.049,4.577-4.577s-2.05-4.577-4.577-4.577C95.388,124.88,93.339,126.929,93.339,129.458"/>
	<path clip-path="url(#SVGID_2_)" d="M97.916,134.785c-2.938,0-5.327-2.39-5.327-5.327s2.389-5.327,5.327-5.327
		c2.938,0,5.327,2.39,5.327,5.327S100.854,134.785,97.916,134.785 M97.916,125.63c-2.11,0-3.827,1.717-3.827,3.827
		c0,2.109,1.717,3.827,3.827,3.827s3.827-1.718,3.827-3.827C101.743,127.347,100.026,125.63,97.916,125.63"/>
	<path clip-path="url(#SVGID_2_)" fill="#FFFFFF" d="M36.559,129.458c0,2.528,2.049,4.577,4.577,4.577s4.577-2.049,4.577-4.577
		s-2.049-4.577-4.577-4.577S36.559,126.929,36.559,129.458"/>
	<path clip-path="url(#SVGID_2_)" d="M41.136,134.785c-2.938,0-5.327-2.39-5.327-5.327s2.389-5.327,5.327-5.327
		s5.327,2.39,5.327,5.327S44.074,134.785,41.136,134.785 M41.136,125.63c-2.11,0-3.827,1.717-3.827,3.827
		c0,2.109,1.717,3.827,3.827,3.827s3.827-1.718,3.827-3.827C44.963,127.347,43.246,125.63,41.136,125.63"/>
	<path clip-path="url(#SVGID_2_)" d="M119.341,109.988c-0.932,0-1.69-0.759-1.69-1.69v-5.548c0-0.932,0.759-1.69,1.69-1.69
		s1.69,0.759,1.69,1.69v5.548C121.031,109.229,120.272,109.988,119.341,109.988 M119.341,102.559c-0.103,0-0.19,0.087-0.19,0.19
		v5.548c0,0.207,0.381,0.207,0.381,0v-5.548C119.531,102.646,119.443,102.559,119.341,102.559"/>
	<path clip-path="url(#SVGID_2_)" d="M117.901,112.578h-1.19c-0.414,0-0.75-0.336-0.75-0.75v-0.489c0-0.414,0.336-0.75,0.75-0.75
		h0.959c0.045-0.022,0.13-0.222,0.13-1.026v-2.129c0-0.414,0.336-0.75,0.75-0.75h0.605c0.414,0,0.75,0.336,0.75,0.75v2.619
		C119.905,111.54,119.081,112.578,117.901,112.578"/>
	<path clip-path="url(#SVGID_2_)" fill="#FFFFFF" d="M4.921,124.514c0.379,0,0.738,0.066,1.087,0.16
		c0.181-1.569,1.465-2.806,3.084-2.806c1.742,0,3.154,1.412,3.154,3.154c0,0.827-0.335,1.565-0.856,2.129l6.001,1.789l-5.91,1.411
		c0.457,0.548,0.765,1.227,0.765,1.994c0,1.742-1.412,3.154-3.154,3.154c-1.619,0-2.903-1.235-3.084-2.806
		c-0.349,0.094-0.708,0.161-1.087,0.161c-2.304,0-4.171-1.867-4.171-4.171S2.617,124.514,4.921,124.514"/>
	<path clip-path="url(#SVGID_2_)" d="M9.092,136.251c-1.684,0-3.139-1.106-3.655-2.678c-0.177,0.021-0.347,0.032-0.516,0.032
		c-2.714,0-4.921-2.207-4.921-4.921s2.207-4.922,4.921-4.922c0.17,0,0.34,0.011,0.516,0.032c0.517-1.57,1.971-2.677,3.655-2.677
		c2.152,0,3.904,1.751,3.904,3.903c0,0.593-0.141,1.174-0.406,1.705l5.015,1.494c0.325,0.097,0.545,0.4,0.535,0.739
		c-0.009,0.339-0.245,0.63-0.575,0.709l-4.897,1.17c0.216,0.48,0.328,0.989,0.328,1.508C12.996,134.5,11.244,136.251,9.092,136.251
		 M6.008,131.945c0.149,0,0.296,0.044,0.421,0.13c0.181,0.122,0.299,0.317,0.324,0.534c0.141,1.222,1.146,2.143,2.339,2.143
		c1.326,0,2.404-1.078,2.404-2.404c0-0.667-0.321-1.191-0.591-1.515c-0.167-0.2-0.218-0.471-0.136-0.717
		c0.082-0.246,0.285-0.433,0.537-0.493l3.191-0.763l-3.322-0.989c-0.248-0.074-0.44-0.271-0.509-0.521
		c-0.068-0.25-0.002-0.518,0.174-0.708c0.423-0.457,0.656-1.032,0.656-1.62c0-1.325-1.078-2.403-2.404-2.403
		c-1.193,0-2.198,0.921-2.339,2.143c-0.025,0.217-0.143,0.412-0.324,0.535c-0.182,0.122-0.407,0.159-0.618,0.103
		c-0.341-0.093-0.624-0.136-0.89-0.136c-1.887,0-3.421,1.535-3.421,3.422s1.534,3.421,3.421,3.421c0.265,0,0.549-0.043,0.892-0.136
		C5.877,131.954,5.943,131.945,6.008,131.945"/>
	<path clip-path="url(#SVGID_2_)" fill="#E60012" d="M137.883,138.534h-0.014c-1.027-0.023-2.047-0.077-3.033-0.16
		c-0.33-0.028-0.575-0.317-0.547-0.648c0.027-0.33,0.306-0.588,0.648-0.547c0.961,0.081,1.957,0.133,2.959,0.156
		c0.331,0.007,0.594,0.282,0.586,0.613C138.475,138.274,138.208,138.534,137.883,138.534 M140.883,138.516
		c-0.321,0-0.588-0.254-0.599-0.578c-0.012-0.331,0.247-0.609,0.578-0.621c1.016-0.036,2.01-0.103,2.956-0.195
		c0.332-0.027,0.624,0.208,0.655,0.538c0.033,0.329-0.208,0.623-0.537,0.655c-0.971,0.097-1.99,0.164-3.031,0.201H140.883z
		 M131.908,138.018c-0.031,0-0.063-0.002-0.094-0.007c-1.07-0.169-2.078-0.376-2.997-0.616c-0.321-0.083-0.513-0.411-0.43-0.731
		c0.084-0.32,0.413-0.513,0.732-0.429c0.881,0.229,1.85,0.429,2.88,0.591c0.328,0.052,0.552,0.359,0.5,0.687
		C132.453,137.807,132.198,138.018,131.908,138.018 M146.85,137.917c-0.285,0-0.539-0.206-0.59-0.497
		c-0.057-0.326,0.16-0.638,0.487-0.694c1.035-0.182,1.997-0.4,2.861-0.652c0.314-0.096,0.65,0.09,0.743,0.408
		s-0.091,0.651-0.408,0.744c-0.906,0.264-1.911,0.493-2.989,0.682C146.919,137.913,146.884,137.917,146.85,137.917 M126.137,136.432
		c-0.085,0-0.171-0.019-0.253-0.057c-1.352-0.632-2.216-1.36-2.567-2.164c-0.134-0.304,0.005-0.658,0.309-0.791
		c0.305-0.132,0.658,0.007,0.79,0.309c0.226,0.515,0.928,1.068,1.976,1.559c0.302,0.141,0.432,0.498,0.29,0.798
		C126.579,136.303,126.363,136.432,126.137,136.432 M152.563,136.151c-0.211,0-0.417-0.112-0.526-0.312
		c-0.16-0.29-0.054-0.655,0.237-0.814c0.99-0.546,1.536-1.133,1.536-1.654c0-0.233-0.107-0.479-0.319-0.73
		c-0.214-0.254-0.181-0.633,0.072-0.846c0.253-0.214,0.633-0.181,0.846,0.072c0.398,0.475,0.601,0.979,0.601,1.504
		c0,1.007-0.726,1.917-2.157,2.705C152.76,136.126,152.66,136.151,152.563,136.151 M125.054,132.112
		c-0.193,0-0.383-0.093-0.499-0.267c-0.185-0.273-0.11-0.646,0.164-0.831c0.723-0.484,1.688-0.925,2.872-1.31
		c0.314-0.103,0.654,0.07,0.757,0.385c0.103,0.315-0.07,0.653-0.386,0.756c-1.079,0.351-1.944,0.743-2.574,1.165
		C125.285,132.08,125.169,132.112,125.054,132.112 M151.438,131.262c-0.075,0-0.152-0.014-0.227-0.044
		c-0.789-0.32-1.723-0.608-2.775-0.856c-0.322-0.076-0.523-0.399-0.446-0.722c0.075-0.322,0.396-0.522,0.721-0.446
		c1.113,0.262,2.107,0.568,2.952,0.913c0.308,0.124,0.456,0.475,0.331,0.78C151.899,131.122,151.675,131.262,151.438,131.262
		 M130.683,130.139c-0.28,0-0.531-0.199-0.588-0.485c-0.063-0.325,0.149-0.642,0.475-0.704c0.94-0.184,1.954-0.338,3.013-0.458
		c0.322-0.036,0.627,0.198,0.664,0.528c0.038,0.329-0.199,0.626-0.528,0.663c-1.026,0.117-2.01,0.267-2.919,0.444
		C130.76,130.135,130.722,130.139,130.683,130.139 M145.624,129.83c-0.027,0-0.056-0.001-0.084-0.006
		c-0.942-0.132-1.933-0.235-2.943-0.308c-0.331-0.023-0.579-0.311-0.556-0.642c0.024-0.33,0.308-0.583,0.642-0.556
		c1.037,0.074,2.055,0.181,3.024,0.317c0.328,0.046,0.557,0.349,0.511,0.677C146.176,129.613,145.918,129.83,145.624,129.83
		 M136.641,129.45c-0.317,0-0.583-0.25-0.599-0.57c-0.016-0.331,0.24-0.612,0.571-0.629c0.801-0.038,1.624-0.063,2.46-0.057
		l0.575,0.003c0.331,0.003,0.597,0.273,0.594,0.605c-0.004,0.329-0.272,0.594-0.602,0.594h-0.006l-0.563-0.003
		c-0.827-0.007-1.62,0.019-2.402,0.057H136.641z"/>
	<path clip-path="url(#SVGID_2_)" fill="#906325" d="M144.743,79.517c0,0,0.446-1.627,1.682-2.18
		c1.419-0.634,2.949,0.299,3.546,2.399c0.453,1.592,2.183,1.565,3.003,0.309c-0.483,1.623-1.474,2.75-3.161,2.93
		c-2.157,0.23-3.2-0.821-4.961-2.488L144.743,79.517z"/>
	<path clip-path="url(#SVGID_2_)" d="M149.25,83.506c-1.938,0-3.077-1.079-4.6-2.521l-0.144-0.136
		c-0.086-0.081-0.14-0.19-0.153-0.309l-0.107-0.97c-0.007-0.063-0.002-0.126,0.015-0.187c0.021-0.076,0.524-1.861,1.96-2.504
		c0.719-0.321,1.498-0.319,2.195,0.009c0.941,0.439,1.664,1.401,2.036,2.709c0.139,0.49,0.433,0.793,0.828,0.853
		c0.463,0.063,0.96-0.197,1.273-0.681c0.137-0.207,0.402-0.284,0.629-0.18s0.341,0.358,0.27,0.596
		c-0.583,1.962-1.823,3.098-3.587,3.285C149.651,83.496,149.446,83.506,149.25,83.506 M145.327,80.25l0.011,0.01
		c1.647,1.56,2.556,2.427,4.421,2.219c0.828-0.088,1.482-0.432,1.975-1.041c-0.199,0.034-0.401,0.034-0.604,0.003
		c-0.793-0.12-1.39-0.691-1.64-1.567c-0.287-1.01-0.832-1.767-1.496-2.076c-0.438-0.204-0.911-0.205-1.365-0.003
		c-0.856,0.385-1.272,1.463-1.378,1.772L145.327,80.25z"/>
	<path clip-path="url(#SVGID_2_)" d="M137.33,131.2c0,0-0.92,0.694-2.272,1.306c-0.872,0.395-0.464,1.307,0.399,1.307
		c0.861,0,3.71-0.653,3.71-0.653l0.035-1.959H137.33z"/>
	<path clip-path="url(#SVGID_2_)" d="M135.456,134.412c-0.725,0-1.323-0.433-1.458-1.054c-0.123-0.57,0.195-1.12,0.813-1.399
		c1.276-0.577,2.147-1.231,2.156-1.237c0.104-0.079,0.231-0.121,0.361-0.121h1.873c0.161,0,0.316,0.065,0.429,0.18
		s0.175,0.27,0.172,0.431l-0.035,1.96c-0.006,0.275-0.198,0.513-0.467,0.574C139.002,133.813,136.36,134.412,135.456,134.412
		 M135.173,133.144c0.024,0,0.114,0.068,0.283,0.068c0.55,0,2.162-0.327,3.119-0.535l0.017-0.878h-1.068
		c-0.336,0.235-1.145,0.768-2.218,1.253c-0.111,0.05-0.139,0.094-0.139,0.094C135.168,133.145,135.17,133.144,135.173,133.144"/>
	<path clip-path="url(#SVGID_2_)" d="M142.617,131.2c0,0,0.919,0.694,2.272,1.306c0.872,0.395,0.464,1.307-0.399,1.307
		c-0.861,0-3.71-0.653-3.71-0.653l-0.036-1.959H142.617z"/>
	<path clip-path="url(#SVGID_2_)" d="M144.491,134.412c-0.904,0-3.547-0.599-3.845-0.667c-0.269-0.062-0.461-0.299-0.466-0.574
		l-0.036-1.96c-0.003-0.161,0.059-0.316,0.172-0.43c0.113-0.116,0.268-0.181,0.428-0.181h1.873c0.131,0,0.258,0.042,0.361,0.12
		c0.009,0.007,0.889,0.665,2.158,1.238c0.616,0.279,0.935,0.828,0.812,1.399C145.814,133.979,145.216,134.412,144.491,134.412
		 M141.372,132.677c0.958,0.208,2.57,0.535,3.119,0.535c0.155,0,0.243-0.057,0.274-0.094c-0.017-0.006-0.054-0.035-0.123-0.066
		c-1.074-0.485-1.883-1.018-2.218-1.253h-1.069L141.372,132.677z"/>
	<path clip-path="url(#SVGID_2_)" fill="#FDEDDB" d="M132.576,79.228l-1.559-5.13c0,0,1.046-0.62,1.365-1.417
		s0.416-2.265,0.416-2.956c0-0.691-0.67-1.166-0.91,0c-0.167,0.816-0.659,1.024-0.659,1.024s-0.363-3.482-0.396-4.233
		c-0.047-1.009-0.866-1.212-1.007,0.003c-0.135,1.149-0.217,2.841-0.217,2.841s-0.469-2.12-0.638-3.084
		c-0.148-0.844-1.115-0.715-1.063,0.16c0.065,1.127,0.371,3.03,0.371,3.03s-0.73-1.946-1.106-2.729
		c-0.235-0.488-1.055-0.336-0.896,0.462c0.159,0.797,0.653,2.745,0.653,2.745s-0.801-0.978-1.095-1.329
		c-0.436-0.518-1.057-0.215-0.577,0.849c0.478,1.063,1.064,1.888,1.064,1.888s0.201,1.483,0.521,2.068
		c0.319,0.584,1.657,1.305,1.657,1.305l1.07,5.321L132.576,79.228z"/>
	<path clip-path="url(#SVGID_2_)" d="M129.572,80.646c-0.111,0-0.221-0.03-0.315-0.089c-0.142-0.088-0.24-0.229-0.274-0.393
		l-1.017-5.052c-0.462-0.271-1.339-0.838-1.648-1.405c-0.311-0.567-0.505-1.712-0.567-2.131c-0.188-0.278-0.646-0.993-1.039-1.866
		c-0.543-1.207,0.031-1.689,0.219-1.807c0.264-0.166,0.582-0.175,0.877-0.047c-0.047-0.205-0.088-0.391-0.117-0.541
		c-0.151-0.754,0.246-1.247,0.706-1.401c0.328-0.109,0.675-0.052,0.943,0.13c0.119-0.552,0.537-0.88,0.967-0.93
		c0.407-0.047,0.87,0.154,1.113,0.623c0.229-0.487,0.604-0.645,0.945-0.655c0.592,0.02,1.03,0.599,1.067,1.407
		c0.017,0.355,0.111,1.368,0.204,2.309c0.297-0.385,0.669-0.398,0.811-0.376c0.543,0.054,0.952,0.615,0.952,1.302
		c0,0.704-0.096,2.273-0.459,3.179c-0.254,0.636-0.825,1.148-1.22,1.443l1.431,4.706c0.047,0.155,0.028,0.323-0.05,0.465
		c-0.078,0.143-0.211,0.246-0.368,0.289l-3.003,0.818C129.678,80.639,129.625,80.646,129.572,80.646 M126.189,69.987
		c0.329,0.601,0.619,1.012,0.623,1.018c0.057,0.079,0.093,0.17,0.106,0.267c0.072,0.532,0.258,1.508,0.452,1.861
		c0.151,0.279,0.919,0.798,1.414,1.064c0.156,0.085,0.268,0.235,0.304,0.41l0.944,4.691l1.789-0.487l-1.379-4.537
		c-0.08-0.264,0.03-0.549,0.268-0.69c0.243-0.146,0.918-0.631,1.115-1.125c0.175-0.437,0.278-1.153,0.331-1.795
		c-0.287,0.453-0.639,0.615-0.693,0.639c-0.174,0.073-0.374,0.062-0.539-0.036c-0.164-0.097-0.271-0.266-0.292-0.454
		c-0.01-0.104-0.196-1.89-0.312-3.16c-0.07,0.886-0.111,1.726-0.112,1.737c-0.015,0.3-0.249,0.543-0.549,0.569
		c-0.293,0.035-0.572-0.174-0.638-0.468c-0.012-0.057-0.209-0.949-0.392-1.832c0.108,0.873,0.24,1.701,0.242,1.714
		c0.049,0.303-0.142,0.595-0.438,0.675c-0.3,0.078-0.607-0.082-0.716-0.37c-0.005-0.012-0.32-0.851-0.637-1.634
		c0.194,0.822,0.427,1.74,0.43,1.754c0.07,0.272-0.06,0.556-0.311,0.682c-0.253,0.129-0.558,0.063-0.734-0.155
		C126.467,70.324,126.35,70.182,126.189,69.987"/>
	<polygon clip-path="url(#SVGID_2_)" fill="#DCDDDD" points="133.864,109.308 137.126,131.2 139.479,131.2 139.073,112.765 
		140.173,112.765 140.518,131.2 142.617,131.2 145.095,109.308 	"/>
	<path clip-path="url(#SVGID_2_)" d="M142.617,131.7h-2.1c-0.272,0-0.494-0.218-0.5-0.49l-0.335-17.944h-0.099l0.396,17.924
		c0.003,0.134-0.048,0.265-0.143,0.36c-0.095,0.097-0.224,0.15-0.357,0.15h-2.354c-0.247,0-0.458-0.182-0.494-0.427l-3.263-21.892
		c-0.021-0.144,0.021-0.289,0.116-0.399s0.233-0.174,0.379-0.174h11.23c0.143,0,0.277,0.061,0.373,0.167
		c0.095,0.106,0.14,0.248,0.123,0.39l-2.477,21.892C143.086,131.508,142.872,131.7,142.617,131.7 M141.008,130.7h1.163l2.364-20.892
		h-10.091l3.113,20.892h1.411l-0.396-17.924c-0.003-0.134,0.048-0.265,0.143-0.36s0.224-0.15,0.357-0.15h1.1
		c0.272,0,0.494,0.218,0.5,0.49L141.008,130.7z"/>
	<path clip-path="url(#SVGID_2_)" d="M141.019,113.365h-2.964c-0.332,0-0.6-0.269-0.6-0.6s0.268-0.6,0.6-0.6h2.964
		c0.331,0,0.6,0.269,0.6,0.6S141.35,113.365,141.019,113.365"/>
	<path clip-path="url(#SVGID_2_)" fill="#FEDC5E" d="M149.912,108.926c0,0-3.144-11.703-3.709-13.633
		c-0.487-1.666-2.063-2.615-3.132-2.615h-4.554c0,0-2.712-4.778-3.675-7.269c-0.798-2.063-2.268-6.182-2.268-6.182l-3.004,0.818
		c0,0,1.001,4.66,1.73,7.491c0.623,2.422,1.91,6.398,2.563,8.499l-1.406,13.804c0,0,2.404,0.875,6.971,0.875
		c4.565,0,6.971-0.875,6.971-0.875l-0.953-7.044l2.098,6.744L149.912,108.926z"/>
	<path clip-path="url(#SVGID_2_)" d="M139.429,111.315c-4.619,0-7.073-0.874-7.176-0.911c-0.258-0.094-0.42-0.351-0.392-0.624
		l1.394-13.682l-0.42-1.339c-0.68-2.16-1.612-5.119-2.115-7.073c-0.722-2.81-1.725-7.467-1.734-7.514
		c-0.067-0.312,0.121-0.621,0.429-0.705l3.004-0.818c0.305-0.077,0.618,0.083,0.723,0.378c0.015,0.041,1.476,4.134,2.262,6.166
		c0.798,2.064,2.859,5.799,3.467,6.886h4.202c1.354,0,3.159,1.164,3.708,3.047c0.561,1.913,3.585,13.167,3.713,13.646
		c0.042,0.154,0.02,0.319-0.062,0.457c-0.08,0.139-0.213,0.239-0.368,0.279l-2.368,0.614c-0.286,0.071-0.577-0.071-0.697-0.333
		c0.024,0.27-0.137,0.522-0.392,0.615C146.502,110.441,144.048,111.315,139.429,111.315 M133.105,109.409
		c0.873,0.236,3.025,0.707,6.323,0.707c3.277,0,5.423-0.465,6.308-0.703l-0.885-6.536c-0.042-0.309,0.16-0.599,0.465-0.666
		c0.302-0.071,0.609,0.109,0.702,0.408l1.929,6.197l1.229-0.318c-0.644-2.393-3.063-11.382-3.548-13.035
		c-0.417-1.426-1.752-2.185-2.557-2.185h-4.554c-0.216,0-0.415-0.115-0.521-0.304c-0.111-0.196-2.745-4.846-3.713-7.348
		c-0.623-1.61-1.662-4.495-2.085-5.674l-1.919,0.523c0.288,1.319,1.033,4.698,1.603,6.911c0.495,1.923,1.421,4.864,2.099,7.012
		l0.456,1.46c0.024,0.077,0.032,0.158,0.024,0.237L133.105,109.409z"/>
	<path clip-path="url(#SVGID_2_)" fill="#FDEDDB" d="M147.498,84.26c0-0.799,0.013-1.04-0.201-2.229
		c-0.215-1.188-0.734-5.803-6.288-6.171c-5.555-0.369-6.825,4.351-7.049,5.285c-0.225,0.935-0.373,1.333-0.479,2.125
		c-2.327-1.06-2.475,4.045,0.092,3.896c0.467,1.789,1.901,3.572,4.715,4.858c-0.003,0.053-0.111,1.033-0.111,1.033
		s0.392,1.094,1.996,1.076c1.28-0.015,1.659-0.847,1.659-0.847s-0.231-1.111-0.229-1.165c2.576-0.611,4.475-2.371,5.175-4.082
		C149.303,88.527,149.863,83.793,147.498,84.26"/>
	<path clip-path="url(#SVGID_2_)" d="M140.134,94.734c-1.971,0-2.501-1.413-2.522-1.473c-0.03-0.088-0.041-0.18-0.031-0.271
		c0,0,0.036-0.324,0.067-0.607c-2.854-1.41-4.042-3.22-4.525-4.639c-0.76-0.113-1.376-0.606-1.733-1.405
		c-0.516-1.156-0.35-2.629,0.379-3.352c0.338-0.335,0.768-0.489,1.231-0.457c0.056-0.27,0.12-0.517,0.193-0.797
		c0.055-0.21,0.115-0.444,0.184-0.729c0.346-1.444,1.916-6.116,7.672-5.743c3.83,0.253,6.121,2.435,6.809,6.483l0.03,0.179
		c0.159,0.885,0.199,1.276,0.209,1.726c0.466,0.071,0.86,0.319,1.131,0.723c0.563,0.841,0.491,2.223-0.168,3.216
		c-0.466,0.702-1.145,1.083-1.91,1.086c-0.886,1.76-2.715,3.221-4.854,3.881c0.06,0.295,0.125,0.608,0.125,0.608
		c0.026,0.125,0.012,0.255-0.041,0.371c-0.199,0.438-0.886,1.186-2.199,1.198C140.164,94.734,140.149,94.734,140.134,94.734
		 M138.792,92.949c0.122,0.191,0.48,0.574,1.375,0.585c0.583-0.007,0.886-0.225,1.026-0.375c-0.197-0.949-0.194-0.99-0.188-1.081
		c0.02-0.261,0.205-0.479,0.46-0.54c2.476-0.588,4.173-2.295,4.758-3.725c0.108-0.267,0.39-0.419,0.669-0.362
		c0.482,0.091,0.874-0.085,1.167-0.525c0.42-0.634,0.428-1.502,0.172-1.885c-0.087-0.129-0.232-0.267-0.615-0.191
		c-0.179,0.036-0.359-0.012-0.497-0.125c-0.14-0.114-0.22-0.284-0.22-0.463v-0.124c0.001-0.693,0.001-0.927-0.192-2l-0.033-0.19
		c-0.24-1.413-0.877-5.168-5.704-5.488c-4.672-0.32-6.053,3.272-6.426,4.826c-0.07,0.294-0.133,0.535-0.19,0.753
		c-0.12,0.465-0.209,0.801-0.276,1.312c-0.026,0.188-0.138,0.354-0.305,0.446c-0.166,0.092-0.366,0.1-0.539,0.021
		c-0.408-0.187-0.556-0.04-0.619,0.024c-0.329,0.325-0.456,1.275-0.128,2.011c0.224,0.502,0.567,0.726,1.054,0.717
		c0.289-0.011,0.543,0.171,0.615,0.447c0.477,1.828,1.993,3.371,4.384,4.463c0.227,0.104,0.365,0.336,0.349,0.585
		C138.885,92.103,138.824,92.658,138.792,92.949"/>
	<path clip-path="url(#SVGID_2_)" d="M138.695,83.85c-0.029,0.436-0.33,0.771-0.674,0.749c-0.343-0.023-0.598-0.396-0.568-0.831
		c0.028-0.438,0.331-0.772,0.674-0.75C138.469,83.041,138.724,83.413,138.695,83.85"/>
	<path clip-path="url(#SVGID_2_)" d="M142.984,84.283c-0.029,0.437-0.33,0.772-0.674,0.749c-0.343-0.022-0.598-0.395-0.568-0.83
		c0.028-0.438,0.331-0.772,0.674-0.75C142.758,83.474,143.013,83.847,142.984,84.283"/>
	<path clip-path="url(#SVGID_2_)" fill="#FFFFFF" d="M138.479,83.706c-0.01,0.135-0.102,0.237-0.206,0.23
		c-0.106-0.007-0.185-0.121-0.175-0.255c0.009-0.134,0.102-0.237,0.207-0.23C138.41,83.458,138.488,83.572,138.479,83.706"/>
	<path clip-path="url(#SVGID_2_)" fill="#FFFFFF" d="M142.744,84.093c-0.009,0.135-0.101,0.237-0.206,0.23s-0.184-0.121-0.175-0.255
		s0.103-0.237,0.207-0.23C142.676,83.845,142.753,83.959,142.744,84.093"/>
	<path clip-path="url(#SVGID_2_)" d="M139.48,86.815c-0.182,0-0.359-0.081-0.478-0.235c-0.413-0.541-0.416-1.235-0.007-1.729
		c0.389-0.468,1.037-0.605,1.575-0.336c0.296,0.149,0.415,0.51,0.266,0.806c-0.15,0.296-0.51,0.413-0.806,0.267
		c-0.039-0.021-0.077-0.012-0.112,0.03c-0.048,0.059-0.036,0.138,0.037,0.233c0.201,0.264,0.151,0.64-0.112,0.841
		C139.735,86.775,139.607,86.815,139.48,86.815"/>
	<path clip-path="url(#SVGID_2_)" fill="#906325" d="M140.802,75.567c-3.178-0.144-5.026,1.55-6.169,3.748
		c-1.195,2.305-1.118,4.678-1.118,4.678l0.468,0.03l3.468-4.451l0.839,1.355l1.771-1.075l0.287,1.126l1.948-0.932l0.689,1.283
		l1.865-0.843l1.942,4.5l0.611,0.011c0,0,0.412-2.766-0.612-5.048C145.68,77.469,143.729,75.701,140.802,75.567"/>
	<path clip-path="url(#SVGID_2_)" d="M147.404,85.498h-0.01l-0.611-0.012c-0.195-0.004-0.372-0.122-0.449-0.302l-1.741-4.032
		l-1.402,0.633c-0.239,0.104-0.521,0.012-0.646-0.22l-0.463-0.861l-1.519,0.727c-0.135,0.064-0.292,0.064-0.428,0.002
		c-0.136-0.063-0.236-0.185-0.272-0.33l-0.121-0.473l-1.194,0.726c-0.236,0.141-0.539,0.068-0.685-0.165l-0.46-0.744l-3.026,3.886
		c-0.104,0.131-0.263,0.201-0.429,0.191l-0.468-0.031c-0.256-0.018-0.458-0.226-0.466-0.483c-0.003-0.102-0.067-2.531,1.175-4.924
		c1.453-2.799,3.701-4.16,6.635-4.017c2.889,0.131,5.109,1.748,6.424,4.677c1.072,2.388,0.669,5.208,0.651,5.326
		C147.862,85.317,147.651,85.498,147.404,85.498 M144.851,79.987c0.061,0,0.123,0.011,0.181,0.034
		c0.125,0.048,0.226,0.145,0.278,0.268l1.665,3.855c0.041-0.943-0.006-2.58-0.639-3.989c-0.802-1.787-2.416-3.946-5.557-4.089
		c-2.563-0.12-4.428,1.022-5.702,3.479c-0.696,1.342-0.938,2.715-1.021,3.57l3.001-3.852c0.1-0.129,0.266-0.215,0.421-0.191
		c0.164,0.009,0.313,0.097,0.398,0.236l0.577,0.934l1.349-0.818c0.135-0.083,0.302-0.094,0.448-0.035
		c0.146,0.06,0.256,0.186,0.295,0.34l0.137,0.536l1.398-0.67c0.24-0.115,0.53-0.021,0.656,0.215l0.469,0.871l1.439-0.65
		C144.711,80.001,144.78,79.987,144.851,79.987"/>
	<path clip-path="url(#SVGID_2_)" fill="#FDEDDB" d="M147.711,109.418l2.201-0.492l0.381,1.307c0,0,0.266,0.642,1.266,1.531
		c0.917,0.817,1.974,1.398,2.426,1.82c0.434,0.404-0.347,0.867-1.646,0.61c-1.162-0.23-2.709-1.725-2.709-1.725l-0.191,0.261
		c0,0,0.034,1.04,0.098,1.464c0.087,0.573-0.537,0.617-0.754,0.063c-0.42-1.074-0.961-2.623-0.565-3.216L147.711,109.418z"/>
	<path clip-path="url(#SVGID_2_)" d="M149.243,115.251c-0.426,0-0.832-0.298-1.019-0.776c-0.687-1.752-0.889-2.806-0.65-3.479
		l-0.437-1.399c-0.051-0.16-0.03-0.334,0.054-0.479c0.084-0.145,0.225-0.248,0.388-0.285l2.202-0.492
		c0.309-0.07,0.619,0.113,0.707,0.418l0.379,1.303v-0.001c0.007,0,0.275,0.531,1.09,1.256c0.49,0.437,1.023,0.803,1.494,1.126
		c0.383,0.263,0.713,0.49,0.943,0.704c0.314,0.294,0.398,0.695,0.218,1.048c-0.298,0.585-1.234,0.815-2.39,0.589
		c-0.732-0.145-1.54-0.671-2.137-1.132c0.013,0.181,0.027,0.345,0.043,0.453c0.095,0.623-0.27,1.015-0.646,1.116
		C149.402,115.241,149.322,115.251,149.243,115.251 M149.629,111.871c0.155,0,0.305,0.06,0.418,0.168
		c0.395,0.382,1.6,1.407,2.407,1.566c0.258,0.052,0.479,0.073,0.658,0.062c-0.104-0.074-0.22-0.152-0.34-0.235
		c-0.476-0.326-1.067-0.732-1.613-1.219c-1.072-0.953-1.388-1.671-1.421-1.75l-0.243-0.828l-1.018,0.228l0.312,1.001
		c0.055,0.173,0.027,0.36-0.072,0.512c-0.031,0.049-0.13,0.298,0.135,1.237c0.017-0.084,0.052-0.164,0.103-0.234l0.191-0.261
		c0.102-0.142,0.259-0.229,0.432-0.244C149.595,111.871,149.612,111.871,149.629,111.871"/>
	<path clip-path="url(#SVGID_2_)" fill="#EF856D" d="M141.604,85.231c0,0.099-0.08,0.179-0.179,0.179s-0.179-0.08-0.179-0.179
		c0-0.1,0.08-0.18,0.179-0.18S141.604,85.131,141.604,85.231"/>
	<path clip-path="url(#SVGID_2_)" fill="#EF856D" d="M141.063,84.421c0,0.099-0.08,0.179-0.179,0.179s-0.179-0.08-0.179-0.179
		c0-0.1,0.08-0.18,0.179-0.18S141.063,84.322,141.063,84.421"/>
	<path clip-path="url(#SVGID_2_)" fill="#EF856D" d="M140.301,84.081c0,0.1-0.08,0.18-0.179,0.18c-0.1,0-0.18-0.08-0.18-0.18
		c0-0.099,0.08-0.179,0.18-0.179C140.221,83.902,140.301,83.982,140.301,84.081"/>
	<path clip-path="url(#SVGID_2_)" fill="#EF856D" d="M139.561,84.26c0,0.099-0.08,0.179-0.179,0.179c-0.1,0-0.179-0.08-0.179-0.179
		c0-0.1,0.079-0.18,0.179-0.18C139.48,84.081,139.561,84.161,139.561,84.26"/>
	<path clip-path="url(#SVGID_2_)" fill="#EF856D" d="M138.697,84.865c0,0.099-0.08,0.179-0.179,0.179c-0.1,0-0.18-0.08-0.18-0.179
		c0-0.1,0.08-0.18,0.18-0.18C138.617,84.685,138.697,84.765,138.697,84.865"/>
	<path clip-path="url(#SVGID_2_)" fill="#EF856D" d="M144.14,87.273c0,0.638-0.517,1.154-1.153,1.154
		c-0.638,0-1.154-0.517-1.154-1.154c0-0.637,0.517-1.153,1.154-1.153C143.623,86.12,144.14,86.636,144.14,87.273"/>
	<path clip-path="url(#SVGID_2_)" fill="#EF856D" d="M138.604,86.778c0,0.637-0.517,1.154-1.154,1.154
		c-0.637,0-1.153-0.518-1.153-1.154s0.517-1.154,1.153-1.154C138.088,85.624,138.604,86.141,138.604,86.778"/>
	<path clip-path="url(#SVGID_2_)" d="M140.371,89.346c-0.089,0-0.181-0.004-0.277-0.012c-1.906-0.151-2.36-1.562-2.379-1.622
		c-0.097-0.316,0.081-0.652,0.398-0.749c0.315-0.099,0.646,0.077,0.746,0.388c0.028,0.08,0.287,0.705,1.33,0.788
		c0.918,0.05,1.187-0.448,1.215-0.507c0.137-0.295,0.488-0.434,0.787-0.305c0.299,0.13,0.441,0.468,0.318,0.77
		C142.489,88.15,141.982,89.346,140.371,89.346"/>
	<path clip-path="url(#SVGID_2_)" fill="#898989" d="M39.661,93.755l-0.659-0.386l-0.148,0.274l-0.862,1.063l-0.377,0.173l1.11,3.36
		l0.688-0.243l-0.944-2.839l0.846-0.984c0,0,0.2,0.064,0.346-0.124C39.777,93.902,39.661,93.755,39.661,93.755"/>
	<path clip-path="url(#SVGID_2_)" d="M38.646,98.402c-0.044-0.021-0.077-0.059-0.092-0.104l-1.11-3.36
		c-0.029-0.087,0.012-0.183,0.096-0.221l0.339-0.155l0.824-1.018l0.14-0.259c0.024-0.043,0.063-0.075,0.11-0.089
		c0.047-0.013,0.098-0.006,0.14,0.02l0.659,0.385c0.019,0.012,0.036,0.025,0.05,0.044c0.07,0.088,0.161,0.31,0.001,0.517
		c-0.126,0.163-0.293,0.205-0.415,0.205l-0.716,0.832l0.912,2.743c0.031,0.093-0.018,0.194-0.111,0.226l-0.688,0.243
		c-0.019,0.007-0.04,0.01-0.06,0.01C38.698,98.419,38.671,98.414,38.646,98.402 M38.298,95.215c-0.02-0.061-0.007-0.126,0.034-0.175
		l0.847-0.983c0.044-0.053,0.12-0.073,0.187-0.056c0.021,0.007,0.092,0.018,0.153-0.062c0.005-0.007,0.019-0.025,0.01-0.053
		l-0.457-0.269l-0.06,0.111c-0.005,0.01-0.011,0.019-0.018,0.028l-0.862,1.063c-0.018,0.021-0.04,0.038-0.065,0.05l-0.231,0.106
		l1.002,3.033l0.348-0.123L38.298,95.215z"/>
	<polygon clip-path="url(#SVGID_2_)" fill="#898989" points="28.143,97.402 29.008,100.704 28.302,100.912 27.436,97.625 	"/>
	<path clip-path="url(#SVGID_2_)" d="M28.214,101.069c-0.042-0.023-0.073-0.064-0.086-0.111l-0.866-3.287
		c-0.024-0.093,0.029-0.188,0.12-0.218l0.707-0.222c0.047-0.016,0.098-0.011,0.141,0.014c0.044,0.024,0.075,0.064,0.087,0.112
		l0.866,3.302c0.024,0.094-0.03,0.191-0.124,0.218l-0.706,0.208c-0.017,0.005-0.034,0.007-0.051,0.007
		C28.272,101.091,28.241,101.084,28.214,101.069 M28.017,97.63l-0.363,0.114l0.775,2.943l0.361-0.106L28.017,97.63z"/>
	<path clip-path="url(#SVGID_2_)" d="M25.288,97.001c0.043-0.246,0.061-0.516,0.292-0.66c0.279-0.175,0.666-0.143,1.246-0.05
		c0.579,0.094,1.311,0.157,2.002,0.082c0.692-0.075,1.212-0.078,1.387,0.209c0.144,0.237,0.274,0.5,0.124,0.568
		c-0.148,0.068-2.076,1.006-2.076,1.006s-1.245,0.035-1.31,0.035c-0.337,0-0.345,0.02-0.701-0.168
		c-0.355-0.187-0.616-0.393-0.803-0.542S25.238,97.288,25.288,97.001"/>
	<path clip-path="url(#SVGID_2_)" d="M43.801,103.593c-2.93,0-5.305,2.376-5.305,5.307c0,2.93,2.375,5.305,5.305,5.305
		c2.93,0,5.305-2.375,5.305-5.305C49.106,105.969,46.731,103.593,43.801,103.593 M43.801,113.478c-2.529,0-4.578-2.051-4.578-4.578
		c0-2.529,2.049-4.579,4.578-4.579c2.529,0,4.578,2.05,4.578,4.579C48.379,111.427,46.33,113.478,43.801,113.478"/>
	<path clip-path="url(#SVGID_2_)" fill="#898989" d="M43.801,104.321c-2.529,0-4.578,2.05-4.578,4.579
		c0,2.527,2.049,4.578,4.578,4.578s4.578-2.051,4.578-4.578C48.379,106.371,46.33,104.321,43.801,104.321 M43.801,112.738
		c-2.12,0-3.838-1.718-3.838-3.838s1.718-3.839,3.838-3.839s3.838,1.719,3.838,3.839S45.921,112.738,43.801,112.738"/>
	<path clip-path="url(#SVGID_2_)" d="M39.042,108.899c0-2.624,2.134-4.758,4.758-4.758s4.759,2.134,4.759,4.758
		s-2.135,4.759-4.759,4.759S39.042,111.523,39.042,108.899 M39.402,108.899c0,2.426,1.973,4.398,4.398,4.398
		c2.426,0,4.399-1.973,4.399-4.398c0-2.425-1.973-4.398-4.399-4.398C41.375,104.5,39.402,106.474,39.402,108.899 M39.783,108.899
		c0-2.216,1.803-4.018,4.018-4.018c2.216,0,4.019,1.802,4.019,4.018c0,2.217-1.803,4.019-4.019,4.019
		C41.585,112.917,39.783,111.116,39.783,108.899 M40.143,108.899c0,2.018,1.641,3.658,3.658,3.658c2.018,0,3.659-1.641,3.659-3.658
		c0-2.017-1.641-3.658-3.659-3.658C41.784,105.241,40.143,106.882,40.143,108.899"/>
	<path clip-path="url(#SVGID_2_)" d="M23.604,103.593c-2.93,0-5.305,2.376-5.305,5.307c0,2.93,2.375,5.305,5.305,5.305
		c2.93,0,5.305-2.375,5.305-5.305C28.909,105.969,26.534,103.593,23.604,103.593 M23.604,113.478c-2.529,0-4.578-2.051-4.578-4.578
		c0-2.529,2.049-4.579,4.578-4.579c2.529,0,4.578,2.05,4.578,4.579C28.183,111.427,26.133,113.478,23.604,113.478"/>
	<path clip-path="url(#SVGID_2_)" fill="#898989" d="M23.604,104.321c-2.529,0-4.578,2.05-4.578,4.579
		c0,2.527,2.049,4.578,4.578,4.578c2.529,0,4.578-2.051,4.578-4.578C28.183,106.371,26.133,104.321,23.604,104.321 M23.604,112.738
		c-2.12,0-3.838-1.718-3.838-3.838s1.718-3.839,3.838-3.839s3.838,1.719,3.838,3.839S25.725,112.738,23.604,112.738"/>
	<path clip-path="url(#SVGID_2_)" d="M18.846,108.899c0-2.624,2.134-4.758,4.758-4.758s4.759,2.134,4.759,4.758
		s-2.135,4.759-4.759,4.759S18.846,111.523,18.846,108.899 M19.206,108.899c0,2.426,1.973,4.398,4.398,4.398
		c2.426,0,4.399-1.973,4.399-4.398c0-2.425-1.973-4.398-4.399-4.398C21.179,104.5,19.206,106.474,19.206,108.899 M19.586,108.899
		c0-2.216,1.803-4.018,4.018-4.018c2.216,0,4.019,1.802,4.019,4.018c0,2.217-1.803,4.019-4.019,4.019
		C21.389,112.917,19.586,111.116,19.586,108.899 M19.946,108.899c0,2.018,1.641,3.658,3.658,3.658c2.018,0,3.659-1.641,3.659-3.658
		c0-2.017-1.641-3.658-3.659-3.658C21.587,105.241,19.946,106.882,19.946,108.899"/>
	<path clip-path="url(#SVGID_2_)" fill="#A9D06B" d="M43.671,103.166l-0.519,0.91c0,0-1.604,0.065-2.665,1.188
		c-1.061,1.124-1.515,2.161-1.65,3.128c-0.448,0.542-0.763,0.56-0.975,0.584c0,0,0.081-2.073,1.498-3.872
		C40.446,103.725,42.256,103.166,43.671,103.166"/>
	<path clip-path="url(#SVGID_2_)" d="M37.739,109.108c-0.039-0.036-0.06-0.086-0.058-0.14c0.004-0.087,0.101-2.151,1.537-3.975
		c1.166-1.481,3.064-2.008,4.452-2.008c0.065,0,0.124,0.034,0.156,0.089c0.032,0.056,0.033,0.124,0.001,0.18l-0.519,0.911
		c-0.031,0.054-0.087,0.088-0.149,0.091c-0.016,0-1.545,0.077-2.541,1.131c-0.932,0.987-1.457,1.979-1.604,3.029
		c-0.004,0.033-0.018,0.064-0.039,0.09c-0.48,0.581-0.851,0.622-1.094,0.648c-0.006,0.001-0.013,0.001-0.02,0.001
		C37.816,109.156,37.772,109.138,37.739,109.108 M40.356,105.14c0.955-1.012,2.305-1.202,2.687-1.236l0.312-0.549
		c-1.263,0.072-2.853,0.59-3.854,1.86c-1.096,1.392-1.373,2.972-1.44,3.544c0.158-0.044,0.354-0.15,0.604-0.443
		C38.833,107.207,39.387,106.167,40.356,105.14"/>
	<path clip-path="url(#SVGID_2_)" fill="#A9D06B" d="M42.233,106.096L39.405,98l-0.687,0.253l0.873,2.597
		c0.017,0.051-0.012,0.105-0.064,0.121l-9.391,2.621c-0.048,0.013-0.098-0.014-0.114-0.061l-0.988-2.846l-0.804,0.227l0.09,0.314
		l-2.052,3.087l0.532,0.408l1.84-2.555l1.467,4.461c0,0-0.83,0.435-0.811,1.468c-1.285,0.211-4.228,0.559-4.843,0.656
		c-0.53,0.086-0.415,0.713,0.051,0.643c0.466-0.07,3.759-0.47,4.839-0.64c0.107,0.637,0.77,1.39,1.83,1.272
		c1.04-0.114,1.65-0.863,1.65-1.759c0-0.896-0.63-1.444-0.63-1.444l1.074-2.148c0.033-0.065,0.092-0.114,0.163-0.135l6.552-1.833
		c0.138-0.039,0.284,0.035,0.334,0.17l1.22,3.302c0.131,0.354,0.303,0.694,0.512,1.011c0,0,0.936,1.429,1.128,1.709
		c0.282,0.413,0.789,0,0.572-0.26c-0.188-0.227-1.15-1.789-1.15-1.789C42.447,106.614,42.325,106.361,42.233,106.096
		 M32.466,104.903l-0.824,1.685c0,0-0.145-0.078-0.368-0.117c-0.223-0.04-0.433,0.013-0.433,0.013l-0.357-1.061
		c-0.013-0.038,0.008-0.078,0.046-0.09l1.855-0.526C32.442,104.789,32.493,104.849,32.466,104.903"/>
	<path clip-path="url(#SVGID_2_)" d="M29.207,108.958c-0.749,0.11-2.188,0.294-3.259,0.43c-0.688,0.088-1.245,0.159-1.416,0.186
		c-0.342,0.049-0.567-0.172-0.603-0.406c-0.039-0.248,0.12-0.531,0.497-0.592c0.246-0.039,0.868-0.119,1.587-0.213
		c1.039-0.133,2.316-0.297,3.107-0.421c0.045-0.781,0.532-1.22,0.773-1.39l-1.313-3.992l-1.633,2.267
		c-0.029,0.04-0.072,0.065-0.12,0.072c-0.049,0.008-0.097-0.005-0.136-0.034l-0.531-0.408c-0.076-0.058-0.093-0.163-0.041-0.242
		l2.006-3.019l-0.067-0.233c-0.013-0.046-0.007-0.095,0.016-0.137s0.062-0.072,0.108-0.085l0.804-0.229
		c0.092-0.026,0.188,0.025,0.219,0.115l0.961,2.769l9.226-2.575l-0.844-2.51c-0.031-0.092,0.017-0.192,0.109-0.226l0.687-0.254
		c0.045-0.017,0.095-0.015,0.139,0.007c0.044,0.02,0.077,0.058,0.093,0.103l2.828,8.098c0.086,0.251,0.203,0.491,0.347,0.716
		c0,0,0.001,0.002,0.002,0.002c0.265,0.432,0.986,1.592,1.134,1.769c0.098,0.118,0.121,0.268,0.063,0.411
		c-0.068,0.169-0.239,0.296-0.426,0.316c-0.192,0.021-0.373-0.07-0.496-0.25c-0.191-0.279-1.092-1.654-1.13-1.712
		c-0.216-0.328-0.394-0.682-0.53-1.048l-1.22-3.302c-0.018-0.047-0.069-0.073-0.117-0.059l-6.553,1.833
		c-0.021,0.006-0.039,0.021-0.049,0.042l-1.016,2.032c0.193,0.209,0.591,0.729,0.591,1.479c0,1.04-0.728,1.82-1.811,1.939
		c-0.082,0.009-0.162,0.013-0.24,0.013C29.985,110.219,29.386,109.548,29.207,108.958 M40.486,102.815l1.219,3.302
		c0.127,0.342,0.293,0.67,0.494,0.975c0.009,0.014,0.937,1.43,1.126,1.706c0.048,0.07,0.099,0.101,0.16,0.096
		c0.061-0.006,0.115-0.052,0.131-0.093c0.01-0.024,0.004-0.034-0.006-0.046c-0.19-0.229-1.06-1.64-1.163-1.809
		c-0.159-0.246-0.288-0.514-0.384-0.79l-2.766-7.924l-0.352,0.129l0.817,2.431c0.024,0.07,0.018,0.149-0.017,0.216
		s-0.097,0.116-0.169,0.136l-9.392,2.621c-0.139,0.038-0.284-0.039-0.331-0.175l-0.932-2.686l-0.467,0.133l0.04,0.14
		c0.014,0.051,0.006,0.105-0.023,0.149l-1.959,2.946l0.251,0.192l1.731-2.402c0.04-0.055,0.107-0.085,0.174-0.072
		c0.067,0.01,0.122,0.058,0.143,0.121l1.467,4.46c0.028,0.083-0.009,0.175-0.086,0.216c-0.03,0.017-0.732,0.4-0.716,1.306
		c0.002,0.089-0.062,0.166-0.15,0.18c-0.778,0.128-2.158,0.306-3.267,0.448c-0.716,0.092-1.335,0.171-1.576,0.21
		c-0.134,0.021-0.212,0.092-0.198,0.181c0.009,0.061,0.065,0.126,0.193,0.105c0.173-0.026,0.732-0.097,1.424-0.186
		c1.154-0.146,2.735-0.348,3.413-0.454c0.1-0.016,0.19,0.051,0.206,0.147c0.089,0.531,0.655,1.232,1.633,1.124
		c0.905-0.1,1.49-0.72,1.49-1.581c0-0.798-0.563-1.303-0.569-1.308c-0.061-0.054-0.079-0.144-0.042-0.216l1.074-2.148
		c0.055-0.112,0.156-0.194,0.275-0.228l6.552-1.833c0.04-0.012,0.081-0.018,0.121-0.018
		C40.242,102.517,40.417,102.633,40.486,102.815 M31.557,106.747c-0.001-0.001-0.125-0.066-0.313-0.101
		c-0.181-0.03-0.357,0.012-0.358,0.012c-0.092,0.023-0.185-0.028-0.215-0.117l-0.357-1.062c-0.022-0.064-0.016-0.136,0.015-0.195
		c0.032-0.061,0.088-0.105,0.153-0.124l1.854-0.527c0.095-0.027,0.197,0.004,0.26,0.08c0.063,0.075,0.076,0.181,0.033,0.27
		l-0.825,1.685c-0.021,0.044-0.06,0.077-0.106,0.092c-0.018,0.006-0.037,0.009-0.056,0.009
		C31.613,106.767,31.583,106.76,31.557,106.747 M30.692,105.474l0.272,0.808c0.093-0.01,0.216-0.013,0.342,0.011
		c0.098,0.017,0.182,0.041,0.249,0.063l0.641-1.31L30.692,105.474z"/>
	<path clip-path="url(#SVGID_2_)" d="M31.881,108.25c0,0.456-0.369,0.825-0.825,0.825s-0.826-0.369-0.826-0.825
		s0.37-0.825,0.826-0.825S31.881,107.794,31.881,108.25"/>
	<polygon clip-path="url(#SVGID_2_)" points="30.744,108.375 32.019,111.352 32.474,111.352 31.139,108.25 	"/>
	<path clip-path="url(#SVGID_2_)" d="M32.011,111.264l-0.14,0.422v0.446c0,0.064,0.052,0.115,0.116,0.115h1.463
		c0,0,0.107-0.106,0.107-0.395v-0.425v-0.131c0-0.095-0.078-0.173-0.174-0.173h-1.178C32.117,111.125,32.039,111.18,32.011,111.264"
		/>
	<path clip-path="url(#SVGID_2_)" fill="#A9D06B" d="M20.265,105.26c0,0,1.311-1.154,3.225-1.154c1.373,0,2.195,0.313,2.93,0.788
		c1.193,0.772,1.571,1.972,1.719,2.274c0.029,0.059,0.088,0.096,0.154,0.096h0.48c0.037,0,0.064-0.037,0.052-0.071
		c-0.119-0.345-0.702-1.851-2.067-2.831c-1.108-0.797-2.971-1.178-4.544-0.743c-1.879,0.52-2.335,1.184-2.335,1.184L20.265,105.26z"
		/>
	<path clip-path="url(#SVGID_2_)" d="M27.978,107.248c-0.021-0.042-0.046-0.102-0.076-0.173c-0.192-0.451-0.59-1.39-1.579-2.029
		c-0.611-0.395-1.376-0.76-2.832-0.76c-1.819,0-3.094,1.099-3.107,1.109c-0.036,0.032-0.082,0.053-0.132,0.045
		c-0.048-0.004-0.093-0.026-0.124-0.063l-0.386-0.458c-0.052-0.061-0.057-0.151-0.011-0.218c0.02-0.029,0.515-0.725,2.436-1.255
		c1.542-0.428,3.473-0.11,4.697,0.77c1.385,0.995,1.982,2.485,2.132,2.918c0.024,0.072,0.013,0.151-0.031,0.212
		c-0.044,0.063-0.115,0.099-0.192,0.099h-0.48C28.16,107.444,28.036,107.367,27.978,107.248 M26.654,104.507
		c-1.142-0.82-2.947-1.114-4.391-0.715c-1.35,0.373-1.939,0.821-2.144,1.015l0.171,0.202c0.398-0.301,1.585-1.084,3.201-1.084
		c1.554,0,2.402,0.413,3.027,0.818c1.082,0.7,1.526,1.745,1.715,2.19c0.027,0.064,0.05,0.117,0.06,0.15h0.3
		C28.396,106.586,27.814,105.342,26.654,104.507"/>
	<path clip-path="url(#SVGID_2_)" d="M39.578,98.261l1.084-0.461c0.06,0.024,0.079,0.026,0.19,0.04
		c0.111,0.016,4.691-0.264,4.691-0.264c0.087-0.004,0.165-0.043,0.222-0.108c0.056-0.064,0.083-0.147,0.076-0.233l-0.337-3.863
		c-0.014-0.156-0.152-0.273-0.308-0.259l-3.949,0.338c-0.156,0.013-0.3,0.084-0.405,0.2l-1.268,1.396
		c-0.078,0.086-0.101,0.207-0.06,0.315c0.097,0.256,0.383,1.081,0.805,2.136l-0.865,0.353L39.578,98.261z M41.006,93.949
		l-0.148,0.01l0.138-0.151L41.006,93.949z M41.046,94.517l-0.744,0.056l0.344-0.38l0.375-0.025L41.046,94.517z M41.08,94.995
		l-1.23,0.076l0.237-0.262l0.974-0.073L41.08,94.995z M41.118,95.538l-1.271,0.077c-0.054-0.137-0.095-0.244-0.123-0.317
		l1.371-0.084L41.118,95.538z M41.153,96.034l-1.116,0.064c-0.038-0.098-0.073-0.187-0.106-0.269l1.202-0.073L41.153,96.034z
		 M41.188,96.535l-0.954,0.057c-0.039-0.097-0.077-0.191-0.111-0.278l1.045-0.062L41.188,96.535z M41.203,96.753l0.023,0.321
		l-0.781,0.047c-0.044-0.11-0.086-0.214-0.126-0.314L41.203,96.753z M41.818,93.895l-0.593,0.04l-0.018-0.256
		c0.019-0.005,0.039-0.009,0.059-0.011l0.532-0.044L41.818,93.895z M42.57,93.844l-0.533,0.036l-0.02-0.274l0.528-0.044
		L42.57,93.844z M42.618,94.401l-0.538,0.04l-0.026-0.342l0.535-0.035L42.618,94.401z M43.356,93.792l-0.567,0.037l-0.025-0.286
		l0.567-0.048L43.356,93.792z M43.403,94.342l-0.566,0.041l-0.029-0.335l0.567-0.037L43.403,94.342z M43.447,94.851l-0.566,0.033
		l-0.025-0.281l0.566-0.042L43.447,94.851z M43.985,93.75l-0.41,0.027l-0.026-0.3l0.407-0.034L43.985,93.75z M44.036,94.295
		l-0.414,0.03l-0.028-0.329l0.411-0.027L44.036,94.295z M44.084,94.812l-0.418,0.025l-0.025-0.293l0.415-0.03L44.084,94.812z
		 M44.71,93.703l-0.506,0.033l-0.029-0.312l0.505-0.042L44.71,93.703z M44.761,94.242l-0.506,0.037l-0.03-0.324l0.506-0.034
		L44.761,94.242z M44.81,94.768l-0.506,0.03l-0.029-0.301l0.506-0.038L44.81,94.768z M45.308,93.654l-0.379,0.034l-0.03-0.323
		l0.315-0.034c0.002,0,0.004,0,0.005,0c0.034,0,0.063,0.026,0.066,0.061L45.308,93.654z M45.355,94.19l-0.375,0.036l-0.03-0.319
		l0.377-0.034L45.355,94.19z M45.401,94.723l-0.372,0.03L45,94.444l0.374-0.035L45.401,94.723z M45.245,97.057l0.357-0.03
		l0.02,0.227c0.002,0.026-0.006,0.051-0.023,0.071c-0.017,0.02-0.041,0.032-0.068,0.033l-0.256,0.022L45.245,97.057z M45.194,96.518
		l0.361-0.031l0.028,0.322l-0.359,0.029L45.194,96.518z M45.148,96.023l0.364-0.03l0.024,0.276l-0.362,0.029L45.148,96.023z
		 M45.1,95.514l0.368-0.031l0.025,0.291l-0.365,0.029L45.1,95.514z M45.08,95.295l-0.03-0.322l0.37-0.031l0.029,0.322L45.08,95.295z
		 M44.519,97.1l0.506-0.03l0.031,0.323l-0.507,0.027L44.519,97.1z M44.468,96.561l0.507-0.03l0.03,0.321l-0.506,0.029L44.468,96.561
		z M44.422,96.065l0.507-0.029l0.026,0.276l-0.507,0.029L44.422,96.065z M44.375,95.559l0.506-0.031l0.027,0.289l-0.506,0.028
		L44.375,95.559z M44.354,95.339l-0.03-0.322l0.506-0.031l0.031,0.323L44.354,95.339z M43.863,97.139l0.437-0.026l0.03,0.32
		l-0.44,0.023L43.863,97.139z M43.817,96.599l0.432-0.025l0.03,0.321l-0.435,0.025L43.817,96.599z M43.774,96.102l0.429-0.025
		l0.026,0.278l-0.431,0.025L43.774,96.102z M43.731,95.598l0.424-0.026l0.027,0.287l-0.427,0.023L43.731,95.598z M43.684,95.056
		l0.421-0.025l0.03,0.322l-0.423,0.025L43.684,95.056z M43.081,97.185l0.563-0.033l0.027,0.316l-0.562,0.03L43.081,97.185z
		 M43.034,96.646l0.564-0.034l0.027,0.321l-0.563,0.033L43.034,96.646z M42.991,96.147l0.564-0.032l0.024,0.278l-0.564,0.033
		L42.991,96.147z M42.947,95.646l0.565-0.035l0.024,0.285l-0.564,0.032L42.947,95.646z M42.9,95.104l0.565-0.034l0.028,0.323
		l-0.565,0.033L42.9,95.104z M42.29,97.232l0.572-0.034l0.028,0.313l-0.576,0.032L42.29,97.232z M42.249,96.692l0.566-0.033
		l0.028,0.321l-0.569,0.032L42.249,96.692z M42.212,96.192l0.56-0.032l0.024,0.28l-0.563,0.033L42.212,96.192z M42.174,95.693
		l0.554-0.034l0.025,0.282l-0.558,0.032L42.174,95.693z M42.133,95.151l0.548-0.033l0.028,0.322l-0.551,0.034L42.133,95.151z
		 M42.096,94.66l0.541-0.041l0.025,0.28l-0.545,0.033L42.096,94.66z M41.46,97.281l0.611-0.036l0.023,0.31l-0.612,0.033
		L41.46,97.281z M41.422,96.741l0.608-0.036l0.025,0.321l-0.61,0.036L41.422,96.741z M41.387,96.24l0.606-0.035l0.021,0.281
		l-0.607,0.036L41.387,96.24z M41.352,95.743l0.603-0.037l0.021,0.28l-0.604,0.035L41.352,95.743z M41.314,95.201l0.6-0.037
		l0.024,0.323l-0.601,0.037L41.314,95.201z M41.28,94.719l0.597-0.044l0.021,0.271l-0.599,0.036L41.28,94.719z M41.265,94.5
		l-0.025-0.347l0.595-0.04l0.026,0.343L41.265,94.5z M40.578,97.442l-0.04-0.106l0.703-0.042l0.022,0.307l-0.394,0.021
		C40.744,97.626,40.63,97.554,40.578,97.442"/>
	<path clip-path="url(#SVGID_2_)" d="M39.235,97.746l0.851-0.346c-0.288-0.727-0.505-1.324-0.638-1.692
		c-0.045-0.124-0.08-0.219-0.103-0.281c-0.065-0.172-0.028-0.363,0.096-0.5l1.267-1.396c0.135-0.15,0.321-0.242,0.523-0.26
		l3.947-0.338c0.124-0.012,0.243,0.025,0.338,0.104c0.097,0.081,0.156,0.194,0.167,0.319l0.337,3.861
		c0.011,0.136-0.031,0.267-0.12,0.368c-0.088,0.103-0.212,0.163-0.346,0.17c-1.717,0.105-4.617,0.273-4.728,0.263
		c-0.074-0.01-0.115-0.015-0.157-0.026l-1.206,0.513L39.235,97.746z M40.485,97.625l-0.812,0.33l0.019,0.063l0.829-0.354
		C40.508,97.653,40.497,97.64,40.485,97.625"/>
	<path clip-path="url(#SVGID_2_)" fill="#D3EDFB" d="M19.381,105.31l4.176,3.908l0.292-0.024l2.563-5.191
		c0.035-0.069,0.008-0.153-0.062-0.188c-0.258-0.129-0.879-0.417-1.486-0.519c-1.511-0.252-2.832,0.034-4.045,0.667
		c-0.71,0.37-1.253,0.949-1.447,1.174C19.327,105.187,19.333,105.264,19.381,105.31"/>
	<path clip-path="url(#SVGID_2_)" d="M23.435,109.349l-4.176-3.907c-0.121-0.114-0.131-0.301-0.022-0.424
		c0.206-0.237,0.765-0.831,1.5-1.216c1.346-0.702,2.706-0.926,4.157-0.684c0.637,0.105,1.287,0.409,1.537,0.534
		c0.158,0.079,0.222,0.271,0.144,0.43l-2.564,5.191c-0.028,0.057-0.084,0.095-0.147,0.1l-0.291,0.024
		c-0.005,0.001-0.01,0.001-0.015,0.001C23.511,109.399,23.467,109.381,23.435,109.349 M26.234,103.958
		c-0.257-0.127-0.839-0.391-1.4-0.484c-1.371-0.229-2.657-0.017-3.932,0.649c-0.642,0.335-1.144,0.849-1.36,1.092l4.08,3.818
		l0.11-0.009L26.234,103.958z"/>
	<path clip-path="url(#SVGID_2_)" d="M37.782,93.486l-0.499,0.191c0,0-0.443,0.205-0.267,0.582c0.161,0.348,0.608,0.164,0.608,0.164
		l0.508-0.207c0,0,0.283-0.15,0.168-0.496C38.207,93.444,38.001,93.414,37.782,93.486"/>
	<path clip-path="url(#SVGID_2_)" fill="#898989" d="M73.117,93.755l-0.659-0.386l-0.148,0.274l-0.862,1.063l-0.377,0.173l1.11,3.36
		l0.688-0.243l-0.944-2.839l0.846-0.984c0,0,0.2,0.064,0.346-0.124C73.233,93.902,73.117,93.755,73.117,93.755"/>
	<path clip-path="url(#SVGID_2_)" d="M72.103,98.402c-0.044-0.021-0.077-0.059-0.092-0.104l-1.11-3.36
		c-0.029-0.087,0.012-0.183,0.096-0.221l0.339-0.155l0.824-1.018l0.14-0.259c0.024-0.043,0.063-0.075,0.11-0.089
		c0.047-0.013,0.098-0.006,0.14,0.02l0.659,0.385c0.019,0.012,0.036,0.025,0.05,0.044c0.07,0.088,0.161,0.31,0.001,0.517
		c-0.126,0.163-0.293,0.205-0.415,0.205l-0.716,0.832l0.912,2.743c0.031,0.093-0.018,0.194-0.111,0.226l-0.688,0.243
		c-0.019,0.007-0.04,0.01-0.06,0.01C72.154,98.419,72.127,98.414,72.103,98.402 M71.754,95.215c-0.02-0.061-0.007-0.126,0.034-0.175
		l0.847-0.983c0.044-0.053,0.12-0.073,0.187-0.056c0.021,0.007,0.092,0.018,0.153-0.062c0.005-0.007,0.019-0.025,0.01-0.053
		l-0.457-0.269l-0.06,0.111c-0.005,0.01-0.011,0.019-0.018,0.028l-0.862,1.063c-0.018,0.021-0.04,0.038-0.065,0.05l-0.231,0.106
		l1.002,3.033l0.348-0.123L71.754,95.215z"/>
	<polygon clip-path="url(#SVGID_2_)" fill="#898989" points="61.6,97.402 62.465,100.704 61.759,100.912 60.893,97.625 	"/>
	<path clip-path="url(#SVGID_2_)" d="M61.67,101.069c-0.042-0.023-0.073-0.064-0.086-0.111l-0.866-3.287
		c-0.024-0.093,0.029-0.188,0.12-0.218l0.707-0.222c0.047-0.016,0.098-0.011,0.141,0.014s0.075,0.064,0.087,0.112l0.866,3.302
		c0.024,0.094-0.03,0.191-0.124,0.218l-0.706,0.208c-0.017,0.005-0.034,0.007-0.051,0.007
		C61.729,101.091,61.697,101.084,61.67,101.069 M61.474,97.63l-0.363,0.114l0.775,2.943l0.361-0.106L61.474,97.63z"/>
	<path clip-path="url(#SVGID_2_)" d="M58.744,97.001c0.043-0.246,0.061-0.516,0.292-0.66c0.279-0.175,0.666-0.143,1.246-0.05
		c0.579,0.094,1.311,0.157,2.002,0.082c0.692-0.075,1.212-0.078,1.387,0.209c0.144,0.237,0.274,0.5,0.124,0.568
		c-0.148,0.068-2.076,1.006-2.076,1.006s-1.245,0.035-1.31,0.035c-0.337,0-0.345,0.02-0.701-0.168
		c-0.355-0.187-0.616-0.393-0.803-0.542S58.694,97.288,58.744,97.001"/>
	<path clip-path="url(#SVGID_2_)" d="M77.258,103.593c-2.93,0-5.305,2.376-5.305,5.307c0,2.93,2.375,5.305,5.305,5.305
		c2.93,0,5.305-2.375,5.305-5.305C82.563,105.969,80.188,103.593,77.258,103.593 M77.258,113.478c-2.529,0-4.579-2.051-4.579-4.578
		c0-2.529,2.049-4.579,4.579-4.579c2.528,0,4.577,2.05,4.577,4.579C81.835,111.427,79.786,113.478,77.258,113.478"/>
	<path clip-path="url(#SVGID_2_)" fill="#898989" d="M77.258,104.321c-2.529,0-4.579,2.05-4.579,4.579
		c0,2.527,2.049,4.578,4.579,4.578c2.528,0,4.577-2.051,4.577-4.578C81.835,106.371,79.786,104.321,77.258,104.321 M77.258,112.738
		c-2.121,0-3.838-1.718-3.838-3.838s1.718-3.839,3.838-3.839c2.119,0,3.838,1.719,3.838,3.839S79.377,112.738,77.258,112.738"/>
	<path clip-path="url(#SVGID_2_)" d="M72.499,108.899c0-2.624,2.134-4.758,4.758-4.758s4.759,2.134,4.759,4.758
		s-2.135,4.759-4.759,4.759S72.499,111.523,72.499,108.899 M72.859,108.899c0,2.426,1.973,4.398,4.398,4.398
		c2.426,0,4.399-1.973,4.399-4.398c0-2.425-1.974-4.398-4.399-4.398C74.832,104.5,72.859,106.474,72.859,108.899 M73.239,108.899
		c0-2.216,1.803-4.018,4.018-4.018c2.216,0,4.02,1.802,4.02,4.018c0,2.217-1.804,4.019-4.02,4.019
		C75.042,112.917,73.239,111.116,73.239,108.899 M73.599,108.899c0,2.018,1.641,3.658,3.658,3.658c2.019,0,3.659-1.641,3.659-3.658
		c0-2.017-1.641-3.658-3.659-3.658C75.24,105.241,73.599,106.882,73.599,108.899"/>
	<path clip-path="url(#SVGID_2_)" d="M57.061,103.593c-2.93,0-5.305,2.376-5.305,5.307c0,2.93,2.375,5.305,5.305,5.305
		s5.305-2.375,5.305-5.305C62.366,105.969,59.991,103.593,57.061,103.593 M57.061,113.478c-2.529,0-4.578-2.051-4.578-4.578
		c0-2.529,2.049-4.579,4.578-4.579s4.578,2.05,4.578,4.579C61.639,111.427,59.59,113.478,57.061,113.478"/>
	<path clip-path="url(#SVGID_2_)" fill="#898989" d="M57.061,104.321c-2.529,0-4.578,2.05-4.578,4.579
		c0,2.527,2.049,4.578,4.578,4.578s4.578-2.051,4.578-4.578C61.639,106.371,59.59,104.321,57.061,104.321 M57.061,112.738
		c-2.12,0-3.838-1.718-3.838-3.838s1.718-3.839,3.838-3.839s3.838,1.719,3.838,3.839S59.181,112.738,57.061,112.738"/>
	<path clip-path="url(#SVGID_2_)" d="M52.303,108.899c0-2.624,2.134-4.758,4.758-4.758s4.759,2.134,4.759,4.758
		s-2.135,4.759-4.759,4.759S52.303,111.523,52.303,108.899 M52.663,108.899c0,2.426,1.973,4.398,4.398,4.398
		c2.426,0,4.399-1.973,4.399-4.398c0-2.425-1.973-4.398-4.399-4.398C54.636,104.5,52.663,106.474,52.663,108.899 M53.042,108.899
		c0-2.216,1.803-4.018,4.018-4.018c2.216,0,4.019,1.802,4.019,4.018c0,2.217-1.803,4.019-4.019,4.019
		C54.846,112.917,53.042,111.116,53.042,108.899 M53.403,108.899c0,2.018,1.641,3.658,3.658,3.658c2.018,0,3.659-1.641,3.659-3.658
		c0-2.017-1.641-3.658-3.659-3.658C55.043,105.241,53.403,106.882,53.403,108.899"/>
	<path clip-path="url(#SVGID_2_)" fill="#A9D06B" d="M77.128,103.166l-0.52,0.91c0,0-1.604,0.065-2.665,1.188
		c-1.061,1.124-1.515,2.161-1.65,3.128c-0.448,0.542-0.763,0.56-0.975,0.584c0,0,0.081-2.073,1.498-3.872
		C73.903,103.725,75.712,103.166,77.128,103.166"/>
	<path clip-path="url(#SVGID_2_)" d="M71.196,109.108c-0.039-0.036-0.06-0.086-0.058-0.14c0.004-0.087,0.101-2.151,1.537-3.975
		c1.166-1.481,3.064-2.008,4.452-2.008c0.065,0,0.124,0.034,0.156,0.089c0.032,0.056,0.033,0.124,0.001,0.18l-0.519,0.911
		c-0.031,0.054-0.087,0.088-0.149,0.091c-0.016,0-1.545,0.077-2.541,1.131c-0.932,0.987-1.457,1.979-1.604,3.029
		c-0.004,0.033-0.018,0.064-0.039,0.09c-0.48,0.581-0.851,0.622-1.094,0.648c-0.006,0.001-0.013,0.001-0.02,0.001
		C71.273,109.156,71.229,109.138,71.196,109.108 M73.813,105.14c0.955-1.012,2.305-1.202,2.687-1.236l0.312-0.549
		c-1.263,0.072-2.853,0.59-3.854,1.86c-1.096,1.392-1.373,2.972-1.44,3.544c0.158-0.044,0.353-0.15,0.604-0.443
		C72.29,107.207,72.843,106.167,73.813,105.14"/>
	<path clip-path="url(#SVGID_2_)" fill="#A9D06B" d="M75.69,106.096L72.862,98l-0.687,0.253l0.873,2.597
		c0.017,0.051-0.012,0.105-0.064,0.121l-9.391,2.621c-0.048,0.013-0.098-0.014-0.114-0.061l-0.988-2.846l-0.804,0.227l0.09,0.314
		l-2.052,3.087l0.532,0.408l1.84-2.555l1.467,4.461c0,0-0.83,0.435-0.811,1.468c-1.285,0.211-4.228,0.559-4.843,0.656
		c-0.53,0.086-0.415,0.713,0.051,0.643s3.759-0.47,4.839-0.64c0.107,0.637,0.77,1.39,1.83,1.272c1.04-0.114,1.65-0.863,1.65-1.759
		c0-0.896-0.63-1.444-0.63-1.444l1.074-2.148c0.033-0.065,0.092-0.114,0.163-0.135l6.552-1.833c0.138-0.039,0.284,0.035,0.334,0.17
		l1.22,3.302c0.131,0.354,0.303,0.694,0.512,1.011c0,0,0.936,1.429,1.128,1.709c0.282,0.413,0.789,0,0.572-0.26
		c-0.188-0.227-1.15-1.789-1.15-1.789C75.904,106.614,75.781,106.361,75.69,106.096 M65.923,104.903l-0.824,1.685
		c0,0-0.145-0.078-0.368-0.117c-0.223-0.04-0.433,0.013-0.433,0.013l-0.357-1.061c-0.013-0.038,0.008-0.078,0.046-0.09l1.855-0.526
		C65.899,104.789,65.949,104.849,65.923,104.903"/>
	<path clip-path="url(#SVGID_2_)" d="M62.663,108.958c-0.749,0.11-2.188,0.294-3.259,0.43c-0.688,0.088-1.245,0.159-1.416,0.186
		c-0.342,0.049-0.567-0.172-0.603-0.406c-0.039-0.248,0.12-0.531,0.497-0.592c0.246-0.039,0.868-0.119,1.587-0.213
		c1.039-0.133,2.316-0.297,3.107-0.421c0.045-0.781,0.532-1.22,0.773-1.39l-1.313-3.992l-1.633,2.267
		c-0.029,0.04-0.072,0.065-0.12,0.072c-0.049,0.008-0.097-0.005-0.136-0.034l-0.531-0.408c-0.076-0.058-0.093-0.163-0.041-0.242
		l2.006-3.019l-0.067-0.233c-0.013-0.046-0.007-0.095,0.016-0.137s0.062-0.072,0.108-0.085l0.804-0.229
		c0.092-0.026,0.188,0.025,0.219,0.115l0.961,2.769l9.226-2.575l-0.844-2.51c-0.031-0.092,0.017-0.192,0.109-0.226l0.687-0.254
		c0.045-0.017,0.095-0.015,0.139,0.007c0.044,0.02,0.077,0.058,0.093,0.103l2.828,8.098c0.086,0.251,0.203,0.491,0.347,0.716
		c0,0,0.001,0.002,0.002,0.002c0.265,0.432,0.986,1.592,1.134,1.769c0.098,0.118,0.12,0.268,0.063,0.411
		c-0.068,0.169-0.239,0.296-0.426,0.316c-0.192,0.021-0.373-0.07-0.496-0.25c-0.191-0.279-1.092-1.654-1.13-1.712
		c-0.216-0.328-0.394-0.682-0.53-1.048l-1.22-3.302c-0.018-0.047-0.069-0.073-0.117-0.059l-6.553,1.833
		c-0.021,0.006-0.039,0.021-0.049,0.042l-1.016,2.032c0.193,0.209,0.591,0.729,0.591,1.479c0,1.04-0.728,1.82-1.811,1.939
		c-0.082,0.009-0.162,0.013-0.24,0.013C63.441,110.219,62.842,109.548,62.663,108.958 M73.942,102.815l1.219,3.302
		c0.127,0.342,0.293,0.67,0.494,0.975c0.009,0.014,0.937,1.43,1.126,1.706c0.048,0.07,0.099,0.101,0.16,0.096
		c0.061-0.006,0.115-0.052,0.131-0.093c0.01-0.024,0.004-0.034-0.006-0.046c-0.19-0.229-1.06-1.64-1.163-1.809
		c-0.159-0.246-0.288-0.514-0.384-0.79l-2.766-7.924l-0.352,0.129l0.817,2.431c0.024,0.07,0.018,0.149-0.017,0.216
		c-0.035,0.066-0.097,0.116-0.169,0.136l-9.392,2.621c-0.139,0.038-0.284-0.039-0.331-0.175l-0.932-2.686l-0.467,0.133l0.04,0.14
		c0.014,0.051,0.006,0.105-0.023,0.149l-1.959,2.946l0.251,0.192l1.731-2.402c0.04-0.055,0.107-0.085,0.174-0.072
		c0.067,0.01,0.122,0.058,0.143,0.121l1.467,4.46c0.028,0.083-0.009,0.175-0.086,0.216c-0.03,0.017-0.732,0.4-0.716,1.306
		c0.002,0.089-0.062,0.166-0.15,0.18c-0.778,0.128-2.158,0.306-3.267,0.448c-0.716,0.092-1.335,0.171-1.576,0.21
		c-0.134,0.021-0.212,0.092-0.198,0.181c0.009,0.061,0.065,0.126,0.193,0.105c0.173-0.026,0.732-0.097,1.424-0.186
		c1.154-0.146,2.735-0.348,3.413-0.454c0.1-0.016,0.19,0.051,0.206,0.147c0.089,0.531,0.655,1.232,1.633,1.124
		c0.905-0.1,1.49-0.72,1.49-1.581c0-0.798-0.563-1.303-0.569-1.308c-0.061-0.054-0.079-0.144-0.042-0.216l1.074-2.148
		c0.055-0.112,0.156-0.194,0.275-0.228l6.552-1.833c0.04-0.012,0.081-0.018,0.121-0.018
		C73.698,102.517,73.875,102.633,73.942,102.815 M65.013,106.747c-0.001-0.001-0.125-0.066-0.313-0.101
		c-0.181-0.03-0.357,0.012-0.359,0.012c-0.091,0.023-0.184-0.028-0.214-0.117l-0.357-1.062c-0.022-0.064-0.016-0.136,0.015-0.195
		c0.032-0.061,0.088-0.105,0.153-0.124l1.854-0.527c0.095-0.027,0.197,0.004,0.26,0.08c0.063,0.075,0.076,0.181,0.033,0.27
		l-0.825,1.685c-0.021,0.044-0.06,0.077-0.106,0.092c-0.018,0.006-0.037,0.009-0.056,0.009
		C65.069,106.767,65.039,106.76,65.013,106.747 M64.148,105.474l0.272,0.808c0.093-0.01,0.216-0.013,0.342,0.011
		c0.098,0.017,0.182,0.041,0.249,0.063l0.641-1.31L64.148,105.474z"/>
	<path clip-path="url(#SVGID_2_)" d="M65.337,108.25c0,0.456-0.369,0.825-0.825,0.825s-0.826-0.369-0.826-0.825
		s0.37-0.825,0.826-0.825S65.337,107.794,65.337,108.25"/>
	<polygon clip-path="url(#SVGID_2_)" points="64.201,108.375 65.476,111.352 65.931,111.352 64.596,108.25 	"/>
	<path clip-path="url(#SVGID_2_)" d="M65.468,111.264l-0.14,0.422v0.446c0,0.064,0.052,0.115,0.116,0.115h1.463
		c0,0,0.107-0.106,0.107-0.395v-0.425v-0.131c0-0.095-0.078-0.173-0.174-0.173h-1.178C65.574,111.125,65.496,111.18,65.468,111.264"
		/>
	<path clip-path="url(#SVGID_2_)" fill="#A9D06B" d="M53.722,105.26c0,0,1.311-1.154,3.225-1.154c1.373,0,2.195,0.313,2.93,0.788
		c1.193,0.772,1.571,1.972,1.719,2.274c0.029,0.059,0.088,0.096,0.154,0.096h0.48c0.037,0,0.064-0.037,0.052-0.071
		c-0.119-0.345-0.702-1.851-2.067-2.831c-1.108-0.797-2.971-1.178-4.544-0.743c-1.879,0.52-2.335,1.184-2.335,1.184L53.722,105.26z"
		/>
	<path clip-path="url(#SVGID_2_)" d="M61.434,107.248c-0.021-0.042-0.046-0.102-0.076-0.173c-0.192-0.451-0.59-1.39-1.579-2.029
		c-0.611-0.395-1.376-0.76-2.832-0.76c-1.819,0-3.094,1.099-3.107,1.109c-0.036,0.032-0.082,0.053-0.132,0.045
		c-0.048-0.004-0.093-0.026-0.124-0.063l-0.386-0.458c-0.052-0.061-0.057-0.151-0.011-0.218c0.02-0.029,0.515-0.725,2.436-1.255
		c1.542-0.428,3.473-0.11,4.697,0.77c1.385,0.995,1.982,2.485,2.132,2.918c0.024,0.072,0.013,0.151-0.031,0.212
		c-0.044,0.063-0.115,0.099-0.192,0.099h-0.48C61.616,107.444,61.492,107.367,61.434,107.248 M60.11,104.507
		c-1.142-0.82-2.947-1.114-4.391-0.715c-1.35,0.373-1.939,0.821-2.144,1.015l0.171,0.202c0.398-0.301,1.585-1.084,3.201-1.084
		c1.554,0,2.402,0.413,3.027,0.818c1.082,0.7,1.526,1.745,1.715,2.19c0.027,0.064,0.05,0.117,0.06,0.15h0.3
		C61.853,106.586,61.271,105.342,60.11,104.507"/>
	<path clip-path="url(#SVGID_2_)" d="M73.035,98.261l1.084-0.461c0.06,0.024,0.079,0.026,0.19,0.04
		C74.419,97.856,79,97.577,79,97.577c0.087-0.004,0.165-0.043,0.222-0.108c0.056-0.064,0.083-0.147,0.076-0.233l-0.337-3.863
		c-0.015-0.156-0.152-0.273-0.309-0.259l-3.949,0.338c-0.156,0.013-0.3,0.084-0.405,0.2l-1.268,1.396
		c-0.078,0.086-0.101,0.207-0.06,0.315c0.097,0.256,0.383,1.081,0.805,2.136l-0.865,0.353L73.035,98.261z M74.462,93.949
		l-0.148,0.01l0.138-0.151L74.462,93.949z M74.502,94.517l-0.744,0.056l0.344-0.38l0.375-0.025L74.502,94.517z M74.537,94.995
		l-1.23,0.076l0.237-0.262l0.974-0.073L74.537,94.995z M74.575,95.538l-1.271,0.077c-0.054-0.137-0.095-0.244-0.123-0.317
		l1.371-0.084L74.575,95.538z M74.609,96.034l-1.116,0.064C73.456,96,73.42,95.912,73.388,95.83l1.202-0.073L74.609,96.034z
		 M74.645,96.535l-0.954,0.057c-0.039-0.097-0.077-0.191-0.111-0.278l1.045-0.062L74.645,96.535z M74.66,96.753l0.023,0.321
		l-0.781,0.047c-0.044-0.11-0.086-0.214-0.126-0.314L74.66,96.753z M75.274,93.895l-0.593,0.04l-0.018-0.256
		c0.019-0.005,0.039-0.009,0.059-0.011l0.532-0.044L75.274,93.895z M76.026,93.844l-0.533,0.036l-0.02-0.274l0.528-0.044
		L76.026,93.844z M76.075,94.401l-0.538,0.04l-0.026-0.342l0.535-0.035L76.075,94.401z M76.813,93.792l-0.567,0.037l-0.025-0.286
		l0.567-0.048L76.813,93.792z M76.859,94.342l-0.566,0.041l-0.029-0.335l0.567-0.037L76.859,94.342z M76.904,94.851l-0.566,0.033
		l-0.025-0.281l0.566-0.042L76.904,94.851z M77.441,93.75l-0.41,0.027l-0.025-0.3l0.406-0.034L77.441,93.75z M77.492,94.295
		l-0.414,0.03l-0.027-0.329l0.411-0.027L77.492,94.295z M77.541,94.812l-0.418,0.025l-0.025-0.293l0.415-0.03L77.541,94.812z
		 M78.167,93.703l-0.507,0.033l-0.028-0.312l0.505-0.042L78.167,93.703z M78.218,94.242l-0.506,0.037l-0.03-0.324l0.506-0.034
		L78.218,94.242z M78.267,94.768l-0.506,0.03l-0.029-0.301l0.506-0.038L78.267,94.768z M78.765,93.654l-0.379,0.034l-0.03-0.323
		l0.315-0.034c0.002,0,0.004,0,0.005,0c0.034,0,0.063,0.026,0.065,0.061L78.765,93.654z M78.812,94.19l-0.375,0.036l-0.03-0.319
		l0.377-0.034L78.812,94.19z M78.857,94.723l-0.372,0.03l-0.028-0.31l0.374-0.035L78.857,94.723z M78.701,97.057l0.357-0.03
		l0.02,0.227c0.003,0.026-0.006,0.051-0.022,0.071c-0.017,0.02-0.041,0.032-0.068,0.033l-0.256,0.022L78.701,97.057z M78.65,96.518
		l0.361-0.031l0.028,0.322l-0.359,0.029L78.65,96.518z M78.604,96.023l0.364-0.03l0.023,0.276l-0.361,0.029L78.604,96.023z
		 M78.557,95.514l0.368-0.031l0.024,0.291l-0.364,0.029L78.557,95.514z M78.536,95.295l-0.029-0.322l0.37-0.031l0.028,0.322
		L78.536,95.295z M77.976,97.1l0.506-0.03l0.031,0.323l-0.507,0.027L77.976,97.1z M77.926,96.561l0.506-0.03l0.03,0.321
		l-0.506,0.029L77.926,96.561z M77.879,96.065l0.507-0.029l0.025,0.276l-0.507,0.029L77.879,96.065z M77.832,95.559l0.506-0.031
		l0.026,0.289l-0.506,0.028L77.832,95.559z M77.811,95.339l-0.03-0.322l0.506-0.031l0.031,0.323L77.811,95.339z M77.319,97.139
		l0.438-0.026l0.029,0.32l-0.439,0.023L77.319,97.139z M77.273,96.599l0.433-0.025l0.029,0.321l-0.435,0.025L77.273,96.599z
		 M77.23,96.102l0.429-0.025l0.026,0.278l-0.431,0.025L77.23,96.102z M77.188,95.598l0.424-0.026l0.027,0.287l-0.427,0.023
		L77.188,95.598z M77.141,95.056l0.421-0.025l0.03,0.322l-0.423,0.025L77.141,95.056z M76.538,97.185l0.563-0.033l0.027,0.316
		l-0.563,0.03L76.538,97.185z M76.491,96.646l0.564-0.034l0.027,0.321l-0.563,0.033L76.491,96.646z M76.448,96.147l0.564-0.032
		l0.023,0.278l-0.563,0.033L76.448,96.147z M76.404,95.646l0.565-0.035l0.024,0.285l-0.564,0.032L76.404,95.646z M76.356,95.104
		l0.565-0.034l0.028,0.323l-0.565,0.033L76.356,95.104z M75.747,97.232l0.572-0.034l0.028,0.313l-0.576,0.032L75.747,97.232z
		 M75.706,96.692l0.566-0.033L76.3,96.98l-0.569,0.032L75.706,96.692z M75.668,96.192l0.56-0.032l0.024,0.28l-0.563,0.033
		L75.668,96.192z M75.63,95.693l0.554-0.034l0.025,0.282l-0.558,0.032L75.63,95.693z M75.589,95.151l0.548-0.033l0.028,0.322
		l-0.551,0.034L75.589,95.151z M75.553,94.66l0.541-0.041l0.025,0.28l-0.545,0.033L75.553,94.66z M74.917,97.281l0.611-0.036
		l0.023,0.31l-0.612,0.033L74.917,97.281z M74.878,96.741l0.608-0.036l0.025,0.321l-0.61,0.036L74.878,96.741z M74.844,96.24
		l0.606-0.035l0.021,0.281l-0.607,0.036L74.844,96.24z M74.809,95.743l0.603-0.037l0.021,0.28l-0.604,0.035L74.809,95.743z
		 M74.771,95.201l0.6-0.037l0.024,0.323l-0.601,0.037L74.771,95.201z M74.737,94.719l0.597-0.044l0.021,0.271l-0.599,0.036
		L74.737,94.719z M74.722,94.5l-0.025-0.347l0.595-0.04l0.026,0.343L74.722,94.5z M74.035,97.442l-0.04-0.106l0.703-0.042
		L74.72,97.6l-0.394,0.021C74.201,97.626,74.086,97.554,74.035,97.442"/>
	<path clip-path="url(#SVGID_2_)" d="M72.692,97.746l0.851-0.346c-0.288-0.727-0.505-1.324-0.638-1.692
		c-0.045-0.124-0.08-0.219-0.103-0.281c-0.065-0.172-0.028-0.363,0.096-0.5l1.267-1.396c0.135-0.15,0.321-0.242,0.523-0.26
		l3.947-0.338c0.124-0.012,0.243,0.025,0.338,0.104c0.098,0.081,0.156,0.194,0.167,0.319l0.337,3.861
		c0.012,0.136-0.03,0.267-0.119,0.368c-0.089,0.103-0.213,0.163-0.347,0.17c-1.717,0.105-4.617,0.273-4.728,0.263
		c-0.074-0.01-0.115-0.015-0.157-0.026l-1.206,0.513L72.692,97.746z M73.942,97.625l-0.812,0.33l0.019,0.063l0.829-0.354
		C73.965,97.653,73.953,97.64,73.942,97.625"/>
	<path clip-path="url(#SVGID_2_)" fill="#D3EDFB" d="M52.838,105.31l4.176,3.908l0.292-0.024l2.563-5.191
		c0.035-0.069,0.008-0.153-0.062-0.188c-0.258-0.129-0.879-0.417-1.486-0.519c-1.511-0.252-2.832,0.034-4.045,0.667
		c-0.71,0.37-1.253,0.949-1.447,1.174C52.784,105.187,52.789,105.264,52.838,105.31"/>
	<path clip-path="url(#SVGID_2_)" d="M56.891,109.349l-4.176-3.907c-0.121-0.114-0.131-0.301-0.022-0.424
		c0.206-0.237,0.765-0.831,1.5-1.216c1.346-0.702,2.706-0.926,4.157-0.684c0.637,0.105,1.287,0.409,1.537,0.534
		c0.158,0.079,0.222,0.271,0.144,0.43l-2.564,5.191c-0.028,0.057-0.084,0.095-0.147,0.1l-0.291,0.024
		c-0.005,0.001-0.01,0.001-0.015,0.001C56.968,109.399,56.924,109.381,56.891,109.349 M59.691,103.958
		c-0.257-0.127-0.839-0.391-1.4-0.484c-1.371-0.229-2.657-0.017-3.932,0.649c-0.642,0.335-1.144,0.849-1.36,1.092l4.08,3.818
		l0.11-0.009L59.691,103.958z"/>
	<path clip-path="url(#SVGID_2_)" d="M71.238,93.486l-0.499,0.191c0,0-0.443,0.205-0.267,0.582c0.161,0.348,0.608,0.164,0.608,0.164
		l0.508-0.207c0,0,0.283-0.15,0.168-0.496C71.663,93.444,71.458,93.414,71.238,93.486"/>
	<path clip-path="url(#SVGID_2_)" d="M51.935,31.322v0.104v0.078v0.051c0,0.105,0.026,0.079,0.078,0.105
		c0.026-0.026,0.078-0.026,0.13-0.053c0.026-0.052,0.052-0.025,0.104-0.077c0.026-0.078,0.078-0.053,0.156-0.13
		c0.78-0.625,1.742-0.936,2.834-0.936c3.12,0,5.461,2.366,5.461,5.538v0.104v5.382v0.104c0,0.78-0.365,1.196-1.015,1.196
		c-0.676,0-0.936-0.338-0.936-1.248v-0.078v-4.577V36.73c0-2.054-0.39-2.912-1.69-3.744c-0.546-0.338-1.17-0.52-1.794-0.52
		c-1.456,0-2.807,1.04-3.146,2.418c-0.13,0.52-0.182,1.144-0.182,1.898v0.13l-0.026,4.68v0.182c0,0.65-0.39,1.066-0.962,1.066
		c-0.624,0-0.988-0.416-0.988-1.196v-0.052V26.746v-0.183c0-0.78,0.338-1.221,0.962-1.221c0.65,0,1.014,0.416,1.014,1.169v0.157
		V31.322z"/>
	
		<path clip-path="url(#SVGID_2_)" fill="none" stroke="#000000" stroke-width="0.5" stroke-linecap="round" stroke-linejoin="round" stroke-miterlimit="10" d="
		M51.935,31.322v0.104v0.078v0.051c0,0.105,0.026,0.079,0.078,0.105c0.026-0.026,0.078-0.026,0.13-0.053
		c0.026-0.052,0.052-0.025,0.104-0.077c0.026-0.078,0.078-0.053,0.156-0.13c0.78-0.625,1.742-0.936,2.834-0.936
		c3.12,0,5.461,2.366,5.461,5.538v0.104v5.382v0.104c0,0.78-0.365,1.196-1.015,1.196c-0.676,0-0.936-0.338-0.936-1.248v-0.078
		v-4.577V36.73c0-2.054-0.39-2.912-1.69-3.744c-0.546-0.338-1.17-0.52-1.794-0.52c-1.456,0-2.807,1.04-3.146,2.418
		c-0.13,0.52-0.182,1.144-0.182,1.898v0.13l-0.026,4.68v0.182c0,0.65-0.39,1.066-0.962,1.066c-0.624,0-0.988-0.416-0.988-1.196
		v-0.052V26.746v-0.183c0-0.78,0.338-1.221,0.962-1.221c0.65,0,1.014,0.416,1.014,1.169v0.157V31.322z"/>
	<path clip-path="url(#SVGID_2_)" d="M68.132,37.641H67.95c-0.13,0.025-0.156,0.025-0.156,0.155
		c-0.025,1.586,1.639,3.095,3.38,3.095c0.91,0,1.69-0.287,2.471-0.937c0.286-0.233,0.441-0.286,0.727-0.286
		c0.546,0,0.91,0.364,0.91,0.936c0,0.338-0.103,0.572-0.467,0.858c-1.092,0.91-2.289,1.352-3.667,1.352
		c-3.198-0.026-5.434-2.444-5.434-6.005c0-1.093,0.208-2.471,0.494-3.199c0.702-1.846,2.809-3.198,4.992-3.198
		c3.017,0,5.435,2.418,5.435,5.46c0,1.378-0.338,1.742-1.534,1.742l-6.891,0.027H68.132z M74.086,35.664
		c0.442,0,0.494-0.026,0.494-0.208c0-1.586-1.638-3.12-3.38-3.12c-1.794,0-3.458,1.534-3.458,3.172c0,0.13,0.078,0.182,0.235,0.182
		h0.233L74.086,35.664z"/>
	
		<path clip-path="url(#SVGID_2_)" fill="none" stroke="#000000" stroke-width="0.5" stroke-linecap="round" stroke-linejoin="round" stroke-miterlimit="10" d="
		M68.132,37.641H67.95c-0.13,0.025-0.156,0.025-0.156,0.155c-0.025,1.586,1.639,3.095,3.38,3.095c0.91,0,1.69-0.287,2.471-0.937
		c0.286-0.233,0.441-0.286,0.727-0.286c0.546,0,0.91,0.364,0.91,0.936c0,0.338-0.103,0.572-0.467,0.858
		c-1.092,0.91-2.289,1.352-3.667,1.352c-3.198-0.026-5.434-2.444-5.434-6.005c0-1.093,0.208-2.471,0.494-3.199
		c0.702-1.846,2.809-3.198,4.992-3.198c3.017,0,5.435,2.418,5.435,5.46c0,1.378-0.338,1.742-1.534,1.742l-6.891,0.027H68.132z
		 M74.086,35.664c0.442,0,0.494-0.026,0.494-0.208c0-1.586-1.638-3.12-3.38-3.12c-1.794,0-3.458,1.534-3.458,3.172
		c0,0.13,0.078,0.182,0.235,0.182h0.233L74.086,35.664z"/>
	<path clip-path="url(#SVGID_2_)" d="M96.402,37.641H96.22c-0.13,0.025-0.156,0.025-0.156,0.155
		c-0.024,1.586,1.64,3.095,3.381,3.095c0.909,0,1.689-0.287,2.471-0.937c0.286-0.233,0.44-0.286,0.727-0.286
		c0.546,0,0.91,0.364,0.91,0.936c0,0.338-0.103,0.572-0.467,0.858c-1.092,0.91-2.289,1.352-3.667,1.352
		c-3.198-0.026-5.434-2.444-5.434-6.005c0-1.093,0.208-2.471,0.493-3.199c0.702-1.846,2.81-3.198,4.992-3.198
		c3.018,0,5.436,2.418,5.436,5.46c0,1.378-0.338,1.742-1.534,1.742l-6.892,0.027H96.402z M102.355,35.664
		c0.442,0,0.494-0.026,0.494-0.208c0-1.586-1.638-3.12-3.38-3.12c-1.794,0-3.458,1.534-3.458,3.172c0,0.13,0.078,0.182,0.235,0.182
		h0.232L102.355,35.664z"/>
	
		<path clip-path="url(#SVGID_2_)" fill="none" stroke="#000000" stroke-width="0.5" stroke-linecap="round" stroke-linejoin="round" stroke-miterlimit="10" d="
		M96.402,37.641H96.22c-0.13,0.025-0.156,0.025-0.156,0.155c-0.024,1.586,1.64,3.095,3.381,3.095c0.909,0,1.689-0.287,2.471-0.937
		c0.286-0.233,0.44-0.286,0.727-0.286c0.546,0,0.91,0.364,0.91,0.936c0,0.338-0.103,0.572-0.467,0.858
		c-1.092,0.91-2.289,1.352-3.667,1.352c-3.198-0.026-5.434-2.444-5.434-6.005c0-1.093,0.208-2.471,0.493-3.199
		c0.702-1.846,2.81-3.198,4.992-3.198c3.018,0,5.436,2.418,5.436,5.46c0,1.378-0.338,1.742-1.534,1.742l-6.892,0.027H96.402z
		 M102.355,35.664c0.442,0,0.494-0.026,0.494-0.208c0-1.586-1.638-3.12-3.38-3.12c-1.794,0-3.458,1.534-3.458,3.172
		c0,0.13,0.078,0.182,0.235,0.182h0.232L102.355,35.664z"/>
	<path clip-path="url(#SVGID_2_)" d="M85.174,41.436v0.155c0,0.885-0.284,1.248-0.962,1.248c-0.676,0-0.986-0.363-0.986-1.195
		v-0.156v-9.387v-0.13c0-0.91,0.338-1.351,0.986-1.351c0.339,0,0.65,0.155,0.832,0.467c0.105,0.157,0.156,0.157,0.208,0.157
		c0.026,0,0.054,0,0.156-0.079c0.676-0.416,1.535-0.702,2.185-0.702c0.885,0,1.795,0.338,2.495,0.91c0.34,0.26,0.47,0.52,0.47,0.833
		c0,0.545-0.443,1.013-0.962,1.013c-0.184,0-0.286-0.052-0.572-0.233c-0.573-0.416-1.04-0.624-1.431-0.624
		c-1.509,0-2.419,1.143-2.419,3.015v0.157V41.436z"/>
	
		<path clip-path="url(#SVGID_2_)" fill="none" stroke="#000000" stroke-width="0.5" stroke-linecap="round" stroke-linejoin="round" stroke-miterlimit="10" d="
		M85.174,41.436v0.155c0,0.885-0.284,1.248-0.962,1.248c-0.676,0-0.986-0.363-0.986-1.195v-0.156v-9.387v-0.13
		c0-0.91,0.338-1.351,0.986-1.351c0.339,0,0.65,0.155,0.832,0.467c0.105,0.157,0.156,0.157,0.208,0.157c0.026,0,0.054,0,0.156-0.079
		c0.676-0.416,1.535-0.702,2.185-0.702c0.885,0,1.795,0.338,2.495,0.91c0.34,0.26,0.47,0.52,0.47,0.833
		c0,0.545-0.443,1.013-0.962,1.013c-0.184,0-0.286-0.052-0.572-0.233c-0.573-0.416-1.04-0.624-1.431-0.624
		c-1.509,0-2.419,1.143-2.419,3.015v0.157V41.436z"/>
	<path clip-path="url(#SVGID_2_)" d="M111.449,42.839c-0.65,0-1.118-0.441-1.118-1.065s0.494-1.119,1.144-1.119
		c0.624,0,1.118,0.495,1.118,1.092C112.593,42.398,112.099,42.839,111.449,42.839 M112.437,36.131v0.078
		c0,0.988-0.313,1.404-1.014,1.404c-0.676,0-0.988-0.364-0.988-1.221v-0.183v-9.542v-0.104c0-0.703,0.391-1.119,1.015-1.119
		s0.987,0.416,0.987,1.119v0.104V36.131z"/>
	
		<path clip-path="url(#SVGID_2_)" fill="none" stroke="#000000" stroke-width="0.5" stroke-linecap="round" stroke-linejoin="round" stroke-miterlimit="10" d="
		M111.449,42.839c-0.65,0-1.118-0.441-1.118-1.065s0.494-1.119,1.144-1.119c0.624,0,1.118,0.495,1.118,1.092
		C112.593,42.398,112.099,42.839,111.449,42.839z M112.437,36.131v0.078c0,0.988-0.313,1.404-1.014,1.404
		c-0.676,0-0.988-0.364-0.988-1.221v-0.183v-9.542v-0.104c0-0.703,0.391-1.119,1.015-1.119s0.987,0.416,0.987,1.119v0.104V36.131z"
		/>
</g>
</svg>
