<?xml version="1.0" encoding="utf-8"?>
<!-- Generator: Adobe Illustrator 16.0.0, SVG Export Plug-In . SVG Version: 6.00 Build 0)  -->
<!DOCTYPE svg PUBLIC "-//W3C//DTD SVG 1.1//EN" "http://www.w3.org/Graphics/SVG/1.1/DTD/svg11.dtd">
<svg version="1.1" id="レイヤー_1" xmlns="http://www.w3.org/2000/svg" xmlns:xlink="http://www.w3.org/1999/xlink" x="0px"
	 y="0px" width="32px" height="26px" viewBox="0 0 32 26" enable-background="new 0 0 32 26" xml:space="preserve">
<g id="XMLID_2_">
	<path id="XMLID_3_" fill="#FFFFFF" d="M1.572,12.93l-0.713-0.664c1.508-1.433,2.834-2.451,3.977-3.057s2.08-0.908,2.809-0.908
		c0.402,0,0.693,0.091,0.875,0.273s0.244,0.43,0.189,0.742c-0.068,0.378-0.758,1.979-2.07,4.805
		c-2.145,4.623-3.301,7.41-3.469,8.359c-0.031,0.184-0.016,0.336,0.051,0.459c0.066,0.125,0.15,0.186,0.25,0.186
		c0.402,0,1.576-0.807,3.521-2.422l0.605,0.742c-2.02,1.68-3.467,2.754-4.342,3.223s-1.564,0.703-2.066,0.703
		c-0.441,0-0.764-0.143-0.973-0.43c-0.207-0.285-0.266-0.684-0.176-1.191c0.287-1.627,1.932-5.605,4.934-11.934
		c0.141-0.3,0.232-0.566,0.273-0.801c0.047-0.261-0.045-0.391-0.271-0.391c-0.25,0-0.555,0.104-0.912,0.312S2.875,11.81,1.572,12.93
		z M11.265,0c0.391,0,0.688,0.134,0.893,0.4c0.203,0.267,0.27,0.608,0.195,1.025c-0.102,0.572-0.381,1.077-0.842,1.514
		s-0.93,0.654-1.408,0.654c-0.377,0-0.668-0.138-0.871-0.41C9.029,2.91,8.966,2.553,9.044,2.109
		c0.104-0.586,0.373-1.084,0.811-1.494S10.763,0,11.265,0z"/>
	<path id="XMLID_6_" fill="#FFFFFF" d="M16.581,12.988l-0.521-0.684c1.893-1.597,3.365-2.656,4.412-3.18
		c1.051-0.523,1.914-0.785,2.594-0.785c0.264,0,0.461,0.059,0.592,0.176s0.182,0.253,0.154,0.41
		c-0.02,0.117-0.088,0.325-0.205,0.625l-1.541,3.931c1.539-1.474,3.389-2.848,5.547-4.125c1.148-0.665,2.053-0.997,2.719-0.997
		c0.49,0,0.844,0.162,1.062,0.488c0.221,0.325,0.275,0.795,0.166,1.406c-0.07,0.404-0.207,0.858-0.408,1.366
		c-0.35,0.848-1.203,2.69-2.555,5.528c-1.271,2.656-1.982,4.42-2.137,5.293c-0.047,0.268-0.045,0.467,0.008,0.602
		c0.051,0.133,0.146,0.199,0.285,0.199c0.365,0,1.002-0.363,1.91-1.094c0.645-0.521,1.283-1.002,1.914-1.445l0.348,0.703
		c-1.391,1.322-2.779,2.385-4.166,3.188c-0.883,0.518-1.582,0.777-2.098,0.777c-0.479,0-0.818-0.18-1.018-0.537
		c-0.203-0.357-0.23-0.939-0.09-1.748c0.205-1.158,1.412-4.043,3.621-8.652c0.717-1.641,1.1-2.598,1.146-2.871
		c0.072-0.403-0.125-0.605-0.592-0.605c-0.502,0-1.197,0.274-2.088,0.821c-1.324,0.809-2.479,1.76-3.465,2.856
		c-0.627,0.705-1.246,1.826-1.857,3.363l-2.73,6.826h-2.811c0.873-1.955,1.662-3.826,2.365-5.613l2.99-7.433
		c0.115-0.299,0.186-0.515,0.209-0.646c0.061-0.352-0.033-0.528-0.285-0.528c-0.201,0-0.516,0.139-0.941,0.414
		C18.241,11.557,17.396,12.214,16.581,12.988z"/>
</g>
</svg>
