<?xml version="1.0" encoding="utf-8"?>
<!-- Generator: Adobe Illustrator 16.0.0, SVG Export Plug-In . SVG Version: 6.00 Build 0)  -->
<!DOCTYPE svg PUBLIC "-//W3C//DTD SVG 1.1//EN" "http://www.w3.org/Graphics/SVG/1.1/DTD/svg11.dtd">
<svg version="1.1" id="レイヤー_1" xmlns="http://www.w3.org/2000/svg" xmlns:xlink="http://www.w3.org/1999/xlink" x="0px"
	 y="0px" width="156px" height="17px" viewBox="0 0 156 17" enable-background="new 0 0 156 17" xml:space="preserve">
<g id="XMLID_11_">
	<path id="XMLID_12_" fill="#FFFFFF" d="M7.751,12.466c0.331,1.818-1.134,2.968-3.172,3.34c-1.671,0.305-2.871-0.179-4.076-1.058
		l1.167-1.633c0.468,0.631,1.659,1.218,2.609,1.046c0.682-0.138,1.586-0.482,1.434-1.323c-0.149-0.816-1.159-0.977-1.987-1.068
		c-1.505-0.16-3.367-0.535-3.686-2.292c-0.306-1.682,1.154-2.856,2.812-3.159c1.418-0.259,2.87,0.179,4.065,1.073L5.795,8.977
		C5.264,8.499,4.216,7.77,3.153,7.964C2.545,8.074,1.946,8.452,2.068,9.12c0.138,0.755,1.143,0.892,1.906,0.981
		C5.573,10.27,7.424,10.673,7.751,12.466z"/>
	<path id="XMLID_14_" fill="#FFFFFF" d="M24.03,3.157l1.257,9.346l-2.04,0.273l-0.517-3.838l-3.505,0.468l0.516,3.839l-2.04,0.273
		l-1.257-9.346l2.04-0.273l0.517,3.838l3.505-0.47L21.991,3.43L24.03,3.157z"/>
	<path id="XMLID_16_" fill="#FFFFFF" d="M43.352,10.677l-2.206,0.194l-0.943-1.733l-3.27,0.288l-0.596,1.871l-2.218,0.194
		l3.124-9.74l1.321-0.117L43.352,10.677z M39.413,7.529l-1.228-2.618c-0.226,0.803-0.491,1.886-0.747,2.792L39.413,7.529z"/>
	<path id="XMLID_19_" fill="#FFFFFF" d="M57.649,6.833l2.209,2.894l-2.313,0.108l-1.881-2.48l-1.543,0.073l0.12,2.563l-2.068,0.097
		L51.73,0.664l3.87-0.182c1.979-0.08,3.628,1.315,3.719,3.263C59.381,5.064,58.714,6.205,57.649,6.833z M54.044,5.756l1.786-0.083
		c0.835-0.041,1.481-0.814,1.435-1.832c-0.048-1.018-0.764-1.728-1.601-1.688l-1.786,0.083L54.044,5.756z"/>
	<path id="XMLID_22_" fill="#FFFFFF" d="M76.291,7.751l0.018,1.669l-6.973,0.082L69.233,0.08L75.976,0l0.017,1.671l-4.684,0.055
		l0.023,2.023l3.833-0.045l0.02,1.684L71.35,5.433l0.025,2.375L76.291,7.751z"/>
	<path id="XMLID_24_" fill="#FFFFFF" d="M104.476,5.146c0.622,0.594,0.98,1.449,0.923,2.352c-0.103,1.658-1.549,2.914-3.241,2.805
		l-3.93-0.249l0.591-9.413l3.928,0.25c1.425,0.09,2.482,1.305,2.395,2.698C105.104,4.165,104.852,4.716,104.476,5.146z
		 M103.332,7.367c0.044-0.715-0.342-1.332-0.866-1.391l-1.912-0.121l-0.168,2.66l1.876,0.12
		C102.812,8.669,103.287,8.094,103.332,7.367z M100.658,4.185l1.912,0.122c0.248-0.047,0.49-0.423,0.516-0.85
		c0.031-0.464-0.161-0.879-0.444-0.897l-1.875-0.119L100.658,4.185z"/>
	<path id="XMLID_28_" fill="#FFFFFF" d="M117.111,11.544l-2.049-0.204l0.941-9.38l2.05,0.206L117.111,11.544z"/>
	<path id="XMLID_30_" fill="#FFFFFF" d="M132.852,7.989c1.201,1.874,2.688,4.218,3.855,6.047l-2.725-0.388l-2.85-4.633l-0.994,0.594
		l-0.484,3.423l-2.038-0.289l1.326-9.334l2.036,0.29l-0.505,3.56c1.582-0.982,3.217-1.98,4.771-2.953l2.94,0.418L132.852,7.989z"/>
	<path id="XMLID_32_" fill="#FFFFFF" d="M153.369,15.359L153.05,17l-6.844-1.335l1.803-9.253l6.614,1.291l-0.318,1.642l-4.596-0.896
		l-0.386,1.986l3.761,0.733l-0.32,1.653l-3.765-0.732l-0.451,2.331L153.369,15.359z"/>
</g>
</svg>
