<?xml version="1.0" encoding="utf-8"?>
<!-- Generator: Adobe Illustrator 15.0.0, SVG Export Plug-In . SVG Version: 6.00 Build 0)  -->
<!DOCTYPE svg PUBLIC "-//W3C//DTD SVG 1.1//EN" "http://www.w3.org/Graphics/SVG/1.1/DTD/svg11.dtd">
<svg version="1.1" id="レイヤー_1" xmlns="http://www.w3.org/2000/svg" xmlns:xlink="http://www.w3.org/1999/xlink" x="0px"
	 y="0px" width="142.667px" height="33.295px" viewBox="0 0 142.667 33.295" enable-background="new 0 0 142.667 33.295"
	 xml:space="preserve">
<image display="none" overflow="visible" width="143" height="35" xlink:href="7B393586.jpg"  transform="matrix(0.9999 0 0 0.9999 -0.9497 -1.7012)">
</image>
<g display="none">
	<g display="inline">
		<path fill="#343C48" d="M35.903-27.8c0.296,0.829-0.263,1.469-1.135,1.797c-0.715,0.269-1.291,0.142-1.915-0.166
			c0.146-0.344,0.219-0.52,0.368-0.863c0.27,0.256,0.863,0.44,1.268,0.284c0.292-0.112,0.668-0.348,0.527-0.73
			c-0.137-0.372-0.607-0.371-0.988-0.348c-0.695,0.043-1.576,0.025-1.887-0.767c-0.298-0.759,0.268-1.438,1.01-1.717
			c0.635-0.239,1.346-0.147,1.968,0.185c-0.157,0.331-0.235,0.499-0.389,0.83c-0.283-0.186-0.825-0.445-1.298-0.268
			c-0.27,0.102-0.511,0.327-0.396,0.629c0.131,0.342,0.604,0.327,0.957,0.307C34.73-28.669,35.61-28.619,35.903-27.8z"/>
		<path fill="#343C48" d="M43.334-33.504c0.457,1.739,0.687,2.61,1.144,4.35c-0.355,0.094-0.535,0.141-0.89,0.237
			c-0.194-0.713-0.291-1.067-0.485-1.78c-0.621,0.169-0.931,0.256-1.55,0.436c0.206,0.709,0.309,1.065,0.514,1.774
			c-0.354,0.103-0.53,0.157-0.883,0.263c-0.517-1.724-0.776-2.587-1.292-4.311c0.369-0.11,0.553-0.165,0.923-0.272
			c0.206,0.709,0.31,1.065,0.516,1.774c0.624-0.181,0.936-0.269,1.562-0.439c-0.194-0.713-0.292-1.068-0.486-1.781
			C42.777-33.355,42.963-33.406,43.334-33.504z"/>
		<path fill="#343C48" d="M53.16-31.023c-0.388,0.065-0.582,0.099-0.969,0.168c-0.198-0.315-0.299-0.473-0.5-0.787
			c-0.579,0.105-0.869,0.162-1.446,0.276c-0.066,0.365-0.098,0.547-0.162,0.912c-0.388,0.078-0.582,0.117-0.97,0.199
			c0.319-1.906,0.493-2.858,0.877-4.765c0.242-0.047,0.364-0.071,0.606-0.116C51.651-33.503,52.165-32.68,53.16-31.023z
			 M51.261-32.372c-0.271-0.477-0.406-0.717-0.682-1.192c-0.063,0.391-0.129,0.919-0.198,1.36
			C50.733-32.272,50.908-32.307,51.261-32.372z"/>
		<path fill="#343C48" d="M60.192-33.387c0.425,0.533,0.635,0.798,1.05,1.335c-0.409,0.035-0.614,0.055-1.022,0.094
			c-0.358-0.457-0.541-0.684-0.906-1.138c-0.275,0.028-0.409,0.044-0.685,0.074c0.054,0.486,0.081,0.728,0.135,1.214
			c-0.365,0.041-0.549,0.062-0.914,0.105c-0.216-1.786-0.324-2.679-0.54-4.465c0.713-0.086,1.069-0.126,1.783-0.199
			c0.913-0.088,1.706,0.551,1.787,1.477C60.934-34.263,60.655-33.708,60.192-33.387z M58.541-33.816
			c0.321-0.035,0.481-0.053,0.803-0.086c0.376-0.039,0.649-0.418,0.603-0.901c-0.047-0.484-0.393-0.807-0.775-0.768
			c-0.327,0.033-0.492,0.05-0.819,0.086C58.425-34.817,58.466-34.484,58.541-33.816z"/>
		<path fill="#343C48" d="M69.304-33.206c0.001,0.318,0.004,0.477,0.005,0.795c-1.234,0.005-1.853,0.016-3.087,0.059
			c-0.063-1.798-0.096-2.696-0.158-4.494c1.248-0.044,1.872-0.056,3.12-0.063c0.001,0.319,0.002,0.479,0.003,0.799
			c-0.86,0.005-1.289,0.011-2.149,0.033c0.01,0.386,0.015,0.578,0.024,0.964c0.697-0.019,1.045-0.023,1.743-0.029
			c0.003,0.321,0.007,0.484,0.01,0.806c-0.692,0.006-1.042,0.012-1.734,0.029c0.012,0.453,0.021,0.68,0.033,1.133
			C67.991-33.197,68.427-33.202,69.304-33.206z"/>
		<path fill="#343C48" d="M83.399-34.01c-0.003,0.13,0.39,0.716,0.329,1.144c-0.11,0.784-0.799,1.335-1.546,1.24
			c-0.693-0.088-1.039-0.13-1.733-0.205c0.194-1.788,0.29-2.683,0.487-4.471c0.726,0.079,1.089,0.122,1.813,0.214
			c0.656,0.083,1.102,0.697,1.011,1.357C83.722-34.458,83.401-34.084,83.399-34.01z M81.691-34.571
			c0.348,0.041,0.52,0.063,0.867,0.106c0.115-0.017,0.238-0.188,0.265-0.39c0.028-0.221-0.045-0.425-0.174-0.441
			c-0.343-0.044-0.515-0.065-0.858-0.105C81.751-35.07,81.73-34.902,81.691-34.571z M82.805-32.991
			c0.045-0.339-0.11-0.643-0.346-0.685c-0.345-0.044-0.516-0.063-0.86-0.104c-0.06,0.505-0.09,0.757-0.149,1.262
			c0.334,0.039,0.5,0.062,0.834,0.104C82.529-32.384,82.76-32.646,82.805-32.991z"/>
		<path fill="#343C48" d="M89.409-30.441c-0.359-0.072-0.538-0.108-0.897-0.178c0.34-1.767,0.511-2.647,0.853-4.414
			c0.376,0.072,0.564,0.107,0.939,0.184C89.945-33.087,89.765-32.204,89.409-30.441z"/>
		<path fill="#343C48" d="M97.301-31.203c0.425,0.953,0.923,2.148,1.301,3.084c-0.472-0.144-0.707-0.214-1.18-0.352
			c-0.374-0.94-0.567-1.408-0.968-2.346c-0.195,0.091-0.293,0.137-0.487,0.229c-0.171,0.637-0.255,0.956-0.427,1.593
			c-0.355-0.096-0.533-0.145-0.889-0.237c0.451-1.741,0.677-2.611,1.129-4.353c0.372,0.097,0.558,0.146,0.929,0.246
			c-0.179,0.663-0.27,0.995-0.448,1.657c0.78-0.38,1.601-0.758,2.387-1.116c0.533,0.155,0.8,0.237,1.332,0.399
			C98.895-31.934,98.359-31.695,97.301-31.203z"/>
		<path fill="#343C48" d="M106.574-26.175c-0.117,0.297-0.176,0.442-0.293,0.739c-1.169-0.463-1.757-0.683-2.937-1.107
			c0.609-1.693,0.912-2.542,1.521-4.235c1.192,0.429,1.786,0.651,2.968,1.118c-0.117,0.297-0.175,0.444-0.292,0.741
			c-0.814-0.321-1.223-0.477-2.042-0.78c-0.134,0.362-0.203,0.546-0.337,0.908c0.665,0.246,0.996,0.373,1.657,0.631
			c-0.117,0.3-0.174,0.447-0.291,0.747c-0.656-0.256-0.987-0.379-1.646-0.623c-0.157,0.426-0.234,0.636-0.392,1.062
			C105.327-26.665,105.743-26.504,106.574-26.175z"/>
	</g>
</g>
<g display="none">
</g>
<g>
	<g>
		<path fill="#343C48" d="M15.673,33.295h-2.881v-7.887l-4.033,7.887H7.012l-4.033-7.887v7.887H0.098V19.791h3.097l4.681,9.146
			c1.531-2.989,3.151-6.194,4.682-9.146h3.115V33.295z"/>
		<path fill="#343C48" d="M27.081,33.295H24.2V19.791h2.881V33.295z"/>
		<path fill="#343C48" d="M48.036,33.295h-3.079l-5.978-8.859v8.859H36.08V19.791h3.061l5.996,8.876v-8.876h2.899V33.295z"/>
		<path fill="#343C48" d="M68.141,33.295h-3.097l-1.099-2.594h-4.591l-1.063,2.594h-3.114l5.563-13.504h1.855L68.141,33.295z
			 M63.045,28.307l-1.386-3.889c-0.415,1.116-0.919,2.629-1.387,3.889H63.045z"/>
		<path fill="#343C48" d="M80.811,29.945h-2.539v3.35h-2.898V19.791h5.438c2.736,0.018,4.951,2.286,4.951,5.076
			C85.762,27.677,83.547,29.928,80.811,29.945z M82.881,24.867c0-1.457-0.953-2.682-2.105-2.682h-2.504v5.365h2.504
			C81.928,27.551,82.881,26.344,82.881,24.867z"/>
		<path fill="#343C48" d="M106.915,26.543c0,3.925-3.098,6.914-6.934,6.914c-3.834,0-6.932-2.989-6.932-6.914
			c0-3.908,3.098-6.896,6.932-6.896C103.817,19.646,106.915,22.635,106.915,26.543z M95.93,26.543c0,2.286,1.674,4.52,4.051,4.52
			c2.414,0,4.053-2.197,4.053-4.52c0-2.323-1.639-4.502-4.053-4.502C97.604,22.041,95.93,24.238,95.93,26.543z"/>
		<path fill="#343C48" d="M122.663,29.01l2.898,4.285h-3.242l-2.467-3.674h-2.16v3.674h-2.898V19.791h5.42
			c2.771,0.018,4.986,2.124,4.986,4.915C125.2,26.596,124.192,28.182,122.663,29.01z M117.692,27.227h2.504
			c1.17,0,2.123-1.063,2.123-2.521s-0.953-2.521-2.123-2.521h-2.504V27.227z"/>
		<path fill="#343C48" d="M142.606,22.186h-3.908v11.109h-2.898V22.186h-3.906v-2.395h10.713V22.186z"/>
	</g>
	<g>
		<g>
			<path fill="#343C48" d="M34.642,8.194c0.237,0.85-0.408,1.454-1.355,1.731c-0.776,0.228-1.369,0.064-1.992-0.283
				c0.186-0.336,0.28-0.503,0.469-0.838c0.257,0.273,0.86,0.49,1.298,0.357c0.316-0.096,0.732-0.308,0.621-0.699
				c-0.109-0.38-0.601-0.408-1.001-0.408c-0.729,0-1.648-0.068-1.897-0.883c-0.238-0.779,0.414-1.425,1.21-1.658
				c0.681-0.199,1.412-0.063,2.031,0.308c-0.193,0.322-0.287,0.482-0.477,0.805c-0.278-0.201-0.822-0.497-1.331-0.349
				c-0.29,0.085-0.562,0.298-0.469,0.607c0.104,0.351,0.601,0.362,0.97,0.364C33.492,7.252,34.408,7.356,34.642,8.194z"/>
			<path fill="#343C48" d="M42.88,2.85c0.365,1.763,0.546,2.644,0.91,4.406c-0.382,0.079-0.574,0.119-0.956,0.201
				c-0.154-0.723-0.231-1.086-0.386-1.809c-0.665,0.143-0.999,0.217-1.663,0.367c0.164,0.721,0.246,1.08,0.41,1.801
				c-0.381,0.087-0.571,0.131-0.951,0.22c-0.411-1.752-0.617-2.628-1.029-4.38c0.394-0.093,0.591-0.135,0.984-0.225
				c0.164,0.721,0.246,1.08,0.409,1.801c0.668-0.151,1.002-0.225,1.671-0.368c-0.155-0.723-0.231-1.085-0.386-1.808
				C42.287,2.973,42.485,2.932,42.88,2.85z"/>
			<path fill="#343C48" d="M53.106,5.672c-0.414,0.056-0.621,0.084-1.035,0.143c-0.195-0.321-0.293-0.48-0.49-0.801
				c-0.618,0.089-0.927,0.134-1.544,0.23c-0.09,0.363-0.134,0.547-0.222,0.91c-0.416,0.066-0.624,0.101-1.039,0.17
				c0.446-1.899,0.684-2.849,1.179-4.745c0.256-0.039,0.383-0.059,0.64-0.097C51.625,3.149,52.127,3.987,53.106,5.672z
				 M51.163,4.269C50.9,3.783,50.766,3.537,50.5,3.053c-0.085,0.391-0.18,0.917-0.274,1.356C50.6,4.352,50.787,4.323,51.163,4.269z"
				/>
			<path fill="#343C48" d="M60.665,3.448c0.436,0.54,0.652,0.811,1.082,1.354c-0.436,0.029-0.654,0.047-1.09,0.08
				c-0.369-0.463-0.555-0.697-0.93-1.157c-0.293,0.024-0.439,0.037-0.732,0.063c0.043,0.487,0.066,0.734,0.107,1.222
				c-0.391,0.034-0.586,0.053-0.975,0.09c-0.17-1.792-0.254-2.688-0.428-4.479c0.754-0.071,1.131-0.104,1.885-0.166
				c0.963-0.072,1.783,0.576,1.848,1.504C61.475,2.586,61.165,3.135,60.665,3.448z M58.926,2.993c0.342-0.03,0.512-0.042,0.854-0.07
				c0.398-0.032,0.699-0.409,0.662-0.894s-0.395-0.813-0.799-0.78c-0.346,0.028-0.518,0.044-0.863,0.074
				C58.838,1.992,58.868,2.324,58.926,2.993z"/>
			<path fill="#343C48" d="M70.354,3.7c0,0.318,0.002,0.479,0.002,0.797c-1.314,0.005-1.973,0.015-3.287,0.051
				c-0.051-1.799-0.076-2.698-0.129-4.497C68.254,0.015,68.911,0.006,70.225,0c0.002,0.319,0.004,0.477,0.006,0.796
				c-0.908,0.004-1.361,0.011-2.27,0.029c0.008,0.386,0.012,0.581,0.02,0.967c0.738-0.016,1.107-0.022,1.846-0.027
				c0.002,0.321,0.006,0.48,0.008,0.802c-0.734,0.005-1.104,0.012-1.836,0.027c0.01,0.454,0.014,0.68,0.023,1.134
				C68.954,3.708,69.42,3.703,70.354,3.7z"/>
			<path fill="#343C48" d="M85.305,2.746c0,0.126,0.439,0.715,0.391,1.144c-0.086,0.787-0.797,1.353-1.594,1.272
				c-0.74-0.074-1.111-0.109-1.852-0.173c0.154-1.792,0.23-2.689,0.387-4.481c0.766,0.066,1.146,0.101,1.91,0.177
				c0.693,0.069,1.186,0.676,1.113,1.337C85.629,2.296,85.305,2.678,85.305,2.746z M83.483,2.22c0.367,0.034,0.553,0.053,0.92,0.09
				c0.121-0.019,0.246-0.19,0.268-0.394c0.021-0.221-0.064-0.424-0.201-0.438c-0.363-0.036-0.545-0.055-0.908-0.089
				C83.53,1.722,83.514,1.888,83.483,2.22z M84.711,3.781c0.035-0.34-0.135-0.641-0.387-0.678c-0.365-0.037-0.547-0.054-0.912-0.088
				c-0.047,0.507-0.072,0.76-0.119,1.267c0.355,0.033,0.531,0.05,0.887,0.085C84.442,4.394,84.674,4.127,84.711,3.781z"/>
			<path fill="#343C48" d="M91.838,6.164c-0.385-0.062-0.574-0.091-0.959-0.149c0.271-1.778,0.402-2.668,0.674-4.446
				c0.396,0.061,0.598,0.092,0.996,0.155C92.264,3.501,92.124,4.387,91.838,6.164z"/>
			<path fill="#343C48" d="M100.129,5.097c0.512,0.936,1.129,2.112,1.602,3.032c-0.51-0.121-0.764-0.179-1.273-0.295
				c-0.465-0.926-0.703-1.387-1.188-2.309c-0.199,0.1-0.301,0.148-0.498,0.249c-0.137,0.645-0.205,0.967-0.342,1.612
				c-0.383-0.081-0.572-0.121-0.955-0.199c0.359-1.764,0.537-2.643,0.898-4.406c0.395,0.081,0.594,0.121,0.988,0.205
				c-0.143,0.672-0.213,1.008-0.355,1.68c0.793-0.414,1.625-0.827,2.422-1.225c0.568,0.129,0.848,0.194,1.416,0.33
				C101.747,4.291,101.206,4.555,100.129,5.097z"/>
			<path fill="#343C48" d="M110.29,9.637c-0.094,0.305-0.141,0.457-0.234,0.762c-1.271-0.392-1.912-0.58-3.189-0.938
				c0.486-1.733,0.729-2.598,1.217-4.331c1.277,0.358,1.916,0.547,3.186,0.937c-0.094,0.306-0.141,0.46-0.234,0.765
				c-0.877-0.27-1.318-0.399-2.199-0.653c-0.107,0.371-0.16,0.556-0.268,0.927c0.717,0.207,1.074,0.312,1.789,0.528
				c-0.094,0.308-0.141,0.46-0.234,0.768c-0.709-0.216-1.064-0.32-1.777-0.525c-0.125,0.436-0.188,0.656-0.314,1.092
				C108.936,9.228,109.387,9.359,110.29,9.637z"/>
		</g>
	</g>
</g>
</svg>
